<?xml version="1.0" encoding="UTF-8"?>
<svg width="585px" height="874px" viewBox="0 0 585 874" version="1.1" xmlns="http://www.w3.org/2000/svg" xmlns:xlink="http://www.w3.org/1999/xlink">
    <!-- Generator: Sketch 43 (38999) - http://www.bohemiancoding.com/sketch -->
    <title>community</title>
    <desc>Created with Sketch.</desc>
    <defs>
        <linearGradient x1="24.7638409%" y1="9.91792416%" x2="77.0842177%" y2="100%" id="linearGradient-1">
            <stop stop-color="#D49BA7" offset="0%"></stop>
            <stop stop-color="#A66F7A" offset="44.7913784%"></stop>
            <stop stop-color="#8E5863" offset="100%"></stop>
        </linearGradient>
        <linearGradient x1="94.8622048%" y1="7.82152303%" x2="20.7612293%" y2="98.2090728%" id="linearGradient-2">
            <stop stop-color="#D49BA7" offset="0%"></stop>
            <stop stop-color="#A66F7A" offset="44.7913784%"></stop>
            <stop stop-color="#8E5863" offset="100%"></stop>
        </linearGradient>
        <linearGradient x1="25.2303658%" y1="24.2726784%" x2="65.5874929%" y2="81.7118422%" id="linearGradient-3">
            <stop stop-color="#C0375A" offset="0%"></stop>
            <stop stop-color="#D49BA7" offset="100%"></stop>
        </linearGradient>
        <linearGradient x1="22.428511%" y1="12.1124148%" x2="62.584034%" y2="76.8075186%" id="linearGradient-4">
            <stop stop-color="#750723" offset="0%"></stop>
            <stop stop-color="#8E5864" offset="100%"></stop>
        </linearGradient>
        <linearGradient x1="19.6886511%" y1="12.1124148%" x2="72.9750641%" y2="100%" id="linearGradient-5">
            <stop stop-color="#750723" offset="0%"></stop>
            <stop stop-color="#8E5864" offset="100%"></stop>
        </linearGradient>
        <linearGradient x1="23.3391249%" y1="12.1124148%" x2="62.1684164%" y2="76.8075186%" id="linearGradient-6">
            <stop stop-color="#750723" offset="0%"></stop>
            <stop stop-color="#8E5864" offset="100%"></stop>
        </linearGradient>
    </defs>
    <g id="Page-1" stroke="none" stroke-width="1" fill="none" fill-rule="evenodd">
        <g id="community" transform="translate(5.000000, 0.000000)">
            <g id="Group-4" transform="translate(310.500000, 436.000000) scale(-1, 1) translate(-310.500000, -436.000000) ">
                <path d="M348.5,89.5 C364.833333,76.1666667 384.833333,69.5 408.5,69.5 C432.166667,69.5 451.166667,72.5833333 465.5,78.75 L479.5,74.5 L490.5,74.5 L511.5,95 L519,115 L524,141 L528,157.5 L542,187.5 L552.5,207.5 L487,234 L275.5,243.5 L275.5,228.5 L287,204 L287,183.5 C286.58378,166.952704 287.250446,154.119371 289,145 C290.538672,136.979828 294.987851,121.590758 299.5,112 C302.864194,104.849269 306.416917,102.605782 308,100 C315.327774,87.9383546 328.827774,84.4383546 348.5,89.5 Z" id="Line-16" fill="#279BCA" fill-rule="nonzero"></path>
                <path d="M548,204 C538.114143,183.953913 531.614143,169.453913 528.5,160.5 C525.385857,151.546087 523.052524,140.648118 521.5,127.806094 C516.166667,104.602031 506,89.3333333 491,82 C476,74.6666667 460.666667,83.5 445,108.5 C446.240868,100.370281 447.740868,94.8702811 449.5,92 C460.060496,74.7690054 476.46488,70.3993949 493,76 C503.167607,79.4438669 518.44783,95.7657106 524.666641,127.806094 C527,139.827957 526.569099,145.766586 530.5,157.5 C533.482948,166.403851 540.649614,182.403851 552,205.5 L548,204 Z" id="Line" fill="#00709D" fill-rule="nonzero"></path>
                <path d="M363,237.5 C356.839808,213.161593 353.228689,196.994926 352.166641,189 C351.225511,181.915313 354.656505,171.32523 353.5,168 C350.385857,159.046087 348.885857,148.731451 349,137.056094 C343.666667,113.685365 333.5,98.3333333 318.5,91 C303.5,83.6666667 288.5,91.0833333 273.5,113.25 C284.166667,87.5833333 299.833333,78.25 320.5,85.25 C330.667607,88.6938669 345.94783,105.015711 352.166641,137.056094 C354.5,149.077957 354.069099,155.016586 358,166.75 C359.47233,171.144782 356.356946,186.046652 358,198 C359.123855,206.176133 362.457188,220.176133 368,240 L363,237.5 Z" id="Line" fill="#00709D" fill-rule="nonzero" transform="translate(320.750000, 161.500000) scale(-1, 1) translate(-320.750000, -161.500000) "></path>
                <path d="M613.5,272.5 C591.833333,291.5 582.333333,315 585,343 C587.666667,371 599.166667,389.833333 619.5,399.5 C595.833333,411.166667 580.333333,427.666667 573,449 C565.666667,470.333333 568.333333,487 581,499 C566.666667,495.666667 553.333333,500.833333 541,514.5 C528.666667,528.166667 521.833333,540.5 520.5,551.5 L410,436 C409.610224,425.793313 410.110224,419.293313 411.5,416.5 C412.889776,413.706687 429.72311,385.04002 462,330.5 L613.5,272.5 Z" id="Line-23" stroke="#279BCA" stroke-width="5" fill="#025B7F" fill-rule="nonzero" stroke-linecap="square"></path>
                <path d="M407.5,407 C471.646126,390.333333 513.479459,382 533,382 C552.520541,382 581.687208,388.166667 620.5,400.5 C572.467818,394.451227 536.967818,392.451227 514,394.5 C491.032182,396.548773 455.532182,404.882106 407.5,419.5 L407.5,407 Z" id="Line-24" fill="#279BCA" fill-rule="nonzero"></path>
                <path d="M580.5,499.5 C559.92414,485.249723 543.257474,476.583056 530.5,473.5 C517.742526,470.416944 494.409193,469.416944 460.5,470.5 L465,481.5 C484.333333,478.166667 502.833333,477.5 520.5,479.5 C538.166667,481.5 558.166667,488.166667 580.5,499.5 Z" id="Line-25" fill="#279BCA" fill-rule="nonzero"></path>
                <path d="M457.5,332.5 C483.682277,316.603777 510.51561,303.43711 538,293 C565.48439,282.56289 590.151056,275.896223 612,273 C563.694871,292.543185 536.361538,303.709852 530,306.5 C523.638462,309.290148 495.138462,322.956815 444.5,347.5" id="Line-22" fill="#279BCA" fill-rule="nonzero"></path>
                <g id="Group-3" transform="translate(186.867947, 400.750000) rotate(16.000000) translate(-186.867947, -400.750000) translate(23.867947, 291.250000)" fill-rule="nonzero">
                    <path d="M1.5,31.5 C38.1666667,31.5 61.1666667,41.5 70.5,61.5 C79.8333333,81.5 72.8333333,109.5 49.5,145.5 C78.3342092,136.844366 100.500876,139.844366 116,154.5 C131.499124,169.155634 133.832457,189.322301 123,215 C143.666667,191.333333 165.5,181.5 188.5,185.5 C211.5,189.5 225.166667,200.666667 229.5,219 C235.833333,196.666667 247.166667,179.166667 263.5,166.5 C279.833333,153.833333 299.5,148 322.5,149 C324.863766,140.626521 320.030432,130.959855 308,120 C260.804064,77.0039891 179.280778,22.8519983 151,12.5 C111.905897,-1.81014678 62.0725635,4.52318655 1.5,31.5 Z" id="Line-21" stroke="#279BCA" stroke-width="5" fill="#025B7F" stroke-linecap="square"></path>
                    <path d="M317.5,133.5 C255.833333,74.5 201.666667,37 155,21 C108.333333,5 56.8333333,8.5 0.5,31.5 C44.5,3.5 89.1666667,-5.83333333 134.5,3.5 C174.205226,11.6746054 231.20148,43.7300833 297.5,101 C303.765089,106.411903 313.098422,115.078569 325.5,127 L317.5,133.5 Z" id="Line-17" fill="#279BCA"></path>
                    <path d="M52,144 C61.3352185,133.389883 68.3352185,126.05655 73,122 C86.568148,110.200976 100.812872,101.707284 136,90.5 C179.415619,76.6718989 222.873705,72.1641043 259,83.5 C264.501711,85.2263553 271.335044,89.5596886 279.5,96.5 C252.5,83.3068444 215.833333,81.3068444 169.5,90.5 C123.166667,99.6931556 84,117.526489 52,144 Z" id="Line-18" fill="#279BCA"></path>
                    <path d="M281.5,101 L281.5,91.5 C256.948061,96.6428101 239.448061,100.809477 229,104 C209.681326,109.899341 192.072884,121.283714 180.5,130 C159.538723,145.787291 140.538723,174.287291 123.5,215.5 C125.516034,213.461787 127.849368,210.128453 130.5,205.5 C145.446298,179.401232 169.907384,146.32418 196.5,130 C230.166667,109.333333 258.5,99.6666667 281.5,101 Z" id="Line-19" fill="#279BCA"></path>
                    <path d="M286,101 C282.030735,101.737571 279.197402,102.737571 277.5,104 C260.540186,116.613729 249.376115,132.3783 243,146 C235.666667,161.666667 231.166667,185.5 229.5,217.5 C224.833333,187.833333 226.833333,163 235.5,143 C243.307422,124.982871 256.789957,108.131191 276.5,98.5 C277.946123,97.7933608 281.11279,98.6266941 286,101 Z" id="Line-20" fill="#279BCA"></path>
                </g>
                <path d="M395.5,727.5 C391.413916,766.117721 391.413916,789.784388 395.5,798.5 C397.267352,802.26976 408.773934,802.060602 413,794.5 C418.247366,785.112252 421.806719,783.364168 423,777 C424.5,769 424.540037,757.858819 425.5,758 C428.070177,758.377994 423.761802,791.575597 425.5,796 C431.055113,810.139969 438.417839,811.154147 441,810.5 C442.659691,810.079545 452.439482,802.47985 455.5,791.5 C458.660315,780.16212 455.135706,765.417992 459,764 C463.083627,762.501525 458,796 465.5,800.5 C471.979798,804.387879 479.66043,785.782741 482,773.5 C484.666667,759.5 480.833333,737.833333 470.5,708.5 C449.334263,710.928653 434.334263,713.261987 425.5,715.5 C416.665737,717.738013 406.665737,721.738013 395.5,727.5 Z" id="Line-14" stroke="#025B7F" stroke-width="5" fill="#00709D" fill-rule="nonzero" stroke-linecap="square"></path>
                <path d="M238.5,599.5 C218.721861,627.949685 207.221861,651.449685 204,670 C197.935755,704.915738 209.145955,739.397585 208.5,766.5 C208.085584,783.887696 196.948669,799.948051 192.5,805.5 C175.963827,826.137181 142.5,838.5 120.5,815.5 C105.833333,800.166667 105.833333,776 120.5,743 C100.5,759.666667 89.1666667,779.833333 86.5,803.5 C84.1167401,824.651431 98.3967063,840.968081 103.5,846 C138.684324,880.692235 206.965973,880.630182 254.5,838.5 C265.742431,828.53565 274.409098,807.53565 280.5,775.5 L340,731.5 L363,721.5 C373.333333,728.166667 385.833333,730.333333 400.5,728 C415.166667,725.666667 438.166667,719.333333 469.5,709 C498.5,691.333333 516.666667,665 524,630 C531.333333,595 526.333333,562.333333 509,532 L478,489.5 C473.506133,476.990431 468.839467,468.823764 464,465 C435.714754,442.651234 411,442.651234 411,429.5 C411,416.348766 433.211237,404.093256 446,381 C450.819396,372.297396 454.819396,358.797396 458,340.5 L367.5,333 L363,359.5 L342,374.5 L326.5,389.5 L323,401 L324.5,425 L326.5,444.5 C326.527824,447.513745 325.361158,452.680412 323,460 C320.638842,467.319588 318.472176,472.486255 316.5,475.5 L312.5,489.5 C310.102998,494.986441 309.269665,501.153108 310,508 C310.730335,514.846892 312.897002,521.180225 316.5,527 L303,543 L280.5,558 L243.5,589.5 L238.5,599.5 Z" id="Line-15" stroke="#00709D" stroke-width="5" fill="#279BCA" fill-rule="nonzero" stroke-linecap="square"></path>
                <path d="M370.5,715.5 C388.166667,714.166667 408.333333,711.333333 431,707 C453.666667,702.666667 479.833333,688.833333 509.5,665.5 C497.833333,688.833333 477.666667,705.5 449,715.5 C429.612053,722.263237 410.320649,728.09797 392,728 C386.154714,727.968742 377.654714,726.302076 366.5,723 C366.003654,720.930648 366.003654,719.430648 366.5,718.5 C366.996346,717.569352 368.329679,716.569352 370.5,715.5 Z" id="Line-36" fill="#00709D" fill-rule="nonzero"></path>
                <path d="M390.5,359.5 C388.469363,371.368837 386.13603,379.035504 383.5,382.5 C379.545955,387.696744 354.5,402.5 350,412.511123 C345.5,422.522246 351.209665,443.454603 366,461 C380.790335,478.545397 406.663346,480.20656 417.5,478.5 C424.724436,477.362294 439.557769,473.195627 462,466 L414,436.5 L411.5,423.5 L426,405.5 L446,382.5 L456.5,352.5 L456.5,346 L390.5,359.5 Z" id="Line-31" fill="#00709D" fill-rule="nonzero"></path>
                <path d="M85.5,807.5 C104.833333,850.5 136.833333,862 181.5,842 C226.166667,822 249.333333,770.333333 251,687 L295,732.5 L269,819.5 C238.666667,860.166667 201.5,876.833333 157.5,869.5 C113.5,862.166667 89.5,841.5 85.5,807.5 Z" id="Line-33" fill="#00709D" fill-rule="nonzero"></path>
                <path d="M238.5,599.5 C218.721861,627.949685 207.221861,651.449685 204,670 C197.935755,704.915738 209.145955,739.397585 208.5,766.5 C208.085584,783.887696 196.948669,799.948051 192.5,805.5 C175.963827,826.137181 142.5,838.5 120.5,815.5 C105.833333,800.166667 105.833333,776 120.5,743 C100.5,759.666667 89.1666667,779.833333 86.5,803.5 C84.1167401,824.651431 98.3967063,840.968081 103.5,846 C138.684324,880.692235 206.965973,880.630182 254.5,838.5 C265.742431,828.53565 274.409098,807.53565 280.5,775.5 L340,731.5 L363,721.5 C379.333333,728.166667 398.666667,729.333333 421,725 C443.333333,720.666667 459.5,715.333333 469.5,709 C498.5,691.333333 516.666667,665 524,630 C531.333333,595 526.333333,562.333333 509,532 L478,489.5 C473.506133,476.990431 468.839467,468.823764 464,465 C435.714754,442.651234 411,442.651234 411,429.5 C411,416.348766 433.211237,404.093256 446,381 C450.819396,372.297396 454.819396,358.797396 458,340.5 L367.5,333 L363,359.5 L342,374.5 L326.5,389.5 L323,401 L324.5,425 L326.5,444.5 C326.527824,447.513745 325.361158,452.680412 323,460 C320.638842,467.319588 318.472176,472.486255 316.5,475.5 L312.5,489.5 C310.102998,494.986441 309.269665,501.153108 310,508 C310.730335,514.846892 312.897002,521.180225 316.5,527 L303,543 L280.5,558 L245,590 L238.5,599.5 Z" id="Line-15" stroke="#00709D" stroke-width="5" stroke-linecap="square"></path>
                <g id="Group-2" transform="translate(306.000000, 143.000000)" fill-rule="nonzero">
                    <path d="M6.56138795,82.8853503 L44.2673784,91.8853503 L65.2151509,67.8853503 C65.91341,19.2186837 54.3921351,-3.28131635 30.6513263,0.385350318 C23.4773757,1.4933364 13.404922,7.16000306 0.4339652,17.3853503 C-0.144655067,32.2001026 -0.144655067,42.7001026 0.4339652,48.8853503 C1.01258547,55.070598 3.05505972,66.4039314 6.56138795,82.8853503 Z" id="Line-30" fill="#FFFFFF"></path>
                    <g id="Group" transform="translate(11.000000, 24.000000)">
                        <ellipse id="Oval" fill="#EB5B79" cx="25.5" cy="32.5" rx="25.5" ry="32.5"></ellipse>
                        <ellipse id="Oval" fill="#000000" cx="27.5" cy="35" rx="23.5" ry="30"></ellipse>
                        <circle id="Oval" fill="#FFFFFF" cx="14" cy="17" r="6"></circle>
                    </g>
                </g>
                <path d="M361.5,724.5 C392.166667,734.833333 421,735.166667 448,725.5 C475,715.833333 497.5,694.833333 515.5,662.5 C497.5,691.5 475.833333,710.833333 450.5,720.5 C425.166667,730.166667 395.5,731.5 361.5,724.5 Z" id="Line-37" fill="#025B7F" fill-rule="nonzero"></path>
                <path d="M385.976619,181.519206 C399.276253,179.803787 408.450713,178.946078 413.5,178.946078 C418.549287,178.946078 427.723746,179.803787 441.023379,181.519206 L441.02338,181.519204 C445.012975,182.033791 448,185.430834 448,189.453479 L448,190.446078 C448,194.304986 444.871737,197.433248 441.01283,197.433248 C440.709209,197.433248 440.40591,197.413458 440.104863,197.374003 C427.754613,195.755384 419.219658,194.946078 414.5,194.946078 C409.709993,194.946078 400.513751,195.77969 386.911277,197.446913 L386.911273,197.446889 C383.044833,197.920789 379.526291,195.170592 379.05239,191.304151 C379.017496,191.019458 379,190.732902 379,190.446078 L379.000001,189.453478 C379.000001,185.430835 381.987024,182.033794 385.976619,181.519206 Z" id="Rectangle" fill="#36A8D7" fill-rule="nonzero"></path>
                <path d="M384.028853,160.562213 C398.289828,158.818123 408.113545,157.946078 413.500002,157.946078 C418.886459,157.946078 428.710174,158.818123 442.971147,160.562213 L442.971148,160.562209 C446.983952,161.052967 450.000002,164.460346 450.000002,168.503049 L450.000002,169.446078 C450.000002,173.332634 446.849326,176.483309 442.962771,176.483309 C442.672332,176.483309 442.382172,176.465329 442.093956,176.429472 C428.786609,174.773872 419.607947,173.946078 414.557973,173.946078 C409.437721,173.946078 399.558595,174.797072 384.920597,176.499061 L384.920601,176.499094 C381.025328,176.952005 377.500428,174.161419 377.047517,170.266146 C377.015867,169.993936 377.000002,169.720122 377.000002,169.446078 L377,168.503051 C377,164.46035 380.01605,161.052972 384.028853,160.562213 Z" id="Rectangle" fill="#36A8D7" fill-rule="nonzero"></path>
                <path d="M378.148582,140.662413 C395.067167,138.851523 406.684307,137.946078 413.000002,137.946078 C419.315697,137.946078 430.932837,138.851523 447.851423,140.662413 L447.851423,140.662414 C451.916908,141.097566 455.000001,144.52827 455.000001,148.616976 L455.000001,149.446078 C455.000001,153.396337 451.797683,156.598654 447.847425,156.598654 C447.588177,156.598654 447.329122,156.584559 447.071405,156.556432 C431.126356,154.816195 420.175018,153.946078 414.217393,153.946078 C408.18968,153.946078 396.430442,154.836788 378.939679,156.618208 L378.939676,156.618176 C374.978636,157.021604 371.440535,154.13759 371.037106,150.17655 C371.012387,149.933844 371.000003,149.69004 371.000003,149.446078 L371,148.616979 C371,144.52827 374.083095,141.097564 378.148582,140.662413 Z" id="Rectangle" fill="#36A8D7" fill-rule="nonzero"></path>
                <path d="M373.238386,120.739084 C392.70806,118.87708 406.045264,117.946078 413.249998,117.946078 C420.454732,117.946078 433.791935,118.87708 453.261606,120.739084 L453.261606,120.739079 C457.366136,121.13162 460.499997,124.57949 460.499997,128.702748 L460.499997,129.446078 C460.499997,133.444434 457.258689,136.685742 453.260333,136.685742 C453.025358,136.685742 452.790522,136.674302 452.556659,136.651463 C434.088504,134.847873 421.442806,133.946078 414.619564,133.946078 C407.726426,133.946078 394.170648,134.866443 373.952231,136.707172 L373.952235,136.707213 C369.942021,137.072311 366.395129,134.117362 366.030031,130.107148 C366.01002,129.887359 366,129.666776 366,129.446078 L366.000002,128.702746 C366.000002,124.579492 369.13386,121.131625 373.238386,120.739084 Z" id="Rectangle" fill="#36A8D7" fill-rule="nonzero"></path>
                <g id="Group-2" transform="translate(488.000000, 185.000000) scale(-1, 1) translate(-488.000000, -185.000000) translate(454.000000, 139.000000)" fill-rule="nonzero">
                    <path d="M9.12742275,82.8853503 L46.8334132,91.8853503 L67.7811857,67.8853503 C68.4794448,19.2186837 56.9581699,-3.28131635 33.2173611,0.385350318 C23.7383905,1.84933691 12.9992701,8.68267024 1,20.8853503 C-0.333333333,38.552017 -0.333333333,51.2186837 1,58.8853503 C2.33333333,66.552017 5.04247425,74.552017 9.12742275,82.8853503 Z" id="Line-30" fill="#FFFFFF"></path>
                    <g id="Group" transform="translate(13.000000, 21.000000)">
                        <ellipse id="Oval" fill="#EB5B79" cx="25.5" cy="32.5" rx="25.5" ry="32.5"></ellipse>
                        <ellipse id="Oval" fill="#000000" cx="27.5" cy="35" rx="23.5" ry="30"></ellipse>
                        <circle id="Oval" fill="#FFFFFF" cx="14" cy="17" r="6"></circle>
                    </g>
                </g>
                <path d="M334.5,226.5 C359.166667,207.166667 386.833333,197.5 417.5,197.5 C448.166667,197.5 473.333333,205.666667 493,222 C500.742221,215.011754 506.908888,210.511754 511.5,208.5 C533.30645,198.944751 553.360156,202.066871 564,216 C574.075331,229.193886 577.64243,266.987414 542.5,300 C531.5,310.333333 510.666667,320.666667 480,331 C466.597883,337.568882 457.49933,343.235548 452.704342,348 C434.74557,365.844403 439,377 413,377 C391.13225,377 391.132161,360.775859 375.5,345 C370.669638,340.125235 362.502971,333.958568 351,326.5 C289.666667,315.166667 260.166667,295 262.5,266 C264.833333,237 288.833333,223.833333 334.5,226.5 Z" id="Line-2" stroke="#8E5863" stroke-width="4" fill="#D49BA7" fill-rule="nonzero" stroke-linecap="square"></path>
                <path d="M299.5,259 C303.361318,256.96847 306.527985,256.301803 309,257 C318.191868,259.596155 323.331883,263.497225 330,267 C334.737898,269.488827 341.866838,271.877964 344.5,273 C361.896815,280.413082 376.021023,284.311563 380,286.5 C390,292 398.233699,334.713958 423,329.5 C442,325.5 446.486715,317.72306 468,297 C474.45219,290.784812 488.31793,278.771624 504,264.5 C505.244953,263.367018 513.744953,255.200351 529.5,240 C522.746535,243.779079 517.579868,246.779079 514,249 C499.171429,258.199524 483.906514,262.91545 468,259 C443.473121,252.962614 429.420414,236.85523 414.5,238.5 C399.112815,240.196225 368.5,264.5 362,264.5 C356.732257,264.5 346.985646,268.7976 333,265 C328.994901,263.912473 315.34917,254.600109 305.5,253 C302.964189,252.588029 300.964189,254.588029 299.5,259 Z" id="Line-3" fill="#000000" fill-rule="nonzero"></path>
                <path d="M357.5,540.5 C339.351179,609.859485 339.351179,651.359485 357.5,665 C367.365908,672.415141 406.779746,693.426421 436.5,689 C467.833333,684.333333 493.833333,674.166667 514.5,658.5 C528.833333,631.166667 531.666667,600.666667 523,567 C514.333333,533.333333 494,499.166667 462,464.5 C450.6327,470.223255 442.1327,473.723255 436.5,475 C430.8673,476.276745 414.3673,478.443412 387,481.5 L357.5,540.5 Z" id="Line-28" stroke="#8E5863" stroke-width="5" fill="#D49BA7" fill-rule="nonzero" stroke-linecap="square"></path>
                <path d="M351,532 C389,553 424.833333,562.833333 458.5,561.5 C492.166667,560.166667 511.833333,555.2699 517.5,546.809701" id="Line-35" stroke="#8E5863" stroke-width="2" stroke-linecap="square"></path>
                <path d="M373.965534,509.303897 C397.789522,521.222421 426.534849,526.515016 460.201516,525.181683 C493.868183,523.84835 510.737621,521.442845 510.809832,517.96517" id="Line-35" stroke="#8E5863" stroke-width="2" stroke-linecap="square" transform="translate(442.387683, 517.343405) rotate(-6.000000) translate(-442.387683, -517.343405) "></path>
                <path d="M369.500462,491.654963 C383.236141,498.808572 406.937314,501.71871 440.60398,500.385377 C474.270647,499.052044 489.936022,495.541957 487.600105,489.855116" id="Line-35" stroke="#8E5863" stroke-width="2" stroke-linecap="square" transform="translate(428.663953, 495.277351) rotate(-7.000000) translate(-428.663953, -495.277351) "></path>
                <path d="M278.5,716.5 C266.26329,718.932679 259.76329,722.766012 259,728 C255.5,752 269.29501,756.083547 272.5,769.5 C275.042761,780.144289 270.098966,796.701748 272.5,805.5 C279.159101,829.901343 292.403766,839.27432 295.5,840 C298.277614,840.651003 305.112158,836.891372 311.5,823 C313.984253,817.5976 316.984253,804 314.5,787 C313.629964,781.046249 315.5,838.5 330,837 C335.126469,836.469676 342.467214,830.248662 344.5,810.5 C345.047338,805.18257 341.229165,794.920569 341,783.5 C340.950821,781.049156 343.035422,793.370994 344.5,807.5 C345.64796,818.574545 345.12864,832 351.5,832 C357.316649,832 365.355784,811.258671 362,787 C360.519213,776.295518 354.019213,757.795518 342.5,731.5" id="Line-13" stroke="#00709D" stroke-width="5" fill="#279BCA" fill-rule="nonzero" stroke-linecap="square"></path>
                <path d="M316,524 C311.122483,532.650917 304.622483,540.150917 296.5,546.5 C280.533842,558.980231 242.671838,575.183012 237,606 C227,660.333333 242.833333,698.5 284.5,720.5 C283.041233,716.400719 281.707899,713.734052 280.5,712.5 C266.809785,698.513375 255.864838,689.710039 251,681.5 C237.371406,658.5 235.871406,619.830789 240,606 C250,572.5 294.5,552.5 302,545.5 C307,540.833333 311.666667,535.333333 316,529" id="Line-11" stroke="#00709D" fill="#00709D" fill-rule="nonzero" stroke-linecap="square"></path>
                <path d="M369.5,339.5 L364.5,336 C362.762743,349.403924 360.262743,357.737257 357,361 C347.5,370.5 329,375.5 322.5,392 C316.376458,407.544375 324.50647,424.338359 324.5,449 C324.497242,459.514797 307.999259,483.840925 308,506.5 C308.000285,515.207968 315.000285,526.541301 329,540.5 C316.953221,523.301125 311.286554,511.134459 312,504 C314,484 329,455.467886 329,449 C329,436 324.246662,401.875775 326,395.5 C327.19221,391.164689 330.742527,384.787022 338.75,378.5 C345.760405,372.99582 355.521542,369.204976 360.5,363.5 C365.049362,358.286739 368.049362,350.286739 369.5,339.5 Z" id="Line-10" fill="#00709D" fill-rule="nonzero"></path>
                <path d="M395.5,247.5 L400.5,287.5 L418.5,289.5 C419.166667,283.833333 419.5,278.833333 419.5,274.5 C419.5,270.166667 420.166667,263.5 421.5,254.5 C421.902387,263.849246 422.402387,270.515913 423,274.5 C423.597613,278.484087 423.597613,283.484087 423,289.5 L441,289.5 L443.5,249.5 C433.833333,241.833333 425.5,238 418.5,238 C411.5,238 403.833333,241.166667 395.5,247.5 Z" id="Line-8" fill="#FFFFFF" fill-rule="nonzero"></path>
                <path d="M405.5,325.5 L406.5,310.5 C409.722222,309.166667 412.222222,308.5 414,308.5 C415.777778,308.5 417.611111,309.166667 419.5,310.5 L419.5,323 L421.5,323 L421.5,309.5 C424.833333,308.833333 427.333333,308.5 429,308.5 C430.666667,308.5 433.333333,308.833333 437,309.5 L437,324.5 C434,328.833333 428.75,331 421.25,331 C413.75,331 408.5,329.166667 405.5,325.5 Z" id="Line-9" fill="#FFFFFF" fill-rule="nonzero"></path>
                <path d="M299.5,259 C303.361318,256.96847 306.527985,256.301803 309,257 C318.191868,259.596155 323.331883,263.497225 330,267 C334.737898,269.488827 341.866838,271.877964 344.5,273 C361.896815,280.413082 376.021023,284.311563 380,286.5 C390,292 398.233699,334.713958 423,329.5 C442,325.5 446.486715,317.72306 468,297 C474.45219,290.784812 488.31793,278.771624 504,264.5 C505.244953,263.367018 513.744953,255.200351 529.5,240 C522.746535,243.779079 517.579868,246.779079 514,249 C499.171429,258.199524 483.906514,262.91545 468,259 C443.473121,252.962614 429.420414,236.85523 414.5,238.5 C399.112815,240.196225 368.5,264.5 362,264.5 C356.732257,264.5 346.985646,268.7976 333,265 C328.994901,263.912473 315.34917,254.600109 305.5,253 C302.964189,252.588029 300.964189,254.588029 299.5,259 Z" id="Line-3" stroke="#000000" stroke-width="5" stroke-linecap="square"></path>
                <path d="M369,98.5 C365.956979,89.531096 364.052693,89.5118876 359,85.5 C345.370971,74.6784188 330.251627,67.3890324 324,58.5 C315.430706,46.3155344 310.264039,30.8155344 308.5,12 C306.701533,31.1864352 307.8682,44.3531019 312,51.5 C313.362578,53.8568909 318.865786,64.7064012 326.5,72 C338.575756,83.5369724 354.54931,92.6619826 357,94.5 C359.841935,96.6314512 362.175268,101.131451 364,108 L368.5,113.5 C370.862014,109.479269 371.028681,104.479269 369,98.5 Z" id="Line-6" fill="#025B7F" fill-rule="nonzero"></path>
                <path d="M490.85993,90.3736004 C490.702772,89.8177078 488.144937,80.2162295 484.920664,77.6561258 C471.291635,66.8345446 456.172292,59.5451582 449.920664,50.6561258 C441.35137,38.4716602 436.184703,22.9716602 434.420664,4.1561258 C432.622197,23.342561 433.788864,36.5092277 437.920664,43.6561258 C439.283242,46.0130167 444.454305,57.7388543 452.420664,64.1561258 C459.157963,69.5833321 470.972489,75.838745 473.423179,77.6767624 C476.265114,79.8082136 480.815889,89.4352241 487.075505,106.557794 C489.390523,102.911261 490.716233,100.36868 491.052634,98.9300521 C491.245384,98.1057492 490.85993,90.3736004 490.85993,90.3736004 Z" id="Line-6" fill="#025B7F" fill-rule="nonzero" transform="translate(462.354572, 55.356960) scale(-1, 1) rotate(8.000000) translate(-462.354572, -55.356960) "></path>
                <path d="M307.5,130.5 C308.166667,125.5 310.333333,121.333333 314,118 C317.666667,114.666667 322.5,112.833333 328.5,112.5 C322.207494,114.798339 317.874161,116.965005 315.5,119 C313.125839,121.034995 310.459173,124.868328 307.5,130.5 Z" id="Line-7" stroke="#025B7F" fill="#025B7F" fill-rule="nonzero" stroke-linecap="square"></path>
                <path d="M480.76048,116.320503 C481.427147,111.320503 483.593814,107.153836 487.26048,103.820503 C490.927147,100.487169 495.76048,98.6538361 501.76048,98.3205027 C495.467974,100.618841 491.134641,102.785508 488.76048,104.820503 C486.38632,106.855497 483.719653,110.688831 480.76048,116.320503 Z" id="Line-7" stroke="#025B7F" fill="#025B7F" fill-rule="nonzero" stroke-linecap="square" transform="translate(491.260480, 107.320503) scale(-1, 1) rotate(5.000000) translate(-491.260480, -107.320503) "></path>
                <path d="M293.5,723.5 C306.166667,730.166667 321.833333,731 340.5,726 C359.166667,721 372.5,712.666667 380.5,701 C376.833333,716.333333 363.5,726.833333 340.5,732.5 C317.5,738.166667 301.833333,735.166667 293.5,723.5 Z" id="Line-12" fill="#00709D" fill-rule="nonzero"></path>
                <path d="M430.5,230 C455.656564,244.26802 473.156564,251.26802 483,251 C511.095075,250.235019 531.558287,219.171862 543,229 C552.71532,237.345211 558.718669,281.80331 566.5,307 C573.5,329.666667 585.833333,347.833333 603.5,361.5 C584.46511,355.402519 572.131776,345.902519 566.5,333 C557.951704,313.415674 549.189565,272.248594 543,251 C540.578606,242.687425 539.37686,234.048038 538.5,233.5 C534.860239,231.225149 515.479041,259 484.5,259 C465,259 446.598915,250.224254 439,245 C433.934056,241.517164 431.100723,236.517164 430.5,230 Z" id="Line-5" fill="url(#linearGradient-1)" fill-rule="nonzero"></path>
                <path d="M405.5,229.5 C392.5,243.833333 376.333333,252.333333 357,255 C327.799488,259.027657 305.062387,240.222054 294.5,251 C286.12394,259.547 295.725064,298.567907 289.5,322 C285.795834,335.943047 275.462501,355.109714 258.5,379.5 C267.483166,373.782816 273.649833,368.61615 277,364 C284.65044,353.458562 289.657997,337.230734 292,329.5 C301.344962,298.653146 296.597411,261.375592 300.5,258.5 C302.118958,257.307084 305.442845,252.669985 314.5,256 C326.186932,260.296897 336.443458,269.957766 357,268 C378,266 373.291683,261.827212 384.5,255 C390.843604,251.135983 396.097317,249.0604 401.5,242.5 C405.101788,238.1264 406.435122,233.793066 405.5,229.5 Z" id="Line-4" fill="url(#linearGradient-2)" fill-rule="nonzero"></path>
                <path d="M316.5,562.5 C321.5,568.5 318,614 326.5,653.5 C335,693 382.258779,686.091793 371.5,697 C360.741221,707.908207 330.5,741.5 283.5,703 C236.5,664.5 245.751842,618.196561 255.5,600 C265.248158,581.803439 311.5,556.5 316.5,562.5 Z" id="Line-32" fill-opacity="0.479999989" fill="#46B8E6" fill-rule="nonzero"></path>
                <path d="M343.5,621.5 C381.5,642.5 417.333333,652.333333 451,651 C484.666667,649.666667 509.166667,639.833333 524.5,621.5" id="Line-35" stroke="#8E5863" stroke-width="2" stroke-linecap="square"></path>
                <path d="M344.5,591.5 C382.5,612.5 418.333333,622.333333 452,621 C485.666667,619.666667 510.166667,609.833333 525.5,591.5" id="Line-35" stroke="#8E5863" stroke-width="2" stroke-linecap="square"></path>
                <path d="M350.5,561.5 C388.5,582.5 424.333333,592.333333 458,591 C491.666667,589.666667 513.833333,582 524.5,568" id="Line-35" stroke="#8E5863" stroke-width="2" stroke-linecap="square"></path>
                <ellipse id="Oval-2" fill="#000000" fill-rule="nonzero" transform="translate(447.130773, 217.581228) rotate(22.000000) translate(-447.130773, -217.581228) " cx="447.130773" cy="217.581228" rx="7" ry="4.5"></ellipse>
                <ellipse id="Oval-2" fill="#000000" fill-rule="nonzero" transform="translate(389.176017, 218.794573) scale(-1, 1) rotate(22.000000) translate(-389.176017, -218.794573) " cx="389.176017" cy="218.794573" rx="7" ry="4.5"></ellipse>
            </g>
            <g id="Group-9" transform="translate(190.500000, 510.000000) scale(-1, 1) translate(-190.500000, -510.000000) translate(59.000000, 403.000000)" fill-rule="nonzero">
                <path d="M169.5,64.5 C200.166667,71.5 217.333333,82 221,96 C228.00475,122.74541 218.671417,144.74541 193,162 C195.2508,154.333333 196.357982,150.5 196.321545,150.5 C196.26689,150.5 191.721236,153.08667 187,157.5 C182.278764,161.91333 172,162 172,162 C172,162 177.136464,154.742111 178.5,150.5 C179.409024,147.671926 180.07569,144.005259 180.5,139.5 L174,146.5 C181.333333,113.5 185,94.8333333 185,90.5 C185,86.1666667 179.833333,77.5 169.5,64.5 Z" id="Line-27" stroke="#00709D" stroke-width="3" fill="#279BCA" stroke-linecap="round"></path>
                <path d="M187.391031,95.9329812 C199.174384,95.9779123 207.321487,97.1280917 211.832343,99.3835193 C216.343198,101.638947 222.765032,107.773237 231.097847,117.786389 C221.786699,110.06367 214.502229,104.887863 209.244439,102.258968 C203.986649,99.6300725 196.702179,97.5214103 187.391031,95.9329812 Z" id="Line-34" stroke="#36A8D7" fill="#36A8D7" stroke-linecap="round" stroke-linejoin="round" transform="translate(209.244439, 106.859685) rotate(51.000000) translate(-209.244439, -106.859685) "></path>
                <g id="Group-7" transform="translate(185.500000, 57.000000) scale(-1, 1) translate(-185.500000, -57.000000) translate(109.000000, 0.000000)">
                    <path d="M44,9.5 C32.2787719,3.14687976 23.1121052,2.14687976 16.5,6.5 C9.88789476,10.8531202 5.72122809,20.3531202 4,35 C3.09844176,49 4.76510843,59.4277017 9,66.283105 C11.0876292,69.6625399 14.8759102,79.3141612 18.5,84 C20.9850747,87.2131265 26.318408,92.0464599 34.5,98.5 L61,84 C76.9102479,90.470814 88.5769146,94.970814 96,97.5 C103.423085,100.029186 121.10612,105.529186 149.049105,114 L153,112 C135.01053,99.42978 120.177197,88.2631134 108.5,78.5 C96.8228033,68.7368866 87.6561367,59.9035533 81,52 C83.3333333,39.8888889 84.5,32.7222222 84.5,30.5 C84.5,28.2777778 82.7937726,21.2777778 79.3813177,9.5 L68,4 L55.0249688,4 L44,9.5 Z" id="Line-43" fill="url(#linearGradient-3)"></path>
                    <path d="M78,57.5 C83.2890337,60.170263 89.6223671,64.5035963 97,70.5 C108.066449,79.4946056 151.024146,113.304089 151.982255,110.893953 C152.484357,109.630908 142.268605,102.887025 129.307015,92.8179306 C117.535361,83.6732277 103.439546,71.5074333 94.1763625,63.4946056 C74.7136286,46.6589747 83.2467541,52.3008791 81.5,51 C80.3354972,50.1327473 79.1688306,52.2994139 78,57.5 Z" id="Line-41" fill="url(#linearGradient-4)"></path>
                    <path d="M60.9855448,86.7258681 L130.5,110.5 C121.202185,105.984184 110.780629,101.802285 99.2353299,97.9543022 C87.690031,94.1063198 75.792196,88.2941337 63.5418248,80.517744 C65.1614047,78.0073723 66.2265213,76.1359666 66.7371748,74.903527 C67.2478282,73.6710874 67.5673632,72.2006972 67.6957798,70.4923564 C64.8951918,74.0974321 62.6584468,76.7708688 60.9855448,78.5126665 C55.5950265,84.1251843 47.0426215,89.9542955 35.3283297,96 C29.8073964,94.8408665 24.3646198,90.3408665 19,82.5 C10.9530703,70.7387002 8,61 6.5,51 C3.95164405,34.0109603 7.81578971,18.4081698 15.5,9.93901507 C20.6629695,4.24864667 29.6781421,5.44538484 35.3283297,5.92886001 C36.5561246,6.03391995 39.1675979,7.3706383 43.1627497,9.93901507 L40.4939097,22.9644027 C43.1290838,17.1820658 45.6311139,13.3605982 48,11.5 C55.7517888,5.41149953 66.3596486,4.10029206 72.5,7.13190653 C81.4550165,11.5531775 83.9550165,26.5092087 80,52 C83.8993352,42.982043 86.0660019,37.482043 86.5,35.5 C89.0220282,23.9820513 85.4181815,11.0287116 80,5.92886001 C73.1832533,-0.487388076 62.0757982,-0.0863725704 46.6776347,7.13190653 C31.9874316,-1.95777826 20.5948867,-2.35879377 12.5,5.92886001 C10.8311191,7.63748267 7.02920243,13.7396792 3.5,22.9644027 C-0.0248651946,32.1777894 0.25199828,46.0073783 3.5,58 C5.32688055,64.7454051 11.4644915,76.7864111 18,86.7258681 C20.0816448,89.8917149 25.2483115,94.4830922 33.5,100.5 C39.9898573,97.4444236 44.156524,95.3928112 46,94.3451627 C47.843476,93.2975142 52.8386576,90.7577493 60.9855448,86.7258681 Z" id="Line-38" fill="url(#linearGradient-5)"></path>
                    <path d="M109.902033,81.1473417 L74.4529312,66.3857992 L69.902033,70.0761848 C72.1573938,66.6451076 73.6743598,63.7748077 74.4529312,61.465285 C75.6207883,58.0010009 77.0589486,50.1240758 77.3271827,49.4715316 C77.5954168,48.8189874 79.0038294,49.1639995 79.0038294,50.394128 C79.0038294,50.932758 79.111868,53.4372685 78.2852666,57.159835 C77.9973117,58.456628 77.2787489,60.7118637 76.1295779,63.9255421 L109.902033,81.1473417 Z" id="Line-39" fill="url(#linearGradient-6)" transform="translate(89.902033, 65.147342) rotate(11.000000) translate(-89.902033, -65.147342) "></path>
                </g>
                <g id="Group-6" transform="translate(76.914875, 137.012039) rotate(41.000000) translate(-76.914875, -137.012039) translate(18.914875, 86.512039)">
                    <path d="M11.5,7 L0.5,53 C4.16666667,62.3333333 7.83333333,68 11.5,70 C17,73 21.7903676,78.1132627 39,80.5 C50.4730883,82.0911582 62.639755,80.2578249 75.5,75 L90,101 L94,84.5 L98.5,97 L107,90 C109,88.1303966 110,84.9637299 110,80.5 C110,76.0362701 109,71.5362701 107,67 L113,76.5 C115,72.5 116,67.5 116,61.5 C116,52.5 93.8891711,21.9029454 73,9.5 C59.0738859,1.23136977 41.2405526,-1.10196357 19.5,2.5 L11.5,7 Z" id="Line-26" fill="#279BCA"></path>
                    <path d="M11.5,7 C27.9459241,4.5011087 38.9459241,3.66777536 44.5,4.5 C60.598899,6.91226457 75.9939349,14.6529152 85,23 C96.1570387,33.34067 109.173997,48.4934986 113,61.5 C113.573739,63.4504267 113.407072,66.28376 112.5,70 C110.802411,67.3127188 109.469078,65.6460521 108.5,65 C107.530922,64.3539479 105.864255,63.1872812 103.5,61.5 C105.209244,70.139048 106.042578,75.8057147 106,78.5 C105.957336,81.1997652 106.214366,82.0232535 106,83.5 C105.464737,87.1873702 103.464737,90.0207035 100,92 C98.7874992,88.4174985 97.7874992,85.9174985 97,84.5 C96.2125008,83.0825015 93.3791675,79.4158348 88.5,73.5 C89.6437801,78.3691409 90.3104467,82.0358076 90.5,84.5 C90.6895533,86.9641924 90.0228866,90.1308591 88.5,94 C83.5,80.6666667 79.5,73.5 76.5,72.5 C72,71 58.5,79 39,76.5 C26,74.8333333 13.1666667,67 0.5,53 C4.16666667,62.3333333 7.83333333,68 11.5,70 C17,73 21.7903676,78.1132627 39,80.5 C50.4730883,82.0911582 62.639755,80.2578249 75.5,75 L90,101 L94,84.5 L98.5,97 L107,90 C109,88.1303966 110,84.9637299 110,80.5 C110,76.0362701 109,71.5362701 107,67 L113,76.5 C115,72.5 116,67.5 116,61.5 C116,52.5 93.8891711,21.9029454 73,9.5 C59.0738859,1.23136977 41.2405526,-1.10196357 19.5,2.5 L11.5,7 Z" id="Line-26" fill="#00709D"></path>
                    <path d="M22.5,10.5 C42.9895911,10.5781289 57.1562578,12.5781289 65,16.5 C72.8437422,20.4218711 84.0104089,31.0885378 98.5,48.5 C82.309224,35.0712787 69.6425573,26.0712787 60.5,21.5 C51.3574427,16.9287213 38.690776,13.2620547 22.5,10.5 Z" id="Line-34" stroke="#36A8D7" fill="#36A8D7" stroke-linecap="round" stroke-linejoin="round"></path>
                </g>
            </g>
        </g>
    </g>
</svg>