<?xml version="1.0" encoding="UTF-8" standalone="no"?>
<!DOCTYPE svg PUBLIC "-//W3C//DTD SVG 1.1//EN" "http://www.w3.org/Graphics/SVG/1.1/DTD/svg11.dtd">
<svg width="100%" height="100%" viewBox="0 0 1625 1551" version="1.1" xmlns="http://www.w3.org/2000/svg" xmlns:xlink="http://www.w3.org/1999/xlink" xml:space="preserve" xmlns:serif="http://www.serif.com/" style="fill-rule:evenodd;clip-rule:evenodd;stroke-linecap:square;">
    <g id="Artboard1" transform="matrix(0.99025,0,0,1,108.927,23)">
        <rect x="-110" y="-23" width="1641" height="1551" style="fill:none;"/>
        <g id="Artboard" transform="matrix(1.00985,0,0,1,17.2406,0)">
            <g id="Group-3" transform="matrix(0.961262,0.275637,-0.275637,0.961262,30.8507,217.178)">
                <path id="Line-21" d="M2.209,73.546C87.609,73.546 141.179,96.823 162.917,143.378C184.655,189.934 168.352,255.111 114.006,338.91C181.164,318.762 232.792,325.745 268.892,359.86C304.991,393.975 310.425,440.918 285.195,500.689C333.33,445.599 384.182,422.709 437.752,432.02C491.321,441.331 523.153,467.325 533.245,510C547.996,458.014 574.393,417.278 612.435,387.793C650.477,358.308 696.283,344.729 749.852,347.057C755.358,327.566 744.101,305.064 716.08,279.552C606.156,179.468 416.279,53.415 350.41,29.318C259.356,-3.992 143.289,10.75 2.209,73.546Z" style="fill:rgb(2,91,127);stroke:rgb(39,155,202);stroke-width:5px;"/>
                <path id="Line-17" d="M738.672,311.349C595.036,173.903 468.87,86.543 360.172,49.27C251.475,11.996 131.519,20.15 0.306,73.731C102.792,8.502 206.831,-13.241 312.423,8.502C404.906,27.546 537.663,102.222 692.088,235.637C706.681,248.244 728.42,268.434 757.306,296.206L738.672,311.349Z" style="fill:rgb(39,155,202);"/>
                <path id="Line-18" d="M119.604,335.696C141.352,310.962 157.659,293.868 168.527,284.411C200.136,256.906 233.322,237.106 315.296,210.981C416.44,178.746 517.683,168.238 601.845,194.663C614.663,198.687 630.582,208.789 649.604,224.968C586.703,194.213 501.281,189.55 393.34,210.981C285.399,232.411 194.153,273.983 119.604,335.696Z" style="fill:rgb(39,155,202);"/>
                <path id="Line-19" d="M654.412,235.048L654.412,212.907C597.227,224.893 556.468,234.604 532.133,242.04C487.138,255.789 446.126,282.322 419.171,302.636C370.35,339.431 326.097,405.854 286.412,501.907C291.107,497.156 296.542,489.387 302.716,478.6C337.527,417.773 394.5,340.682 456.437,302.636C534.851,254.47 600.842,231.94 654.412,235.048Z" style="fill:rgb(39,155,202);"/>
                <path id="Line-20" d="M665.087,234.915C655.863,236.635 649.278,238.966 645.333,241.909C605.918,271.317 579.973,308.07 565.155,339.827C548.112,376.352 537.654,431.916 533.781,506.52C522.936,437.356 527.584,379.46 547.725,332.833C565.869,290.828 597.203,251.541 643.009,229.087C646.37,227.439 653.729,229.382 665.087,234.915Z" style="fill:rgb(39,155,202);"/>
            </g>
            <path id="Line-10" d="M936,1025.63C953.872,967.305 985.802,922.37 1031.79,890.821C1104.83,840.711 1142.09,914.452 1206.39,879C1235.4,863 1226.81,846.99 1243.41,802.966C1246.02,796.038 1252.02,787.716 1261.42,778C1259.52,789.691 1259.52,797.587 1261.42,801.688C1281.33,844.858 1293.97,877.215 1280.25,908.5C1269.7,932.539 1240.53,965.221 1188.88,1009C1181.86,1014.95 1166.85,1021.61 1143.85,1029C1142.07,1040.58 1139.95,1049.41 1137.48,1055.5C1133.89,1064.35 1126.34,1079.51 1114.84,1101C1013.07,1083.33 956.269,1083.33 944.433,1101" style="fill:rgb(39,155,202);stroke:rgb(0,112,157);stroke-width:8px;"/>
            <path id="Line-101" serif:id="Line-10" d="M1007.15,1083.1C998.138,1022.26 1016.64,976.06 1062.66,944.5C1135.75,894.374 1151.01,955.01 1215.34,919.546C1244.38,903.541 1234.78,840.333 1251.39,796.295C1254,789.365 1257.34,783.266 1261.4,778C1259.51,789.695 1259.51,797.593 1261.4,801.696C1281.33,844.88 1293.97,877.248 1280.24,908.543C1269.69,932.59 1240.5,965.282 1188.81,1009.08C1181.79,1015.02 1166.77,1021.69 1143.76,1029.08C1141.97,1040.67 1139.85,1049.5 1137.38,1055.59C1133.78,1064.44 1126.23,1079.61 1114.72,1101.11C1012.89,1083.43 956.048,1083.43 944.205,1101.11C932.361,1118.78 953.344,1112.78 1007.15,1083.1Z" style="fill:rgb(0,112,157);stroke:rgb(0,112,157);stroke-width:8px;"/>
            <g id="Group-31" serif:id="Group-3" transform="matrix(-0.961262,0.275637,0.275637,0.961262,1448.64,237.178)">
                <path id="Line-211" serif:id="Line-21" d="M2.209,73.546C87.609,73.546 141.179,96.823 162.917,143.378C184.655,189.934 168.352,255.111 114.006,338.91C181.164,318.762 232.792,325.745 268.892,359.86C304.991,393.975 310.425,440.918 285.195,500.689C333.33,445.599 384.182,422.709 437.752,432.02C491.321,441.331 523.153,467.325 533.245,510C547.996,458.014 574.393,417.278 612.435,387.793C650.477,358.308 696.283,344.729 749.852,347.057C755.358,327.566 744.101,305.064 716.08,279.552C606.156,179.468 416.279,53.415 350.41,29.318C259.356,-3.992 143.289,10.75 2.209,73.546Z" style="fill:rgb(2,91,127);stroke:rgb(39,155,202);stroke-width:5px;"/>
                <path id="Line-171" serif:id="Line-17" d="M738.672,311.349C595.036,173.903 468.87,86.543 360.172,49.27C251.475,11.996 131.519,20.15 0.306,73.731C102.792,8.502 206.831,-13.241 312.423,8.502C404.906,27.546 537.663,102.222 692.088,235.637C706.681,248.244 728.42,268.434 757.306,296.206L738.672,311.349Z" style="fill:rgb(39,155,202);"/>
                <path id="Line-181" serif:id="Line-18" d="M119.604,335.696C141.352,310.962 157.659,293.868 168.527,284.411C200.136,256.906 233.322,237.106 315.296,210.981C416.44,178.746 517.683,168.238 601.845,194.663C614.663,198.687 630.582,208.789 649.604,224.968C586.703,194.213 501.281,189.55 393.34,210.981C285.399,232.411 194.153,273.983 119.604,335.696Z" style="fill:rgb(39,155,202);"/>
                <path id="Line-191" serif:id="Line-19" d="M654.412,235.048L654.412,212.907C597.227,224.893 556.468,234.604 532.133,242.04C487.138,255.789 446.126,282.322 419.171,302.636C370.35,339.431 326.097,405.854 286.412,501.907C291.107,497.156 296.542,489.387 302.716,478.6C337.527,417.773 394.5,340.682 456.437,302.636C534.851,254.47 600.842,231.94 654.412,235.048Z" style="fill:rgb(39,155,202);"/>
                <path id="Line-201" serif:id="Line-20" d="M665.087,234.915C655.863,236.635 649.278,238.966 645.333,241.909C605.918,271.317 579.973,308.07 565.155,339.827C548.112,376.352 537.654,431.916 533.781,506.52C522.936,437.356 527.584,379.46 547.725,332.833C565.869,290.828 597.203,251.541 643.009,229.087C646.37,227.439 653.729,229.382 665.087,234.915Z" style="fill:rgb(39,155,202);"/>
            </g>
            <path id="Line-68" d="M953.019,1051.51C1024.37,1012.83 1074.88,1024 1104.55,1085.01C1134.22,1146.02 1108.05,1213.19 1026.03,1286.54C1061.92,1305.31 1088.59,1322.31 1106.05,1337.54C1123.51,1352.77 1129.51,1364.28 1124.05,1372.05C1109.8,1365.91 1099.13,1362.08 1092.05,1360.54C1084.96,1359.01 1077.96,1359.01 1071.04,1360.54L1100.55,1407.55C1087.27,1397.87 1077.44,1391.37 1071.04,1388.05C1064.64,1384.73 1057.14,1382.23 1048.54,1380.55C1062.08,1391.66 1070.75,1400.66 1074.54,1407.55C1078.34,1414.44 1079.67,1423.59 1078.54,1435C1062.96,1426.08 1051.12,1420.77 1043.04,1419.05C982.766,1406.26 935.162,1400.37 905.727,1384.55C870.369,1365.54 850.793,1340.87 847,1310.54L953.019,1051.51Z" style="fill:rgb(39,155,202);stroke:rgb(0,112,157);stroke-width:8px;"/>
            <g id="Line-681" serif:id="Line-68" transform="matrix(-1,0,0,1,993,0)">
                <path d="M458.459,1072.51C539.523,1033.83 596.912,1045 630.625,1106.01C664.338,1167.02 634.602,1234.19 541.417,1307.54C582.187,1326.31 612.492,1343.31 632.33,1358.54C652.167,1373.77 658.986,1385.28 652.785,1393.05C636.589,1386.91 624.467,1383.08 616.42,1381.54C608.373,1380.01 600.418,1380.01 592.555,1381.54C605.715,1389.27 614.294,1395.94 618.291,1401.55C622.289,1407.15 624.885,1416.15 626.079,1428.55L575.987,1405.55C585.37,1413.99 592.219,1421.66 596.533,1428.55C600.847,1435.44 602.362,1444.59 601.078,1456C583.37,1447.08 569.922,1441.77 560.736,1440.05C492.257,1427.26 438.17,1421.37 404.726,1405.55C364.552,1386.54 342.31,1361.87 338,1331.54L458.459,1072.51Z" style="fill:rgb(39,155,202);stroke:rgb(0,112,157);stroke-width:8px;"/>
            </g>
            <path id="Line" d="M654.569,701.691C567.056,911.347 527.582,1060.1 536.145,1147.96C548.99,1279.74 617.595,1338.85 731.103,1345.35C844.612,1351.85 937.316,1310.37 955.056,1171.94C966.882,1079.66 924.755,925.287 828.674,708.826C831.657,666.184 831.657,636.724 828.674,620.445C825.69,604.166 816.829,585.272 802.088,563.764L654.569,550C668.6,600.128 675.615,633.938 675.615,651.428C675.615,668.919 668.6,685.673 654.569,701.691Z" style="fill:rgb(39,155,202);stroke:rgb(0,112,157);stroke-width:11px;"/>
            <path id="Line1" serif:id="Line" d="M690.588,705C578.899,913.015 527.342,1060.97 535.917,1148.87C548.779,1280.71 617.475,1339.85 731.132,1346.35C844.79,1352.86 937.616,1311.36 955.379,1172.87C967.221,1080.54 914.163,925.743 796.204,708.483L690.588,705Z" style="fill:rgb(212,155,167);stroke:rgb(142,88,99);stroke-width:9px;"/>
            <g id="Group" transform="matrix(0.987688,-0.156434,-0.156434,-0.987688,869.643,913.199)">
                <path id="Line-26" d="M29.619,16.553L0,140.58C9.873,165.745 19.746,181.024 29.619,186.417C44.429,194.505 57.327,208.292 103.667,214.727C134.56,219.017 167.32,214.074 201.948,199.898L240.991,270L251.762,225.512L263.879,259.215L286.766,240.341C292.152,235.3 294.844,226.762 294.844,214.727C294.844,202.692 292.152,190.559 286.766,178.328L302.922,203.942C308.307,193.157 311,179.676 311,163.499C311,139.232 251.463,56.735 195.216,23.294C157.718,1 109.7,-5.291 51.16,4.42L29.619,16.553Z" style="fill:rgb(39,155,202);"/>
                <path id="Line-261" serif:id="Line-26" d="M29.619,16.553C73.902,9.816 103.521,7.569 118.476,9.813C161.825,16.317 203.278,37.188 227.528,59.693C257.57,87.574 292.62,128.43 302.922,163.499C304.467,168.757 304.018,176.397 301.576,186.417C297.005,179.171 293.415,174.677 290.805,172.935C288.196,171.193 283.708,168.048 277.342,163.499C281.944,186.791 284.188,202.07 284.074,209.335C283.959,216.614 284.651,218.834 284.074,222.816C282.632,232.758 277.247,240.397 267.918,245.734C264.653,236.075 261.96,229.334 259.84,225.512C257.719,221.69 250.09,211.804 236.952,195.853C240.032,208.982 241.827,218.868 242.338,225.512C242.848,232.156 241.053,240.694 236.952,251.126C223.489,215.176 212.719,195.853 204.641,193.157C192.524,189.113 156.173,210.683 103.667,203.942C68.662,199.448 34.107,178.328 0,140.58C9.873,165.745 19.746,181.024 29.619,186.417C44.429,194.505 57.327,208.292 103.667,214.727C134.56,219.017 167.32,214.074 201.948,199.898L240.991,270L251.762,225.512L263.879,259.215L286.766,240.341C292.152,235.3 294.844,226.762 294.844,214.727C294.844,202.692 292.152,190.559 286.766,178.328L302.922,203.942C308.307,193.157 311,179.676 311,163.499C311,139.232 251.463,56.735 195.216,23.294C157.718,1 109.7,-5.291 51.16,4.42L29.619,16.553Z" style="fill:rgb(0,112,157);"/>
                <path id="Line-34" d="M59,27C113.998,27.21 152.025,32.578 173.079,43.105C194.133,53.632 224.107,82.264 263,129C219.541,92.954 185.541,68.797 161,56.526C136.459,44.256 102.459,34.414 59,27Z" style="fill:rgb(54,168,215);stroke:rgb(54,168,215);stroke-width:1px;stroke-linecap:round;stroke-linejoin:round;"/>
            </g>
            <path id="Line-2" d="M544,1197C614.652,1240.33 682.254,1262 746.808,1262C811.362,1262 879.759,1240.33 952,1197" style="fill:none;stroke:rgb(142,88,99);stroke-width:6px;"/>
            <path id="Line-22" serif:id="Line-2" d="M570,1264.11C631.164,1297.37 689.991,1314 746.481,1314C803.035,1314 862.541,1297.33 925,1264" style="fill:none;stroke:rgb(142,88,99);stroke-width:6px;"/>
            <path id="Line-23" serif:id="Line-2" d="M539,1139C612.984,1182.33 682.253,1204 746.807,1204C811.361,1204 879.759,1182.33 952,1139" style="fill:none;stroke:rgb(142,88,99);stroke-width:6px;"/>
            <path id="Line-24" serif:id="Line-2" d="M544,1079C614.652,1122.33 682.254,1144 746.808,1144C811.362,1144 879.759,1122.33 952,1079" style="fill:none;stroke:rgb(142,88,99);stroke-width:6px;"/>
            <path id="Line-25" serif:id="Line-2" d="M551,1029C618.869,1069 683.907,1089 746.114,1089C806.092,1089 869.387,1070.41 936,1033.22" style="fill:none;stroke:rgb(142,88,99);stroke-width:6px;"/>
            <path id="Line-27" serif:id="Line-2" d="M566,979C628.469,1013.67 688.509,1031 746.12,1031C801.576,1031 859.869,1014.94 921,982.818" style="fill:none;stroke:rgb(142,88,99);stroke-width:6px;"/>
            <path id="Line-28" serif:id="Line-2" d="M586,919C641.335,946.333 694.735,960 746.201,960C794.946,960 845.879,947.74 899,923.22" style="fill:none;stroke:rgb(142,88,99);stroke-width:6px;"/>
            <path id="Line-29" serif:id="Line-2" d="M608,869C655.699,889.667 701.93,900 746.693,900C789.132,900 833.234,890.712 879,872.136" style="fill:none;stroke:rgb(142,88,99);stroke-width:6px;"/>
            <path id="Line-210" serif:id="Line-2" d="M631,819C670.306,833.667 708.593,841 745.863,841C780.469,841 816.181,834.678 853,822.033" style="fill:none;stroke:rgb(142,88,99);stroke-width:6px;"/>
            <path id="Line-212" serif:id="Line-2" d="M657,767C687.258,775.667 716.899,780 745.922,780C773.257,780 801.283,776.156 830,768.468" style="fill:none;stroke:rgb(142,88,99);stroke-width:6px;"/>
            <g id="Group1" serif:id="Group" transform="matrix(-0.987688,-0.156434,0.156434,-0.987688,617.171,913.327)">
                <path id="Line-262" serif:id="Line-26" d="M29.619,16.553L0,140.58C9.873,165.745 19.746,181.024 29.619,186.417C44.429,194.505 57.327,208.292 103.667,214.727C134.56,219.017 167.32,214.074 201.948,199.898L240.991,270L251.762,225.512L263.879,259.215L286.766,240.341C292.152,235.3 294.844,226.762 294.844,214.727C294.844,202.692 292.152,190.559 286.766,178.328L302.922,203.942C308.307,193.157 311,179.676 311,163.499C311,139.232 251.463,56.735 195.216,23.294C157.718,1 109.7,-5.291 51.16,4.42L29.619,16.553Z" style="fill:rgb(39,155,202);"/>
                <path id="Line-263" serif:id="Line-26" d="M29.619,16.553C73.902,9.816 103.521,7.569 118.476,9.813C161.825,16.317 203.278,37.188 227.528,59.693C257.57,87.574 292.62,128.43 302.922,163.499C304.467,168.757 304.018,176.397 301.576,186.417C297.005,179.171 293.415,174.677 290.805,172.935C288.196,171.193 283.708,168.048 277.342,163.499C281.944,186.791 284.188,202.07 284.074,209.335C283.959,216.614 284.651,218.834 284.074,222.816C282.632,232.758 277.247,240.397 267.918,245.734C264.653,236.075 261.96,229.334 259.84,225.512C257.719,221.69 250.09,211.804 236.952,195.853C240.032,208.982 241.827,218.868 242.338,225.512C242.848,232.156 241.053,240.694 236.952,251.126C223.489,215.176 212.719,195.853 204.641,193.157C192.524,189.113 156.173,210.683 103.667,203.942C68.662,199.448 34.107,178.328 0,140.58C9.873,165.745 19.746,181.024 29.619,186.417C44.429,194.505 57.327,208.292 103.667,214.727C134.56,219.017 167.32,214.074 201.948,199.898L240.991,270L251.762,225.512L263.879,259.215L286.766,240.341C292.152,235.3 294.844,226.762 294.844,214.727C294.844,202.692 292.152,190.559 286.766,178.328L302.922,203.942C308.307,193.157 311,179.676 311,163.499C311,139.232 251.463,56.735 195.216,23.294C157.718,1 109.7,-5.291 51.16,4.42L29.619,16.553Z" style="fill:rgb(0,112,157);"/>
                <path id="Line-341" serif:id="Line-34" d="M59,27C113.998,27.21 152.025,32.578 173.079,43.105C194.133,53.632 224.107,82.264 263,129C219.541,92.954 185.541,68.797 161,56.526C136.459,44.256 102.459,34.414 59,27Z" style="fill:rgb(54,168,215);stroke:rgb(54,168,215);stroke-width:1px;stroke-linecap:round;stroke-linejoin:round;"/>
            </g>
            <g id="Group-4" transform="matrix(1,0,0,1,502,53)">
                <path id="Line-16" d="M131.74,137.028C167.456,115.141 199.856,104.197 228.939,104.197C258.022,104.197 285.319,109.669 310.83,120.612L332.26,114.122L349.097,114.122L381.242,145.427L392.722,175.969L400.375,215.672L406.498,240.869L427.928,286.681L444,317.222L343.74,357.689L20,372.197L20,349.291L37.603,311.877L37.603,280.573C36.966,255.304 37.986,235.706 40.664,221.781C43.019,209.533 49.83,186.033 56.736,171.387C61.886,160.468 67.324,157.042 69.747,153.063C80.964,134.644 101.628,129.299 131.74,137.028Z" style="fill:rgb(39,155,202);"/>
                <path id="Line-291" serif:id="Line-29" d="M142,129.197C173.153,111.863 200.986,103.197 225.5,103.197C250.014,103.197 277.847,109.314 309,121.549" style="fill:none;stroke:rgb(2,91,127);stroke-width:5px;"/>
                <path id="Line2" serif:id="Line" d="M436.869,311.898C421.717,281.174 411.754,258.951 406.981,245.228C402.208,231.505 398.632,214.802 396.252,195.12C388.078,159.557 372.495,136.155 349.505,124.916C326.514,113.677 303.012,127.215 279,165.531C280.902,153.071 283.201,144.641 285.897,140.242C302.083,113.834 327.227,107.137 352.57,115.72C368.154,120.998 391.574,146.014 401.106,195.12C404.682,213.545 404.022,222.647 410.047,240.63C414.619,254.276 425.603,278.799 443,314.197L436.869,311.898Z" style="fill:rgb(0,112,157);"/>
                <g id="Line3" serif:id="Line" transform="matrix(-1,0,0,1,178,0)">
                    <path d="M153.381,363.375C143.994,326.17 138.491,301.456 136.873,289.235C135.439,278.405 140.667,262.216 138.905,257.133C134.159,243.445 131.874,227.678 132.048,209.83C123.921,174.104 108.429,150.636 85.571,139.426C62.714,128.216 39.857,139.553 17,173.439C33.254,134.203 57.127,119.935 88.619,130.636C104.113,135.901 127.397,160.851 136.873,209.83C140.429,228.207 139.772,237.286 145.762,255.222C148.005,261.94 143.258,284.72 145.762,302.993C147.474,315.491 152.554,336.893 161,367.197L153.381,363.375Z" style="fill:rgb(0,112,157);"/>
                </g>
                <g id="Group-2" transform="matrix(1,0,0,1,59,217.197)">
                    <path id="Line-30" d="M14.65,127.495L72.029,141.237L103.906,104.591C104.969,30.283 87.436,-4.072 51.309,1.527C36.885,3.762 20.542,14.196 2.283,32.828C0.254,59.803 0.254,79.143 2.283,90.849C4.312,102.556 8.434,114.771 14.65,127.495Z" style="fill:white;"/>
                    <g id="Group2" serif:id="Group" transform="matrix(1,0,0,1,24.3478,38.172)">
                        <ellipse id="Oval" cx="38.804" cy="49.624" rx="38.804" ry="49.624" style="fill:rgb(235,91,121);"/>
                        <ellipse id="Oval1" serif:id="Oval" cx="41.848" cy="53.441" rx="35.761" ry="45.806"/>
                        <ellipse id="Oval2" serif:id="Oval" cx="21.304" cy="25.957" rx="9.13" ry="9.161" style="fill:white;"/>
                    </g>
                </g>
                <path id="Rectangle" d="M184.963,278.552C207.183,275.648 222.362,274.197 230.5,274.197C238.638,274.197 253.817,275.648 276.037,278.552L276.037,278.552C280.02,279.073 283,282.467 283,286.485L283,294.465C283,298.883 279.418,302.465 275,302.465C274.649,302.465 274.298,302.441 273.949,302.395C253.551,299.693 239.575,298.342 232.022,298.342C224.379,298.342 209.366,299.725 186.981,302.491C182.596,303.033 178.602,299.918 178.06,295.533C178.02,295.207 178,294.88 178,294.552L178,286.485C178,282.467 180.98,279.073 184.963,278.552Z" style="fill:rgb(54,168,215);"/>
                <path id="Rectangle1" serif:id="Rectangle" d="M182.028,246.59C205.947,243.661 222.271,242.197 231,242.197C239.729,242.197 256.053,243.661 279.972,246.59C283.985,247.081 287,250.488 287,254.531L287,262.468C287,266.886 283.418,270.468 279,270.468C278.67,270.468 278.34,270.447 278.013,270.406C255.892,267.656 240.763,266.281 232.623,266.281C224.396,266.281 208.162,267.686 183.921,270.496C179.532,271.004 175.562,267.859 175.053,263.47C175.018,263.164 175,262.857 175,262.549L175,254.531C175,250.488 178.015,247.081 182.028,246.59Z" style="fill:rgb(54,168,215);"/>
                <path id="Rectangle2" serif:id="Rectangle" d="M173.119,215.821C200.953,212.738 219.913,211.197 230,211.197C240.087,211.197 259.047,212.738 286.881,215.821L286.881,215.821C290.933,216.27 294,219.695 294,223.773L294,232.449C294,236.868 290.418,240.449 286,240.449C285.701,240.449 285.401,240.432 285.104,240.399C259.074,237.464 241.325,235.996 231.855,235.996C222.3,235.996 203.293,237.49 174.835,240.479L174.835,240.479C170.441,240.94 166.505,237.752 166.044,233.358C166.015,233.08 166,232.801 166,232.522L166,223.773C166,219.695 169.067,216.27 173.119,215.821Z" style="fill:rgb(54,168,215);"/>
                <g id="Line-15" transform="matrix(0.990268,-0.139173,0.139173,0.990268,-22.5361,67.1309)">
                    <path d="M466.981,290.022C478.778,248.136 482.807,215.823 479.068,193.082C475.329,170.34 461.553,143.366 437.74,112.16L452.954,96.876C478.17,136.451 493.113,170.565 497.782,199.218C504.787,242.197 491.154,281.355 485.746,288.532C482.141,293.317 475.886,293.813 466.981,290.022Z" style="fill:rgb(104,104,104);"/>
                </g>
                <path id="Rectangle3" serif:id="Rectangle" d="M165.217,184.879C196.963,181.757 218.557,180.197 230,180.197C241.443,180.197 263.037,181.757 294.783,184.879L294.783,184.879C298.878,185.282 302,188.725 302,192.841L302,201.433C302,205.851 298.418,209.433 294,209.433C293.733,209.433 293.467,209.419 293.202,209.393C263.258,206.39 242.887,204.888 232.087,204.888C221.204,204.888 199.423,206.413 166.743,209.462L166.743,209.462C162.344,209.873 158.445,206.639 158.035,202.24C158.012,201.993 158,201.745 158,201.497L158,192.841C158,188.725 161.122,185.282 165.217,184.879Z" style="fill:rgb(54,168,215);"/>
                <g id="Line-13" transform="matrix(0.990268,-0.139173,0.139173,0.990268,-30.2531,66.2751)">
                    <path d="M438.143,177.504L432.263,323.457C453.469,323.203 467.359,314.145 473.933,296.285C483.794,269.495 491.915,228.335 477.263,198.465C467.495,178.552 454.455,171.565 438.143,177.504Z" style="fill:rgb(34,34,34);stroke:black;stroke-width:1px;"/>
                </g>
                <g id="Line-14" transform="matrix(0.990268,-0.139173,0.139173,0.990268,-31.2726,61.1432)">
                    <path d="M431.709,333.95C418.158,336.022 409.7,333.691 406.336,326.954C401.289,316.849 408.277,197.956 411.382,186.264C414.488,174.571 421.467,174.875 426.911,173.827C430.541,173.128 434.423,174.942 438.558,179.268L431.709,333.95Z" style="fill:rgb(34,34,34);stroke:black;stroke-width:1px;"/>
                </g>
                <g id="Group-21" serif:id="Group-2" transform="matrix(-1,0,0,1,397,206.197)">
                    <path id="Line-301" serif:id="Line-30" d="M10.142,127.495L67.844,141.237L99.9,104.591C100.969,30.283 83.338,-4.072 47.007,1.527C36.029,3.219 20.615,11.871 0.765,27.484C-0.12,50.104 -0.12,66.137 0.765,75.581C1.651,85.025 4.776,102.329 10.142,127.495Z" style="fill:white;"/>
                    <g id="Group3" serif:id="Group" transform="matrix(1,0,0,1,19.8939,38.172)">
                        <ellipse id="Oval3" serif:id="Oval" cx="39.023" cy="49.624" rx="39.023" ry="49.624" style="fill:rgb(235,91,121);"/>
                        <ellipse id="Oval4" serif:id="Oval" cx="42.083" cy="53.441" rx="35.962" ry="45.806"/>
                        <ellipse id="Oval5" serif:id="Oval" cx="21.424" cy="25.957" rx="9.182" ry="9.161" style="fill:white;"/>
                    </g>
                </g>
                <path id="Line-213" serif:id="Line-2" d="M110.342,346.464C148.077,316.952 190.401,302.197 237.315,302.197C284.229,302.197 322.729,314.663 352.815,339.595C364.659,328.928 374.093,322.058 381.117,318.988C414.476,304.402 445.154,309.168 461.431,330.436C476.844,350.576 482.301,408.266 428.54,458.659C411.713,474.432 379.842,490.206 332.928,505.979C312.425,516.006 298.506,524.656 291.171,531.929C263.698,559.168 270.206,576.197 230.431,576.197C196.978,576.197 196.978,551.431 173.064,527.35C165.674,519.909 153.181,510.495 135.584,499.11C41.756,481.81 -3.373,451.027 0.196,406.759C3.766,362.492 40.481,342.393 110.342,346.464Z" style="fill:rgb(212,155,167);stroke:rgb(142,88,99);stroke-width:4px;"/>
                <path id="Line-3" d="M56,395.722C61.909,392.616 66.756,391.596 70.539,392.664C84.607,396.634 92.473,402.599 102.678,407.955C109.929,411.761 120.84,415.414 124.87,417.13C151.494,428.465 173.11,434.426 179.2,437.772C194.504,446.182 207.105,511.496 245.009,503.523C274.087,497.407 280.954,485.515 313.878,453.828C323.753,444.324 344.974,425.955 368.974,404.132C370.879,402.4 383.888,389.912 408,366.669C397.664,372.448 389.757,377.035 384.278,380.431C361.584,394.498 338.222,401.709 313.878,395.722C276.341,386.49 254.835,361.861 232,364.376C208.451,366.969 161.6,404.132 151.652,404.132C143.59,404.132 128.674,410.704 107.27,404.897C101.14,403.234 80.256,388.994 65.183,386.548C61.302,385.918 58.241,388.976 56,395.722Z"/>
                <path id="Line-8" d="M203,378.769L210.604,440.129L237.979,443.197C238.993,434.504 239.5,426.834 239.5,420.187C239.5,413.54 240.514,403.313 242.542,389.507C243.154,403.849 243.914,414.075 244.823,420.187C245.732,426.298 245.732,433.968 244.823,443.197L272.198,443.197L276,381.837C261.299,370.077 248.625,364.197 237.979,364.197C227.333,364.197 215.674,369.054 203,378.769Z" style="fill:white;"/>
                <path id="Line-221" serif:id="Line-22" d="M35.5,130C120.874,84.171 188.291,59.646 237.75,56.424C287.209,53.202 354.292,67.789 439,100.183L427,116.86C360.833,88.052 297.75,77.204 237.75,84.317C177.75,91.43 114,112.984 46.5,148.98L35.5,130Z" style="fill:rgb(34,34,34);"/>
                <path id="Line-9" d="M219,497.885L220.524,475.219C225.434,473.204 229.243,472.197 231.952,472.197C234.661,472.197 237.455,473.204 240.333,475.219L240.333,494.108L243.381,494.108L243.381,473.708C248.46,472.7 252.27,472.197 254.81,472.197C257.349,472.197 261.413,472.7 267,473.708L267,496.374C262.429,502.922 254.429,506.197 243,506.197C231.571,506.197 223.571,503.426 219,497.885Z" style="fill:white;"/>
                <path id="Line-31" serif:id="Line-3" d="M56,395.722C61.909,392.616 66.756,391.596 70.539,392.664C84.607,396.634 92.473,402.599 102.678,407.955C109.929,411.761 120.84,415.414 124.87,417.13C151.494,428.465 173.11,434.426 179.2,437.772C194.504,446.182 207.105,511.496 245.009,503.523C274.087,497.407 280.954,485.515 313.878,453.828C323.753,444.324 344.974,425.955 368.974,404.132C370.879,402.4 383.888,389.912 408,366.669C397.664,372.448 389.757,377.035 384.278,380.431C361.584,394.498 338.222,401.709 313.878,395.722C276.341,386.49 254.835,361.861 232,364.376C208.451,366.969 161.6,404.132 151.652,404.132C143.59,404.132 128.674,410.704 107.27,404.897C101.14,403.234 80.256,388.994 65.183,386.548C61.302,385.918 58.241,388.976 56,395.722Z" style="fill:none;stroke:black;stroke-width:5px;"/>
                <path id="Line-6" d="M162.848,150.29C158.191,136.594 155.276,136.564 147.543,130.438C126.684,113.912 103.543,102.781 93.975,89.206C80.86,70.6 72.952,46.93 70.252,18.197C67.5,47.496 69.285,67.603 75.609,78.517C77.694,82.116 86.117,98.684 97.801,109.822C116.283,127.44 140.731,141.375 144.482,144.182C148.832,147.437 152.403,154.309 155.196,164.798L162.083,173.197C165.698,167.057 165.953,159.421 162.848,150.29Z" style="fill:rgb(2,91,127);"/>
                <g id="Line-61" serif:id="Line-6" transform="matrix(-0.990268,0.139173,0.139173,0.990268,596.124,-41.6851)">
                    <path d="M349.02,138.177C348.78,137.327 344.869,122.647 339.94,118.732C319.102,102.187 295.986,91.041 286.428,77.45C273.326,58.821 265.427,35.122 262.729,6.354C259.98,35.689 261.764,55.821 268.081,66.748C270.164,70.351 278.07,88.28 290.25,98.091C300.551,106.389 318.614,115.953 322.361,118.764C326.706,122.023 333.664,136.742 343.234,162.921C346.774,157.346 348.801,153.459 349.315,151.259C349.61,149.999 349.02,138.177 349.02,138.177Z" style="fill:rgb(2,91,127);"/>
                </g>
                <path id="Line-7" d="M69,200.197C70.016,192.419 73.317,185.937 78.905,180.752C84.492,175.567 91.857,172.715 101,172.197C91.411,175.772 84.808,179.142 81.19,182.308C77.573,185.473 73.509,191.436 69,200.197Z" style="fill:rgb(2,91,127);stroke:rgb(2,91,127);stroke-width:1px;"/>
                <g id="Line-71" serif:id="Line-7" transform="matrix(-0.996195,0.0871557,0.0871557,0.996195,683.633,-29.8481)">
                    <path d="M333.579,177.848C334.598,170.203 337.911,163.833 343.517,158.736C349.123,153.64 356.512,150.837 365.686,150.327C356.065,153.841 349.44,157.154 345.81,160.265C342.18,163.376 338.103,169.237 333.579,177.848Z" style="fill:rgb(2,91,127);stroke:rgb(2,91,127);stroke-width:1px;"/>
                </g>
                <g id="Oval-2" transform="matrix(0.927184,0.374607,-0.374607,0.927184,145.166,-81.4761)">
                    <ellipse cx="282.162" cy="332.67" rx="10.702" ry="6.88"/>
                </g>
                <g id="Oval-21" serif:id="Oval-2" transform="matrix(-0.927184,0.374607,0.374607,0.927184,247.701,-48.1482)">
                    <ellipse cx="193.555" cy="334.525" rx="10.702" ry="6.88"/>
                </g>
            </g>
            <path id="Line-69" d="M1035,1275C1030.35,1280.37 1021.73,1286.2 1009.13,1292.5C996.525,1298.8 979.15,1305.97 957,1314C976.085,1308.82 991.802,1303.99 1004.15,1299.5C1016.5,1295.01 1024.63,1291.18 1028.53,1288L1035,1275Z" style="fill:rgb(0,112,157);"/>
            <g id="Line-5" transform="matrix(-0.981627,0.190809,0.190809,0.981627,1111.09,-106.986)">
                <path d="M481.936,424.607C519.414,445.857 545.485,456.282 560.15,455.883C602.007,454.741 632.496,408.472 649.541,423.11C664.015,435.539 672.956,501.758 684.547,539.288C694.974,573.049 713.347,600.107 739.667,620.463C711.308,611.382 692.934,597.232 684.545,578.015C671.811,548.845 658.76,487.527 649.54,455.878C645.933,443.497 644.143,430.629 642.837,429.813C637.414,426.425 608.538,467.796 562.384,467.798C533.333,467.8 505.919,454.73 494.598,446.949C487.051,441.761 482.83,434.314 481.936,424.607Z" style="fill:url(#_Linear1);"/>
            </g>
            <g id="Line-4" transform="matrix(-0.981627,0.190809,0.190809,0.981627,1669.66,-160.77)">
                <path d="M999.808,386.201C980.439,407.551 956.353,420.213 927.55,424.186C884.046,430.187 850.173,402.178 834.436,418.233C821.957,430.964 836.258,489.084 826.982,523.987C821.463,544.755 806.066,573.304 780.794,609.634C794.177,601.118 803.365,593.422 808.356,586.546C819.755,570.844 827.216,546.673 830.706,535.158C844.631,489.211 837.56,433.687 843.374,429.403C845.787,427.626 850.739,420.719 864.232,425.679C881.643,432.078 896.923,446.467 927.549,443.55C958.835,440.569 951.821,434.354 968.52,424.184C977.971,418.429 985.798,415.337 993.848,405.565C999.214,399.05 1001.2,392.596 999.808,386.201Z" style="fill:url(#_Linear2);"/>
            </g>
            <g id="Line-691" serif:id="Line-69" transform="matrix(-1,0,0,1,952,0)">
                <path d="M515,1291C510.352,1296.37 501.728,1302.2 489.126,1308.5C476.525,1314.8 459.15,1321.97 437,1330C456.085,1324.82 471.802,1319.99 484.151,1315.5C496.5,1311.01 504.627,1307.18 508.532,1304L515,1291Z" style="fill:rgb(0,112,157);"/>
            </g>
            <g id="Group-6" transform="matrix(0.659545,-1.1187,1.1187,0.659545,-319.303,520.02)">
                <path id="Line-11" d="M299.893,581.518C299.191,602.583 291.875,614.734 277.945,617.971C257.051,622.826 37.776,557.688 29.444,554.99C21.112,552.292 0.809,549.703 0.809,539.18C0.809,532.165 11.298,510.361 32.276,473.766C21.154,455.52 15.963,435.871 16.7,414.816C17.438,393.761 24.518,359.535 37.94,312.137C38.56,273.812 45.64,248.764 59.179,236.994C72.718,225.224 96.082,223.806 129.269,232.74C133.045,219.508 142.013,211.946 156.173,210.056C170.332,208.165 187.796,209.583 208.563,214.309C216.137,200.851 225.009,192.868 235.181,190.36C245.353,187.851 265.226,188.745 294.8,193.042C299.364,166.245 305.31,142.379 312.637,121.443C319.963,100.508 330.347,72.861 343.788,38.502C360.006,10.619 382.189,-0.251 410.338,5.893C438.487,12.037 453.977,33.573 456.809,70.501L395.47,342.01C408.214,379.752 414.586,405.951 414.586,420.609C414.586,442.596 388.855,487.692 366.443,519.135C351.502,540.097 329.318,560.892 299.893,581.518Z"/>
                <path id="Line-111" serif:id="Line-11" d="M286.774,564.194C284.561,594.695 276.493,611.564 262.571,614.799C241.689,619.652 21.978,554.547 13.651,551.85C5.324,549.152 0.6,542.527 0.6,532.01C0.6,524.999 6.837,499.827 19.312,456.495C8.197,438.258 3.008,418.618 3.745,397.574C4.483,376.53 11.558,342.321 24.973,294.946C25.593,256.64 32.668,231.605 46.2,219.84C59.731,208.076 83.081,206.659 116.249,215.589C120.023,202.363 128.986,194.805 143.137,192.916C157.288,191.026 174.742,192.443 195.497,197.167C203.066,183.716 211.934,175.736 222.1,173.229C232.265,170.722 252.127,171.616 281.684,175.91C286.246,149.127 292.188,125.272 299.51,104.347C306.833,83.422 317.21,55.789 330.644,21.447C349.682,2.553 373.268,-3.824 401.401,2.317C429.533,8.457 443.6,25.495 443.6,53.43L382.296,324.805C395.033,362.527 401.401,388.714 401.401,403.364C401.401,425.34 375.685,470.414 353.286,501.842C338.353,522.793 316.182,543.577 286.774,564.194Z" style="fill:rgb(26,32,71);"/>
                <path id="Line-112" serif:id="Line-11" d="M275.251,544.922C273.345,571.185 266.4,585.709 254.416,588.495C236.44,592.673 47.31,536.615 40.142,534.293C32.974,531.971 28.907,526.266 28.907,517.211C28.907,511.174 34.276,489.5 45.015,452.19C35.447,436.488 30.98,419.577 31.615,401.457C32.25,383.338 38.341,353.882 49.888,313.091C50.422,280.108 56.513,258.552 68.16,248.423C79.808,238.293 99.908,237.073 128.46,244.762C131.709,233.374 139.424,226.867 151.606,225.24C163.787,223.613 178.812,224.833 196.678,228.9C203.194,217.318 210.827,210.448 219.578,208.289C228.329,206.13 254.84,206.9 299.112,210.598C303.039,187.536 308.154,166.997 314.457,148.98C320.76,130.962 329.694,107.169 341.257,77.6C352.071,33.228 371.988,15.761 401.009,25.201C430.031,34.64 432.62,75.9 408.776,148.98L357.478,338.801C368.441,371.281 373.923,393.828 373.923,406.443C373.923,425.365 351.787,464.174 332.505,491.235C319.65,509.275 300.566,527.171 275.251,544.922Z" style="fill:none;stroke:white;stroke-width:3px;"/>
                <g id="YOU-GOT-THIS-" serif:id="YOU-GOT-THIS!" transform="matrix(0.97437,0.224951,-0.224951,0.97437,97.0584,-29.6944)">
                    <path d="M134.531,294.174C135.238,292.299 138.715,291.361 144.962,291.361C146.538,291.361 148.398,291.468 150.544,291.682C152.69,291.897 153.682,292.165 153.519,292.486L136.569,326.086L136.569,345.699C136.569,346.61 135.075,347.253 132.087,347.628C130.565,347.842 129.071,347.949 127.604,347.949C126.138,347.949 124.671,347.869 123.204,347.708C120.216,347.333 118.722,346.663 118.722,345.699L118.722,326.568L101.201,292.647C100.984,292.326 102.097,292.017 104.542,291.723C106.987,291.428 109.051,291.281 110.736,291.281C117.418,291.281 121.085,292.245 121.737,294.174L127.686,310.572L134.531,294.174ZM180.311,348.759C172.835,348.759 166.734,346.281 162.008,341.326C157.281,336.372 154.918,329.141 154.918,319.635C154.918,310.129 157.308,302.926 162.088,298.025C166.867,293.124 173.035,290.673 180.592,290.673C188.148,290.673 194.25,293.084 198.896,297.904C203.542,302.724 205.865,310.022 205.865,319.797C205.865,329.572 203.488,336.843 198.736,341.609C193.983,346.376 187.841,348.759 180.311,348.759ZM180.763,304.718C178.158,304.718 175.973,305.907 174.21,308.285C172.446,310.663 171.564,314.001 171.564,318.298C171.564,322.595 172.405,325.892 174.087,328.189C175.77,330.487 177.981,331.635 180.722,331.635C183.463,331.635 185.688,330.473 187.397,328.149C189.107,325.825 189.961,322.501 189.961,318.176C189.961,313.852 189.079,310.528 187.316,308.204C185.552,305.88 183.368,304.718 180.763,304.718ZM239.336,292.92C239.336,291.856 242.24,291.324 248.048,291.324C253.856,291.324 256.76,291.856 256.76,292.92L256.76,329.555C256.76,334.983 254.806,339.412 250.899,342.844C246.991,346.276 241.598,347.992 234.719,347.992C227.841,347.992 222.247,346.223 217.938,342.685C213.629,339.146 211.474,334.371 211.474,328.358L211.474,293C211.474,291.936 214.378,291.403 220.186,291.403C225.994,291.403 228.898,291.936 228.898,293L228.898,328.996C228.898,330.061 229.46,330.912 230.584,331.55C231.762,332.189 232.993,332.508 234.278,332.508C235.563,332.508 236.727,332.216 237.771,331.63C238.814,331.045 239.336,330.167 239.336,328.996L239.336,292.92ZM140.81,422.286L140.966,411.299C140.966,410.545 141.718,410.047 143.221,409.805C144.724,409.562 145.968,409.441 146.953,409.441L149.986,409.684C151.956,410.007 152.941,410.572 152.941,411.38L152.63,436.666C151.593,437.42 149.506,438.161 146.37,438.888C143.234,439.615 139.644,439.978 135.601,439.978C128.084,439.978 122.019,437.447 117.405,432.385C112.792,427.322 110.485,419.89 110.485,410.087C110.485,401.74 112.74,394.954 117.25,389.729C121.76,384.505 128.006,381.893 135.989,381.893C139.618,381.893 142.897,382.257 145.826,382.984C148.755,383.711 150.763,384.694 151.852,385.932C151.904,386.363 151.93,387.171 151.93,388.356C151.93,389.541 151.541,391.224 150.763,393.405C149.986,395.586 149.105,397.216 148.12,398.293C147.135,399.37 146.422,399.908 145.981,399.908C145.541,399.908 145.074,399.706 144.582,399.302C144.089,398.899 143.117,398.468 141.666,398.01C140.214,397.552 138.815,397.323 137.467,397.323C134.253,397.323 131.648,398.4 129.652,400.555C127.656,402.709 126.659,406.048 126.659,410.572C126.659,415.096 127.682,418.53 129.73,420.872C131.778,423.215 134.136,424.387 136.806,424.387C139.476,424.387 140.81,423.687 140.81,422.286ZM185.518,440.611C178.041,440.611 171.94,438.133 167.214,433.178C162.487,428.223 160.124,420.993 160.124,411.487C160.124,401.981 162.514,394.778 167.294,389.877C172.073,384.976 178.241,382.525 185.798,382.525C193.355,382.525 199.456,384.935 204.102,389.755C208.748,394.576 211.071,401.873 211.071,411.649C211.071,421.424 208.695,428.694 203.942,433.461C199.189,438.227 193.047,440.611 185.518,440.611ZM184.59,396.888C181.985,396.888 179.801,398.077 178.037,400.455C176.273,402.834 175.391,406.171 175.391,410.468C175.391,414.765 176.232,418.063 177.915,420.36C179.597,422.657 181.809,423.806 184.549,423.806C187.29,423.806 189.515,422.643 191.224,420.319C192.934,417.995 193.789,414.671 193.789,410.347C193.789,406.023 192.907,402.698 191.143,400.374C189.379,398.05 187.195,396.888 184.59,396.888ZM241.633,438.128C241.633,439.202 238.959,439.738 233.611,439.738C228.263,439.738 225.589,439.202 225.589,438.128L225.589,397.72L215.865,397.72C214.946,397.72 214.298,396.486 213.92,394.017C213.758,392.836 213.677,391.629 213.677,390.395C213.677,389.16 213.758,387.953 213.92,386.772C214.298,384.304 214.946,383.07 215.865,383.07L251.114,383.07C252.032,383.07 252.681,384.304 253.059,386.772C253.221,387.953 253.302,389.16 253.302,390.395C253.302,391.629 253.221,392.836 253.059,394.017C252.681,396.486 252.032,397.72 251.114,397.72L241.633,397.72L241.633,438.128ZM111.597,529.25C111.597,530.323 108.923,530.859 103.575,530.859C98.226,530.859 95.552,530.323 95.552,529.25L95.552,488.841L85.828,488.841C84.91,488.841 84.262,487.607 83.884,485.138C83.722,483.957 83.641,482.75 83.641,481.516C83.641,480.282 83.722,479.074 83.884,477.894C84.262,475.425 84.91,474.191 85.828,474.191L121.078,474.191C121.996,474.191 122.644,475.425 123.023,477.894C123.185,479.074 123.266,480.282 123.266,481.516C123.266,482.75 123.185,483.957 123.023,485.138C122.644,487.607 121.996,488.841 121.078,488.841L111.597,488.841L111.597,529.25ZM171.034,528.95C171.034,529.866 168.407,530.324 163.152,530.324C157.897,530.324 155.27,529.866 155.27,528.95L155.27,510.357L144.344,510.357L144.344,528.95C144.344,529.866 141.716,530.324 136.461,530.324C131.206,530.324 128.579,529.866 128.579,528.95L128.579,475.353C128.579,474.221 131.206,473.655 136.461,473.655C141.716,473.655 144.344,474.221 144.344,475.353L144.344,494.35L155.27,494.35L155.27,475.515C155.27,474.76 156.57,474.221 159.172,473.898C160.525,473.79 161.851,473.736 163.152,473.736L167.132,473.898C169.734,474.221 171.034,474.76 171.034,475.515L171.034,528.95ZM185.913,516.343L185.913,487.522L180.048,487.522C179.112,487.522 178.451,486.362 178.065,484.041C177.9,482.908 177.817,481.748 177.817,480.56C177.817,479.373 177.9,478.213 178.065,477.079C178.451,474.759 179.112,473.598 180.048,473.598L207.806,473.598C208.742,473.598 209.375,474.759 209.706,477.079C209.926,478.213 210.036,479.373 210.036,480.56C210.036,481.748 209.926,482.908 209.706,484.041C209.375,486.362 208.742,487.522 207.806,487.522L202.271,487.522L202.271,516.343L208.053,516.343C208.99,516.343 209.651,517.503 210.036,519.824C210.256,520.957 210.367,522.117 210.367,523.305C210.367,524.492 210.256,525.652 210.036,526.786C209.651,529.107 208.99,530.267 208.053,530.267L180.213,530.267C179.277,530.267 178.643,529.107 178.313,526.786C178.093,525.652 177.983,524.492 177.983,523.305C177.983,522.117 178.093,520.957 178.313,519.824C178.643,517.503 179.277,516.343 180.213,516.343L185.913,516.343ZM217.984,510.983C218.976,511.791 220.685,512.895 223.112,514.295C225.539,515.695 227.862,516.395 230.08,516.395C232.298,516.395 233.407,515.507 233.407,513.73C233.407,512.922 233.094,512.208 232.468,511.589C231.841,510.969 230.693,510.256 229.023,509.448C227.353,508.64 226.1,508.007 225.265,507.549C224.43,507.092 223.321,506.338 221.938,505.287C220.555,504.237 219.498,503.147 218.767,502.016C216.68,498.946 215.636,495.041 215.636,490.301C215.636,485.562 217.345,481.563 220.764,478.305C224.182,475.046 228.658,473.417 234.19,473.417C237.948,473.417 241.418,473.835 244.602,474.669C247.786,475.504 249.43,476.595 249.534,477.941L249.534,478.426C249.534,480.311 248.96,482.694 247.812,485.575C246.664,488.457 245.855,490.059 245.385,490.382C242.045,488.605 239.057,487.716 236.421,487.716C233.785,487.716 232.468,488.686 232.468,490.625C232.468,491.81 233.433,492.86 235.364,493.775C235.782,493.991 236.382,494.287 237.165,494.664C237.948,495.041 238.848,495.485 239.866,495.997C240.883,496.509 241.979,497.155 243.154,497.936C244.328,498.717 245.594,499.753 246.951,501.046C249.717,503.739 251.1,507.294 251.1,511.71C251.1,517.473 249.56,522.185 246.481,525.847C243.402,529.51 238.652,531.395 232.233,531.503C229.101,531.503 226.27,531.233 223.739,530.695C221.207,530.156 219.002,529.106 217.123,527.544C215.244,525.982 214.305,524.097 214.305,521.889C214.305,519.681 214.696,517.486 215.479,515.305C216.262,513.124 217.097,511.683 217.984,510.983ZM272.386,513.167C272.386,513.492 270.543,513.655 266.857,513.655C263.171,513.655 261.328,513.519 261.328,513.249L259.781,473.219C259.781,472.786 262.14,472.57 266.857,472.57C271.574,472.57 273.933,472.759 273.933,473.138L272.386,513.167ZM259.89,519.257C259.89,518.885 262.249,518.699 266.966,518.699C271.683,518.699 274.042,518.859 274.042,519.177L274.042,530.653C274.042,531.184 271.683,531.45 266.966,531.45C262.249,531.45 259.89,531.29 259.89,530.972L259.89,519.257Z" style="fill:white;"/>
                </g>
            </g>
            <path id="Line-231" serif:id="Line-23" d="M537.5,183C508.5,229.494 494,269.163 494,302.007C494,334.851 498.5,358.186 507.5,372.011C513.579,373.33 517.912,373.33 520.5,372.011C523.088,370.692 525.421,367.295 527.5,361.82C521.034,358.228 517.534,355.291 517,353.01C511.724,330.477 517,309.363 517,293.006C517,274.166 527.333,243.164 548,200.001L537.5,183Z" style="fill:rgb(104,104,104);"/>
            <path id="Line-241" serif:id="Line-24" d="M519.161,279.152C515.76,285.175 513.773,293.229 513.2,303.316C512.626,313.403 513.288,328.648 515.187,349.051C519.565,356.711 524.202,360.688 529.097,360.982C533.992,361.276 538.959,357.962 544,351.04C539.363,309.77 536.052,286.902 534.064,282.437C532.077,277.971 527.109,276.877 519.161,279.152Z" style="fill:rgb(34,34,34);stroke:rgb(14,14,13);stroke-width:1px;"/>
            <g id="Group-5" transform="matrix(0.990268,-0.139173,0.139173,0.990268,820.672,308.008)">
                <path id="Line-12" d="M186.861,0C182.338,47.785 169.926,82.472 149.624,104.059C129.322,125.646 97.045,138.478 52.794,142.555L45.283,136.446C23.717,139.088 10.4,142.45 5.331,146.53C-2.273,152.651 -1.263,162.102 5.331,168.608C9.727,172.946 41.658,167.146 101.126,151.209C138.888,138.575 166.82,120.041 184.921,95.605C203.023,71.17 203.669,39.302 186.861,0Z"/>
                <path id="Line-121" serif:id="Line-12" d="M186.861,0C182.338,47.785 169.926,82.472 149.624,104.059C129.322,125.646 97.045,138.478 52.794,142.555L45.283,136.446C23.717,139.088 10.4,142.45 5.331,146.53C-2.273,152.651 -1.263,162.102 5.331,168.608C9.727,172.946 41.658,167.146 101.126,151.209C138.888,138.575 166.82,120.041 184.921,95.605C203.023,71.17 203.669,39.302 186.861,0Z" style="fill:rgb(84,84,84);"/>
            </g>
            <path id="Line-70" d="M662,682.45C662.246,669.444 667.246,676.107 677,702.437C686.753,728.768 705.752,786.896 733.998,876.822C763.058,816.938 787.724,768.47 807.996,731.418C828.267,694.366 838.267,679.472 837.995,686.737L733.998,897L662,682.45Z"/>
            <path id="Combined-Shape" d="M742.859,888.279C752.964,888.491 760.678,894.564 766,906.5L766,983.5L757.108,997L757.108,921L705,917.5C710.986,907.19 717.272,899.61 723.858,894.759L723.858,879C726.174,875 728.986,873 732.295,873C735.603,873 738.746,874.833 741.724,878.5L742.871,888.273L742.859,888.279Z" style="fill:rgb(67,79,154);stroke:rgb(26,32,71);stroke-width:1px;"/>
            <path id="Line-251" serif:id="Line-25" d="M733.572,955.5L740.55,997L757,997L757,921C752.015,907.667 744.206,901 733.572,901C717.621,901 701.171,910 703.165,928C704.494,940 714.63,949.167 733.572,955.5Z" style="fill:rgb(26,32,71);"/>
            <circle id="Oval6" serif:id="Oval" cx="730" cy="926" r="18"/>
        </g>
    </g>
    <defs>
        <linearGradient id="_Linear1" x1="0" y1="0" x2="1" y2="0" gradientUnits="userSpaceOnUse" gradientTransform="matrix(223.358,180.355,-180.355,223.358,503.067,440.107)"><stop offset="0" style="stop-color:rgb(212,155,167);stop-opacity:1"/><stop offset="0.45" style="stop-color:rgb(166,111,122);stop-opacity:1"/><stop offset="1" style="stop-color:rgb(142,88,99);stop-opacity:1"/></linearGradient>
        <linearGradient id="_Linear2" x1="0" y1="0" x2="1" y2="0" gradientUnits="userSpaceOnUse" gradientTransform="matrix(-162.611,209.458,-209.458,-162.611,988.964,400.176)"><stop offset="0" style="stop-color:rgb(212,155,167);stop-opacity:1"/><stop offset="0.45" style="stop-color:rgb(166,111,122);stop-opacity:1"/><stop offset="1" style="stop-color:rgb(142,88,99);stop-opacity:1"/></linearGradient>
    </defs>
</svg>
