<?xml version="1.0" encoding="UTF-8"?>
<svg width="998px" height="889px" viewBox="0 0 998 889" version="1.1" xmlns="http://www.w3.org/2000/svg" xmlns:xlink="http://www.w3.org/1999/xlink">
    <!-- Generator: Sketch 53.1 (72631) - https://sketchapp.com -->
    <title>show</title>
    <desc>Created with Sketch.</desc>
    <defs>
        <linearGradient x1="8.19889675%" y1="24.0678817%" x2="94.8622223%" y2="82.3487715%" id="linearGradient-1">
            <stop stop-color="#D49BA7" offset="0%"></stop>
            <stop stop-color="#A66F7A" offset="44.7913784%"></stop>
            <stop stop-color="#8E5863" offset="100%"></stop>
        </linearGradient>
        <linearGradient x1="94.8622048%" y1="23.4487592%" x2="20.7612293%" y2="80.3474851%" id="linearGradient-2">
            <stop stop-color="#D49BA7" offset="0%"></stop>
            <stop stop-color="#A66F7A" offset="44.7913784%"></stop>
            <stop stop-color="#8E5863" offset="100%"></stop>
        </linearGradient>
    </defs>
    <g id="Page-1" stroke="none" stroke-width="1" fill="none" fill-rule="evenodd">
        <g id="show">
            <g id="Group-8">
                <rect id="Rectangle-2" fill="#E2E2E2" fill-rule="nonzero" x="29" y="37" width="664" height="571"></rect>
                <rect id="Rectangle-4" fill="#FFFDEA" fill-rule="nonzero" x="34" y="64" width="654" height="523"></rect>
                <rect id="Rectangle" stroke="#979797" fill="#735400" fill-rule="nonzero" x="19.5" y="595.5" width="692" height="20" rx="7"></rect>
                <path d="M359.5,677 C350.939586,677 344,670.060414 344,661.5 C344,652.939586 350.939586,646 359.5,646 C368.060414,646 375,652.939586 375,661.5 C375,670.060414 368.060414,677 359.5,677 Z M359.5,672.571429 C365.614581,672.571429 370.571429,667.614581 370.571429,661.5 C370.571429,655.385419 365.614581,650.428571 359.5,650.428571 C353.385419,650.428571 348.428571,655.385419 348.428571,661.5 C348.428571,667.614581 353.385419,672.571429 359.5,672.571429 Z" id="Combined-Shape" fill="#735400" fill-rule="nonzero"></path>
                <path d="M359.5,615.447368 L359.5,648.552632" id="Line-32" stroke="#535353" stroke-width="5" stroke-linecap="square"></path>
                <rect id="Rectangle-3" fill="#112D0A" fill-rule="nonzero" x="15" y="19" width="692" height="37"></rect>
                <rect id="Rectangle-3" fill="#735400" fill-rule="nonzero" x="0" y="0" width="719" height="37" rx="7"></rect>
            </g>
            <path d="M668.997579,530 C661.540959,524.721336 656.707094,520.023132 654.495984,515.905388 C652.284874,511.787644 650.451339,504.069167 648.995379,492.749955 C642.002802,488.599586 638.002362,487.592828 636.994059,489.729681 C635.481604,492.934961 610.478114,480.114696 623.992628,473.118175 C637.507142,466.121653 637.855137,463.959025 654.495984,468.084385 C660.882912,469.66774 667.89929,477.132523 674.99824,481.675617 C678.486045,483.907698 683.819965,486.592386 691,489.729681 L668.997579,530 Z" id="Line-62" stroke="#025B7F" fill="#00709D" fill-rule="nonzero" stroke-linecap="square"></path>
            <g id="Group-6" transform="translate(548.000000, 64.000000)" fill-rule="nonzero">
                <g id="Group" transform="translate(273.000000, 377.000000) scale(-1, 1) rotate(-13.000000) translate(-273.000000, -377.000000) translate(86.000000, 274.000000)">
                    <g id="Group-5" transform="translate(314.493053, 119.903653) rotate(-11.000000) translate(-314.493053, -119.903653) translate(265.493053, 63.903653)">
                        <path d="M94.5759908,0 C85.8226243,7.62724014 81.9846098,17.0609319 83.0619472,28.3010753 C84.1392846,39.5412186 88.7853022,47.1015532 97,50.9820789 C87.4386304,55.6654719 81.1766067,62.2891278 78.2139288,70.8530466 C75.2512509,79.4169654 76.3285883,86.1075269 81.4459411,90.9247312 C75.6552525,89.5866189 70.2685654,91.660693 65.2858798,97.1469534 C60.3031943,102.633214 57.5425172,107.584229 57.0038485,112 L12.9676816,66.0358423 C3.79346966,55.6403899 -0.512900414,49.8819987 0.0485714131,48.7606687 C0.61004324,47.6393387 11.7171057,39.1468338 33.3697589,23.2831541 L94.5759908,0 Z" id="Line-23" stroke="#279BCA" stroke-width="5" fill="#025B7F" stroke-linecap="square"></path>
                        <path d="M12,54 C37.8993747,47.3333333 54.7898285,44 62.6713615,44 C70.5528945,44 82.3291073,46.4666667 98,51.4 C78.6067247,48.980491 64.2733913,48.180491 55,49 C45.7266087,49.819509 31.3932753,53.1528423 12,59 L12,54 Z" id="Line-24" fill="#279BCA"></path>
                        <path d="M81,91 C72.7176955,85.3182643 65.2323623,80.2994296 58.5440003,75.9434959 C51.8556383,71.5875623 38.6743048,65.2730636 19,57 L19.3010613,62.7651333 C33.6370311,69.145718 44.7057029,73.9014688 52.5070767,77.0323856 C60.3084504,80.1633025 69.8060915,84.819174 81,91 Z" id="Line-25" fill="#279BCA"></path>
                        <path d="M32.1749334,23.5835635 C42.6520921,17.2828981 53.389779,12.0641263 64.387994,7.92724823 C75.386209,3.79037015 85.2568777,1.14795407 94,0 C74.6701112,7.74618404 63.7323432,12.172231 61.186696,13.2781408 C59.0663092,14.1993041 50.4986558,16.4702351 36.074512,24.4753032 C34.1459284,25.5456228 29.4544244,28.0538551 22,32" id="Line-22" fill="#279BCA"></path>
                    </g>
                    <g id="Group-3" transform="translate(128.156825, 102.983936) rotate(16.000000) translate(-128.156825, -102.983936) translate(16.656825, 27.983936)">
                        <path d="M1.02351296,21.4937722 C26.0427187,21.4937722 41.7365842,28.317192 48.1051093,41.9640315 C54.4736344,55.610871 49.6972405,74.7164463 33.7759278,99.2807574 C53.450719,93.3746547 68.5759662,95.4216807 79.1516691,105.421835 C89.7273721,115.42199 91.3195034,129.182553 83.928063,146.703525 C98.0297971,130.554765 112.927597,123.845069 128.621462,126.574436 C144.315328,129.303804 153.640668,136.92329 156.597483,149.432893 C160.918983,134.193922 168.652192,122.252937 179.79711,113.609939 C190.942029,104.966941 204.361422,100.986612 220.055287,101.668954 C221.668183,95.9553783 218.370197,89.3594058 210.161328,81.881037 C177.95756,52.543054 122.3308,15.5928777 103.033638,8.52927469 C76.3580907,-1.23513913 42.3547156,3.08636004 1.02351296,21.4937722 Z" id="Line-21" stroke="#279BCA" stroke-width="5" fill="#025B7F" stroke-linecap="square"></path>
                        <path d="M216.643577,91.0926537 C174.565822,50.8344772 137.605632,25.2466531 105.763006,14.3291815 C73.9203807,3.41170988 38.7797689,5.79990679 0.341170988,21.4937722 C30.3642179,2.38819691 60.8421595,-3.98032819 91.7749957,2.38819691 C118.867538,7.96607332 157.758475,29.8388714 202.996738,68.9165395 C207.271671,72.6093078 213.640196,78.5229382 222.102313,86.6574309 L216.643577,91.0926537 Z" id="Line-17" fill="#279BCA"></path>
                        <path d="M35.4817827,98.2572444 C41.8515941,91.0175165 46.6279879,86.0136754 49.8109642,83.245721 C59.0690811,75.1947513 68.7888542,69.3991489 92.7985086,61.7519488 C122.422808,52.316455 152.076084,49.2405975 176.726572,56.9755549 C180.48062,58.1535196 185.14329,61.1103349 190.714582,65.8460006 C172.291349,56.8437568 147.272143,55.4790728 115.656965,61.7519488 C84.0417866,68.0248247 57.3167259,80.1932566 35.4817827,98.2572444 Z" id="Line-18" fill="#279BCA"></path>
                        <path d="M192.079266,68.9165395 L192.079266,62.4342907 C175.326448,65.943446 163.385463,68.7865375 156.256312,70.9635654 C143.07437,74.9889334 131.059391,82.756969 123.162727,88.7044568 C108.859967,99.476788 95.8954699,118.923534 84.2692339,147.044696 C85.6448588,145.653937 87.2369901,143.379464 89.0456278,140.221276 C99.244114,122.412991 115.93494,99.84313 134.080198,88.7044568 C157.052378,74.6027226 176.385401,68.0067502 192.079266,68.9165395 Z" id="Line-19" fill="#279BCA"></path>
                        <path d="M195.149805,68.9165395 C192.441409,69.4198149 190.508107,70.1021569 189.349898,70.9635654 C177.777505,79.5704422 170.159791,90.3272705 165.8091,99.6219284 C160.805259,110.311953 157.73472,126.574436 156.597483,148.40938 C153.413221,128.166568 154.777905,111.221742 160.691535,97.5749025 C166.018867,85.2810594 175.218567,73.7824507 188.667556,67.2106846 C189.654307,66.728515 191.815056,67.2971333 195.149805,68.9165395 Z" id="Line-20" fill="#279BCA"></path>
                    </g>
                </g>
                <path d="M118.261301,495.779018 C118.261301,454.799846 137.573319,412.6546 176.197354,369.34328 C179.580481,357.554065 181.578276,349.224965 182.190739,344.355981 C183.215681,336.207852 180.614781,329.037146 182.190739,323.866395 C185.179287,314.060902 190.340258,305.731802 197.673649,298.879095 C189.603003,288.336399 184.774998,280.173881 183.189636,274.391541 C181.604274,268.609201 181.271308,257.947953 182.190739,242.407797 L56.5,191 L55.3307607,142.458598 C50.6692393,129.132038 53,118.137626 62.323043,109.475362 C71.646086,100.813098 84.631753,94.6495638 101.280044,90.9847598 L129.249173,82.9888239 L145.730981,74.9928879 L182.190739,61 L225.642778,64.997968 L255.110254,82.9888239 L280.08269,112.473838 L285.077178,154.952248 C275.917253,171.796383 269.424419,184.456615 265.598677,192.932943 C259.860063,205.647436 251.114664,229.414401 251.114664,249.404241 C251.114664,269.394081 269.349589,277.889763 268.095921,310.872999 C266.842252,343.856235 242.124587,396.82931 251.114664,428.313308 C260.104741,459.797306 293.727477,487.585069 311.54796,511.271144 C329.368444,534.957218 334.861501,548.157123 343.512679,571.240663 C349.280131,586.62969 353.109238,605.286874 355,627.212215 C352.666667,683.737405 348.83756,718.886207 343.512679,732.658621 C335.525358,753.317241 324.034179,795.12687 212.657111,818.614932 C138.405733,834.27364 92.4564498,815.783038 74.8092613,763.143126 C98.0923766,782.70508 116.239014,792.866582 129.249173,793.627632 C161.462138,795.511983 179.437595,781.814036 189.183021,774.137538 C204.832415,761.81047 209.771408,747.984165 204,732.658621 C202.289132,735.575447 200.955799,737.855907 200,739.5 C199.044201,741.144093 195.438541,747.359315 189.183021,758.145666 C190.364238,746.108327 191.803231,737.612645 193.5,732.658621 C197.120144,722.088951 204.063953,713.590465 207.662624,707.671321 C211.06,702.083269 180.192944,707.671321 168.206174,676.687069 C167.904909,675.908336 164.979186,670.948436 164.710033,670.190371 C155.719956,644.869907 156.885336,620.215771 168.206174,596.227963 C134.909592,570.241171 118.261301,536.75819 118.261301,495.779018 Z" id="Line-3" stroke="#00709D" stroke-width="2" fill="#279BCA" stroke-linecap="square"></path>
                <path d="M186.5,258.5 L223.5,253.5 C221.833333,257.5 221.833333,263.5 223.5,271.5 C226,283.5 239.144069,283.04912 238.5,302.5 C237.855931,321.95088 221,341.5 221,347 C221,352.5 228.082299,355.762143 223.5,370 C221.531116,376.117604 219.000252,375.591084 215,379.5 C213.529048,380.937367 210.862381,384.604033 207,390.5 L173.5,372.5 C176.816121,363.380666 179.482788,356.047333 181.5,350.5 C183.5,345 180.649016,332.079428 183,321.5 C187,303.5 197,302.224202 197,298 C197,293.775798 186.723232,293.775798 183,276.5 C180.517845,264.982801 181.684512,258.982801 186.5,258.5 Z" id="Line-8" fill="#00709D"></path>
                <path d="M124,190.519982 C129.799446,200.841416 134.966113,207.669596 139.5,211.004524 C144.033887,214.339452 150.86722,216.337944 160,217 L189,172.033932 C176.174004,137.060324 161.256813,123.403962 144.248428,131.064848 C133.305699,135.993652 126.556223,155.81203 124,190.519982 Z" id="Line-57" fill="#FFFFFF"></path>
                <path d="M91.5533609,192 C96.3441883,167.948812 98.4647839,152.267565 97.9151479,144.956258 C96.9827311,132.55317 90.0349868,124.720762 84.0991463,121.756605 C72.9147641,116.171503 62.8817153,123.904721 54,144.956258 L55.5021344,192 L91.5533609,192 Z" id="Line-2" fill="#FFFFFF"></path>
                <g id="Group-3" transform="translate(55.000000, 140.000000)">
                    <g id="Group-4">
                        <ellipse id="Oval-10" fill="#EB5B79" transform="translate(21.000000, 31.500000) rotate(2.000000) translate(-21.000000, -31.500000) " cx="21" cy="31.5" rx="19" ry="30.5"></ellipse>
                        <ellipse id="Oval-10" fill="#000000" transform="translate(22.500000, 33.000000) rotate(2.000000) translate(-22.500000, -33.000000) " cx="22.5" cy="33" rx="17.5" ry="28"></ellipse>
                        <circle id="Oval" fill="#FFFFFF" cx="16" cy="10" r="4"></circle>
                    </g>
                </g>
                <path d="M225.668578,215 C227.694315,233.615511 226.370187,245.068142 221.696196,249.357895 C217.022205,253.647647 204.277481,254.826594 183.462025,252.894737 L178,263 C210.110084,260.642105 227.158221,258.452632 229.144411,256.431579 C230.421732,255.131839 232.951073,245.251478 231.62715,234.2 C231.137327,230.111196 229.151137,223.711196 225.668578,215 Z" id="Line-58" fill="#025B7F"></path>
                <g id="Group-2" transform="translate(117.000000, 147.000000)">
                    <ellipse id="Oval-10" fill="#EB5B79" transform="translate(25.000000, 34.500000) rotate(10.000000) translate(-25.000000, -34.500000) " cx="25" cy="34.5" rx="19" ry="31.5"></ellipse>
                    <ellipse id="Oval-10" fill="#000000" transform="translate(23.500000, 36.500000) rotate(10.000000) translate(-23.500000, -36.500000) " cx="23.5" cy="36.5" rx="17.5" ry="29.5"></ellipse>
                    <circle id="Oval" fill="#FFFFFF" cx="18" cy="15" r="4"></circle>
                </g>
                <g id="Group">
                    <path d="M119.434278,174.695444 C115.801584,171.958047 112.931093,170.423283 110.822805,170.09115 C108.714516,169.759017 105.496087,170.334554 101.167517,171.81776 C99.9911825,173.966766 99.2953059,175.50153 99.079887,176.422054 L99.079887,176.422054 L99.079887,176.422054 C98.7222231,177.950416 99.6712618,179.479343 101.199624,179.837007 C101.660755,179.944919 102.141543,179.93589 102.598296,179.810737 C105.013566,179.148957 107.23316,179.170466 109.257082,179.875274 C111.467801,180.645132 113.717429,182.058608 116.005967,184.115702 L116.006,184.115665 C117.235393,185.220726 119.127842,185.119937 120.232904,183.890544 C120.726776,183.341106 121,182.62843 121,181.889653 L121,181.889653 C121,180.418837 120.478093,178.020767 119.434278,174.695444 Z" id="Line-13" fill="#36A8D7"></path>
                    <path d="M116.449438,188.223124 C112.790198,185.807607 109.914481,184.435658 107.822288,184.107277 C105.730094,183.778896 102.575848,184.20441 98.3595506,185.383818 C97.1946064,187.504164 96.5054678,189.01846 96.2921348,189.926708 C96.0788019,190.834955 95.6480903,192.633182 95,195.321388 C99.3071161,192.860657 103.097378,192.198152 106.370787,193.333874 C109.644195,194.469597 113.003745,197.024972 116.449438,201 C117.483146,198.66546 118,196.772589 118,195.321388 C118,193.870188 117.483146,191.5041 116.449438,188.223124 Z" id="Line-13" fill="#36A8D7" transform="translate(106.500000, 192.500000) rotate(7.000000) translate(-106.500000, -192.500000) "></path>
                    <path d="M107.42494,163.830128 C109.535643,163.276257 111.16709,163.032436 112.31928,163.098667 C113.57965,163.171115 115.484127,163.684559 118.032711,164.638997 L118.03271,164.638998 C120.618739,165.60746 123.500223,164.296162 124.468685,161.710133 C124.509079,161.602272 124.545734,161.493047 124.578584,161.382654 L124.913219,160.258111 C125.700819,157.611387 124.193701,154.827318 121.546977,154.039719 C121.473971,154.017994 121.400477,153.99794 121.326554,153.979573 C116.511183,152.783137 112.90099,152.129621 110.495976,152.019025 C108.650337,151.934152 106.736767,152.133254 104.755267,152.616332 L104.755266,152.616331 C102.223418,153.23358 100.590217,155.691949 101.002525,158.265129 L101.249218,159.804719 C101.683976,162.518007 104.235971,164.36512 106.949259,163.930362 C107.109355,163.904709 107.268102,163.871246 107.424931,163.830093 L107.42494,163.830128 Z" id="Line-14" fill="#36A8D7"></path>
                    <path d="M124.018105,149.939933 C121.534913,148.70642 118.628602,147.904445 115.299171,147.534008 C112.513734,147.224097 110.061465,147.435892 107.942362,148.169393 L107.942363,148.169396 C105.332842,149.07265 102.485175,147.689447 101.581921,145.079926 C101.53335,144.939603 101.491054,144.797186 101.455159,144.653098 L100.964073,142.681842 C100.296549,140.00231 101.927604,137.288984 104.607137,136.62146 C104.627017,136.616508 104.646927,136.611677 104.666867,136.60697 C109.204342,135.535657 113.272415,135 116.871083,135 C120.861141,135 125.028755,136.843822 129.373926,140.531467 L129.373931,140.531462 C131.088084,141.986223 131.620477,144.40619 130.675138,146.446039 L130.035848,147.825497 C129.002365,150.055543 126.356752,151.025549 124.126706,149.992066 C124.090272,149.975181 124.054067,149.957803 124.018103,149.939938 L124.018105,149.939933 Z" id="Line-15" fill="#36A8D7"></path>
                    <path d="M52.4212728,191.476401 C59.3025372,185.914159 66.1838016,187.026608 73.065066,194.813746 C84.7253655,190.698358 94.1418326,189.58591 101.314467,191.476401 C108.487102,193.366892 117.360311,199.299951 127.934095,209.275576 C151.294177,210.75884 165.147249,212.798329 169.493311,215.394042 C176.012403,219.287611 185.87681,227.614391 186.877557,239.589795 C187.878305,251.565198 182.803125,261.560651 169.493311,264.619884 C163.222493,266.061218 146.879515,268.097634 134.5,274 C120.603988,280.625409 98.0727175,288.795388 80.5,282.5 C73.1196582,279.856009 73.3669815,264.824612 66,258.5 C58.3617594,251.94251 52.2715433,253.097923 49.5,251 C42.909784,246.011528 44.838679,241.646666 43.5,237.687067 C41.0553403,230.456152 42.0993763,199.819764 52.4212728,191.476401 Z" id="Line-53" stroke="#8E5863" stroke-width="2" fill="#D49BA7" stroke-linecap="square"></path>
                    <path d="M52,214 C58.9597694,220.677516 64.4824032,224.695873 68.5679012,226.055072 C69.7023351,226.432485 77.5820927,227.456431 83.2345679,230.105736 C92.7604219,234.570486 103.409797,241.879366 119.08642,245.572808 C124.767608,246.911307 137.238801,245.311416 156.5,240.773134 C140.786562,247.045274 130.619895,250.954229 126,252.5 C120.022536,254.5 120.349999,253.594118 108,256.5 C99.5,258.5 92.0195342,272.766321 85.5,265.5 C83.0867447,262.810316 83.2764233,255.46653 80.5,250.5 C76.0326407,242.508685 69.0313308,235.432813 65.5,233 C60.7211531,229.707745 56.2211531,223.374412 52,214 Z" id="Line" fill="#000000"></path>
                    <path d="M114,210.989508 C112.330159,209.179448 111.231172,207.908023 110.703038,207.175234 C108.852867,204.608113 108.066997,203.111759 106.856582,203.007095 C104.26355,202.782877 100.726356,207.932616 102.460632,209.991706 C103.19185,210.859874 105.116667,210.953401 108,210.989508 C109.11715,211.003497 111.11715,211.003497 114,210.989508 Z" id="Line-12" fill="#000000"></path>
                    <path d="M82.4834423,208.613323 C84.0580123,206.980406 81.6052946,204.495433 80.8042455,203.370028 C78.9334111,200.741669 76.8548791,199.124179 75.6309454,199.017018 C74.0334115,198.877147 71.5993324,199.604045 71.0689371,201.028786 C70.728808,201.942437 71.7224228,203.413194 72.4076028,204.236908 C73.1469872,205.125787 74.9386897,206.122019 77.8542257,206.158987 C79.548666,206.180472 80.9088723,210.246239 82.4834423,208.613323 Z" id="Line-12" fill="#000000" transform="translate(77.000000, 204.000000) scale(-1, 1) rotate(-21.000000) translate(-77.000000, -204.000000) "></path>
                    <path d="M112.905109,218.966149 C120.363251,221.534555 123.690563,225.459134 128.839416,226.857628 C133.988269,228.256122 150.860071,222.189437 153.956204,228.266821 C165.29927,250.532066 153.199834,251.531082 153.956204,281.252468 C154.107441,287.195293 158.788707,296.777803 168,310 C158.559637,307.572195 152.798079,304.753809 150.715328,301.544844 C150.232066,300.800265 146.094717,297.71392 145.043796,285.198208 C144.611882,280.054432 146.481428,271.488524 146.664234,257.014353 C146.738313,251.148856 152.065693,239.822201 149.094891,237.003816 C146.124088,234.18543 129.279444,235.305569 123.978102,233.058076 C120.443874,231.559747 110.451174,227.426115 94,220.65718 C101.631312,217.817555 107.933015,217.253878 112.905109,218.966149 Z" id="Line-10" fill="url(#linearGradient-1)"></path>
                    <path d="M67,219.608087 C62.266251,216.521574 59.0630637,214.272075 57.3904382,212.859589 C52.7259677,208.920573 50.35289,205.698317 48.8486056,206.673467 C45.3784861,208.922966 47.3598315,235.378164 38.1713147,249.976325 C33.5134664,257.376434 25.3449678,268.661437 13.8804781,277.813877 C11.4719387,279.736685 6.84511267,281.798726 0,284 C15.236242,268.235604 24.7568263,256.332004 28.561753,248.289201 C37.1358224,230.165447 36.0382996,215.405592 38.1713147,206.673467 C39.0509862,203.072272 43.9970261,199.039867 44.8446215,198.519032 C48.5916555,196.216535 54.5567204,201.794826 64.3306773,210.891278 C65.697199,212.163076 66.0670769,214.649505 66.4661355,215.952651" id="Line-11" fill="url(#linearGradient-2)"></path>
                    <path d="M131,123.690552 C152.776933,106.793082 169.424588,101.686704 180.942966,108.371417 C192.461343,115.05613 199.480355,130.932325 202,156 C201.75328,139.350138 200.313483,128.023262 197.680608,122.019373 C195.115587,116.170213 189.041825,106.978768 182.562738,103.636412 C172.74867,98.5736436 155.56109,105.258357 131,123.690552 Z" id="Line-6" fill="#00709D"></path>
                    <path d="M255.5,216.5 C286.130189,154.437125 285.796855,110.437125 254.5,84.5 C236.138637,69.283105 202.550416,60.5084227 175.313231,66.022621 C164.040925,68.3047119 159.043653,74.6925898 145.279913,79.5550341 C135.171612,83.1260875 121.661479,86.5091907 104.749514,89.7043438 L89,93 C111.997305,85.6102771 125.703126,81.1286218 130.117462,79.5550341 C134.531797,77.9814463 144.737294,72.9067914 160.73395,64.3310694 C169.170992,61.7257208 175.48868,60.1281443 179.687015,59.5383398 C183.88535,58.9485353 188.939501,58.9485353 194.849467,59.5383398 C210.008236,57.5386974 226.239835,61.1097509 243.544263,70.2515001 C260.848691,79.3932493 272.900896,90.7642353 279.700879,104.364458 C284.57275,113.789099 287.294215,122.622757 287.865276,130.865433 C288.721866,143.229448 285.271529,159.16567 283.783077,163.28684 C282.790776,166.034286 273.363084,183.772006 255.5,216.5 Z" id="Line-54" fill="#00709D"></path>
                    <path d="M66.6022409,103.706152 C70.7332056,101.120519 81.7392237,101.764738 85.5810539,103.706152 C88.142274,105.000428 95.2819227,111.098377 107,122 C92.8940466,113.25054 82.3201365,108.410897 75.2782697,107.481073 C68.2364028,106.551248 61.9769796,110.057557 56.5,118 C60.4808508,110.194523 63.8482644,105.429907 66.6022409,103.706152 Z" id="Line-7" fill="#00709D"></path>
                    <path d="M128.672991,124.794174 C126.901137,112.372612 128.627992,104.116889 133.853555,100.027004 C141.6919,93.8921772 136.961623,100.657936 171.480812,84.8289681 C194.493604,74.2763227 198.5,46 183.5,0 C196.730631,14.4383317 204.230631,25.6049984 206,33.5 C209.162144,47.6096206 209.793486,64.476045 200.5,78.5 C197.060947,83.6895622 188.751191,90.5274961 175.570731,99.0138018 C164.408045,102.962357 156.046432,106.302173 150.485893,109.033248 C144.925354,111.764323 137.654387,117.017965 128.672991,124.794174 Z" id="Line-9" fill="#025B7F"></path>
                    <path d="M52.4713632,124.794174 C51.2303565,112.372612 52.4398459,104.116889 56.0998313,100.027004 C61.5898095,93.8921772 58.2767226,100.657936 82.4539679,84.8289681 C98.5721315,74.2763227 101.378212,46 90.8722095,0 C100.138945,14.4383317 105.391947,25.6049984 106.631213,33.5 C108.845979,47.6096206 109.288171,64.476045 102.779012,78.5 C100.370299,83.6895622 94.5501444,90.5274961 85.318548,99.0138018 C77.5002009,102.962357 71.6437261,106.302173 67.7491236,109.033248 C63.8545211,111.764323 58.7619343,117.017965 52.4713632,124.794174 Z" id="Line-9" fill="#025B7F" transform="translate(80.053427, 62.397087) scale(-1, 1) translate(-80.053427, -62.397087) "></path>
                </g>
                <polyline id="Line-5" fill="#FFFFFF" points="84.5 231 83 244 88 247 90.75 237 90.75 248 96 250 99.5 238.5"></polyline>
            </g>
            <g id="Group-7" transform="translate(640.500000, 484.000000) rotate(-19.000000) translate(-640.500000, -484.000000) translate(627.000000, 456.000000)">
                <rect id="Rectangle-5" fill="#000000" fill-rule="nonzero" x="0" y="0" width="26.43615" height="55.6550527" rx="7"></rect>
                <circle id="Oval-3" fill="#747474" fill-rule="nonzero" cx="13.218075" cy="18.7835803" r="9.04394607"></circle>
                <path d="M13.218075,7.65256975 L13.218075,29.9145908" id="Line-33" stroke="#000000" stroke-linecap="square"></path>
            </g>
            <path d="M723.783154,669.436198 C767.357244,735.080005 775.891056,786.817481 749.384588,824.648625 C738.894244,839.620885 718.944357,854.74459 679.448961,856.589446 C665.11838,857.258837 646.635393,848.109123 624,829.140303 C690.938386,888.363909 748.885048,883.206797 797.839987,813.668968 C846.794926,744.131139 843.131631,684.574816 786.850103,635 C775.651204,644.710135 766.492967,651.530831 759.375392,655.462088 C752.257818,659.393346 740.393738,664.051383 723.783154,669.436198 Z" id="Line-60" fill="#00709D" fill-rule="nonzero"></path>
            <path d="M724.994898,433 C679.991194,484.666667 659.489507,529.833333 663.489836,568.5 C667.490165,607.166667 687.991853,640.666667 724.994898,669 C737.005226,668.538115 747.33941,666.038115 755.997449,661.5 C764.655488,656.961885 774.989672,648.628552 787,636.5 C766.998354,624.5 754.330645,599.333333 748.996873,561 C743.6631,522.666667 745.996626,486 755.997449,451 L724.994898,433 Z" id="Line-59" stroke="#8E5863" stroke-width="2" fill="#D49BA7" fill-rule="nonzero" stroke-linecap="square"></path>
            <path d="M708,457 C716.408077,461.6025 723.408077,464.769167 729,466.5 C734.591923,468.230833 741.591923,469.3975 750,470" id="Line-16" stroke="#9D6671" stroke-width="3" stroke-linecap="square"></path>
            <path d="M690,484 C706.835016,488.926803 720.001683,492.192382 729.5,493.796735 C738.998317,495.401088 745.164984,495.401088 748,493.796735" id="Line-26" stroke="#9D6671" stroke-width="3" stroke-linecap="square"></path>
            <path d="M626.5,487 C640.59476,484.878446 648.064746,485.272556 648.909957,488.182331 C649.755168,491.092106 644.118515,496.364662 632,504 C629.333333,501.666667 627.5,498.609685 626.5,494.829055 C625.5,491.048425 625.5,488.43874 626.5,487 Z" id="Line-34" stroke="#025B7F" fill="#00709D" fill-rule="nonzero" stroke-linecap="square"></path>
            <path d="M676,507 C688.465753,513.877193 702.050228,518.134503 716.753425,519.77193 C731.456621,521.409357 741.205479,521.409357 746,519.77193" id="Line-27" stroke="#9D6671" stroke-width="3" stroke-linecap="square"></path>
            <path d="M667,533 C679.913242,539.787879 694.771689,544.030303 711.575342,545.727273 C728.378995,547.424242 739.520548,547.424242 745,545.727273" id="Line-27" stroke="#9D6671" stroke-width="3" stroke-linecap="square"></path>
            <path d="M664,558 C673.303922,562.814815 682.970588,566.506173 693,569.074074 C703.029412,571.641975 721.362745,571.641975 748,569.074074" id="Line-28" stroke="#9D6671" stroke-width="3" stroke-linecap="square"></path>
            <path d="M669,588 C687.120155,594 703.757752,597 718.912791,597 C734.067829,597 745.763566,594 754,588" id="Line-29" stroke="#9D6671" stroke-width="3" stroke-linecap="square"></path>
            <path d="M681.5,620 C700.291932,622.666667 714.887473,624 725.286624,624 C735.685775,624 746.923567,618.333333 759,607" id="Line-30" stroke="#9D6671" stroke-width="3" stroke-linecap="square"></path>
            <path d="M704,649 C718.596947,648.848136 729.93028,647.348136 738,644.5 C746.06972,641.651864 757.403053,635.151864 772,625" id="Line-31" stroke="#9D6671" stroke-width="3" stroke-linecap="square"></path>
            <path d="M776.549081,492 L805,541.5 C804.364834,542.828087 803.865695,543.66142 803.502583,544 C789.921122,556.663911 777.679579,561.535017 767.065441,560.5 C756.025637,559.423475 749.70321,551.923475 748.098161,538 C743.416592,539.637219 740.088999,541.637219 738.115383,544 C736.141766,546.362781 732.980553,552.696114 728.631743,563 C726.696331,555.811535 725.864433,550.811535 726.136048,548 C726.407664,545.188465 727.738701,540.188465 730.12916,533 C727.667835,536.036117 726.004038,538.536117 725.13777,540.5 C724.271502,542.463883 722.774085,547.13055 720.64552,554.5 C718.721886,548.306044 717.889988,543.972711 718.149825,541.5 C718.409662,539.027289 719.24156,535.860623 720.64552,532 C717.882367,533.927302 716.052191,535.427302 715.154992,536.5 C714.257792,537.572698 710.9302,542.239365 705.172213,550.5 C704.089711,544.184009 703.756951,539.684009 704.173935,537 C705.779948,526.662538 711.712989,519.372411 718.648964,515 C728.286214,508.924716 742.095725,508.25805 760.077496,513 C761.492866,505.888418 762.990283,501.388418 764.569746,499.5 C766.149209,497.611582 770.142321,495.111582 776.549081,492 Z" id="Line-4" fill="#279BCA" fill-rule="nonzero"></path>
            <path d="M776.549081,492 C770.086622,496.864257 766.093511,501.030924 764.569746,504.5 C763.045981,507.969076 762.879602,511.802409 764.070607,516 L766.067163,518.5 C750.427476,511.5 736.285207,510.333333 723.640353,515 C710.9955,519.666667 705.172213,530.166667 706.170491,546.5 C709.031149,540.746744 711.526844,536.746744 713.657575,534.5 C715.788305,532.253256 720.280556,529.253256 727.134326,525.5 C723.870115,529.515878 722.039939,532.515878 721.643798,534.5 C721.418374,535.629061 720.330756,538.525702 720.146381,541.5 C720.053293,543.001666 720.219673,545.501666 720.64552,549 C723.254824,540.60787 725.41776,535.60787 727.134326,534 C727.992658,533.196019 730.253722,530.250097 732.624854,529 C734.205428,528.166697 735.370086,528.166697 736.118827,529 C734.472402,530.091569 732.974985,532.258236 731.626576,535.5 C730.633434,537.887655 728.883983,543.034843 728.631743,549.5 C728.571589,551.041806 728.904348,553.37514 729.630021,556.5 C733.550077,547.492258 736.378531,542.158925 738.115383,540.5 C739.852234,538.841075 744.011725,536.841075 750.593856,534.5 C750.261097,547.5 754.919727,555.333333 764.569746,558 C772.874683,560.294969 784.753042,556.783716 796.015499,545.5 C796.865234,544.648662 796.400139,540.940153 798.012055,539 C798.475324,538.442394 799.473602,537.775727 801.006889,537 C799.901757,538.597872 799.236239,539.764539 799.010333,540.5 C798.784427,541.235461 798.784427,542.235461 799.010333,543.5 C800.367112,543.713627 801.36539,543.713627 802.005166,543.5 C802.644942,543.286373 803.64322,542.619707 805,541.5 C804.364834,542.828087 803.865695,543.66142 803.502583,544 C789.921122,556.663911 777.679579,561.535017 767.065441,560.5 C756.025637,559.423475 749.70321,551.923475 748.098161,538 C743.416592,539.637219 740.088999,541.637219 738.115383,544 C736.141766,546.362781 732.980553,552.696114 728.631743,563 C726.696331,555.811535 725.864433,550.811535 726.136048,548 C726.407664,545.188465 727.738701,540.188465 730.12916,533 C727.667835,536.036117 726.004038,538.536117 725.13777,540.5 C724.271502,542.463883 722.774085,547.13055 720.64552,554.5 C718.721886,548.306044 717.889988,543.972711 718.149825,541.5 C718.409662,539.027289 719.24156,535.860623 720.64552,532 C717.882367,533.927302 716.052191,535.427302 715.154992,536.5 C714.257792,537.572698 710.9302,542.239365 705.172213,550.5 C704.089711,544.184009 703.756951,539.684009 704.173935,537 C705.779948,526.662538 711.712989,519.372411 718.648964,515 C728.286214,508.924716 742.095725,508.25805 760.077496,513 C761.492866,505.888418 762.990283,501.388418 764.569746,499.5 C766.149209,497.611582 770.142321,495.111582 776.549081,492 Z" id="Line-4" fill="#00709D" fill-rule="nonzero"></path>
            <path d="M816.619155,615 L889.32615,687.673861 C897.014705,689.344524 901.694696,694.189448 903.366121,702.208633 C905.873259,714.23741 906.883284,724.093047 895.844708,750.323741 C892.743243,757.693675 880.233113,763.496849 874.283323,773.378897 C870.302029,779.991457 872.675204,794.480854 865.759055,809.465228 C864.063796,813.138138 858.213808,817.983062 848.20909,824 C844.94203,816.397276 843.103462,810.048754 842.693387,804.954436 C842.283313,799.860119 844.121881,791.172668 848.20909,778.892086 C843.919601,787.411292 840.743893,794.093945 838.681967,798.940048 C836.620041,803.78615 834.280046,812.139468 831.661981,824 C827.638932,817.117552 825.298937,812.272628 824.641996,809.465228 C822.670683,801.040937 823.074833,793.440041 823.639141,788.414868 C824.485531,780.877732 828.329809,775.364542 835.171974,771.8753 C828.823161,773.472196 824.477456,775.811125 822.134858,778.892086 C819.79226,781.973047 813.775129,792.665294 804.083466,810.968825 C799.972178,796.570614 799.972178,784.708903 804.083466,775.383693 C808.194754,766.058483 817.721878,757.705166 832.664836,750.323741 C834.336262,744.643485 836.007687,739.965627 837.679112,736.290168 C839.350537,732.614708 843.863385,725.932054 851.217656,716.242206 C837.177684,713.235012 825.644851,704.547562 816.619155,690.179856 C809.829588,679.371769 804.669569,655.451067 808.094887,632.541966 C808.846967,627.511926 811.68839,621.664604 816.619155,615 Z" id="Line-61" fill="#279BCA" fill-rule="nonzero"></path>
            <path d="M816.619155,615 C812.808557,626.272255 810.802847,635.460904 810.602024,642.565947 C810.218914,656.120258 813.417008,676.671174 816.619155,684.165468 C821.2008,694.888333 831.516578,705.752607 845.701953,711.731415 C848.051516,712.721701 851.561509,713.2229 856.231931,713.235012 C857.569071,709.559552 859.240497,707.220624 861.246207,706.218225 C863.251917,705.215827 867.597622,705.215827 874.283323,706.218225 C865.884859,707.442158 861.037726,708.945755 859.741924,710.729017 C859.280164,711.364484 860.697064,713.999094 858.739069,717.745803 C857.766386,719.607075 854.018464,718.282823 851.217656,720.752998 C845.53481,725.764988 840.18625,736.457234 835.171974,752.829736 C822.134858,757.507594 813.109162,764.357314 808.094887,773.378897 C803.080611,782.40048 802.077756,793.259792 805.086321,805.956835 C811.584026,791.470547 816.598301,782.114831 820.129148,777.889688 C823.06009,774.382413 829.709378,772.037601 837.679112,768.366906 C838.766607,767.866029 840.438033,765.360033 842.693387,760.848921 C843.785927,762.469479 843.785927,764.140142 842.693387,765.860911 C841.728047,767.38134 840.105988,770.560245 838.681967,771.8753 C834.34121,775.883902 829.036955,777.73602 827.149133,784.906475 C823.874811,797.343229 825.044809,808.536675 830.659126,818.486811 C834.953869,802.21684 838.965289,791.023395 842.693387,784.906475 C846.421486,778.789555 849.857023,773.777564 853,769.870504 C848.731644,783.310575 846.298961,792.165091 845.701953,796.434053 C845.299017,799.315277 844.342793,804.670981 845.701953,810.968825 C846.138378,812.991057 847.475518,816.165317 849.713373,820.491607 C857.121254,815.9823 861.634102,811.805641 863.251917,807.961631 C868.103489,796.434053 868.081161,778.805537 871.274758,773.378897 C876.289033,764.858513 881.390229,763.172435 884.311874,759.846523 C886.259637,757.629248 888.43249,755.791518 890.830432,754.333333 C891.649486,752.523583 892.652341,750.351721 893.838997,747.817746 C895.618982,744.016784 900.147493,736.706057 901.861838,726.767386 C903.576183,716.828715 902.238486,709.817048 901.360411,704.213429 C901.030458,702.107769 899.855871,697.424509 897.34899,694.189448 C896.055199,692.519846 893.380918,690.347983 889.32615,687.673861 C897.014705,689.344524 901.694696,694.189448 903.366121,702.208633 C905.873259,714.23741 906.883284,724.093047 895.844708,750.323741 C892.743243,757.693675 880.233113,763.496849 874.283323,773.378897 C870.302029,779.991457 872.675204,794.480854 865.759055,809.465228 C864.063796,813.138138 858.213808,817.983062 848.20909,824 C844.94203,816.397276 843.103462,810.048754 842.693387,804.954436 C842.283313,799.860119 844.121881,791.172668 848.20909,778.892086 C843.919601,787.411292 840.743893,794.093945 838.681967,798.940048 C836.620041,803.78615 834.280046,812.139468 831.661981,824 C827.638932,817.117552 825.298937,812.272628 824.641996,809.465228 C822.670683,801.040937 823.074833,793.440041 823.639141,788.414868 C824.485531,780.877732 828.329809,775.364542 835.171974,771.8753 C828.823161,773.472196 824.477456,775.811125 822.134858,778.892086 C819.79226,781.973047 813.775129,792.665294 804.083466,810.968825 C799.972178,796.570614 799.972178,784.708903 804.083466,775.383693 C808.194754,766.058483 817.721878,757.705166 832.664836,750.323741 C834.336262,744.643485 836.007687,739.965627 837.679112,736.290168 C839.350537,732.614708 843.863385,725.932054 851.217656,716.242206 C837.177684,713.235012 825.644851,704.547562 816.619155,690.179856 C809.829588,679.371769 804.669569,655.451067 808.094887,632.541966 C808.846967,627.511926 811.68839,621.664604 816.619155,615 Z" id="Line-61" fill="#00709D" fill-rule="nonzero"></path>
            <path d="M719,519.5 C723.635452,517.118986 728.635452,515.618986 734,515 C737.082395,514.644339 744.136723,514.076099 750.5,516 C753.640841,516.949616 758.307508,519.782949 764.5,524.5 C754.652579,521.084532 747.069245,519.084532 741.75,518.5 C736.430755,517.915468 728.847421,518.248801 719,519.5 Z" id="Line-63" fill="#36A8D7" fill-rule="nonzero"></path>
            <path d="M824.5,621.5 C837.806125,609.774801 837.806125,650 851.917967,667 C866.02981,684 890.924878,677.610751 878,689 C865.075122,700.389249 845,707.5 830,689 C815,670.5 811.193875,633.225199 824.5,621.5 Z" id="Line-64" fill="#36A8D7" fill-rule="nonzero"></path>
            <path d="M194,231.79436 C193.933602,232.386607 193.800808,233.801399 193.601614,236.038778 C193.535216,237.223273 193.269628,238.11163 192.804842,238.703878 C192.472851,238.901294 191.908477,239 191.1117,239 C188.920565,239 186.198287,238.440664 182.944784,237.321974 C179.425689,236.26909 177.035396,235.018809 175.773833,233.571093 C175.242649,232.978845 174.711473,231.004717 174.180288,227.648649 C173.44991,223.239696 172.619947,219.587559 171.690375,216.692127 C169.16725,217.021153 165.482215,217.925962 160.635159,219.40658 C155.788103,220.887199 152.634244,222.121029 151.173488,223.108108 C150.177517,225.937734 148.849577,229.425361 147.189626,233.571093 C146.990432,234.492367 146.774642,235.364273 146.542248,236.186839 C146.309855,237.009405 145.728881,237.683899 144.799309,238.210341 C144.600115,238.341951 144.301328,238.407756 143.90294,238.407756 C142.309388,238.407756 139.636907,237.585202 135.885419,235.940071 C132.13393,234.294939 130.191817,233.209168 130.059021,232.682726 C129.793429,231.761453 130.424201,229.491205 131.951355,225.871915 C134.076092,220.607494 135.304437,217.383085 135.636427,216.19859 C134.242069,214.816679 133.5449,213.43479 133.5449,212.052879 C133.5449,211.723853 133.578098,211.361929 133.644496,210.967098 C133.777293,210.177434 135.802402,208.762642 139.719885,206.722679 L152.567839,163.192714 C152.767033,162.403051 152.800232,160.955357 152.667436,158.849589 C152.53464,157.072847 152.733831,155.954174 153.265015,155.493537 C153.597005,155.164511 154.393769,155 155.655332,155 C158.776039,155 163.22464,155.789651 169.001268,157.368978 C174.777897,158.948304 178.230542,160.363096 179.359309,161.613396 C179.757697,168.91778 181.25163,179.874193 183.841153,194.482961 C187.161054,212.513604 190.547303,224.950612 194,231.79436 Z M168,201.2 C167.125378,196.999979 166.587157,194.23334 166.385321,192.9 C165.645256,188.433311 165.140674,183.800024 164.87156,179 C163.525987,182.266683 161.944963,186.799971 160.12844,192.6 C158.17736,198.666697 157.134557,202.466659 157,204 C158.278294,203.466664 161.944924,202.53334 168,201.2 Z M263,183.966731 C259.899049,192.324008 256.798145,202.637793 253.697194,214.908398 C250.860153,225.719795 249.507631,231.888168 249.639586,233.413703 L249.639586,237.094866 C249.573609,238.819383 248.979819,239.781119 247.858198,239.980101 C246.93451,240.112757 244.097513,239.582144 239.34712,238.388247 C234.398794,237.128023 231.759726,236.099961 231.429838,235.30403 C231.297882,234.972392 231.231905,233.44688 231.231905,230.727449 C229.450508,225.288586 228.032009,217.030925 226.976366,205.954218 C226.646478,207.81139 225.524874,212.653232 223.611521,220.479887 C222.160012,226.316715 221.434269,230.097331 221.434269,231.821849 C221.368291,233.214728 221.302314,234.574423 221.236337,235.900975 C221.104381,237.758148 220.477603,238.852536 219.355982,239.184174 C219.092072,239.250502 218.663223,239.283665 218.069424,239.283665 C215.694227,239.283665 213.05516,238.819379 210.152142,237.890793 C206.721302,236.829551 204.676025,235.536183 204.016248,234.010648 C203.818315,233.612683 203.768833,233.048907 203.867799,232.319303 C203.966766,231.5897 203.917283,230.694291 203.71935,229.633049 C202.333819,222.270686 200.948308,214.941598 199.562777,207.645563 C198.177246,200.01789 197.08863,192.324005 196.296898,184.563676 C196.098965,182.441194 196,181.247315 196,180.982004 C196,178.262573 196.857697,176.936041 198.573117,177.002369 C200.024626,177.068696 202.399787,177.765126 205.698671,179.091678 C209.261465,180.550885 211.141801,181.7116 211.339734,182.573859 C211.471689,183.038152 211.405713,184.464174 211.141802,186.851967 C211.537668,191.959191 212.560307,200.979608 214.209749,213.913489 L221.038405,181.180986 C221.566226,178.793193 222.588865,177.433498 224.106352,177.10186 C224.634173,177.035532 226.629968,177.848033 230.093796,179.539387 C233.557624,181.23074 235.289513,182.374874 235.289513,182.971822 C235.619401,189.206616 237.070888,199.520401 239.644018,213.913489 C243.536701,194.811142 246.14278,183.734601 247.462334,180.683532 C247.990155,178.163083 249.309689,177.068694 251.420975,177.400332 C253.004439,177.599315 255.082705,178.328908 257.655835,179.589132 C260.756786,181.048339 262.538156,182.507524 263,183.966731 Z M305.860823,219.199184 C306.448455,220.194205 305.175271,223.146056 302.041235,228.054826 C298.64603,233.295269 295.316166,236.844123 292.051545,238.701495 C291.659791,238.900499 291.072168,239 290.288659,239 C287.742254,239 284.412391,238.203995 280.298968,236.611962 C275.924376,235.019929 273.051553,233.295252 271.680412,231.437879 C267.893452,226.462775 266,219.564068 266,210.74155 C266,202.383375 267.664932,195.020331 270.994845,188.652198 C274.585928,181.687052 279.156329,178.138197 284.706185,178.005528 C286.73025,177.939193 289.178679,178.469863 292.051545,179.597553 C295.577336,180.990583 298.482805,182.881094 300.76804,185.269144 C301.355671,185.866156 301.910649,187.657167 302.432988,190.642229 C303.085912,193.826296 303.412369,196.943981 303.412369,199.995378 C303.412369,204.50614 302.694163,207.623825 301.25773,209.348527 C294.532611,211.537573 287.67701,212.764747 280.690721,213.030086 C280.560136,216.280488 280.951885,219.696674 281.865979,223.278749 C282.780072,226.860824 283.726798,228.685002 284.706185,228.751337 C286.012033,228.817671 287.579028,227.723165 289.407215,225.467784 C291.039526,223.544077 292.051543,221.918901 292.443298,220.592207 C292.900345,218.602165 293.520613,216.545819 294.304122,214.423108 C295.348801,214.290439 297.405481,214.821109 300.474225,216.015134 C303.542969,217.209159 305.338483,218.270498 305.860823,219.199184 Z M288.488636,189.006851 C287.32954,188.874402 285.710238,190.662438 283.630682,194.371013 C281.551126,198.079588 280.340911,201.622548 280,205 C283.068197,204.867551 285.522718,204.139092 287.363636,202.814601 C288.454551,202.019906 289,198.708728 289,192.880968 C289,190.430659 288.829547,189.1393 288.488636,189.006851 Z M351,225.942893 C351,229.566632 349.783345,232.465579 347.35,234.639823 C344.916654,236.814066 341.500022,237.934114 337.1,238 C336.033328,238 334.866673,237.835287 333.6,237.505856 C331.333322,236.912881 330.133334,236.583455 330,236.517569 C328.799994,236.254024 327.583339,235.974012 326.35,235.677524 C325.11666,235.381037 324.066671,234.870427 323.2,234.145679 C321.733326,232.827956 320.300007,231.016113 318.9,228.710098 C317.766661,226.865285 316.666672,224.987558 315.6,223.076859 C314.533328,221.166161 314,220.01317 314,219.617853 C314,218.695447 314.66666,218.003653 316,217.542449 C316.333335,217.410677 316.933329,217.344792 317.8,217.344792 C319.80001,217.344792 322.316651,217.558919 325.35,217.987179 C328.383349,218.415439 330.033332,218.777807 330.3,219.074295 C330.566668,219.370783 330.933331,221.264981 331.4,224.756948 C331.800002,227.787711 332.499995,229.30307 333.5,229.30307 C335.033341,229.30307 335.8,227.26063 335.8,223.175688 C335.8,217.970681 334.400014,214.709365 331.6,213.391642 C325.199968,210.426765 321.00001,207.791358 319,205.485342 C316.533321,202.652237 315.3,198.369701 315.3,192.637605 C315.3,188.882094 316.29999,185.340766 318.3,182.013515 C320.30001,178.686264 322.666653,176.693237 325.4,176.034376 C326.600006,175.770831 330.466634,177.022649 337,179.789868 C337.600003,179.987527 339.366652,180.349895 342.3,180.876984 C344.366677,181.272301 345.833329,181.964096 346.7,182.952388 C347.966673,184.46777 348.699999,186.872579 348.9,190.166887 C348.966667,192.604675 349,195.042426 349,197.480214 C349.466669,199.720343 349.7,201.038047 349.7,201.433364 C349.7,203.278176 348.800009,204.332339 347,204.595884 C346.066662,204.727656 344.233347,204.365287 341.5,203.508767 C338.499985,202.520475 336.600004,201.499255 335.8,200.445076 C335.599999,200.181532 335.400001,197.710838 335.2,193.03292 C334.999999,188.618547 334.533337,186.411394 333.8,186.411394 C332.799995,186.411394 331.866671,187.696155 331,190.265715 C330.133329,192.835276 329.7,195.503625 329.7,198.270844 C329.7,201.76281 330.466659,203.969964 332,204.89237 C335.266683,206.671296 338.51665,208.466667 341.75,210.278537 C344.983349,212.090406 347.233327,213.951662 348.5,215.862361 C350.166675,218.366035 351,221.726179 351,225.942893 Z M391.874172,179.362422 C395.516575,181.068624 398.331116,184.513788 400.317881,189.698018 C402.105969,194.422885 403,200.00077 403,206.43184 C403,215.290966 401.476836,222.968761 398.430464,229.465454 C395.052963,236.421509 390.847707,239.571373 385.81457,238.915141 C383.960256,238.455779 381.178826,237.897991 377.470199,237.241759 C374.754953,236.913643 372.304647,236.421477 370.119205,235.765246 C366.344352,234.780898 363.331137,231.598223 361.07947,226.217124 C359.02648,221.229763 358,215.38939 358,208.695828 C358,201.936642 359.059592,195.800969 361.178808,190.288623 C363.562926,184.251293 366.907263,180.018662 371.211921,177.590605 C371.940401,177.196867 372.933769,177 374.192053,177 C375.516563,177 378.132431,177.426544 382.039735,178.279645 C384.556304,178.279645 387.834417,178.640567 391.874172,179.362422 Z M380.197183,188 C378.422526,188 376.77935,190.154049 375.267606,194.462212 C373.755861,198.770375 373,202.897599 373,206.844008 C373,211.579698 373.55868,216.249545 374.676056,220.853688 C375.924889,225.852473 377.370884,228.549145 379.014085,228.943786 C381.117381,229.4042 382.990602,227.036391 384.633803,221.840286 C386.211275,216.841501 387,211.316612 387,205.265452 C387,201.911004 386.572774,198.589494 385.71831,195.30082 C384.535205,190.433582 382.694848,188 380.197183,188 Z M483.212766,229.718112 C483.737591,230.966974 484,232.215818 484,233.46468 C484,235.436568 483.245575,236.784005 481.736702,237.50703 C481.27748,237.704219 480.457453,237.802812 479.276596,237.802812 C477.046088,237.802812 474.3892,237.457737 471.305851,236.767576 C468.222502,236.077415 466.35284,235.403697 465.696809,234.746401 C465.368793,234.352024 465.204787,233.924788 465.204787,233.46468 C465.204787,232.741655 465.696804,231.574972 466.680851,229.964597 C467.664899,228.354222 468.156915,227.187539 468.156915,226.464513 C468.288121,200.567051 468.091315,187.519921 467.566489,187.322733 C466.516839,186.994085 464.384768,189.590365 461.170213,195.111651 C457.627642,201.158774 455.856383,206.417063 455.856383,210.886676 L455.856383,230.211081 C456.315605,231.722862 456.545213,232.905977 456.545213,233.760462 C456.545213,235.403702 455.692384,236.652546 453.986702,237.50703 C453.52748,237.704219 452.707453,237.802812 451.526596,237.802812 C449.296088,237.802812 446.6392,237.457737 443.555851,236.767576 C440.472502,236.077415 438.60284,235.403697 437.946809,234.746401 C437.684396,234.483483 437.553191,234.15484 437.553191,233.760462 C437.553191,233.103166 438.028807,231.920051 438.980053,230.211081 C439.931299,228.502112 440.406915,227.253268 440.406915,226.464513 C440.538121,200.567051 440.341315,187.519921 439.816489,187.322733 C438.898045,186.994085 436.63477,189.951872 433.026596,196.196184 C429.221612,202.769144 427.319149,207.731654 427.319149,211.083864 L427.319149,229.520924 C428.17199,230.375409 428.598404,231.427067 428.598404,232.675929 C428.598404,235.173654 427.483167,236.882598 425.25266,237.802812 C424.990247,237.934271 424.596634,238 424.071809,238 C422.300523,238 419.709237,237.589196 416.297872,236.767576 C412.886508,235.945956 410.984045,235.272238 410.590426,234.746401 C410.196807,234.220564 410,233.629007 410,232.971711 C410,232.314415 410.377213,231.525671 411.131649,230.605457 C411.886085,229.685243 412.263298,229.093685 412.263298,228.830767 L412.263298,182.984601 C412.263298,182.458764 412.000889,181.768614 411.476064,180.914129 C410.951239,180.059644 410.787233,179.336629 410.984043,178.745063 C411.377662,177.364741 412.394495,176.477405 414.034574,176.083027 C415.084225,175.820109 417.544307,176.181616 421.414894,177.16756 C425.613496,178.219234 427.909573,179.303756 428.303191,180.421159 C428.565604,181.144185 428.467201,182.228707 428.007979,183.674758 C427.286344,185.975294 426.925532,187.289866 426.925532,187.618514 C426.925532,188.34154 427.056736,189.130283 427.319149,189.984768 C428.303196,186.698288 429.680842,183.773365 431.452128,181.209911 C433.617032,178.120619 435.781904,176.575997 437.946809,176.575997 C440.04611,176.575997 442.899805,177.397605 446.507979,179.040845 C449.85374,180.618355 451.920209,181.965792 452.707447,183.083195 C453.297875,183.87195 453.953897,186.23818 454.675532,190.181956 C457.365262,185.186506 458.906913,182.327312 459.300532,181.604286 C461.53104,178.252077 463.66311,176.575997 465.696809,176.575997 C467.927316,176.575997 470.813812,177.348308 474.356383,178.892954 C477.898954,180.437599 479.932621,181.834332 480.457447,183.083195 C482.294335,187.289889 483.212766,202.834706 483.212766,229.718112 Z M532.860823,219.199184 C533.448455,220.194205 532.175271,223.146056 529.041235,228.054826 C525.64603,233.295269 522.316166,236.844123 519.051545,238.701495 C518.659791,238.900499 518.072168,239 517.288659,239 C514.742254,239 511.412391,238.203995 507.298968,236.611962 C502.924376,235.019929 500.051553,233.295252 498.680412,231.437879 C494.893452,226.462775 493,219.564068 493,210.74155 C493,202.383375 494.664932,195.020331 497.994845,188.652198 C501.585928,181.687052 506.156329,178.138197 511.706185,178.005528 C513.73025,177.939193 516.178679,178.469863 519.051545,179.597553 C522.577336,180.990583 525.482805,182.881094 527.76804,185.269144 C528.355671,185.866156 528.910649,187.657167 529.432988,190.642229 C530.085912,193.826296 530.412369,196.943981 530.412369,199.995378 C530.412369,204.50614 529.694163,207.623825 528.25773,209.348527 C521.532611,211.537573 514.67701,212.764747 507.690721,213.030086 C507.560136,216.280488 507.951885,219.696674 508.865979,223.278749 C509.780072,226.860824 510.726798,228.685002 511.706185,228.751337 C513.012033,228.817671 514.579028,227.723165 516.407215,225.467784 C518.039526,223.544077 519.051543,221.918901 519.443298,220.592207 C519.900345,218.602165 520.520613,216.545819 521.304122,214.423108 C522.348801,214.290439 524.405481,214.821109 527.474225,216.015134 C530.542969,217.209159 532.338483,218.270498 532.860823,219.199184 Z M515.488636,189.006851 C514.32954,188.874402 512.710238,190.662438 510.630682,194.371013 C508.551126,198.079588 507.340911,201.622548 507,205 C510.068197,204.867551 512.522718,204.139092 514.363636,202.814601 C515.454551,202.019906 516,198.708728 516,192.880968 C516,190.430659 515.829547,189.1393 515.488636,189.006851 Z M189.2,343.718112 C189.733336,344.966974 190,346.215818 190,347.46468 C190,349.436568 189.233341,350.784005 187.7,351.50703 C187.233331,351.704219 186.400006,351.802812 185.2,351.802812 C182.933322,351.802812 180.233349,351.457737 177.1,350.767576 C173.966651,350.077415 172.06667,349.403697 171.4,348.746401 C171.066665,348.352024 170.9,347.924788 170.9,347.46468 C170.9,346.741655 171.399995,345.574972 172.4,343.964597 C173.400005,342.354222 173.9,341.187539 173.9,340.464513 C174.033334,314.567051 173.833336,301.519921 173.3,301.322733 C172.366662,300.994085 170.066685,303.951872 166.4,310.196184 C162.533314,316.769144 160.6,321.731654 160.6,325.083864 L160.6,343.520924 C161.466671,344.375409 161.9,345.427067 161.9,346.675929 C161.9,349.173654 160.766678,350.882598 158.5,351.802812 C158.233332,351.934271 157.833336,352 157.3,352 C155.499991,352 152.866684,351.589196 149.4,350.767576 C145.933316,349.945956 144.000002,349.272238 143.6,348.746401 C143.199998,348.220564 143,347.629007 143,346.971711 C143,346.314415 143.38333,345.525671 144.15,344.605457 C144.916671,343.685243 145.3,343.093685 145.3,342.830767 L145.3,296.984601 C145.3,296.458764 145.033336,295.768614 144.5,294.914129 C143.966664,294.059644 143.799999,293.336629 144,292.745063 C144.400002,291.364741 145.433325,290.477405 147.1,290.083027 C148.166672,289.820109 150.666647,290.181616 154.6,291.16756 C158.866688,292.219234 161.199998,293.303756 161.6,294.421159 C161.866668,295.144185 161.766669,296.228707 161.3,297.674758 C160.566663,299.975294 160.2,301.289866 160.2,301.618514 C160.2,302.34154 160.333332,303.130283 160.6,303.984768 C161.600005,300.698288 162.999991,297.773365 164.8,295.209911 C167.000011,292.120619 169.199989,290.575997 171.4,290.575997 C173.666678,290.575997 176.599982,291.348308 180.2,292.892954 C183.800018,294.437599 185.866664,295.834332 186.4,297.083195 C188.266676,301.289889 189.2,316.834706 189.2,343.718112 Z M237.860823,332.199184 C238.448455,333.194205 237.175271,336.146056 234.041235,341.054826 C230.64603,346.295269 227.316166,349.844123 224.051545,351.701495 C223.659791,351.900499 223.072168,352 222.288659,352 C219.742254,352 216.412391,351.203995 212.298968,349.611962 C207.924376,348.019929 205.051553,346.295252 203.680412,344.437879 C199.893452,339.462775 198,332.564068 198,323.74155 C198,315.383375 199.664932,308.020331 202.994845,301.652198 C206.585928,294.687052 211.156329,291.138197 216.706185,291.005528 C218.73025,290.939193 221.178679,291.469863 224.051545,292.597553 C227.577336,293.990583 230.482805,295.881094 232.76804,298.269144 C233.355671,298.866156 233.910649,300.657167 234.432988,303.642229 C235.085912,306.826296 235.412369,309.943981 235.412369,312.995378 C235.412369,317.50614 234.694163,320.623825 233.25773,322.348527 C226.532611,324.537573 219.67701,325.764747 212.690721,326.030086 C212.560136,329.280488 212.951885,332.696674 213.865979,336.278749 C214.780072,339.860824 215.726798,341.685002 216.706185,341.751337 C218.012033,341.817671 219.579028,340.723165 221.407215,338.467784 C223.039526,336.544077 224.051543,334.918901 224.443298,333.592207 C224.900345,331.602165 225.520613,329.545819 226.304122,327.423108 C227.348801,327.290439 229.405481,327.821109 232.474225,329.015134 C235.542969,330.209159 237.338483,331.270498 237.860823,332.199184 Z M220.488636,302.006851 C219.32954,301.874402 217.710238,303.662438 215.630682,307.371013 C213.551126,311.079588 212.340911,314.622548 212,318 C215.068197,317.867551 217.522718,317.139092 219.363636,315.814601 C220.454551,315.019906 221,311.708728 221,305.880968 C221,303.430659 220.829547,302.1393 220.488636,302.006851 Z M309,297.966731 C305.899049,306.324008 302.798145,316.637793 299.697194,328.908398 C296.860153,339.719795 295.507631,345.888168 295.639586,347.413703 L295.639586,351.094866 C295.573609,352.819383 294.979819,353.781119 293.858198,353.980101 C292.93451,354.112757 290.097513,353.582144 285.34712,352.388247 C280.398794,351.128023 277.759726,350.099961 277.429838,349.30403 C277.297882,348.972392 277.231905,347.44688 277.231905,344.727449 C275.450508,339.288586 274.032009,331.030925 272.976366,319.954218 C272.646478,321.81139 271.524874,326.653232 269.611521,334.479887 C268.160012,340.316715 267.434269,344.097331 267.434269,345.821849 C267.368291,347.214728 267.302314,348.574423 267.236337,349.900975 C267.104381,351.758148 266.477603,352.852536 265.355982,353.184174 C265.092072,353.250502 264.663223,353.283665 264.069424,353.283665 C261.694227,353.283665 259.05516,352.819379 256.152142,351.890793 C252.721302,350.829551 250.676025,349.536183 250.016248,348.010648 C249.818315,347.612683 249.768833,347.048907 249.867799,346.319303 C249.966766,345.5897 249.917283,344.694291 249.71935,343.633049 C248.333819,336.270686 246.948308,328.941598 245.562777,321.645563 C244.177246,314.01789 243.08863,306.324005 242.296898,298.563676 C242.098965,296.441194 242,295.247315 242,294.982004 C242,292.262573 242.857697,290.936041 244.573117,291.002369 C246.024626,291.068696 248.399787,291.765126 251.698671,293.091678 C255.261465,294.550885 257.141801,295.7116 257.339734,296.573859 C257.471689,297.038152 257.405713,298.464174 257.141802,300.851967 C257.537668,305.959191 258.560307,314.979608 260.209749,327.913489 L267.038405,295.180986 C267.566226,292.793193 268.588865,291.433498 270.106352,291.10186 C270.634173,291.035532 272.629968,291.848033 276.093796,293.539387 C279.557624,295.23074 281.289513,296.374874 281.289513,296.971822 C281.619401,303.206616 283.070888,313.520401 285.644018,327.913489 C289.536701,308.811142 292.14278,297.734601 293.462334,294.683532 C293.990155,292.163083 295.309689,291.068694 297.420975,291.400332 C299.004439,291.599315 301.082705,292.328908 303.655835,293.589132 C306.756786,295.048339 308.538156,296.507524 309,297.966731 Z M372,301.472074 C371.934782,302.656213 371.543482,303.708765 370.826087,304.629761 C370.108692,305.550758 369.326091,306.011249 368.478261,306.011249 C368.21739,306.011249 367.989131,305.978357 367.793478,305.912572 C366.88043,305.583644 364.826103,305.419183 361.630435,305.419183 L361.630435,344.396882 C361.630435,344.331096 361.842389,344.857372 362.266304,345.975725 C362.69022,347.094078 362.902174,348.080846 362.902174,348.936057 C362.902174,350.843836 361.597839,351.863495 358.98913,351.995066 C357.619558,352.060851 355.108714,351.468791 351.456522,350.218867 C347.478241,348.903158 345.358697,347.686145 345.097826,346.567792 C344.967391,346.107293 345.195649,345.136972 345.782609,343.656799 C346.369568,342.176626 346.663043,341.041843 346.663043,340.252418 L346.663043,305.320505 L343.336957,305.320505 C342.09782,305.320505 340.565227,304.218615 338.73913,302.014802 C336.913034,299.810988 336,298.051253 336,296.735544 C336,295.748762 336.374996,294.860671 337.125,294.071245 C337.875004,293.28182 338.706517,292.887113 339.619565,292.887113 L346.663043,292.887113 L346.663043,284.006118 C345.684778,282.690409 345.195652,281.276042 345.195652,279.762976 C345.195652,278.381481 345.782603,277.526283 346.956522,277.197355 C347.543481,277.065784 348.35869,277 349.402174,277 C351.815229,277 354.635853,277.378261 357.86413,278.134794 C361.092407,278.891327 363.195647,279.664294 364.173913,280.45372 C364.630437,280.848433 364.858696,281.308924 364.858696,281.835208 C364.858696,282.493063 364.336962,283.47983 363.293478,284.79554 C362.249995,286.111249 361.695652,287.032232 361.630435,287.558516 L361.630435,292.887113 L364.76087,292.887113 C365.413047,292.887113 366.782598,294.071233 368.869565,296.439511 C370.956532,298.807788 372,300.485292 372,301.472074 Z M415.860823,332.199184 C416.448455,333.194205 415.175271,336.146056 412.041235,341.054826 C408.64603,346.295269 405.316166,349.844123 402.051545,351.701495 C401.659791,351.900499 401.072168,352 400.288659,352 C397.742254,352 394.412391,351.203995 390.298968,349.611962 C385.924376,348.019929 383.051553,346.295252 381.680412,344.437879 C377.893452,339.462775 376,332.564068 376,323.74155 C376,315.383375 377.664932,308.020331 380.994845,301.652198 C384.585928,294.687052 389.156329,291.138197 394.706185,291.005528 C396.73025,290.939193 399.178679,291.469863 402.051545,292.597553 C405.577336,293.990583 408.482805,295.881094 410.76804,298.269144 C411.355671,298.866156 411.910649,300.657167 412.432988,303.642229 C413.085912,306.826296 413.412369,309.943981 413.412369,312.995378 C413.412369,317.50614 412.694163,320.623825 411.25773,322.348527 C404.532611,324.537573 397.67701,325.764747 390.690721,326.030086 C390.560136,329.280488 390.951885,332.696674 391.865979,336.278749 C392.780072,339.860824 393.726798,341.685002 394.706185,341.751337 C396.012033,341.817671 397.579028,340.723165 399.407215,338.467784 C401.039526,336.544077 402.051543,334.918901 402.443298,333.592207 C402.900345,331.602165 403.520613,329.545819 404.304122,327.423108 C405.348801,327.290439 407.405481,327.821109 410.474225,329.015134 C413.542969,330.209159 415.338483,331.270498 415.860823,332.199184 Z M399.488636,302.006851 C398.32954,301.874402 396.710238,303.662438 394.630682,307.371013 C392.551126,311.079588 391.340911,314.622548 391,318 C394.068197,317.867551 396.522718,317.139092 398.363636,315.814601 C399.454551,315.019906 400,311.708728 400,305.880968 C400,303.430659 399.829547,302.1393 399.488636,302.006851 Z M467,330.24333 C467,331.501316 465.900011,333.189641 463.7,335.308355 C461.899991,339.214733 460.300007,342.028608 458.9,343.750063 C455.833318,347.722651 452.066689,350.073064 447.6,350.801372 C446.666662,350.933791 445.766671,351 444.9,351 C441.166648,351 436.566694,349.212362 431.1,345.637033 C426.366643,342.458962 424,335.142888 424,323.688592 C424,315.213737 425.299987,307.533515 427.9,300.647695 C430.766681,293.165987 434.266646,289.292772 438.4,289.027933 C441.666683,288.829303 445.666643,289.690018 450.4,291.610102 C455.133357,293.530186 458.333325,295.648868 460,297.966212 C461.400007,299.886296 462.1,302.435335 462.1,305.613406 C462.1,306.474133 462.033334,307.715548 461.9,309.337689 C461.766666,310.959829 461.733333,312.101931 461.8,312.764029 C461.933334,314.551694 462,315.379304 462,315.246884 C462,317.365598 460.966677,318.391835 458.9,318.325625 C456.499988,318.259415 454.233344,317.895266 452.1,317.233168 C449.233319,316.240021 447.500003,314.882741 446.9,313.161286 C446.699999,312.565398 446.98333,311.770892 447.75,310.777745 C448.51667,309.784598 448.833334,308.956987 448.7,308.294889 C448.833334,307.831421 448.9,306.672767 448.9,304.818892 C448.9,300.846304 448.200007,298.793831 446.8,298.661411 C444.666656,298.528991 442.866674,301.740119 441.4,308.294889 C440.06666,314.121352 439.4,320.477398 439.4,327.363218 C439.4,335.507024 440.366657,339.810597 442.3,340.274065 C443.833341,340.605114 445.833321,338.949894 448.3,335.308355 C450.366677,332.196494 451.483333,330.094364 451.65,329.001902 C451.816668,327.909441 451.966666,326.800443 452.1,325.674876 C452.566669,323.821002 453.766657,322.960287 455.7,323.092707 C456.900006,323.225126 458.999985,323.986528 462,325.376934 C465.000015,326.76734 466.583333,327.810128 466.75,328.505331 C466.916667,329.200534 467,329.779861 467,330.24333 Z M518.93206,347.852291 C518.604942,349.761563 517.885293,350.979529 516.773091,351.506225 C516.315126,351.703736 515.497343,351.80249 514.319718,351.80249 C512.095315,351.80249 509.445698,351.456851 506.370788,350.765563 C503.295878,350.074274 501.431332,349.399455 500.777096,348.741085 C500.515402,348.411901 500.384557,348.016885 500.384557,347.556026 C500.384557,347.02933 500.678958,346.04179 501.267771,344.593376 C501.660313,344.06668 502.08556,343.490615 502.543525,342.865164 C503.00149,342.239713 503.23047,341.433222 503.23047,340.445667 C503.361317,314.505894 503.165049,301.437449 502.64166,301.239938 C501.660306,300.910753 499.403225,303.313767 495.870349,308.449052 C492.07578,313.913521 490.178523,318.291615 490.178523,321.583465 L490.178523,343.507071 C491.225301,344.560463 491.585126,345.943019 491.258007,347.654781 C490.865466,349.695727 489.818704,351.078283 488.117689,351.80249 C487.855995,351.934164 487.463459,352 486.94007,352 C485.173632,352 482.589438,351.588525 479.18741,350.765563 C475.785382,349.9426 473.920837,349.333617 473.593719,348.938595 C472.874059,347.885204 472.808636,346.667238 473.397449,345.284661 C473.462873,345.08715 473.77363,344.741511 474.329731,344.247734 C474.885832,343.753956 475.163878,343.276645 475.163878,342.815786 L475.163878,272.996012 C475.163878,272.469316 474.902187,271.778038 474.378798,270.922157 C473.855409,270.066277 473.691853,269.342081 473.888124,268.749548 C474.280665,267.366971 475.294716,266.478185 476.930307,266.083163 C477.977085,265.819815 480.430433,266.181913 484.290427,267.169468 C488.477538,268.22286 490.767331,269.309154 491.159872,270.428382 C491.421567,271.152589 491.323433,272.238883 490.865468,273.687297 C490.407502,275.135711 490.178523,276.913283 490.178523,279.020066 L490.178523,297.487248 C493.842246,292.812822 497.375068,290.475644 500.777096,290.475644 C503.001499,290.475644 505.880095,291.249217 509.412971,292.796387 C512.945846,294.343556 514.973948,295.742571 515.497337,296.993473 C517.329198,301.20704 518.245115,316.777254 518.245115,343.704581 C518.899351,345.284669 519.12833,346.667225 518.93206,347.852291 Z M174,453.942893 C174,457.566632 172.783345,460.465579 170.35,462.639823 C167.916654,464.814066 164.500022,465.934114 160.1,466 C159.033328,466 157.866673,465.835287 156.6,465.505856 C154.333322,464.912881 153.133334,464.583455 153,464.517569 C151.799994,464.254024 150.583339,463.974012 149.35,463.677524 C148.11666,463.381037 147.066671,462.870427 146.2,462.145679 C144.733326,460.827956 143.300007,459.016113 141.9,456.710098 C140.766661,454.865285 139.666672,452.987558 138.6,451.076859 C137.533328,449.166161 137,448.01317 137,447.617853 C137,446.695447 137.66666,446.003653 139,445.542449 C139.333335,445.410677 139.933329,445.344792 140.8,445.344792 C142.80001,445.344792 145.316652,445.558919 148.35,445.987179 C151.383348,446.415439 153.033332,446.777807 153.3,447.074295 C153.566668,447.370783 153.933331,449.264981 154.4,452.756948 C154.800002,455.787711 155.499995,457.30307 156.5,457.30307 C158.033341,457.30307 158.8,455.26063 158.8,451.175688 C158.8,445.970681 157.400014,442.709365 154.6,441.391642 C148.199968,438.426765 144.00001,435.791358 142,433.485342 C139.533321,430.652237 138.3,426.369701 138.3,420.637605 C138.3,416.882094 139.29999,413.340766 141.3,410.013515 C143.30001,406.686264 145.666653,404.693237 148.4,404.034376 C149.600006,403.770831 153.466634,405.022649 160,407.789868 C160.600003,407.987527 162.366652,408.349895 165.3,408.876984 C167.366677,409.272301 168.833329,409.964096 169.7,410.952388 C170.966673,412.46777 171.699999,414.872579 171.9,418.166887 C171.966667,420.604675 172,423.042426 172,425.480214 C172.466669,427.720343 172.7,429.038047 172.7,429.433364 C172.7,431.278176 171.800009,432.332339 170,432.595884 C169.066662,432.727656 167.233347,432.365287 164.5,431.508767 C161.499985,430.520475 159.600004,429.499255 158.8,428.445076 C158.599999,428.181532 158.400001,425.710838 158.2,421.03292 C157.999999,416.618547 157.533337,414.411394 156.8,414.411394 C155.799995,414.411394 154.866671,415.696155 154,418.265715 C153.133329,420.835276 152.7,423.503625 152.7,426.270844 C152.7,429.76281 153.466659,431.969964 155,432.89237 C158.266683,434.671296 161.51665,436.466667 164.75,438.278537 C167.983349,440.090406 170.233327,441.951662 171.5,443.862361 C173.166675,446.366035 174,449.726179 174,453.942893 Z M228.990661,453.757611 C229.121409,455.018351 227.879315,457.307556 225.264338,460.625293 C222.649362,463.94303 220.622786,465.502343 219.18455,465.303279 C216.37345,464.90515 210.424469,457.208116 201.337428,442.211944 C200.683684,442.941846 199.572335,444.103037 198.00335,445.69555 L198.00335,457.440281 C198.00335,457.772055 198.085067,458.369238 198.248503,459.23185 C198.411939,460.094462 198.526342,460.724822 198.591717,461.122951 C198.78784,463.379012 198.330226,464.838794 197.218861,465.502342 C196.630491,465.834116 195.682577,466 194.375089,466 C191.890862,466 189.472045,465.535524 187.118567,464.606557 C184.372842,463.544881 183,462.28416 183,460.824356 L183,386.971897 C183,385.910221 183.326867,384.749031 183.980611,383.48829 C184.634355,382.22755 185.386149,381.431305 186.236017,381.099532 C186.43214,381.033177 186.693634,381 187.020506,381 C188.72024,381 191.090026,381.580595 194.129936,382.741803 C197.169846,383.903011 198.853211,384.914906 199.180083,385.777518 C199.376206,386.242001 199.474267,386.640123 199.474267,386.971897 C199.474267,387.502735 199.212773,388.182861 198.689778,389.012295 C198.166782,389.841729 197.905289,390.621386 197.905289,391.351288 L197.905289,425.888759 L212.418333,405.683841 C213.2682,404.489455 214.346862,403.859095 215.65435,403.79274 C216.896463,403.726385 218.628859,404.52263 220.851589,406.181499 C223.335816,408.039432 224.610597,409.86416 224.675972,411.655738 C224.741346,412.38564 223.205071,414.973436 220.0671,419.419204 C215.229394,426.452806 212.38565,430.633093 211.535783,431.960187 L224.283727,449.776347 C224.741348,450.439894 225.689263,451.136608 227.1275,451.866511 C228.304239,452.463703 228.925286,453.094064 228.990661,453.757611 Z M254.89899,393.192988 C254.96633,393.326976 255,393.594949 255,393.996914 C255,395.470785 254.696973,397.38009 254.090909,399.724885 C253.417505,402.270663 252.777781,403.677519 252.171717,403.945496 C251.498313,404.213472 248.602719,403.493296 243.484848,401.784945 C238.366978,400.076594 235.639732,398.853969 235.30303,398.117034 C235.101009,397.782063 235,397.279614 235,396.609673 C235,394.800831 235.471376,392.891526 236.414141,390.881701 C237.491588,388.6039 238.703697,387.331031 240.050505,387.063054 C241.599334,386.795077 244.29291,387.381267 248.131313,388.821642 C251.969716,390.262016 254.225586,391.719117 254.89899,393.192988 Z M253.95319,461.466882 C254.210643,463.831999 253.406114,465.310175 251.53958,465.901454 C251.217764,465.967152 250.767228,466 250.187959,466 C247.870882,466 245.00676,465.507275 241.595508,464.521809 C237.926802,463.470646 235.770666,462.353802 235.127033,461.171244 C234.805217,460.645662 235.094848,459.627364 235.995933,458.116317 C236.575202,457.130851 236.864833,455.324192 236.864833,452.696284 L236.864833,411.306947 C236.092474,408.810434 235.7063,407.135169 235.7063,406.281099 C235.7063,405.427029 236.897002,405 239.278442,405 C241.20934,405 243.896465,405.607695 247.339899,406.823102 C250.783333,408.038509 252.859017,409.10608 253.567012,410.025848 C253.760102,410.288639 253.856645,410.617122 253.856645,411.011309 C253.856645,411.53689 253.486562,412.522341 252.746385,413.96769 C252.006208,415.413039 251.636124,416.497035 251.636124,417.219709 L251.636124,456.835218 C251.636124,457.492195 252.006208,458.313404 252.746385,459.298869 C253.486562,460.284334 253.888827,461.006998 253.95319,461.466882 Z M281,386.534761 C281,386.994811 280.854056,387.619156 280.562162,388.407814 C280.270269,389.196472 280.091892,389.689376 280.027027,389.88654 C279.637836,391.20097 279.248651,393.238306 278.859459,395.998609 L278.859459,456.527801 C278.859459,457.316459 279.054052,458.022955 279.443243,458.647309 C279.832434,459.271663 280.027027,459.780997 280.027027,460.175326 C280.027027,464.381502 279.248656,466.648859 277.691892,466.977467 C277.108105,467.10891 275.048666,466.665296 271.513514,465.646613 C267.978361,464.62793 265.854058,463.822854 265.140541,463.23136 C263.713506,461.982652 263,460.832543 263,459.780999 C263,459.518113 263.129728,459.222371 263.389189,458.893763 C263.64865,458.565156 263.778378,458.006532 263.778378,457.217874 L263.778378,387.717742 C263.778378,387.323413 263.664866,386.91266 263.437838,386.48547 C263.21081,386.05828 263.097297,385.647527 263.097297,385.253198 C263.227028,383.675882 264.427016,382.624354 266.697297,382.098582 C267.345949,381.967139 268.708098,381.967139 270.783784,382.098582 C273.183796,382.295747 275.259451,382.65721 277.010811,383.182981 C279.670284,383.971639 281,385.088888 281,386.534761 Z M309,386.534761 C309,386.994811 308.854056,387.619156 308.562162,388.407814 C308.270269,389.196472 308.091892,389.689376 308.027027,389.88654 C307.637836,391.20097 307.248651,393.238306 306.859459,395.998609 L306.859459,456.527801 C306.859459,457.316459 307.054052,458.022955 307.443243,458.647309 C307.832434,459.271663 308.027027,459.780997 308.027027,460.175326 C308.027027,464.381502 307.248656,466.648859 305.691892,466.977467 C305.108105,467.10891 303.048666,466.665296 299.513514,465.646613 C295.978361,464.62793 293.854058,463.822854 293.140541,463.23136 C291.713506,461.982652 291,460.832543 291,459.780999 C291,459.518113 291.129728,459.222371 291.389189,458.893763 C291.64865,458.565156 291.778378,458.006532 291.778378,457.217874 L291.778378,387.717742 C291.778378,387.323413 291.664866,386.91266 291.437838,386.48547 C291.21081,386.05828 291.097297,385.647527 291.097297,385.253198 C291.227028,383.675882 292.427016,382.624354 294.697297,382.098582 C295.345949,381.967139 296.708098,381.967139 298.783784,382.098582 C301.183796,382.295747 303.259451,382.65721 305.010811,383.182981 C307.670284,383.971639 309,385.088888 309,386.534761 Z M380,460.767941 C380,462.415367 379.506808,463.881553 378.520408,465.166545 C377.534009,466.451537 376.284588,467.061075 374.772109,466.995178 C373.719949,466.929281 371.155349,465.528991 367.078231,462.794264 C363.001113,460.059538 360.929706,458.165027 360.863946,457.110675 C360.863946,456.649396 360.962584,456.039858 361.159864,455.282042 C361.357144,454.524226 361.455782,453.947636 361.455782,453.552254 L361.455782,412.03734 C361.455782,410.521709 359.976205,409.434424 357.017007,408.775454 C353.729009,407.98469 351.854878,406.897405 351.394558,405.513568 C351.131518,404.788701 351,404.096793 351,403.437822 C351,401.988088 351.723349,400.274791 353.170068,398.297881 C355.142867,395.596103 356.326529,393.849858 356.721088,393.059094 L359.088435,385.349181 C360.206355,382.449713 362.146245,381 364.908163,381 C367.735842,381 370.563478,381.856648 373.391156,383.569971 C376.547635,385.480984 378.12585,387.655553 378.12585,390.093743 L378.12585,455.627999 C378.12585,456.28697 378.438205,457.127144 379.062925,458.148548 C379.687645,459.169952 380,460.043074 380,460.767941 Z M447.68254,384.881944 C450.923297,385.611886 453.502636,389.062469 455.420635,395.233796 C457.14022,401.006973 458,408.173568 458,416.733796 C458,426.68755 456.644193,436.508439 453.93254,446.196759 C450.030404,460.065656 444.34263,467 436.869048,467 C435.678565,467 434.223554,466.701392 432.503968,466.104167 C429.726177,465.042433 428.205028,464.478395 427.940476,464.412037 C426.154753,463.682095 423.211661,462.587199 419.111111,461.127315 C415.804216,459.999223 413.092603,455.28785 410.97619,446.993056 C408.992054,439.229128 408,430.37042 408,420.416667 C408,410.529272 409.025122,402.101887 411.075397,395.134259 C413.324085,387.303973 416.597862,382.625779 420.896825,381.099537 C421.161377,381.033179 421.425925,381 421.690476,381 C422.153441,381 422.715605,381.199072 423.376984,381.597222 C424.038363,381.995372 424.53439,382.128087 424.865079,381.99537 C426.783078,381.331787 428.767186,381 430.81746,381 C433.132287,381 435.976174,381.49768 439.349206,382.493056 C444.309549,383.952939 447.087299,384.749228 447.68254,384.881944 Z M434.795918,392 C431.530596,392 428.979601,395.570696 427.142857,402.712195 C425.714279,408.531194 425,415.24278 425,422.847154 C425,428.930654 425.714279,435.47693 427.142857,442.486179 C428.571436,449.495428 429.96598,453 431.326531,453 C433.979605,453 436.156454,448.966436 437.857143,440.899187 C439.285721,433.757688 440,425.492188 440,416.102439 C440,409.22544 439.591841,403.6049 438.77551,399.24065 C437.823124,394.413526 436.496607,392 434.795918,392 Z M509,460.767941 C509,462.415367 508.506808,463.881553 507.520408,465.166545 C506.534009,466.451537 505.284588,467.061075 503.772109,466.995178 C502.719949,466.929281 500.155349,465.528991 496.078231,462.794264 C492.001113,460.059538 489.929706,458.165027 489.863946,457.110675 C489.863946,456.649396 489.962584,456.039858 490.159864,455.282042 C490.357144,454.524226 490.455782,453.947636 490.455782,453.552254 L490.455782,412.03734 C490.455782,410.521709 488.976205,409.434424 486.017007,408.775454 C482.729009,407.98469 480.854878,406.897405 480.394558,405.513568 C480.131518,404.788701 480,404.096793 480,403.437822 C480,401.988088 480.723349,400.274791 482.170068,398.297881 C484.142867,395.596103 485.326529,393.849858 485.721088,393.059094 L488.088435,385.349181 C489.206355,382.449713 491.146245,381 493.908163,381 C496.735842,381 499.563478,381.856648 502.391156,383.569971 C505.547635,385.480984 507.12585,387.655553 507.12585,390.093743 L507.12585,455.627999 C507.12585,456.28697 507.438205,457.127144 508.062925,458.148548 C508.687645,459.169952 509,460.043074 509,460.767941 Z" id="Awesomenewtechskill101" fill-opacity="0.5" fill="#A27247" fill-rule="nonzero"></path>
        </g>
    </g>
</svg>