<?xml version="1.0" encoding="UTF-8" standalone="no"?>
<!DOCTYPE svg PUBLIC "-//W3C//DTD SVG 1.1//EN" "http://www.w3.org/Graphics/SVG/1.1/DTD/svg11.dtd">
<svg width="100%" height="100%" viewBox="0 0 1036 965" version="1.1" xmlns="http://www.w3.org/2000/svg" xmlns:xlink="http://www.w3.org/1999/xlink" xml:space="preserve" xmlns:serif="http://www.serif.com/" style="fill-rule:evenodd;clip-rule:evenodd;stroke-linecap:square;">
    <g id="Artboard1" transform="matrix(1.18409,0,0,1,70.5361,20)">
        <rect x="-59.57" y="-20" width="874.57" height="965" style="fill:none;"/>
        <g id="Volnuteer" transform="matrix(0.84453,0,0,1,127.071,0)">
            <g id="Group-4" transform="matrix(-1,0,0,1,815,41)">
                <path id="Line-16" d="M348.5,89.5C364.833,76.167 384.833,69.5 408.5,69.5C432.167,69.5 451.167,72.583 465.5,78.75L479.5,74.5L490.5,74.5L511.5,95L519,115L524,141L528,157.5L542,187.5L552.5,207.5L487,234L275.5,243.5L275.5,228.5L287,204L287,183.5C286.584,166.953 287.25,154.119 289,145C290.539,136.98 294.988,121.591 299.5,112C302.864,104.849 306.417,102.606 308,100C315.328,87.938 328.828,84.438 348.5,89.5Z" style="fill:rgb(39,155,202);"/>
                <path id="Line" d="M548,204C538.114,183.954 531.614,169.454 528.5,160.5C525.386,151.546 523.053,140.648 521.5,127.806C516.167,104.602 506,89.333 491,82C476,74.667 460.667,83.5 445,108.5C446.241,100.37 447.741,94.87 449.5,92C460.06,74.769 476.465,70.399 493,76C503.168,79.444 518.448,95.766 524.667,127.806C527,139.828 526.569,145.767 530.5,157.5C533.483,166.404 540.65,182.404 552,205.5L548,204Z" style="fill:rgb(0,112,157);"/>
                <g id="Line1" serif:id="Line" transform="matrix(-1,0,0,1,641.5,0)">
                    <path d="M363,237.5C356.84,213.162 353.229,196.995 352.167,189C351.226,181.915 354.657,171.325 353.5,168C350.386,159.046 348.886,148.731 349,137.056C343.667,113.685 333.5,98.333 318.5,91C303.5,83.667 288.5,91.083 273.5,113.25C284.167,87.583 299.833,78.25 320.5,85.25C330.668,88.694 345.948,105.016 352.167,137.056C354.5,149.078 354.069,155.017 358,166.75C359.472,171.145 356.357,186.047 358,198C359.124,206.176 362.457,220.176 368,240L363,237.5Z" style="fill:rgb(0,112,157);"/>
                </g>
                <path id="Line-23" d="M613.5,272.5C591.833,291.5 582.333,315 585,343C587.667,371 599.167,389.833 619.5,399.5C595.833,411.167 580.333,427.667 573,449C565.667,470.333 568.333,487 581,499C566.667,495.667 553.333,500.833 541,514.5C528.667,528.167 521.833,540.5 520.5,551.5L410,436C409.61,425.793 410.11,419.293 411.5,416.5C412.89,413.707 429.723,385.04 462,330.5L613.5,272.5Z" style="fill:rgb(2,91,127);stroke:rgb(39,155,202);stroke-width:5px;"/>
                <path id="Line-24" d="M407.5,407C471.646,390.333 513.479,382 533,382C552.521,382 581.687,388.167 620.5,400.5C572.468,394.451 536.968,392.451 514,394.5C491.032,396.549 455.532,404.882 407.5,419.5L407.5,407Z" style="fill:rgb(39,155,202);"/>
                <path id="Line-25" d="M580.5,499.5C559.924,485.25 543.257,476.583 530.5,473.5C517.743,470.417 494.409,469.417 460.5,470.5L465,481.5C484.333,478.167 502.833,477.5 520.5,479.5C538.167,481.5 558.167,488.167 580.5,499.5Z" style="fill:rgb(39,155,202);"/>
                <path id="Line-22" d="M457.5,332.5C483.682,316.604 510.516,303.437 538,293C565.484,282.563 590.151,275.896 612,273C563.695,292.543 536.362,303.71 530,306.5C523.638,309.29 495.138,322.957 444.5,347.5" style="fill:rgb(39,155,202);"/>
                <g id="Group-3" transform="matrix(0.961262,0.275637,-0.275637,0.961262,60.3646,250.563)">
                    <path id="Line-21" d="M1.5,31.5C38.167,31.5 61.167,41.5 70.5,61.5C79.833,81.5 72.833,109.5 49.5,145.5C78.334,136.844 100.501,139.844 116,154.5C131.499,169.156 133.832,189.322 123,215C143.667,191.333 165.5,181.5 188.5,185.5C211.5,189.5 225.167,200.667 229.5,219C235.833,196.667 247.167,179.167 263.5,166.5C279.833,153.833 299.5,148 322.5,149C324.864,140.627 320.03,130.96 308,120C260.804,77.004 179.281,22.852 151,12.5C111.906,-1.81 62.073,4.523 1.5,31.5Z" style="fill:rgb(2,91,127);stroke:rgb(39,155,202);stroke-width:5px;"/>
                    <path id="Line-17" d="M317.5,133.5C255.833,74.5 201.667,37 155,21C108.333,5 56.833,8.5 0.5,31.5C44.5,3.5 89.167,-5.833 134.5,3.5C174.205,11.675 231.201,43.73 297.5,101C303.765,106.412 313.098,115.079 325.5,127L317.5,133.5Z" style="fill:rgb(39,155,202);"/>
                    <path id="Line-18" d="M52,144C61.335,133.39 68.335,126.057 73,122C86.568,110.201 100.813,101.707 136,90.5C179.416,76.672 222.874,72.164 259,83.5C264.502,85.226 271.335,89.56 279.5,96.5C252.5,83.307 215.833,81.307 169.5,90.5C123.167,99.693 84,117.526 52,144Z" style="fill:rgb(39,155,202);"/>
                    <path id="Line-19" d="M281.5,101L281.5,91.5C256.948,96.643 239.448,100.809 229,104C209.681,109.899 192.073,121.284 180.5,130C159.539,145.787 140.539,174.287 123.5,215.5C125.516,213.462 127.849,210.128 130.5,205.5C145.446,179.401 169.907,146.324 196.5,130C230.167,109.333 258.5,99.667 281.5,101Z" style="fill:rgb(39,155,202);"/>
                    <path id="Line-20" d="M286,101C282.031,101.738 279.197,102.738 277.5,104C260.54,116.614 249.376,132.378 243,146C235.667,161.667 231.167,185.5 229.5,217.5C224.833,187.833 226.833,163 235.5,143C243.307,124.983 256.79,108.131 276.5,98.5C277.946,97.793 281.113,98.627 286,101Z" style="fill:rgb(39,155,202);"/>
                </g>
                <path id="Line-14" d="M395.5,727.5C391.414,766.118 391.414,789.784 395.5,798.5C397.267,802.27 408.774,802.061 413,794.5C418.247,785.112 421.807,783.364 423,777C424.5,769 424.54,757.859 425.5,758C428.07,758.378 423.762,791.576 425.5,796C431.055,810.14 438.418,811.154 441,810.5C442.66,810.08 452.439,802.48 455.5,791.5C458.66,780.162 455.136,765.418 459,764C463.084,762.502 458,796 465.5,800.5C471.98,804.388 479.66,785.783 482,773.5C484.667,759.5 480.833,737.833 470.5,708.5C449.334,710.929 434.334,713.262 425.5,715.5C416.666,717.738 406.666,721.738 395.5,727.5Z" style="fill:rgb(0,112,157);stroke:rgb(2,91,127);stroke-width:5px;"/>
                <path id="Line-15" d="M238.5,599.5C218.722,627.95 207.222,651.45 204,670C197.936,704.916 209.146,739.398 208.5,766.5C208.086,783.888 196.949,799.948 192.5,805.5C175.964,826.137 142.5,838.5 120.5,815.5C105.833,800.167 105.833,776 120.5,743C100.5,759.667 89.167,779.833 86.5,803.5C84.117,824.651 98.397,840.968 103.5,846C138.684,880.692 206.966,880.63 254.5,838.5C265.742,828.536 274.409,807.536 280.5,775.5L340,731.5L363,721.5C373.333,728.167 385.833,730.333 400.5,728C415.167,725.667 438.167,719.333 469.5,709C498.5,691.333 516.667,665 524,630C531.333,595 526.333,562.333 509,532L478,489.5C473.506,476.99 468.839,468.824 464,465C435.715,442.651 411,442.651 411,429.5C411,416.349 433.211,404.093 446,381C450.819,372.297 454.819,358.797 458,340.5L367.5,333L363,359.5L342,374.5L326.5,389.5L323,401L324.5,425L326.5,444.5C326.528,447.514 325.361,452.68 323,460C320.639,467.32 318.472,472.486 316.5,475.5L312.5,489.5C310.103,494.986 309.27,501.153 310,508C310.73,514.847 312.897,521.18 316.5,527L303,543L280.5,558L243.5,589.5L238.5,599.5Z" style="fill:rgb(39,155,202);stroke:rgb(0,112,157);stroke-width:5px;"/>
                <path id="Line-36" d="M370.5,715.5C388.167,714.167 408.333,711.333 431,707C453.667,702.667 479.833,688.833 509.5,665.5C497.833,688.833 477.667,705.5 449,715.5C429.612,722.263 410.321,728.098 392,728C386.155,727.969 377.655,726.302 366.5,723C366.004,720.931 366.004,719.431 366.5,718.5C366.996,717.569 368.33,716.569 370.5,715.5Z" style="fill:rgb(0,112,157);"/>
                <path id="Line-31" d="M390.5,359.5C388.469,371.369 386.136,379.036 383.5,382.5C379.546,387.697 354.5,402.5 350,412.511C345.5,422.522 351.21,443.455 366,461C380.79,478.545 406.663,480.207 417.5,478.5C424.724,477.362 439.558,473.196 462,466L414,436.5L411.5,423.5L426,405.5L446,382.5L456.5,352.5L456.5,346L390.5,359.5Z" style="fill:rgb(0,112,157);"/>
                <path id="Line-33" d="M85.5,807.5C104.833,850.5 136.833,862 181.5,842C226.167,822 249.333,770.333 251,687L295,732.5L269,819.5C238.667,860.167 201.5,876.833 157.5,869.5C113.5,862.167 89.5,841.5 85.5,807.5Z" style="fill:rgb(0,112,157);"/>
                <path id="Line-151" serif:id="Line-15" d="M238.5,599.5C218.722,627.95 207.222,651.45 204,670C197.936,704.916 209.146,739.398 208.5,766.5C208.086,783.888 196.949,799.948 192.5,805.5C175.964,826.137 142.5,838.5 120.5,815.5C105.833,800.167 105.833,776 120.5,743C100.5,759.667 89.167,779.833 86.5,803.5C84.117,824.651 98.397,840.968 103.5,846C138.684,880.692 206.966,880.63 254.5,838.5C265.742,828.536 274.409,807.536 280.5,775.5L340,731.5L363,721.5C379.333,728.167 398.667,729.333 421,725C443.333,720.667 459.5,715.333 469.5,709C498.5,691.333 516.667,665 524,630C531.333,595 526.333,562.333 509,532L478,489.5C473.506,476.99 468.839,468.824 464,465C435.715,442.651 411,442.651 411,429.5C411,416.349 433.211,404.093 446,381C450.819,372.297 454.819,358.797 458,340.5L367.5,333L363,359.5L342,374.5L326.5,389.5L323,401L324.5,425L326.5,444.5C326.528,447.514 325.361,452.68 323,460C320.639,467.32 318.472,472.486 316.5,475.5L312.5,489.5C310.103,494.986 309.27,501.153 310,508C310.73,514.847 312.897,521.18 316.5,527L303,543L280.5,558L245,590L238.5,599.5Z" style="fill:none;stroke:rgb(0,112,157);stroke-width:5px;"/>
                <g id="Group-2" transform="matrix(1,0,0,1,306,143)">
                    <path id="Line-30" d="M6.561,82.885L44.267,91.885L65.215,67.885C65.913,19.219 54.392,-3.281 30.651,0.385C23.477,1.493 13.405,7.16 0.434,17.385C-0.145,32.2 -0.145,42.7 0.434,48.885C1.013,55.071 3.055,66.404 6.561,82.885Z" style="fill:white;"/>
                    <g id="Group" transform="matrix(1,0,0,1,11,24)">
                        <ellipse id="Oval" cx="25.5" cy="32.5" rx="25.5" ry="32.5" style="fill:rgb(235,91,121);"/>
                        <ellipse id="Oval1" serif:id="Oval" cx="27.5" cy="35" rx="23.5" ry="30"/>
                        <circle id="Oval2" serif:id="Oval" cx="14" cy="17" r="6" style="fill:white;"/>
                    </g>
                </g>
                <path id="Line-37" d="M361.5,724.5C392.167,734.833 421,735.167 448,725.5C475,715.833 497.5,694.833 515.5,662.5C497.5,691.5 475.833,710.833 450.5,720.5C425.167,730.167 395.5,731.5 361.5,724.5Z" style="fill:rgb(2,91,127);"/>
                <path id="Rectangle" d="M385.977,181.519C399.276,179.804 408.451,178.946 413.5,178.946C418.549,178.946 427.724,179.804 441.023,181.519L441.023,181.519C445.013,182.034 448,185.431 448,189.453L448,190.446C448,194.305 444.872,197.433 441.013,197.433C440.709,197.433 440.406,197.413 440.105,197.374C427.755,195.755 419.22,194.946 414.5,194.946C409.71,194.946 400.514,195.78 386.911,197.447L386.911,197.447C383.045,197.921 379.526,195.171 379.052,191.304C379.017,191.019 379,190.733 379,190.446L379,189.453C379,185.431 381.987,182.034 385.977,181.519Z" style="fill:rgb(54,168,215);"/>
                <path id="Rectangle1" serif:id="Rectangle" d="M384.029,160.562C398.29,158.818 408.114,157.946 413.5,157.946C418.886,157.946 428.71,158.818 442.971,160.562L442.971,160.562C446.984,161.053 450,164.46 450,168.503L450,169.446C450,173.333 446.849,176.483 442.963,176.483C442.672,176.483 442.382,176.465 442.094,176.429C428.787,174.774 419.608,173.946 414.558,173.946C409.438,173.946 399.559,174.797 384.921,176.499L384.921,176.499C381.025,176.952 377.5,174.161 377.048,170.266C377.016,169.994 377,169.72 377,169.446L377,168.503C377,164.46 380.016,161.053 384.029,160.562Z" style="fill:rgb(54,168,215);"/>
                <path id="Rectangle2" serif:id="Rectangle" d="M378.149,140.662C395.067,138.852 406.684,137.946 413,137.946C419.316,137.946 430.933,138.852 447.851,140.662L447.851,140.662C451.917,141.098 455,144.528 455,148.617L455,149.446C455,153.396 451.798,156.599 447.847,156.599C447.588,156.599 447.329,156.585 447.071,156.556C431.126,154.816 420.175,153.946 414.217,153.946C408.19,153.946 396.43,154.837 378.94,156.618L378.94,156.618C374.979,157.022 371.441,154.138 371.037,150.177C371.012,149.934 371,149.69 371,149.446L371,148.617C371,144.528 374.083,141.098 378.149,140.662Z" style="fill:rgb(54,168,215);"/>
                <path id="Rectangle3" serif:id="Rectangle" d="M373.238,120.739C392.708,118.877 406.045,117.946 413.25,117.946C420.455,117.946 433.792,118.877 453.262,120.739L453.262,120.739C457.366,121.132 460.5,124.579 460.5,128.703L460.5,129.446C460.5,133.444 457.259,136.686 453.26,136.686C453.025,136.686 452.791,136.674 452.557,136.651C434.089,134.848 421.443,133.946 414.62,133.946C407.726,133.946 394.171,134.866 373.952,136.707L373.952,136.707C369.942,137.072 366.395,134.117 366.03,130.107C366.01,129.887 366,129.667 366,129.446L366,128.703C366,124.579 369.134,121.132 373.238,120.739Z" style="fill:rgb(54,168,215);"/>
                <g id="Group-21" serif:id="Group-2" transform="matrix(-1,0,0,1,522,139)">
                    <path id="Line-301" serif:id="Line-30" d="M9.127,82.885L46.833,91.885L67.781,67.885C68.479,19.219 56.958,-3.281 33.217,0.385C23.738,1.849 12.999,8.683 1,20.885C-0.333,38.552 -0.333,51.219 1,58.885C2.333,66.552 5.042,74.552 9.127,82.885Z" style="fill:white;"/>
                    <g id="Group1" serif:id="Group" transform="matrix(1,0,0,1,13,21)">
                        <ellipse id="Oval3" serif:id="Oval" cx="25.5" cy="32.5" rx="25.5" ry="32.5" style="fill:rgb(235,91,121);"/>
                        <ellipse id="Oval4" serif:id="Oval" cx="27.5" cy="35" rx="23.5" ry="30"/>
                        <circle id="Oval5" serif:id="Oval" cx="14" cy="17" r="6" style="fill:white;"/>
                    </g>
                </g>
                <path id="Line-2" d="M334.5,226.5C359.167,207.167 386.833,197.5 417.5,197.5C448.167,197.5 473.333,205.667 493,222C500.742,215.012 506.909,210.512 511.5,208.5C533.306,198.945 553.36,202.067 564,216C574.075,229.194 577.642,266.987 542.5,300C531.5,310.333 510.667,320.667 480,331C466.598,337.569 457.499,343.236 452.704,348C434.746,365.844 439,377 413,377C391.132,377 391.132,360.776 375.5,345C370.67,340.125 362.503,333.959 351,326.5C289.667,315.167 260.167,295 262.5,266C264.833,237 288.833,223.833 334.5,226.5Z" style="fill:rgb(212,155,167);stroke:rgb(142,88,99);stroke-width:4px;"/>
                <path id="Line-3" d="M299.5,259C303.361,256.968 306.528,256.302 309,257C318.192,259.596 323.332,263.497 330,267C334.738,269.489 341.867,271.878 344.5,273C361.897,280.413 376.021,284.312 380,286.5C390,292 398.234,334.714 423,329.5C442,325.5 446.487,317.723 468,297C474.452,290.785 488.318,278.772 504,264.5C505.245,263.367 513.745,255.2 529.5,240C522.747,243.779 517.58,246.779 514,249C499.171,258.2 483.907,262.915 468,259C443.473,252.963 429.42,236.855 414.5,238.5C399.113,240.196 368.5,264.5 362,264.5C356.732,264.5 346.986,268.798 333,265C328.995,263.912 315.349,254.6 305.5,253C302.964,252.588 300.964,254.588 299.5,259Z"/>
                <path id="Line-28" d="M357.5,540.5C339.351,609.859 339.351,651.359 357.5,665C367.366,672.415 406.78,693.426 436.5,689C467.833,684.333 493.833,674.167 514.5,658.5C528.833,631.167 531.667,600.667 523,567C514.333,533.333 494,499.167 462,464.5C450.633,470.223 442.133,473.723 436.5,475C430.867,476.277 414.367,478.443 387,481.5L357.5,540.5Z" style="fill:rgb(212,155,167);stroke:rgb(142,88,99);stroke-width:5px;"/>
                <path id="Line-35" d="M351,532C389,553 424.833,562.833 458.5,561.5C492.167,560.167 511.833,555.27 517.5,546.81" style="fill:none;stroke:rgb(142,88,99);stroke-width:2px;"/>
                <g id="Line-351" serif:id="Line-35" transform="matrix(0.994522,-0.104528,0.104528,0.994522,-51.7289,48.6013)">
                    <path d="M373.991,509.784C397.815,521.703 426.56,526.995 460.227,525.662C479.591,524.895 493.399,523.773 501.649,522.297" style="fill:none;stroke:rgb(142,88,99);stroke-width:2px;"/>
                </g>
                <g id="Line-352" serif:id="Line-35" transform="matrix(0.992546,-0.121869,0.121869,0.992546,-57.3267,55.6576)">
                    <path d="M369.628,491.948C383.364,499.101 407.065,502.012 440.732,500.678C462.056,499.834 476.158,498.116 483.039,495.525" style="fill:none;stroke:rgb(142,88,99);stroke-width:2px;"/>
                </g>
                <path id="Line-13" d="M278.5,716.5C266.263,718.933 259.763,722.766 259,728C255.5,752 269.295,756.084 272.5,769.5C275.043,780.144 270.099,796.702 272.5,805.5C279.159,829.901 292.404,839.274 295.5,840C298.278,840.651 305.112,836.891 311.5,823C313.984,817.598 316.984,804 314.5,787C313.63,781.046 315.5,838.5 330,837C335.126,836.47 342.467,830.249 344.5,810.5C345.047,805.183 341.229,794.921 341,783.5C340.951,781.049 343.035,793.371 344.5,807.5C345.648,818.575 345.129,832 351.5,832C357.317,832 365.356,811.259 362,787C360.519,776.296 354.019,757.796 342.5,731.5" style="fill:rgb(39,155,202);stroke:rgb(0,112,157);stroke-width:5px;"/>
                <path id="Line-11" d="M316,524C311.122,532.651 304.622,540.151 296.5,546.5C280.534,558.98 242.672,575.183 237,606C227,660.333 242.833,698.5 284.5,720.5C283.041,716.401 281.708,713.734 280.5,712.5C266.81,698.513 255.865,689.71 251,681.5C237.371,658.5 235.871,619.831 240,606C250,572.5 294.5,552.5 302,545.5C307,540.833 311.667,535.333 316,529" style="fill:rgb(0,112,157);stroke:rgb(0,112,157);stroke-width:1px;"/>
                <path id="Line-10" d="M369.5,339.5L364.5,336C362.763,349.404 360.263,357.737 357,361C347.5,370.5 329,375.5 322.5,392C316.376,407.544 324.506,424.338 324.5,449C324.497,459.515 307.999,483.841 308,506.5C308,515.208 315,526.541 329,540.5C316.953,523.301 311.287,511.134 312,504C314,484 329,455.468 329,449C329,436 324.247,401.876 326,395.5C327.192,391.165 330.743,384.787 338.75,378.5C345.76,372.996 355.522,369.205 360.5,363.5C365.049,358.287 368.049,350.287 369.5,339.5Z" style="fill:rgb(0,112,157);"/>
                <path id="Line-8" d="M395.5,247.5L400.5,287.5L418.5,289.5C419.167,283.833 419.5,278.833 419.5,274.5C419.5,270.167 420.167,263.5 421.5,254.5C421.902,263.849 422.402,270.516 423,274.5C423.598,278.484 423.598,283.484 423,289.5L441,289.5L443.5,249.5C433.833,241.833 425.5,238 418.5,238C411.5,238 403.833,241.167 395.5,247.5Z" style="fill:white;"/>
                <path id="Line-9" d="M405.5,325.5L406.5,310.5C409.722,309.167 412.222,308.5 414,308.5C415.778,308.5 417.611,309.167 419.5,310.5L419.5,323L421.5,323L421.5,309.5C424.833,308.833 427.333,308.5 429,308.5C430.667,308.5 433.333,308.833 437,309.5L437,324.5C434,328.833 428.75,331 421.25,331C413.75,331 408.5,329.167 405.5,325.5Z" style="fill:white;"/>
                <path id="Line-32" serif:id="Line-3" d="M299.5,259C303.361,256.968 306.528,256.302 309,257C318.192,259.596 323.332,263.497 330,267C334.738,269.489 341.867,271.878 344.5,273C361.897,280.413 376.021,284.312 380,286.5C390,292 398.234,334.714 423,329.5C442,325.5 446.487,317.723 468,297C474.452,290.785 488.318,278.772 504,264.5C505.245,263.367 513.745,255.2 529.5,240C522.747,243.779 517.58,246.779 514,249C499.171,258.2 483.907,262.915 468,259C443.473,252.963 429.42,236.855 414.5,238.5C399.113,240.196 368.5,264.5 362,264.5C356.732,264.5 346.986,268.798 333,265C328.995,263.912 315.349,254.6 305.5,253C302.964,252.588 300.964,254.588 299.5,259Z" style="fill:none;stroke:black;stroke-width:5px;"/>
                <path id="Line-6" d="M369,98.5C365.957,89.531 364.053,89.512 359,85.5C345.371,74.678 330.252,67.389 324,58.5C315.431,46.316 310.264,30.816 308.5,12C306.702,31.186 307.868,44.353 312,51.5C313.363,53.857 318.866,64.706 326.5,72C338.576,83.537 354.549,92.662 357,94.5C359.842,96.631 362.175,101.131 364,108L368.5,113.5C370.862,109.479 371.029,104.479 369,98.5Z" style="fill:rgb(2,91,127);"/>
                <g id="Line-61" serif:id="Line-6" transform="matrix(-0.990268,0.139173,0.139173,0.990268,912.505,-63.8086)">
                    <path d="M490.86,90.374C490.703,89.818 488.145,80.216 484.921,77.656C471.292,66.835 456.172,59.545 449.921,50.656C441.351,38.472 436.185,22.972 434.421,4.156C432.622,23.343 433.789,36.509 437.921,43.656C439.283,46.013 444.454,57.739 452.421,64.156C459.158,69.583 470.972,75.839 473.423,77.677C476.265,79.808 480.816,89.435 487.076,106.558C489.391,102.911 490.716,100.369 491.053,98.93C491.245,98.106 490.86,90.374 490.86,90.374Z" style="fill:rgb(2,91,127);"/>
                </g>
                <path id="Line-7" d="M307.5,130.5C308.167,125.5 310.333,121.333 314,118C317.667,114.667 322.5,112.833 328.5,112.5C322.207,114.798 317.874,116.965 315.5,119C313.126,121.035 310.459,124.868 307.5,130.5Z" style="fill:rgb(2,91,127);stroke:rgb(2,91,127);stroke-width:1px;"/>
                <g id="Line-71" serif:id="Line-7" transform="matrix(-0.996195,0.0871557,0.0871557,0.996195,971.298,-42.4078)">
                    <path d="M480.76,116.321C481.427,111.321 483.594,107.154 487.26,103.821C490.927,100.487 495.76,98.654 501.76,98.321C495.468,100.619 491.135,102.786 488.76,104.821C486.386,106.855 483.72,110.689 480.76,116.321Z" style="fill:rgb(2,91,127);stroke:rgb(2,91,127);stroke-width:1px;"/>
                </g>
                <path id="Line-12" d="M293.5,723.5C306.167,730.167 321.833,731 340.5,726C359.167,721 372.5,712.667 380.5,701C376.833,716.333 363.5,726.833 340.5,732.5C317.5,738.167 301.833,735.167 293.5,723.5Z" style="fill:rgb(0,112,157);"/>
                <path id="Line-5" d="M430.5,230C455.657,244.268 473.157,251.268 483,251C511.095,250.235 531.558,219.172 543,229C552.715,237.345 558.719,281.803 566.5,307C573.5,329.667 585.833,347.833 603.5,361.5C584.465,355.403 572.132,345.903 566.5,333C557.952,313.416 549.19,272.249 543,251C540.579,242.687 539.377,234.048 538.5,233.5C534.86,231.225 515.479,259 484.5,259C465,259 446.599,250.224 439,245C433.934,241.517 431.101,236.517 430.5,230Z" style="fill:url(#_Linear1);"/>
                <path id="Line-4" d="M405.5,229.5C392.5,243.833 376.333,252.333 357,255C327.799,259.028 305.062,240.222 294.5,251C286.124,259.547 295.725,298.568 289.5,322C285.796,335.943 275.463,355.11 258.5,379.5C267.483,373.783 273.65,368.616 277,364C284.65,353.459 289.658,337.231 292,329.5C301.345,298.653 296.597,261.376 300.5,258.5C302.119,257.307 305.443,252.67 314.5,256C326.187,260.297 336.443,269.958 357,268C378,266 373.292,261.827 384.5,255C390.844,251.136 396.097,249.06 401.5,242.5C405.102,238.126 406.435,233.793 405.5,229.5Z" style="fill:url(#_Linear2);"/>
                <path id="Line-321" serif:id="Line-32" d="M316.5,562.5C321.5,568.5 318,614 326.5,653.5C335,693 382.259,686.092 371.5,697C360.741,707.908 330.5,741.5 283.5,703C236.5,664.5 245.752,618.197 255.5,600C265.248,581.803 311.5,556.5 316.5,562.5Z" style="fill:rgb(70,184,230);fill-opacity:0.478431;"/>
                <path id="Line-353" serif:id="Line-35" d="M343.5,621.5C381.5,642.5 417.333,652.333 451,651C484.667,649.667 509.167,639.833 524.5,621.5" style="fill:none;stroke:rgb(142,88,99);stroke-width:2px;"/>
                <path id="Line-354" serif:id="Line-35" d="M344.5,591.5C382.5,612.5 418.333,622.333 452,621C485.667,619.667 510.167,609.833 525.5,591.5" style="fill:none;stroke:rgb(142,88,99);stroke-width:2px;"/>
                <path id="Line-355" serif:id="Line-35" d="M350.5,561.5C388.5,582.5 424.333,592.333 458,591C491.667,589.667 513.833,582 524.5,568" style="fill:none;stroke:rgb(142,88,99);stroke-width:2px;"/>
                <g id="Oval-2" transform="matrix(0.927184,0.374607,-0.374607,0.927184,114.066,-151.655)">
                    <ellipse cx="447.131" cy="217.581" rx="7" ry="4.5"/>
                </g>
                <g id="Oval-21" serif:id="Oval-2" transform="matrix(-0.927184,0.374607,0.374607,0.927184,668.052,-129.856)">
                    <ellipse cx="389.176" cy="218.795" rx="7" ry="4.5"/>
                </g>
            </g>
            <g id="Group-7" transform="matrix(0.241922,-0.970296,-0.970296,-0.241922,337.165,627.667)">
                <g id="Line-26" transform="matrix(0.529919,0.848048,-0.848048,0.529919,87.269,-21.7206)">
                    <path d="M20.318,33.901L9.318,79.901C12.985,89.234 16.652,94.901 20.318,96.901C25.818,99.901 30.609,105.014 47.818,107.401C59.291,108.992 71.458,107.159 84.318,101.901C109.19,86.262 119.924,75.952 116.521,70.97C108.192,58.776 94.77,44.091 81.818,36.401C67.892,28.132 50.059,25.799 28.318,29.401L20.318,33.901Z" style="fill:rgb(39,155,202);"/>
                </g>
                <g id="Line-261" serif:id="Line-26" transform="matrix(0.529919,0.848048,-0.848048,0.529919,86.7746,-21.6946)">
                    <path d="M20.558,33.468C37.004,30.969 48.004,30.136 53.558,30.968C69.657,33.38 85.052,41.121 94.058,49.468C100.66,55.586 107.912,63.389 113.526,71.435C117.401,76.988 90.058,100.468 85.558,98.968C81.058,97.468 67.558,105.468 48.058,102.968C35.058,101.301 22.225,93.468 9.558,79.468C13.225,88.801 16.892,94.468 20.558,96.468C26.058,99.468 30.849,104.581 48.058,106.968C59.531,108.559 71.698,106.726 84.558,101.468C109.095,85.155 119.43,74.273 115.566,68.819C107.183,56.991 94.407,43.3 82.058,35.968C68.132,27.699 50.299,25.366 28.558,28.968L20.558,33.468Z" style="fill:rgb(0,112,157);"/>
                </g>
                <g id="Line-34" transform="matrix(0.529919,0.848048,-0.848048,0.529919,95.457,-27.7973)">
                    <path d="M34.802,53.206C55.292,53.284 69.459,55.284 77.302,59.206C85.146,63.128 96.313,73.794 110.802,91.206C94.612,77.777 81.945,68.777 72.802,64.206C63.66,59.635 50.993,55.968 34.802,53.206Z" style="fill:rgb(54,168,215);stroke:rgb(54,168,215);stroke-width:1px;stroke-linecap:round;stroke-linejoin:round;"/>
                </g>
            </g>
            <g id="Line-75" transform="matrix(-0.207912,0.978148,-0.978148,-0.207912,921.824,377.555)">
                <path d="M289.668,518.466C273.297,525.857 263.093,546.763 259.055,581.186L259.055,581.186C258.647,584.663 260.871,587.907 264.261,588.781L328.079,605.223C335.031,607.014 342.12,602.83 343.911,595.877C343.911,595.877 343.911,595.877 343.911,595.877L357.668,542.466C329.649,518.648 306.982,510.648 289.668,518.466Z" style="fill:rgb(22,26,56);"/>
            </g>
            <path id="Line-29" d="M362.794,495C368.966,503.044 383.392,508.399 406.071,511.065C428.75,513.732 457.765,508.732 493.117,496.067C503.916,518.19 510.086,533.188 511.627,541.062C513.938,552.873 503.122,561.06 507.598,570.059C510.582,576.058 523.431,583.391 546.145,592.057C554.863,623.058 532.851,652.722 480.11,681.047C427.369,709.373 357.999,707.539 272,675.548C272.802,641.34 280.472,607.51 295.012,574.059C309.552,540.607 332.146,514.254 362.794,495Z" style="fill:rgb(26,32,71);"/>
            <path id="Line-27" d="M310,548C340.108,549.371 362.899,551.868 378.373,555.489C393.847,559.111 411.722,567.615 432,581" style="fill:none;"/>
            <path id="Line-38" d="M321.5,533.5L315.5,542.5" style="fill:none;stroke:rgb(26,32,71);stroke-width:4px;"/>
            <g id="Line-751" serif:id="Line-75" transform="matrix(0.731354,-0.681998,0.681998,0.731354,-265.917,474.491)">
                <path d="M450.949,531.229C434.579,538.62 424.374,559.527 420.336,593.95L420.336,593.95C419.928,597.427 422.152,600.67 425.542,601.544L489.36,617.986C496.313,619.777 503.401,615.593 505.192,608.641C505.192,608.64 505.192,608.64 505.192,608.64L518.949,555.229C490.93,531.412 468.263,523.412 450.949,531.229Z" style="fill:rgb(21,25,51);fill-opacity:0.6;"/>
            </g>
            <g id="Group-6" transform="matrix(-0.75471,0.656059,0.656059,0.75471,495.271,471.882)">
                <g id="Line-262" serif:id="Line-26" transform="matrix(0.731354,0.681998,-0.681998,0.731354,75.0577,-37.5378)">
                    <path d="M38.426,32.573L27.426,78.573C31.093,87.907 34.76,93.573 38.426,95.573C43.926,98.573 48.717,103.687 65.926,106.073C77.4,107.664 89.566,105.831 102.426,100.573L116.926,126.573L120.926,110.073L125.426,122.573L133.926,115.573C135.926,113.704 136.926,110.537 136.926,106.073C136.926,101.61 135.926,97.11 133.926,92.573L139.926,102.073C141.926,98.073 142.926,93.073 142.926,87.073C142.926,78.073 120.816,47.476 99.926,35.073C86,26.805 68.167,24.471 46.426,28.073L38.426,32.573Z" style="fill:rgb(21,25,51);"/>
                </g>
                <g id="Line-263" serif:id="Line-26" transform="matrix(0.731354,0.681998,-0.681998,0.731354,74.2513,-31.0314)">
                    <path d="M29.765,34.803L18.765,80.803C22.431,90.136 26.098,95.803 29.765,97.803C35.265,100.803 40.055,105.916 57.265,108.303C68.738,109.894 80.904,108.061 93.765,102.803L108.265,128.803L112.265,112.303L116.765,124.803L125.265,117.803C127.265,115.933 128.265,112.767 128.265,108.303C128.265,103.839 127.265,99.339 125.265,94.803L131.265,104.303C133.265,100.303 134.265,95.303 134.265,89.303C134.265,80.303 112.154,49.706 91.265,37.303C77.338,29.034 59.505,26.701 37.765,30.303L29.765,34.803Z" style="fill:rgb(39,155,202);"/>
                </g>
                <g id="Line-264" serif:id="Line-26" transform="matrix(0.731354,0.681998,-0.681998,0.731354,74.2513,-31.0314)">
                    <path d="M29.765,34.803C46.21,32.304 57.21,31.471 62.765,32.303C78.863,34.715 94.258,42.456 103.265,50.803C114.422,61.144 127.439,76.296 131.265,89.303C131.838,91.253 131.672,94.087 130.765,97.803C129.067,95.116 127.734,93.449 126.765,92.803C125.795,92.157 124.129,90.99 121.765,89.303C123.474,97.942 124.307,103.609 124.265,106.303C124.222,109.003 124.479,109.826 124.265,111.303C123.729,114.99 121.729,117.824 118.265,119.803C117.052,116.22 116.052,113.72 115.265,112.303C114.477,110.885 111.644,107.219 106.765,101.303C107.908,106.172 108.575,109.839 108.765,112.303C108.954,114.767 108.287,117.934 106.765,121.803C101.765,108.47 97.765,101.303 94.765,100.303C90.265,98.803 76.765,106.803 57.265,104.303C44.265,102.636 31.431,94.803 18.765,80.803C22.431,90.136 26.098,95.803 29.765,97.803C35.265,100.803 40.055,105.916 57.265,108.303C68.738,109.894 80.904,108.061 93.765,102.803L108.265,128.803L112.265,112.303L116.765,124.803L125.265,117.803C127.265,115.933 128.265,112.767 128.265,108.303C128.265,103.839 127.265,99.339 125.265,94.803L131.265,104.303C133.265,100.303 134.265,95.303 134.265,89.303C134.265,80.303 112.154,49.706 91.265,37.303C77.338,29.034 59.505,26.701 37.765,30.303L29.765,34.803Z" style="fill:rgb(0,112,157);"/>
                </g>
                <g id="Line-341" serif:id="Line-34" transform="matrix(0.731354,0.681998,-0.681998,0.731354,68.9772,-45.9196)">
                    <path d="M54.775,45.595C75.265,45.673 89.432,47.673 97.275,51.595C105.119,55.516 116.286,66.183 130.775,83.595C114.585,70.166 101.918,61.166 92.775,56.595C83.633,52.023 70.966,48.357 54.775,45.595Z" style="fill:rgb(54,168,215);stroke:rgb(54,168,215);stroke-width:1px;stroke-linecap:round;stroke-linejoin:round;"/>
                </g>
            </g>
            <g id="Line-752" serif:id="Line-75" transform="matrix(0.731354,-0.681998,0.681998,0.731354,-256.41,478.624)">
                <path d="M460.949,521.229C444.579,528.62 434.374,549.527 430.336,583.95L430.336,583.95C429.928,587.427 432.152,590.67 435.542,591.544L499.36,607.986C506.313,609.777 513.401,605.593 515.192,598.641C515.192,598.64 515.192,598.64 515.192,598.64L528.949,545.229C500.93,521.412 478.263,513.412 460.949,521.229Z" style="fill:rgb(26,32,71);"/>
            </g>
            <path id="Line-76" d="M493,473.819C468.89,479.785 447.764,490.26 429.621,505.245C418.891,514.107 416.303,542.18 404.019,556.592C398.361,563.23 386.53,569.033 368.527,574C360.945,558.406 357.459,545.049 358.068,533.928C358.677,522.807 363.663,508.281 373.026,490.349C376.36,487.586 378.693,485.837 380.024,485.103C381.355,484.37 382.96,483.948 384.838,483.837C372.386,506.802 365.567,523.498 364.379,533.928C363.192,544.357 365.574,554.208 371.526,563.481C385.662,559.669 395.16,554.56 400.02,548.152C411.12,533.518 415.886,504.324 425.015,496.848C440.139,484.462 462.467,473.846 492,465L493,473.819Z" style="fill:rgb(17,18,24);fill-opacity:0.47451;"/>
            <path id="Line-761" serif:id="Line-76" d="M494,471.819C467.891,478.452 445.764,489.261 427.621,504.246C416.891,513.108 414.303,541.181 402.019,555.592C396.361,562.23 384.531,568.033 366.527,573C358.945,557.406 355.459,544.049 356.068,532.928C356.677,521.808 361.663,507.282 371.026,489.351L380.024,485.107C369.448,506.559 363.567,522.499 362.379,532.928C361.192,543.358 363.574,553.208 369.526,562.481C383.662,558.67 393.16,553.56 398.02,547.152C409.12,532.518 413.887,503.325 423.015,495.849C438.139,483.464 461.467,472.514 493,463L494,471.819Z" style="fill:rgb(67,79,154);"/>
            <g id="Rectangle4" serif:id="Rectangle" transform="matrix(0.978148,0.207912,-0.207912,0.978148,131.972,-62.4667)">
                <path d="M346.669,574.954L381.906,568.652L381.906,619.652L344.397,624.51L346.669,574.954Z" style="fill-opacity:0.768627;"/>
            </g>
            <g id="Rectangle5" serif:id="Rectangle" transform="matrix(1.36138,0.289371,-0.289371,1.36138,47.0031,-309.747)">
                <path d="M344.669,572.954L379.906,566.652L379.906,617.652L342.397,622.51L344.669,572.954Z" style="fill:rgb(78,78,78);"/>
            </g>
            <g id="Group-5" transform="matrix(1.37825,0.193701,-0.193701,1.37825,352.914,581.01)">
                <path id="_-" serif:id="~" d="M19.872,5.708C20.446,5.708 20.953,5.59 21.394,5.354C21.834,5.119 22.208,4.801 22.515,4.401C22.822,4.001 23.058,3.529 23.222,2.985C23.386,2.442 23.468,1.852 23.468,1.216L26.756,1.216C26.756,2.324 26.612,3.36 26.326,4.324C26.039,5.288 25.609,6.129 25.035,6.847C24.461,7.565 23.739,8.129 22.869,8.539C21.998,8.949 20.979,9.154 19.811,9.154C19.012,9.154 18.28,9.042 17.614,8.816C16.948,8.59 16.328,8.313 15.755,7.985C15.181,7.657 14.638,7.293 14.126,6.893C13.614,6.493 13.112,6.129 12.62,5.801C12.128,5.472 11.642,5.195 11.16,4.97C10.679,4.744 10.172,4.631 9.639,4.631C8.533,4.631 7.657,5.052 7.012,5.893C6.367,6.734 6.044,7.801 6.044,9.093L2.756,9.093C2.756,7.985 2.899,6.949 3.186,5.985C3.473,5.021 3.908,4.18 4.492,3.462C5.076,2.744 5.803,2.18 6.674,1.77C7.545,1.36 8.554,1.154 9.701,1.154C10.889,1.154 11.939,1.39 12.851,1.862C13.762,2.334 14.607,2.857 15.386,3.431C16.164,4.006 16.912,4.529 17.629,5.001C18.346,5.472 19.094,5.708 19.872,5.708Z" style="fill:rgb(149,149,149);"/>
                <path id="_-1" serif:id="~" d="M18.612,5.066C19.186,5.066 19.693,4.948 20.133,4.712C20.574,4.477 20.948,4.159 21.255,3.759C21.562,3.359 21.798,2.887 21.962,2.343C22.126,1.8 22.208,1.21 22.208,0.574L25.496,0.574C25.496,1.682 25.352,2.718 25.066,3.682C24.779,4.646 24.349,5.487 23.775,6.205C23.201,6.923 22.479,7.487 21.608,7.897C20.738,8.307 19.719,8.512 18.551,8.512C17.752,8.512 17.02,8.4 16.354,8.174C15.688,7.948 15.068,7.671 14.495,7.343C13.921,7.015 13.378,6.651 12.866,6.251C12.354,5.851 11.852,5.487 11.36,5.159C10.868,4.83 10.382,4.553 9.9,4.328C9.419,4.102 8.912,3.989 8.379,3.989C7.273,3.989 6.397,4.41 5.752,5.251C5.107,6.092 4.784,7.159 4.784,8.451L1.496,8.451C1.496,7.343 1.639,6.307 1.926,5.343C2.213,4.379 2.648,3.538 3.232,2.82C3.816,2.102 4.543,1.538 5.414,1.128C6.285,0.718 7.294,0.512 8.441,0.512C9.629,0.512 10.679,0.748 11.591,1.22C12.502,1.692 13.347,2.215 14.126,2.789C14.904,3.364 15.652,3.887 16.369,4.359C17.086,4.83 17.834,5.066 18.612,5.066Z" style="fill:rgb(211,211,211);"/>
                <path id="_-2" serif:id="~" d="M17.661,5.375C18.235,5.375 18.742,5.257 19.182,5.021C19.623,4.786 19.997,4.468 20.304,4.068C20.611,3.668 20.847,3.196 21.011,2.652C21.175,2.109 21.257,1.519 21.257,0.883L24.545,0.883C24.545,1.991 24.401,3.027 24.115,3.991C23.828,4.955 23.398,5.796 22.824,6.514C22.25,7.232 21.528,7.796 20.657,8.206C19.787,8.616 18.768,8.821 17.6,8.821C16.801,8.821 16.068,8.709 15.403,8.483C14.737,8.257 14.117,7.98 13.543,7.652C12.97,7.324 12.427,6.96 11.915,6.56C11.403,6.16 10.901,5.796 10.409,5.468C9.917,5.139 9.431,4.862 8.949,4.637C8.468,4.411 7.961,4.298 7.428,4.298C6.322,4.298 5.446,4.719 4.801,5.56C4.156,6.401 3.833,7.468 3.833,8.76L0.545,8.76C0.545,7.652 0.688,6.616 0.975,5.652C1.262,4.688 1.697,3.847 2.281,3.129C2.865,2.411 3.592,1.847 4.463,1.437C5.333,1.027 6.342,0.821 7.49,0.821C8.678,0.821 9.728,1.057 10.64,1.529C11.551,2.001 12.396,2.524 13.175,3.098C13.953,3.673 14.701,4.196 15.418,4.668C16.135,5.139 16.883,5.375 17.661,5.375Z" style="fill:white;"/>
            </g>
            <g id="Jamie" transform="matrix(1.38142,0.169617,-0.169617,1.38142,-29.1694,-277.677)">
                <path d="M343.203,603.74L343.905,603.362L344.715,602.948L345.453,602.57C345.741,602.426 346.02,602.297 346.29,602.183C346.56,602.069 346.827,601.97 347.091,601.886C347.247,601.826 347.403,601.835 347.559,601.913C347.715,601.991 347.823,602.111 347.883,602.273C347.943,602.435 347.934,602.594 347.856,602.75C347.778,602.906 347.655,603.014 347.487,603.074C347.127,603.206 346.743,603.362 346.335,603.542L346.335,603.596C346.323,604.1 346.353,604.748 346.425,605.54C346.425,605.612 346.449,605.912 346.497,606.44L346.605,607.628C346.725,609.38 346.593,610.808 346.209,611.912C345.933,612.692 345.537,613.262 345.021,613.622C344.517,613.982 343.959,614.084 343.347,613.928C342.807,613.796 342.321,613.49 341.889,613.01C341.457,612.53 341.139,611.96 340.935,611.3C340.875,611.132 340.887,610.97 340.971,610.814C341.055,610.658 341.178,610.553 341.34,610.499C341.502,610.445 341.661,610.46 341.817,610.544C341.973,610.628 342.075,610.748 342.123,610.904C342.291,611.408 342.516,611.816 342.798,612.128C343.08,612.44 343.365,612.632 343.653,612.704C344.229,612.848 344.685,612.44 345.021,611.48C345.345,610.556 345.453,609.302 345.345,607.718L345.237,606.548C345.201,606.032 345.177,605.732 345.165,605.648C345.117,605.072 345.087,604.58 345.075,604.172L343.779,604.856C343.623,604.94 343.464,604.955 343.302,604.901C343.14,604.847 343.017,604.742 342.933,604.586C342.849,604.43 342.834,604.271 342.888,604.109C342.942,603.947 343.047,603.824 343.203,603.74ZM353.589,608.042C353.613,607.538 353.649,607.106 353.697,606.746C353.721,606.506 353.751,606.296 353.787,606.116C353.415,606.128 352.941,606.332 352.365,606.728C351.609,607.244 350.907,607.922 350.259,608.762C349.575,609.626 349.119,610.424 348.891,611.156C348.687,611.828 348.717,612.296 348.981,612.56C349.029,612.608 349.137,612.632 349.305,612.632C349.497,612.644 349.683,612.62 349.863,612.56C350.583,612.32 351.243,611.837 351.843,611.111C352.443,610.385 352.947,609.554 353.355,608.618L353.589,608.042ZM355.209,606.368C355.197,606.428 355.191,606.476 355.191,606.512C355.143,607.136 355.023,607.73 354.831,608.294C354.819,608.39 354.813,608.492 354.813,608.6C354.753,609.92 354.747,610.922 354.795,611.606C354.807,611.726 354.816,611.822 354.822,611.894C354.828,611.966 354.843,612.047 354.867,612.137C354.891,612.227 354.909,612.29 354.921,612.326C354.933,612.362 354.966,612.446 355.02,612.578C355.074,612.71 355.119,612.812 355.155,612.884C355.215,613.052 355.209,613.214 355.137,613.37C355.065,613.526 354.948,613.637 354.786,613.703C354.624,613.769 354.465,613.766 354.309,613.694C354.153,613.622 354.039,613.508 353.967,613.352C353.955,613.304 353.916,613.202 353.85,613.046C353.784,612.89 353.745,612.785 353.733,612.731C353.721,612.677 353.697,612.59 353.661,612.47C353.625,612.35 353.598,612.233 353.58,612.119C353.562,612.005 353.547,611.87 353.535,611.714C353.523,611.522 353.517,611.276 353.517,610.976C352.557,612.428 351.471,613.352 350.259,613.748C349.935,613.856 349.605,613.904 349.269,613.892C348.765,613.88 348.369,613.736 348.081,613.46C347.469,612.836 347.337,611.948 347.685,610.796C347.961,609.908 348.489,608.972 349.269,607.988C350.013,607.028 350.805,606.26 351.645,605.684C352.653,605 353.523,604.742 354.255,604.91C354.363,604.934 354.465,604.976 354.561,605.036C354.825,605.012 355.023,605.126 355.155,605.378C355.191,605.438 355.215,605.51 355.227,605.594C355.239,605.642 355.245,605.702 355.245,605.774C355.341,605.978 355.329,606.176 355.209,606.368ZM357.189,604.46C357.105,605.456 357.069,606.632 357.081,607.988L357.279,607.484C357.615,606.632 357.927,605.972 358.215,605.504C358.419,605.192 358.617,604.958 358.809,604.802C359.121,604.526 359.445,604.43 359.781,604.514C360.165,604.598 360.441,604.868 360.609,605.324C360.717,605.6 360.783,605.972 360.807,606.44C360.831,606.644 360.843,606.872 360.843,607.124C361.335,605.924 361.917,605.09 362.589,604.622C362.793,604.466 362.955,604.364 363.075,604.316C363.423,604.148 363.741,604.142 364.029,604.298C364.305,604.442 364.509,604.73 364.641,605.162C364.737,605.438 364.803,605.798 364.839,606.242C364.911,606.902 364.923,607.844 364.875,609.068C364.839,609.92 364.791,610.898 364.731,612.002C364.659,613.226 364.623,613.844 364.623,613.856C364.623,614.024 364.56,614.171 364.434,614.297C364.308,614.423 364.161,614.486 363.993,614.486C363.825,614.486 363.678,614.423 363.552,614.297C363.426,614.171 363.363,614.024 363.363,613.856C363.363,613.64 363.399,612.992 363.471,611.912C363.555,610.592 363.609,609.632 363.633,609.032C363.669,607.904 363.657,607.016 363.597,606.368C363.561,606.008 363.513,605.732 363.453,605.54L363.309,605.63C362.745,606.05 362.229,606.914 361.761,608.222C361.413,609.206 361.149,610.286 360.969,611.462L360.681,613.208L360.609,613.676C360.597,613.724 360.591,613.76 360.591,613.784C360.591,613.808 360.585,613.826 360.573,613.838C360.573,613.862 360.567,613.88 360.555,613.892C360.543,613.94 360.531,613.982 360.519,614.018C360.459,614.126 360.369,614.21 360.249,614.27C360.069,614.366 359.889,614.372 359.709,614.288C359.577,614.228 359.481,614.138 359.421,614.018C359.301,613.826 359.235,613.526 359.223,613.118C359.223,612.842 359.235,612.47 359.259,612.002L359.385,610.562L359.493,609.158C359.577,607.982 359.601,607.106 359.565,606.53C359.541,606.278 359.511,606.074 359.475,605.918C359.415,605.99 359.355,606.074 359.295,606.17C359.031,606.578 358.749,607.172 358.449,607.952C357.957,609.164 357.591,610.262 357.351,611.246C357.327,611.366 357.294,611.498 357.252,611.642C357.21,611.786 357.183,611.87 357.171,611.894L357.207,612.398C357.231,612.746 357.243,613.01 357.243,613.19L357.243,613.676L357.207,613.784C357.171,613.892 357.105,613.982 357.009,614.054C356.841,614.198 356.655,614.252 356.451,614.216C356.235,614.18 356.073,614.054 355.965,613.838C355.905,613.73 355.869,613.592 355.857,613.424L355.857,612.938C355.833,612.458 355.851,612.08 355.911,611.804C355.887,611.42 355.875,611.198 355.875,611.138C355.803,608.042 355.821,605.78 355.929,604.352C355.941,604.184 356.013,604.043 356.145,603.929C356.277,603.815 356.43,603.764 356.604,603.776C356.778,603.788 356.922,603.86 357.036,603.992C357.15,604.124 357.201,604.28 357.189,604.46ZM366.783,605.27C366.735,607.034 366.711,609.896 366.711,613.856C366.711,614.024 366.648,614.171 366.522,614.297C366.396,614.423 366.249,614.486 366.081,614.486C365.913,614.486 365.766,614.423 365.64,614.297C365.514,614.171 365.451,614.024 365.451,613.856C365.451,609.896 365.475,607.022 365.523,605.234C365.523,605.066 365.586,604.922 365.712,604.802C365.838,604.682 365.988,604.622 366.162,604.622C366.336,604.622 366.483,604.685 366.603,604.811C366.723,604.937 366.783,605.09 366.783,605.27ZM366.747,602.084C366.891,602.216 366.963,602.384 366.963,602.588C366.963,602.792 366.894,602.963 366.756,603.101C366.618,603.239 366.447,603.308 366.243,603.308C366.039,603.308 365.868,603.239 365.73,603.101C365.592,602.963 365.523,602.792 365.523,602.588C365.523,602.384 365.592,602.213 365.73,602.075C365.868,601.937 366.039,601.868 366.243,601.868C366.447,601.868 366.615,601.94 366.747,602.084ZM368.655,609.086C369.255,609.254 369.876,609.248 370.518,609.068C371.16,608.888 371.685,608.576 372.093,608.132C372.345,607.844 372.501,607.514 372.561,607.142C372.609,606.854 372.549,606.668 372.381,606.584C371.985,606.38 371.379,606.518 370.563,606.998C369.663,607.526 369.027,608.222 368.655,609.086ZM367.377,608.87C367.845,607.622 368.691,606.638 369.915,605.918C371.139,605.198 372.153,605.048 372.957,605.468C373.341,605.66 373.593,605.93 373.713,606.278C373.833,606.626 373.863,606.986 373.803,607.358C373.707,607.97 373.449,608.504 373.029,608.96C372.465,609.596 371.748,610.034 370.878,610.274C370.008,610.514 369.159,610.526 368.331,610.31C368.295,610.67 368.319,611.006 368.403,611.318C368.559,611.978 368.895,612.434 369.411,612.686C370.023,612.962 370.785,612.896 371.697,612.488C371.997,612.356 372.252,612.188 372.462,611.984C372.672,611.78 372.945,611.48 373.281,611.084C373.389,610.952 373.53,610.877 373.704,610.859C373.878,610.841 374.031,610.886 374.163,610.994C374.295,611.102 374.37,611.243 374.388,611.417C374.406,611.591 374.361,611.744 374.253,611.876C373.989,612.2 373.797,612.428 373.677,612.56C373.545,612.704 373.341,612.884 373.065,613.1C372.789,613.328 372.501,613.508 372.201,613.64C370.941,614.204 369.837,614.264 368.889,613.82C368.001,613.412 367.431,612.68 367.179,611.624C367.023,610.988 367.011,610.334 367.143,609.662C367.059,609.47 367.065,609.278 367.161,609.086C367.221,608.99 367.293,608.918 367.377,608.87Z" style="fill:white;fill-opacity:0.894118;"/>
            </g>
            <path id="Line-77" d="M272,674C273.325,679.732 275.21,683.437 277.654,685.116C280.098,686.795 285.547,688.756 294,691L291,680.697L272,674Z" style="fill:rgb(14,18,41);"/>
            <g id="Oval6" serif:id="Oval" transform="matrix(-0.157572,0.987508,-0.987508,-0.157572,810.074,384.572)">
                <path d="M231.472,554.333C247.765,554.333 273.5,544.608 273.5,536.876C273.5,532.618 264.967,527.094 256.565,526.465C249.707,525.952 243.674,529.99 236.353,529.99C232.993,529.99 231.398,527.79 228.905,527.8C219.312,527.842 214.5,530.738 214.5,536.876C214.5,544.608 215.18,554.333 231.472,554.333Z" style="fill:rgb(39,155,202);stroke:rgb(0,112,157);stroke-width:3px;stroke-linecap:butt;"/>
            </g>
            <path id="Line-39" d="M29.5,372C52.851,392.95 73.851,403.95 92.5,405C152.188,408.361 176,377 234,385C251.021,387.348 263.687,391.681 272,398" style="fill:none;"/>
            <path id="Line-391" serif:id="Line-39" d="M39.757,371.263C52.919,406.421 96,422.333 169,419C188.258,418.121 210.172,418.834 223,420.722C241.114,423.389 259.448,436.148 278,459" style="fill:none;"/>
            <g transform="matrix(1,0,0,1,-167,-20)">
                <path d="M488,551L496,543" style="fill:none;stroke:rgb(26,32,71);stroke-width:0.55px;stroke-linecap:round;stroke-linejoin:round;stroke-miterlimit:1.5;"/>
            </g>
            <g transform="matrix(1,0,2.46519e-32,1,-236.35,-9)">
                <rect x="462.933" y="105" width="18.067" height="784" style="fill:rgb(122,79,0);stroke:rgb(160,80,255);stroke-width:0.55px;stroke-linecap:round;stroke-linejoin:round;stroke-miterlimit:1.5;"/>
            </g>
            <g transform="matrix(0.848692,0,1.66533e-16,1.1423,-191.252,-103.331)">
                <rect x="15" y="188" width="517" height="250" style="fill:rgb(26,32,71);stroke:rgb(160,80,255);stroke-width:0.55px;stroke-linecap:round;stroke-linejoin:round;stroke-miterlimit:1.5;"/>
            </g>
            <g transform="matrix(0.785834,0,0,0.785834,173.518,-216.395)">
                <path d="M-324.805,538.261L-329.285,524.021L-349.125,524.021L-353.525,538.261L-364.245,538.261L-345.525,482.421L-332.405,482.421L-313.845,538.261L-324.805,538.261ZM-339.045,492.021L-339.445,492.021L-346.565,514.981L-331.845,514.981L-339.045,492.021Z" style="fill:white;fill-rule:nonzero;"/>
                <path d="M-298.725,538.261L-311.685,482.421L-301.125,482.421L-295.605,509.221L-292.165,526.341L-291.925,526.341L-287.925,509.221L-281.525,482.421L-269.845,482.421L-263.445,509.221L-259.525,526.341L-259.285,526.341L-255.765,509.221L-250.085,482.421L-240.005,482.421L-253.365,538.261L-265.285,538.261L-272.405,508.741L-275.845,494.021L-276.005,494.021L-279.605,508.741L-286.725,538.261L-298.725,538.261Z" style="fill:white;fill-rule:nonzero;"/>
                <path d="M-231.285,538.261L-231.285,482.421L-194.485,482.421L-194.485,491.781L-220.725,491.781L-220.725,505.301L-197.525,505.301L-197.525,514.661L-220.725,514.661L-220.725,528.901L-194.485,528.901L-194.485,538.261L-231.285,538.261Z" style="fill:white;fill-rule:nonzero;"/>
                <path d="M-165.925,539.221C-170.725,539.221 -174.791,538.367 -178.125,536.657C-181.458,534.947 -184.325,532.703 -186.725,529.925L-179.605,523.034C-177.685,525.256 -175.538,526.95 -173.165,528.114C-170.791,529.279 -168.165,529.861 -165.285,529.861C-162.031,529.861 -159.578,529.16 -157.925,527.758C-156.271,526.355 -155.445,524.463 -155.445,522.081C-155.445,520.229 -155.978,518.72 -157.045,517.556C-158.111,516.392 -160.111,515.545 -163.045,515.016L-168.325,514.223C-179.471,512.46 -185.045,507.04 -185.045,497.963C-185.045,495.453 -184.578,493.183 -183.645,491.154C-182.711,489.125 -181.365,487.389 -179.605,485.947C-177.845,484.505 -175.725,483.397 -173.245,482.623C-170.765,481.848 -167.951,481.461 -164.805,481.461C-160.591,481.461 -156.911,482.156 -153.765,483.546C-150.618,484.935 -147.925,486.993 -145.685,489.718L-152.885,496.531C-154.271,494.84 -155.951,493.465 -157.925,492.408C-159.898,491.35 -162.378,490.821 -165.365,490.821C-168.405,490.821 -170.685,491.39 -172.205,492.526C-173.725,493.663 -174.485,495.262 -174.485,497.324C-174.485,499.439 -173.871,500.999 -172.645,502.003C-171.418,503.008 -169.445,503.748 -166.725,504.224L-161.525,505.185C-155.871,506.199 -151.698,508.001 -149.005,510.591C-146.311,513.18 -144.965,516.798 -144.965,521.443C-144.965,524.112 -145.431,526.528 -146.365,528.69C-147.298,530.853 -148.658,532.721 -150.445,534.296C-152.231,535.871 -154.418,537.086 -157.005,537.94C-159.591,538.794 -162.565,539.221 -165.925,539.221Z" style="fill:white;fill-rule:nonzero;"/>
                <path d="M-112.485,539.221C-116.165,539.221 -119.498,538.608 -122.485,537.381C-125.471,536.155 -128.018,534.315 -130.125,531.861C-132.231,529.408 -133.871,526.395 -135.045,522.821C-136.218,519.248 -136.805,515.088 -136.805,510.341C-136.805,505.648 -136.218,501.501 -135.045,497.901C-133.871,494.301 -132.231,491.275 -130.125,488.821C-128.018,486.368 -125.471,484.528 -122.485,483.301C-119.498,482.075 -116.165,481.461 -112.485,481.461C-108.805,481.461 -105.471,482.075 -102.485,483.301C-99.498,484.528 -96.938,486.368 -94.805,488.821C-92.671,491.275 -91.031,494.301 -89.885,497.901C-88.738,501.501 -88.165,505.648 -88.165,510.341C-88.165,515.088 -88.738,519.248 -89.885,522.821C-91.031,526.395 -92.671,529.408 -94.805,531.861C-96.938,534.315 -99.498,536.155 -102.485,537.381C-105.471,538.608 -108.805,539.221 -112.485,539.221ZM-112.485,529.861C-108.485,529.861 -105.298,528.528 -102.925,525.861C-100.551,523.195 -99.365,519.461 -99.365,514.661L-99.365,506.021C-99.365,501.221 -100.551,497.488 -102.925,494.821C-105.298,492.155 -108.485,490.821 -112.485,490.821C-116.485,490.821 -119.671,492.155 -122.045,494.821C-124.418,497.488 -125.605,501.221 -125.605,506.021L-125.605,514.661C-125.605,519.461 -124.418,523.195 -122.045,525.861C-119.671,528.528 -116.485,529.861 -112.485,529.861Z" style="fill:white;fill-rule:nonzero;"/>
                <path d="M-35.285,498.181L-35.605,498.181L-39.925,507.061L-51.365,528.181L-62.805,507.061L-67.125,498.181L-67.445,498.181L-67.445,538.261L-77.445,538.261L-77.445,482.421L-65.525,482.421L-51.205,509.701L-50.885,509.701L-36.725,482.421L-25.285,482.421L-25.285,538.261L-35.285,538.261L-35.285,498.181Z" style="fill:white;fill-rule:nonzero;"/>
                <path d="M-12.165,538.261L-12.165,482.421L24.635,482.421L24.635,491.781L-1.605,491.781L-1.605,505.301L21.595,505.301L21.595,514.661L-1.605,514.661L-1.605,528.901L24.635,528.901L24.635,538.261L-12.165,538.261Z" style="fill:white;fill-rule:nonzero;"/>
                <path d="M-379.725,618.261L-392.685,562.421L-382.125,562.421L-376.605,589.221L-373.165,606.341L-372.925,606.341L-368.925,589.221L-362.525,562.421L-350.845,562.421L-344.445,589.221L-340.525,606.341L-340.285,606.341L-336.765,589.221L-331.085,562.421L-321.005,562.421L-334.365,618.261L-346.285,618.261L-353.405,588.741L-356.845,574.021L-357.005,574.021L-360.605,588.741L-367.725,618.261L-379.725,618.261Z" style="fill:white;fill-rule:nonzero;"/>
                <path d="M-291.645,619.221C-295.325,619.221 -298.658,618.608 -301.645,617.381C-304.631,616.155 -307.178,614.315 -309.285,611.861C-311.391,609.408 -313.031,606.395 -314.205,602.821C-315.378,599.248 -315.965,595.088 -315.965,590.341C-315.965,585.648 -315.378,581.501 -314.205,577.901C-313.031,574.301 -311.391,571.275 -309.285,568.821C-307.178,566.368 -304.631,564.528 -301.645,563.301C-298.658,562.075 -295.325,561.461 -291.645,561.461C-287.965,561.461 -284.631,562.075 -281.645,563.301C-278.658,564.528 -276.098,566.368 -273.965,568.821C-271.831,571.275 -270.191,574.301 -269.045,577.901C-267.898,581.501 -267.325,585.648 -267.325,590.341C-267.325,595.088 -267.898,599.248 -269.045,602.821C-270.191,606.395 -271.831,609.408 -273.965,611.861C-276.098,614.315 -278.658,616.155 -281.645,617.381C-284.631,618.608 -287.965,619.221 -291.645,619.221ZM-291.645,609.861C-287.645,609.861 -284.458,608.528 -282.085,605.861C-279.711,603.195 -278.525,599.461 -278.525,594.661L-278.525,586.021C-278.525,581.221 -279.711,577.488 -282.085,574.821C-284.458,572.155 -287.645,570.821 -291.645,570.821C-295.645,570.821 -298.831,572.155 -301.205,574.821C-303.578,577.488 -304.765,581.221 -304.765,586.021L-304.765,594.661C-304.765,599.461 -303.578,603.195 -301.205,605.861C-298.831,608.528 -295.645,609.861 -291.645,609.861Z" style="fill:white;fill-rule:nonzero;"/>
                <path d="M-246.045,618.261L-256.605,618.261L-256.605,562.421L-231.405,562.421C-228.845,562.421 -226.551,562.821 -224.525,563.621C-222.498,564.421 -220.778,565.581 -219.365,567.101C-217.951,568.621 -216.858,570.448 -216.085,572.581C-215.311,574.715 -214.925,577.088 -214.925,579.701C-214.925,583.541 -215.791,586.848 -217.525,589.621C-219.258,592.395 -221.858,594.368 -225.325,595.541L-213.885,618.261L-225.645,618.261L-236.045,596.741L-246.045,596.741L-246.045,618.261ZM-232.445,587.861C-230.418,587.861 -228.818,587.315 -227.645,586.221C-226.471,585.128 -225.885,583.568 -225.885,581.541L-225.885,577.861C-225.885,575.835 -226.471,574.288 -227.645,573.221C-228.818,572.155 -230.418,571.621 -232.445,571.621L-246.045,571.621L-246.045,587.861L-232.445,587.861Z" style="fill:white;fill-rule:nonzero;"/>
                <path d="M-185.485,592.981L-192.925,601.781L-192.925,618.261L-203.485,618.261L-203.485,562.421L-192.925,562.421L-192.925,589.941L-192.525,589.941L-184.605,579.461L-170.765,562.421L-158.605,562.421L-178.045,585.701L-157.005,618.261L-169.565,618.261L-185.485,592.981Z" style="fill:white;fill-rule:nonzero;"/>
                <path d="M-132.605,619.221C-137.405,619.221 -141.471,618.367 -144.805,616.657C-148.138,614.947 -151.005,612.703 -153.405,609.925L-146.285,603.034C-144.365,605.256 -142.218,606.95 -139.845,608.114C-137.471,609.279 -134.845,609.861 -131.965,609.861C-128.711,609.861 -126.258,609.16 -124.605,607.758C-122.951,606.355 -122.125,604.463 -122.125,602.081C-122.125,600.229 -122.658,598.72 -123.725,597.556C-124.791,596.392 -126.791,595.545 -129.725,595.016L-135.005,594.223C-146.151,592.46 -151.725,587.04 -151.725,577.963C-151.725,575.453 -151.258,573.183 -150.325,571.154C-149.391,569.125 -148.045,567.389 -146.285,565.947C-144.525,564.505 -142.405,563.397 -139.925,562.623C-137.445,561.848 -134.631,561.461 -131.485,561.461C-127.271,561.461 -123.591,562.156 -120.445,563.546C-117.298,564.935 -114.605,566.993 -112.365,569.718L-119.565,576.531C-120.951,574.84 -122.631,573.465 -124.605,572.408C-126.578,571.35 -129.058,570.821 -132.045,570.821C-135.085,570.821 -137.365,571.39 -138.885,572.526C-140.405,573.663 -141.165,575.262 -141.165,577.324C-141.165,579.439 -140.551,580.999 -139.325,582.003C-138.098,583.008 -136.125,583.748 -133.405,584.224L-128.205,585.185C-122.551,586.199 -118.378,588.001 -115.685,590.591C-112.991,593.18 -111.645,596.798 -111.645,601.443C-111.645,604.112 -112.111,606.528 -113.045,608.69C-113.978,610.853 -115.338,612.721 -117.125,614.296C-118.911,615.871 -121.098,617.086 -123.685,617.94C-126.271,618.794 -129.245,619.221 -132.605,619.221Z" style="fill:white;fill-rule:nonzero;"/>
                <path d="M-67.245,594.661L-90.525,594.661L-90.525,618.261L-101.085,618.261L-101.085,562.421L-90.525,562.421L-90.525,585.301L-67.245,585.301L-67.245,562.421L-56.685,562.421L-56.685,618.261L-67.245,618.261L-67.245,594.661Z" style="fill:white;fill-rule:nonzero;"/>
                <path d="M-21.645,619.221C-25.325,619.221 -28.658,618.608 -31.645,617.381C-34.631,616.155 -37.178,614.315 -39.285,611.861C-41.391,609.408 -43.031,606.395 -44.205,602.821C-45.378,599.248 -45.965,595.088 -45.965,590.341C-45.965,585.648 -45.378,581.501 -44.205,577.901C-43.031,574.301 -41.391,571.275 -39.285,568.821C-37.178,566.368 -34.631,564.528 -31.645,563.301C-28.658,562.075 -25.325,561.461 -21.645,561.461C-17.965,561.461 -14.631,562.075 -11.645,563.301C-8.658,564.528 -6.098,566.368 -3.965,568.821C-1.831,571.275 -0.191,574.301 0.955,577.901C2.102,581.501 2.675,585.648 2.675,590.341C2.675,595.088 2.102,599.248 0.955,602.821C-0.191,606.395 -1.831,609.408 -3.965,611.861C-6.098,614.315 -8.658,616.155 -11.645,617.381C-14.631,618.608 -17.965,619.221 -21.645,619.221ZM-21.645,609.861C-17.645,609.861 -14.458,608.528 -12.085,605.861C-9.711,603.195 -8.525,599.461 -8.525,594.661L-8.525,586.021C-8.525,581.221 -9.711,577.488 -12.085,574.821C-14.458,572.155 -17.645,570.821 -21.645,570.821C-25.645,570.821 -28.831,572.155 -31.205,574.821C-33.578,577.488 -34.765,581.221 -34.765,586.021L-34.765,594.661C-34.765,599.461 -33.578,603.195 -31.205,605.861C-28.831,608.528 -25.645,609.861 -21.645,609.861Z" style="fill:white;fill-rule:nonzero;"/>
                <path d="M13.395,618.261L13.395,562.421L38.515,562.421C41.075,562.421 43.382,562.835 45.435,563.661C47.489,564.488 49.235,565.661 50.675,567.181C52.115,568.701 53.209,570.528 53.955,572.661C54.702,574.795 55.075,577.141 55.075,579.701C55.075,582.315 54.702,584.675 53.955,586.781C53.209,588.888 52.115,590.701 50.675,592.221C49.235,593.741 47.489,594.915 45.435,595.741C43.382,596.568 41.075,596.981 38.515,596.981L23.955,596.981L23.955,618.261L13.395,618.261ZM23.955,587.861L37.555,587.861C39.582,587.861 41.182,587.315 42.355,586.221C43.529,585.128 44.115,583.568 44.115,581.541L44.115,577.861C44.115,575.835 43.529,574.288 42.355,573.221C41.182,572.155 39.582,571.621 37.555,571.621L23.955,571.621L23.955,587.861Z" style="fill:white;fill-rule:nonzero;"/>
            </g>
            <g transform="matrix(0.5,0,0,0.5,35.3522,21.7702)">
                <path d="M2.371,607.714L2.371,654.194L-8.189,654.194L-8.189,607.714L-24.029,607.714L-24.029,598.354L18.211,598.354L18.211,607.714L2.371,607.714Z" style="fill:white;fill-rule:nonzero;"/>
                <path d="M60.691,630.594L37.411,630.594L37.411,654.194L26.851,654.194L26.851,598.354L37.411,598.354L37.411,621.234L60.691,621.234L60.691,598.354L71.251,598.354L71.251,654.194L60.691,654.194L60.691,630.594Z" style="fill:white;fill-rule:nonzero;"/>
                <path d="M82.051,654.194L82.051,645.714L89.411,645.714L89.411,606.834L82.051,606.834L82.051,598.354L107.411,598.354L107.411,606.834L99.971,606.834L99.971,645.714L107.411,645.714L107.411,654.194L82.051,654.194Z" style="fill:white;fill-rule:nonzero;"/>
                <path d="M135.571,655.154C130.771,655.154 126.704,654.299 123.371,652.589C120.038,650.88 117.171,648.636 114.771,645.857L121.891,638.966C123.811,641.189 125.958,642.882 128.331,644.047C130.704,645.211 133.331,645.794 136.211,645.794C139.464,645.794 141.918,645.092 143.571,643.69C145.224,642.287 146.051,640.395 146.051,638.014C146.051,636.161 145.518,634.653 144.451,633.489C143.384,632.324 141.384,631.478 138.451,630.949L133.171,630.155C122.024,628.392 116.451,622.972 116.451,613.895C116.451,611.385 116.918,609.115 117.851,607.086C118.784,605.057 120.131,603.321 121.891,601.879C123.651,600.437 125.771,599.329 128.251,598.555C130.731,597.781 133.544,597.394 136.691,597.394C140.904,597.394 144.584,598.088 147.731,599.478C150.878,600.868 153.571,602.925 155.811,605.65L148.611,612.464C147.224,610.772 145.544,609.397 143.571,608.34C141.598,607.282 139.118,606.754 136.131,606.754C133.091,606.754 130.811,607.322 129.291,608.459C127.771,609.595 127.011,611.194 127.011,613.256C127.011,615.371 127.624,616.931 128.851,617.936C130.078,618.94 132.051,619.68 134.771,620.156L139.971,621.117C145.624,622.132 149.798,623.933 152.491,626.523C155.184,629.113 156.531,632.73 156.531,637.375C156.531,640.044 156.064,642.46 155.131,644.622C154.198,646.785 152.838,648.654 151.051,650.229C149.264,651.804 147.078,653.018 144.491,653.872C141.904,654.727 138.931,655.154 135.571,655.154Z" style="fill:white;fill-rule:nonzero;"/>
                <path d="M194.451,654.194L181.491,598.354L192.051,598.354L197.571,625.154L201.011,642.274L201.251,642.274L205.251,625.154L211.651,598.354L223.331,598.354L229.731,625.154L233.651,642.274L233.891,642.274L237.411,625.154L243.091,598.354L253.171,598.354L239.811,654.194L227.891,654.194L220.771,624.674L217.331,609.954L217.171,609.954L213.571,624.674L206.451,654.194L194.451,654.194Z" style="fill:white;fill-rule:nonzero;"/>
                <path d="M294.771,654.194L290.291,639.954L270.451,639.954L266.051,654.194L255.331,654.194L274.051,598.354L287.171,598.354L305.731,654.194L294.771,654.194ZM280.531,607.954L280.131,607.954L273.011,630.914L287.731,630.914L280.531,607.954Z" style="fill:white;fill-rule:nonzero;"/>
                <path d="M322.051,654.194L322.051,632.274L302.931,598.354L314.771,598.354L327.651,621.954L327.811,621.954L340.371,598.354L351.891,598.354L332.691,632.194L332.691,654.194L322.051,654.194Z" style="fill:white;fill-rule:nonzero;"/>
            </g>
            <g id="left-pointing-arrow" transform="matrix(0.25,0,0,0.181641,-65.5675,334.907)">
                <g transform="matrix(1,0,0,1,-256,-256)">
                    <clipPath id="_clip3">
                        <rect x="0" y="0" width="512" height="512"/>
                    </clipPath>
                    <g clip-path="url(#_clip3)">
                        <path d="M219.166,436.319C209.939,436.319 200.748,427.551 199.001,425.791C192.695,421.142 25.972,295.449 7.648,277.158C1,270.477 -0.174,263.786 0.02,259.333C0.453,248.674 8.692,241.388 9.626,240.594L195.064,87.123C197.096,84.907 206.517,75.68 215.478,75.68C219.563,75.68 229.056,77.549 229.056,94.761L229.056,173.881L490.856,173.881C491.587,173.759 492.562,173.647 493.717,173.647C496.769,173.647 512,174.81 512,197.667L512,319.257C512,336.077 500.082,340.536 493.78,340.536L234.568,340.536L234.568,413.051C234.568,433.302 224.917,436.319 219.166,436.319ZM219.166,421.665L219.166,428.987L219.166,421.665Z" style="fill:white;fill-rule:nonzero;"/>
                    </g>
                </g>
            </g>
        </g>
    </g>
    <defs>
        <linearGradient id="_Linear1" x1="0" y1="0" x2="1" y2="0" gradientUnits="userSpaceOnUse" gradientTransform="matrix(149.928,121.088,-121.088,149.928,444.684,240.412)"><stop offset="0" style="stop-color:rgb(212,155,167);stop-opacity:1"/><stop offset="0.45" style="stop-color:rgb(166,111,122);stop-opacity:1"/><stop offset="1" style="stop-color:rgb(142,88,99);stop-opacity:1"/></linearGradient>
        <linearGradient id="_Linear2" x1="0" y1="0" x2="1" y2="0" gradientUnits="userSpaceOnUse" gradientTransform="matrix(-109.143,140.618,-140.618,-109.143,398.222,238.882)"><stop offset="0" style="stop-color:rgb(212,155,167);stop-opacity:1"/><stop offset="0.45" style="stop-color:rgb(166,111,122);stop-opacity:1"/><stop offset="1" style="stop-color:rgb(142,88,99);stop-opacity:1"/></linearGradient>
    </defs>
</svg>
