<?xml version="1.0" encoding="UTF-8"?>
<svg width="81px" height="80px" viewBox="0 0 81 80" version="1.1" xmlns="http://www.w3.org/2000/svg" xmlns:xlink="http://www.w3.org/1999/xlink">
    <!-- Generator: Sketch 53.1 (72631) - https://sketchapp.com -->
    <title>data</title>
    <desc>Created with Sketch.</desc>
    <g id="Page-1" stroke="none" stroke-width="1" fill="none" fill-rule="evenodd">
        <g id="data">
            <circle id="Oval" fill="#F0F2FF" fill-rule="nonzero" cx="40.13" cy="40" r="40"></circle>
            <path d="M37.6921196,20.5623077 C37.6918593,20.184137 37.5364167,19.8226426 37.2621196,19.5623077 C36.989504,19.3137582 36.6308602,19.18106 36.2621196,19.1923077 C25.4141105,19.9476656 17,28.9680322 17,39.8423077 C17,50.7165832 25.4141105,59.7369499 36.2621196,60.4923077 C36.6319201,60.5102315 36.9930447,60.3766154 37.2621196,60.1223077 C37.5452431,59.8673794 37.7054489,59.5032753 37.7021196,59.1223077 L37.7021196,20.5623077 L37.6921196,20.5623077 Z" id="Path" fill="#FFFFFF" fill-rule="nonzero"></path>
            <path d="M61.5421196,33.6223077 C61.9493722,33.6185413 62.3354039,33.4400927 62.6021196,33.1323077 C62.863635,32.8183338 62.970119,32.4034138 62.8921196,32.0023077 C61.2209382,22.6842766 53.4441378,15.685568 44.0021196,15.0023077 C43.6215454,14.980362 43.2486597,15.1156796 42.9707324,15.3765909 C42.6928051,15.6375023 42.5342299,16.0011072 42.5321196,16.3823077 L42.5321196,32.2423077 C42.5321196,32.6083065 42.6775121,32.9593149 42.9363123,33.2181151 C43.1951125,33.4769153 43.5461209,33.6223077 43.9121196,33.6223077 L61.5421196,33.6223077 Z" id="Path" fill="#D6DAFF" fill-rule="nonzero"></path>
            <path d="M61.5421196,33.6223077 C61.9493722,33.6185413 62.3354039,33.4400927 62.6021196,33.1323077 C62.863635,32.8183338 62.970119,32.4034138 62.8921196,32.0023077 C61.2209382,22.6842766 53.4441378,15.685568 44.0021196,15.0023077 C43.6215454,14.980362 43.2486597,15.1156796 42.9707324,15.3765909 C42.6928051,15.6375023 42.5342299,16.0011072 42.5321196,16.3823077 L42.5321196,32.2423077 C42.5321196,32.6083065 42.6775121,32.9593149 42.9363123,33.2181151 C43.1951125,33.4769153 43.5461209,33.6223077 43.9121196,33.6223077 L61.5421196,33.6223077 Z" id="Path" stroke="#4550E5" stroke-linecap="round" stroke-linejoin="round"></path>
            <path d="M63.9021196,39.8223077 C63.8750839,39.0813785 63.2635184,38.4964028 62.5221196,38.5023077 L46.3121196,38.5023077 C45.7693794,38.5010426 45.2762941,38.818026 45.0521196,39.3123077 C44.821286,39.8099094 44.9119838,40.3974731 45.2821196,40.8023077 L57.0021196,53.8723077 C57.2680622,54.1717398 57.651709,54.3398136 58.0521196,54.3323077 C58.4379692,54.3108059 58.7986894,54.1340531 59.0521196,53.8423077 C62.1760287,50.1227094 63.8865381,45.4196939 63.8821196,40.5623077 C63.9221196,40.3523077 63.9121196,40.0723077 63.9021196,39.8223077 Z" id="Path" stroke="#4550E5" fill="#D6DAFF" fill-rule="nonzero" stroke-linecap="round" stroke-linejoin="round"></path>
            <path d="M37.6921196,20.5623077 C37.6918593,20.184137 37.5364167,19.8226426 37.2621196,19.5623077 C36.989504,19.3137582 36.6308602,19.18106 36.2621196,19.1923077 C25.4141105,19.9476656 17,28.9680322 17,39.8423077 C17,50.7165832 25.4141105,59.7369499 36.2621196,60.4923077 C36.6319201,60.5102315 36.9930447,60.3766154 37.2621196,60.1223077 C37.5452431,59.8673794 37.7054489,59.5032753 37.7021196,59.1223077 L37.7021196,20.5623077 L37.6921196,20.5623077 Z" id="Path" stroke="#4550E5" stroke-linecap="round" stroke-linejoin="round"></path>
            <path d="M44.2421196,45.9723077 C43.8639783,45.5410409 43.2572127,45.3909842 42.7216444,45.5962854 C42.1860761,45.8015866 41.8350902,46.3187813 41.8421196,46.8923077 L41.8421196,64.6223077 C41.8446923,64.9999978 41.999762,65.3606251 42.2721196,65.6223077 C42.5411945,65.8766154 42.9023191,66.0102315 43.2721196,65.9923077 C47.8548364,65.6711751 52.1985297,63.8266895 55.6121196,60.7523077 C55.8995178,60.5057726 56.0729896,60.1519762 56.0918986,59.7737967 C56.1108075,59.3956172 55.9734923,59.0262814 55.7121196,58.7523077 L44.2421196,45.9723077 Z" id="Path" stroke="#4550E5" fill="#FFFFFF" fill-rule="nonzero" stroke-linecap="round" stroke-linejoin="round"></path>
        </g>
    </g>
</svg>