<?xml version="1.0" encoding="UTF-8"?>
<svg width="81px" height="80px" viewBox="0 0 81 80" version="1.1" xmlns="http://www.w3.org/2000/svg" xmlns:xlink="http://www.w3.org/1999/xlink">
    <!-- Generator: Sketch 53.1 (72631) - https://sketchapp.com -->
    <title>data</title>
    <desc>Created with Sketch.</desc>
    <g id="Page-1" stroke="none" stroke-width="1" fill="none" fill-rule="evenodd">
        <g id="data">
            <g id="New_Symbol_66-13" fill="#F0F2FF" fill-rule="nonzero">
                <g id="New_Symbol_1-13">
                    <circle id="Oval" cx="40.13" cy="40" r="40"></circle>
                </g>
            </g>
            <ellipse id="Oval" fill="#D6DAFF" fill-rule="nonzero" cx="40.05" cy="70.01" rx="19.55" ry="1.73"></ellipse>
            <rect id="Rectangle" stroke="#4550E5" fill="#D6DAFF" fill-rule="nonzero" stroke-linecap="round" stroke-linejoin="round" x="11.88" y="33.79" width="26.45" height="26.45" rx="3.45"></rect>
            <rect id="Rectangle" stroke="#4550E5" fill="#FFFFFF" fill-rule="nonzero" stroke-linecap="round" stroke-linejoin="round" x="15.32" y="37.24" width="19.55" height="19.55" rx="1"></rect>
            <path d="M28.29,46.16 C28.8857192,45.5654857 29.1893392,44.7387614 29.12,43.9 C28.9369298,42.3851048 27.645877,41.2489784 26.12,41.26 L22.23,41.26 C21.5932347,41.2599763 21.0754894,41.7732584 21.07,42.41 L21.07,51.61 C21.0699884,51.9167395 21.1925205,52.2107722 21.410355,52.4267289 C21.6281895,52.6426855 21.9232721,52.7626673 22.23,52.76 L26.91,52.76 C27.8019422,52.7626665 28.6581215,52.4095239 29.2888227,51.7788227 C29.9195239,51.1481215 30.2726665,50.2919422 30.27,49.4 L30.27,49.23 C30.2725496,47.9059268 29.4972458,46.7038143 28.29,46.16 L28.29,46.16 Z" id="Path" stroke="#4550E5" fill="#D6DAFF" fill-rule="nonzero" stroke-linecap="round" stroke-linejoin="round"></path>
            <path d="M25.1,45.86 L24,45.86 L24,43.56 L25.1,43.56 C25.7351275,43.56 26.25,44.0748725 26.25,44.71 L26.25,44.71 C26.2526946,45.0158171 26.1323997,45.3098923 25.916146,45.526146 C25.6998923,45.7423997 25.4058171,45.8626946 25.1,45.86 L25.1,45.86 Z" id="Path" stroke="#4550E5" fill="#FFFFFF" fill-rule="nonzero" stroke-linecap="round" stroke-linejoin="round"></path>
            <path d="M25.67,50.46 L24,50.46 L24,48.16 L25.72,48.16 C26.3567653,48.1599763 26.8745106,48.6732584 26.88,49.31 L26.88,49.31 C26.88043,49.625685 26.7510684,49.9276659 26.522244,50.1451437 C26.2934195,50.3626215 25.9852553,50.4764708 25.67,50.46 L25.67,50.46 Z" id="Path" stroke="#4550E5" fill="#FFFFFF" fill-rule="nonzero" stroke-linecap="round" stroke-linejoin="round"></path>
            <rect id="Rectangle" stroke="#4550E5" fill="#D6DAFF" fill-rule="nonzero" stroke-linecap="round" stroke-linejoin="round" x="42.92" y="33.79" width="26.45" height="26.45" rx="3.45"></rect>
            <rect id="Rectangle" stroke="#4550E5" fill="#FFFFFF" fill-rule="nonzero" stroke-linecap="round" stroke-linejoin="round" x="46.38" y="37.24" width="19.55" height="19.55" rx="1"></rect>
            <path d="M60.47,49.19 C60.0658643,48.9679418 59.5645321,49.0326299 59.23,49.35 C58.1954019,50.1040256 56.7963092,50.1184341 55.7464015,49.3858759 C54.6964938,48.6533176 54.2271357,47.3352239 54.5777476,46.1039567 C54.9283595,44.8726894 56.0216782,43.9995788 57.3,43.93 C58.0147928,43.9282125 58.7039735,44.1960289 59.23,44.68 C59.5668552,44.9940735 60.0679715,45.0546924 60.47,44.83 C61.0276319,44.5059211 61.3762309,43.9148185 61.39,43.27 C61.39,41.89 58.65,40.69 56.52,40.69 C52.88,40.69 51,44 51,47 C51,50 52.9,53.33 56.54,53.33 C58.67,53.33 61.41,52.12 61.41,50.74 C61.3847782,50.0958476 61.0295541,49.5101057 60.47,49.19 L60.47,49.19 Z" id="Path" stroke="#4550E5" fill="#D6DAFF" fill-rule="nonzero" stroke-linecap="round" stroke-linejoin="round"></path>
            <rect id="Rectangle" stroke="#4550E5" fill="#D6DAFF" fill-rule="nonzero" stroke-linecap="round" stroke-linejoin="round" x="27.4" y="7.34" width="26.45" height="26.45" rx="3.45"></rect>
            <rect id="Rectangle" stroke="#4550E5" fill="#FFFFFF" fill-rule="nonzero" stroke-linecap="round" stroke-linejoin="round" x="30.85" y="10.79" width="19.55" height="19.55" rx="1"></rect>
            <path d="M44.15,26.81 C43.1467459,26.8243578 42.2509817,26.1839472 41.94,25.23 L41.7,24.59 L39.55,24.59 L39.32,25.23 C39.0062967,26.1819486 38.1122434,26.821136 37.11,26.81 C36.5046671,26.826153 35.9183764,26.5976265 35.4836531,26.1760765 C35.0489297,25.7545266 34.8024758,25.1755433 34.8,24.57 C34.814779,24.1920841 34.8960206,23.8197267 35.04,23.47 L38.14,16.1 C38.4456847,14.9708969 39.4702492,14.1868309 40.64,14.1868309 C41.8097508,14.1868309 42.8343153,14.9708969 43.14,16.1 L46.2,23.33 C46.3643128,23.7135496 46.4591216,24.123259 46.48,24.54 C46.4858503,25.1543231 46.2402472,25.7443225 45.8002067,26.1730315 C45.3601661,26.6017405 44.7639615,26.8318714 44.15,26.81 Z" id="Path" stroke="#4550E5" fill="#D6DAFF" fill-rule="nonzero" stroke-linecap="round" stroke-linejoin="round"></path>
            <path d="M40.63,19.99 L40.63,19.41" id="Path" stroke="#4550E5" stroke-width="2" stroke-linecap="round" stroke-linejoin="round"></path>
        </g>
    </g>
</svg>