<svg id="Duotone" xmlns="http://www.w3.org/2000/svg" viewBox="0 0 100 112"><defs><style>.cls-1{fill:#F0F2FF;}.cls-2,.cls-5{fill:#cce1ff;}.cls-3{fill:#fff;}.cls-4{fill:none;}.cls-4,.cls-5{stroke:#4550e5;stroke-linecap:round;stroke-linejoin:round;}.cls-6{fill:#4550e5;}</style></defs><title>07- gameboy-color</title><g id="Icons"><g id="Background"><g id="New_Symbol_68-4" data-name="New Symbol 68"><circle class="cls-1" cx="50.5" cy="56.5" r="40"/></g></g><g id="Scene"><ellipse class="cls-2" cx="50.5" cy="87.5" rx="12" ry="1.5"/><path class="cls-3" d="M68,72a8,8,0,0,1-8,8H36a3,3,0,0,1-3-3V34a3,3,0,0,1,3-3H65a3,3,0,0,1,3,3Z"/><path class="cls-4" d="M68,72a8,8,0,0,1-8,8H36a3,3,0,0,1-3-3V34a3,3,0,0,1,3-3H65a3,3,0,0,1,3,3Z"/><path class="cls-5" d="M37,35H64a1,1,0,0,1,1,1V54a4,4,0,0,1-4,4H37a1,1,0,0,1-1-1V36A1,1,0,0,1,37,35Z"/><rect class="cls-2" x="41" y="38" width="19" height="17" rx="2" ry="2"/><path class="cls-3" d="M42.18,54.82,58.82,38.18A2,2,0,0,0,58,38H43a2,2,0,0,0-2,2V53A2,2,0,0,0,42.18,54.82Z"/><rect class="cls-4" x="41" y="38" width="19" height="17" rx="2" ry="2"/><path class="cls-6" d="M38.5,42.5a1,1,0,1,0,1,1,1,1,0,0,0-1-1Z"/><path class="cls-5" d="M45,67a1,1,0,0,0-1-1H42V64a1,1,0,0,0-2,0v2H38a1,1,0,0,0,0,2h2v2a1,1,0,0,0,2,0V68h2A1,1,0,0,0,45,67Z"/><circle class="cls-2" cx="54.5" cy="68.5" r="2.5"/><circle class="cls-4" cx="54.5" cy="68.5" r="2.5"/><line class="cls-4" x1="59" y1="75" x2="61.5" y2="77.5"/><line class="cls-4" x1="61" y1="73" x2="63.5" y2="75.5"/><line class="cls-4" x1="63" y1="71" x2="65.5" y2="73.5"/><line class="cls-4" x1="44" y1="74" x2="47" y2="72"/><line class="cls-4" x1="48" y1="74" x2="51" y2="72"/><circle class="cls-2" cx="61.5" cy="65.5" r="2.5"/><circle class="cls-4" cx="61.5" cy="65.5" r="2.5"/></g></g></svg>