<svg id="Duotone" xmlns="http://www.w3.org/2000/svg" viewBox="0 0 100 112"><defs><style>.cls-1{fill:#f0f2ff;}.cls-2,.cls-5{fill:#d6daff;}.cls-3,.cls-6{fill:#fff;}.cls-4{fill:none;}.cls-4,.cls-5,.cls-6{stroke:#4550e5;stroke-linecap:round;stroke-linejoin:round;}</style></defs><title>52- silicon-chip</title><g id="Icons"><g id="Background"><circle class="cls-1" cx="50.34" cy="56" r="40"/></g><g id="Scene"><ellipse class="cls-2" cx="51.29" cy="83.76" rx="17.25" ry="1.72"/><rect class="cls-3" x="28.52" y="35.73" width="45.54" height="40.02" rx="2" ry="2"/><rect class="cls-4" x="28.52" y="35.73" width="45.54" height="40.02" rx="2" ry="2"/><rect class="cls-5" x="51.98" y="42.63" width="16.56" height="16.56" rx="2" ry="2"/><line class="cls-4" x1="56.12" y1="42.63" x2="56.12" y2="39.87"/><line class="cls-4" x1="60.26" y1="42.63" x2="60.26" y2="39.87"/><line class="cls-4" x1="64.4" y1="42.63" x2="64.4" y2="39.87"/><line class="cls-4" x1="56.12" y1="61.95" x2="56.12" y2="59.19"/><line class="cls-4" x1="60.26" y1="61.95" x2="60.26" y2="59.19"/><line class="cls-4" x1="64.4" y1="61.95" x2="64.4" y2="59.19"/><line class="cls-4" x1="49.22" y1="50.91" x2="51.98" y2="50.91"/><line class="cls-4" x1="49.22" y1="46.77" x2="51.98" y2="46.77"/><line class="cls-4" x1="68.54" y1="46.77" x2="71.3" y2="46.77"/><line class="cls-4" x1="49.22" y1="55.05" x2="51.98" y2="55.05"/><line class="cls-4" x1="68.54" y1="50.91" x2="71.3" y2="50.91"/><line class="cls-4" x1="68.54" y1="55.05" x2="71.3" y2="55.05"/><rect class="cls-5" x="32.66" y="39.78" width="2.76" height="19.32" rx="1" ry="1"/><rect class="cls-5" x="39.56" y="39.78" width="2.76" height="19.32" rx="1" ry="1"/><rect class="cls-6" x="54.74" y="45.39" width="11.04" height="11.04" rx="1" ry="1"/><path class="cls-6" d="M42.32,64A2.07,2.07,0,1,1,40.25,62,2.07,2.07,0,0,1,42.32,64Z"/><path class="cls-4" d="M32.66,75.75V67.88a1.17,1.17,0,0,1,.25-.72l2.26-2.82a1.17,1.17,0,0,0,.25-.72V61.26"/><path class="cls-4" d="M36.8,75.75V69.33a1.13,1.13,0,0,1,.34-.81l1-1"/><line class="cls-4" x1="40.94" y1="68.85" x2="40.94" y2="75.75"/><line class="cls-4" x1="45.08" y1="75.75" x2="45.08" y2="57.81"/><line class="cls-4" x1="49.22" y1="75.75" x2="49.22" y2="60.57"/><line class="cls-4" x1="45.08" y1="35.73" x2="45.08" y2="41.94"/><path class="cls-4" d="M49.22,35.73v7.06a1.13,1.13,0,0,1-.42.88l-3.31,2.76a1.15,1.15,0,0,0-.41.88v2.91"/><path class="cls-4" d="M68.54,75.75V64.5a1.13,1.13,0,0,1,.34-.81L71,61.6a1.13,1.13,0,0,0,.34-.81V58.5"/><path class="cls-5" d="M60.57,58.41h1.76a0,0,0,0,1,0,0V76.35a0,0,0,0,1,0,0H60.57a1,1,0,0,1-1-1V59.41a1,1,0,0,1,1-1Z" transform="translate(128.33 6.43) rotate(90)"/><path class="cls-5" d="M59.57,61.17h1.76a1,1,0,0,1,1,1V78.11a1,1,0,0,1-1,1H59.57a0,0,0,0,1,0,0V61.17A0,0,0,0,1,59.57,61.17Z" transform="translate(131.09 9.19) rotate(90)"/><line class="cls-4" x1="64.4" y1="75.75" x2="64.4" y2="71.61"/><line class="cls-4" x1="60.26" y1="75.75" x2="60.26" y2="71.61"/></g></g></svg>