<?xml version="1.0" encoding="UTF-8"?>
<svg width="81px" height="80px" viewBox="0 0 81 80" version="1.1" xmlns="http://www.w3.org/2000/svg" xmlns:xlink="http://www.w3.org/1999/xlink">
    <!-- Generator: Sketch 53.1 (72631) - https://sketchapp.com -->
    <title>Artboard</title>
    <desc>Created with Sketch.</desc>
    <g id="Artboard" stroke="none" stroke-width="1" fill="none" fill-rule="evenodd">
        <g id="05--cassette-tape" transform="translate(1.000000, 0.000000)">
            <g id="Background" fill="#F0F2FF" fill-rule="nonzero">
                <g id="New_Symbol_68-5">
                    <circle id="Oval" cx="39.654321" cy="39.8123457" r="39.5061728"></circle>
                </g>
            </g>
            <g id="Scene" transform="translate(14.814815, 13.827160)">
                <path d="M50.4296296,17.1654321 C50.402837,15.8631047 49.3420992,14.8198997 48.0395062,14.8148148 L2.72592593,14.8148148 C2.09202577,14.8148148 1.48408852,15.0666307 1.03585342,15.5148658 C0.587618325,15.9631009 0.335802469,16.5710381 0.335802469,17.2049383 L0.335802469,43.8814815 C0.33579702,44.5144772 0.587927627,45.1214039 1.0364489,45.5680717 C1.48497018,46.0147396 2.09293569,46.2643549 2.72592593,46.2617284 L48.0395062,46.2617284 C49.3556875,46.2617396 50.4241909,45.1976515 50.4296296,43.8814815 L50.4296296,17.1654321 Z M15.3580247,36.2469136 C13.9070551,36.2469081 12.5991459,35.3723333 12.0448111,34.0314284 C11.4904762,32.6905236 11.799024,31.1476997 12.8264286,30.1231254 C13.8538333,29.098551 15.3975025,28.7942605 16.736873,29.3522923 C18.0762436,29.9103241 18.947207,31.2206408 18.9432099,32.6716049 C18.9432135,33.6215495 18.5651748,34.5324432 17.8925367,35.2032282 C17.2198987,35.8740133 16.3079656,36.2495377 15.3580247,36.2469136 L15.3580247,36.2469136 Z M35.3975309,36.2469136 C33.945669,36.2509077 32.6347291,35.3788727 32.077279,34.0382877 C31.5198289,32.6977027 31.8259339,31.1532584 32.8525591,30.1266332 C33.8791844,29.100008 35.4236287,28.793903 36.7642137,29.3513531 C38.1047987,29.9088032 38.9768336,31.2197431 38.9728395,32.6716049 C38.9728395,34.6461934 37.3721193,36.2469136 35.3975309,36.2469136 L35.3975309,36.2469136 Z" id="Shape" fill="#FFFFFF" fill-rule="nonzero"></path>
                <ellipse id="Oval" fill="#D6DAFF" fill-rule="nonzero" cx="25.9160494" cy="55.2790123" rx="21.4617284" ry="1.78765432"></ellipse>
                <path d="M5.81728395,23.3679012 C5.16272425,23.3679012 4.63209877,23.8985267 4.63209877,24.5530864 L4.63209877,39.3679012 C4.62978929,39.6857321 4.75418498,39.9913901 4.97777778,40.217284 L6.42962963,41.6592593 C6.65058484,41.8841935 6.95385888,42.009071 7.2691358,42.0049383 L43.4567901,42.0049383 C43.774621,42.0072477 44.080279,41.8828521 44.3061728,41.6592593 L45.7481481,40.217284 C45.9744403,39.9923923 46.1023062,39.6869349 46.1037037,39.3679012 L46.1037037,24.5530864 C46.0982808,23.8969323 45.5648185,23.3678788 44.908642,23.3679012 L5.81728395,23.3679012 Z M15.3580247,36.2074074 C13.9070551,36.2074019 12.5991459,35.3328271 12.0448111,33.9919223 C11.4904762,32.6510174 11.799024,31.1081935 12.8264286,30.0836192 C13.8538333,29.0590448 15.3975025,28.7547543 16.736873,29.3127861 C18.0762436,29.8708179 18.947207,31.1811346 18.9432099,32.6320988 C18.9537864,33.5888706 18.5804182,34.5099593 17.906627,35.1893191 C17.2328357,35.8686788 16.3148512,36.2496152 15.3580247,36.2469136 L15.3580247,36.2074074 Z M35.3975309,36.2074074 C33.945669,36.2114015 32.6347291,35.3393666 32.077279,33.9987816 C31.5198289,32.6581966 31.8259339,31.1137523 32.8525591,30.087127 C33.8791844,29.0605018 35.4236287,28.7543968 36.7642137,29.3118469 C38.1047987,29.869297 38.9768336,31.1802369 38.9728395,32.6320988 C38.9833933,33.587156 38.6113743,34.5067319 37.9397265,35.1858012 C37.2680788,35.8648704 36.3526464,36.2469719 35.3975309,36.2469136 L35.3975309,36.2074074 Z" id="Shape" fill="#D6DAFF" fill-rule="nonzero"></path>
                <path d="M34.3901235,33.6790123 L32.8691358,35.2" id="Path" stroke="#4550E5"></path>
                <path d="M34.3901235,31.654321 L32.8691358,30.1333333" id="Path" stroke="#4550E5"></path>
                <path d="M36.4049383,31.654321 L37.9259259,30.1333333" id="Path" stroke="#4550E5"></path>
                <path d="M36.4049383,33.6790123 L37.9259259,35.2" id="Path" stroke="#4550E5"></path>
                <path d="M31.8222222,32.6716049 C31.8222147,30.6954125 33.4213459,29.0918638 35.3975309,29.0864198 L15.3580247,29.0864198 C16.681992,29.0168576 17.9362709,29.6836273 18.6191552,30.820024 C19.3020396,31.9564207 19.3020396,33.3769126 18.6191552,34.5133093 C17.9362709,35.649706 16.681992,36.3164757 15.3580247,36.2469136 L35.3975309,36.2469136 C34.4493001,36.2469136 33.5399063,35.8702304 32.8694059,35.1997299 C32.1989054,34.5292295 31.8222222,33.6198357 31.8222222,32.6716049 L31.8222222,32.6716049 Z" id="Path" fill="#FFFFFF" fill-rule="nonzero"></path>
                <path d="M14.3506173,33.6790123 L12.8296296,35.2" id="Path" stroke="#4550E5"></path>
                <path d="M14.3506173,31.654321 L12.8296296,30.1333333" id="Path" stroke="#4550E5"></path>
                <path d="M16.3753086,31.654321 L17.8962963,30.1333333" id="Path" stroke="#4550E5"></path>
                <path d="M16.3753086,33.6790123 L17.8962963,35.2" id="Path" stroke="#4550E5"></path>
                <path d="M30.3901235,14.8148148 C30.3887171,13.2671621 29.8824456,11.7622181 28.9481481,10.5283951 L25.382716,10.5283951 C22.9005561,10.5325715 20.7976341,12.3579078 20.4444444,14.8148148" id="Path" stroke="#4550E5" stroke-linejoin="round"></path>
                <path d="M13.9358025,7.62469136 L23.2296296,7.62469136 C25.4810761,7.62312653 27.6010225,8.68493041 28.9481481,10.4888889 L32.5333333,10.4888889 C35.2151145,10.3698162 37.3280661,8.16096656 37.3280661,5.47654321 C37.3280661,2.79211986 35.2151145,0.583270247 32.5333333,0.464197531 L13.9358025,0.464197531 C12.6118351,0.394635384 11.3575563,1.06140513 10.6746719,2.1978018 C9.99178759,3.33419848 9.99178759,4.75469041 10.6746719,5.89108709 C11.3575563,7.02748376 12.6118351,7.6942535 13.9358025,7.62469136 Z" id="Path" stroke="#4550E5" stroke-linejoin="round"></path>
                <path d="M4.63206717,36.9580247 L4.63209877,39.3283951 C4.62978929,39.6462259 4.75418498,39.9518839 4.97777778,40.1777778 L6.42962963,41.6197531 C6.65058484,41.8446873 6.95385888,41.9695649 7.2691358,41.9654321 L43.4567901,41.9654321 C43.774621,41.9677416 44.080279,41.8433459 44.3061728,41.6197531 L45.7481481,40.1777778 C45.9744403,39.9528861 46.1023062,39.6474287 46.1037037,39.3283951 L46.1037037,36.9580247 L4.63206717,36.9580247 Z" id="Path" fill="#FFFFFF" fill-rule="nonzero"></path>
                <path d="M50.4296296,17.1654321 C50.402837,15.8631047 49.3420992,14.8198997 48.0395062,14.8148148 L2.72592593,14.8148148 C2.09202577,14.8148148 1.48408852,15.0666307 1.03585342,15.5148658 C0.587618325,15.9631009 0.335802469,16.5710381 0.335802469,17.2049383 L0.335802469,43.8814815 C0.33579702,44.5144772 0.587927627,45.1214039 1.0364489,45.5680717 C1.48497018,46.0147396 2.09293569,46.2643549 2.72592593,46.2617284 L48.0395062,46.2617284 C49.3556875,46.2617396 50.4241909,45.1976515 50.4296296,43.8814815 L50.4296296,17.1654321 Z M15.3580247,36.2469136 C13.9070551,36.2469081 12.5991459,35.3723333 12.0448111,34.0314284 C11.4904762,32.6905236 11.799024,31.1476997 12.8264286,30.1231254 C13.8538333,29.098551 15.3975025,28.7942605 16.736873,29.3522923 C18.0762436,29.9103241 18.947207,31.2206408 18.9432099,32.6716049 C18.9432135,33.6215495 18.5651748,34.5324432 17.8925367,35.2032282 C17.2198987,35.8740133 16.3079656,36.2495377 15.3580247,36.2469136 L15.3580247,36.2469136 Z M35.3975309,36.2469136 C33.945669,36.2509077 32.6347291,35.3788727 32.077279,34.0382877 C31.5198289,32.6977027 31.8259339,31.1532584 32.8525591,30.1266332 C33.8791844,29.100008 35.4236287,28.793903 36.7642137,29.3513531 C38.1047987,29.9088032 38.9768336,31.2197431 38.9728395,32.6716049 C38.9728395,34.6461934 37.3721193,36.2469136 35.3975309,36.2469136 L35.3975309,36.2469136 Z" id="Shape" stroke="#4550E5" stroke-linejoin="round"></path>
                <path d="M16.7901235,14.8148148 L33.9654321,14.8148148 L31.4567901,18.5777778 C31.2392189,18.9114331 30.8674597,19.112183 30.4691358,19.1111111 L20.2962963,19.1111111 C19.8988766,19.1086191 19.5286974,18.9087223 19.308642,18.5777778 L16.7901235,14.8148148 Z" id="Path" stroke="#4550E5" fill="#D6DAFF" fill-rule="nonzero" stroke-linejoin="round"></path>
                <path d="M6.42962963,41.6197531 C6.65058484,41.8446873 6.95385888,41.9695649 7.2691358,41.9654321 L43.4567901,41.9654321 C43.774621,41.9677416 44.080279,41.8433459 44.3061728,41.6197531 L45.7481481,40.1777778 C45.9744403,39.9528861 46.1023062,39.6474287 46.1037037,39.3283951 L46.1037037,24.5135802 C46.0982808,23.8574262 45.5648185,23.3283727 44.908642,23.3283951 L5.81728395,23.3283951 C5.16272425,23.3283951 4.63209877,23.8590205 4.63209877,24.5135802 L4.63209877,39.3283951 C4.62978929,39.6462259 4.75418498,39.9518839 4.97777778,40.1777778 L6.42962963,41.6197531 Z" id="Path" stroke="#4550E5" stroke-linejoin="round"></path>
                <path d="M11.782716,32.6716049 C11.782716,33.6198357 12.1593993,34.5292295 12.8298997,35.1997299 C13.5004001,35.8702304 14.4097939,36.2469136 15.3580247,36.2469136 L35.3975309,36.2469136 C37.3721193,36.2469136 38.9728395,34.6461934 38.9728395,32.6716049 L38.9728395,32.6716049 C38.972847,30.6954125 37.3737158,29.0918638 35.3975309,29.0864198 L15.3580247,29.0864198 C13.3818397,29.0918638 11.7827086,30.6954125 11.782716,32.6716049 L11.782716,32.6716049 Z" id="Path" stroke="#4550E5" stroke-linejoin="round"></path>
                <path d="M34.3901235,33.6790123 L32.8691358,35.2" id="Path" stroke="#4550E5" stroke-linecap="round" stroke-linejoin="round"></path>
                <path d="M34.3901235,31.654321 L32.8691358,30.1333333" id="Path" stroke="#4550E5" stroke-linecap="round" stroke-linejoin="round"></path>
                <path d="M36.4049383,31.654321 L37.9259259,30.1333333" id="Path" stroke="#4550E5" stroke-linecap="round" stroke-linejoin="round"></path>
                <path d="M36.4049383,33.6790123 L37.9259259,35.2" id="Path" stroke="#4550E5" stroke-linecap="round" stroke-linejoin="round"></path>
                <path d="M14.3506173,33.6790123 L12.8296296,35.2" id="Path" stroke="#4550E5" stroke-linecap="round" stroke-linejoin="round"></path>
                <path d="M14.3506173,31.654321 L12.8296296,30.1333333" id="Path" stroke="#4550E5" stroke-linecap="round" stroke-linejoin="round"></path>
                <path d="M16.3753086,31.654321 L17.8962963,30.1333333" id="Path" stroke="#4550E5" stroke-linecap="round" stroke-linejoin="round"></path>
                <path d="M16.3753086,33.6790123 L17.8962963,35.2" id="Path" stroke="#4550E5" stroke-linecap="round" stroke-linejoin="round"></path>
                <circle id="Oval" stroke="#4550E5" stroke-linejoin="round" cx="9.63950617" cy="17.6395062" r="1"></circle>
                <circle id="Oval" stroke="#4550E5" stroke-linejoin="round" cx="14.6469136" cy="19.0716049" r="1"></circle>
                <circle id="Oval" stroke="#4550E5" stroke-linejoin="round" cx="36.1185185" cy="19.0716049" r="1"></circle>
                <circle id="Oval" stroke="#4550E5" stroke-linejoin="round" cx="41.1259259" cy="17.6395062" r="1"></circle>
            </g>
        </g>
    </g>
</svg>