<?xml version="1.0" encoding="UTF-8"?>
<svg width="998px" height="889px" viewBox="0 0 998 889" version="1.1" xmlns="http://www.w3.org/2000/svg" xmlns:xlink="http://www.w3.org/1999/xlink">
    <!-- Generator: Sketch 43 (38999) - http://www.bohemiancoding.com/sketch -->
    <title>Artboard Copy 8</title>
    <desc>Created with Sketch.</desc>
    <defs>
        <linearGradient x1="8.19889675%" y1="24.0678817%" x2="94.8622223%" y2="82.3487715%" id="linearGradient-1">
            <stop stop-color="#D49BA7" offset="0%"></stop>
            <stop stop-color="#A66F7A" offset="44.7913784%"></stop>
            <stop stop-color="#8E5863" offset="100%"></stop>
        </linearGradient>
        <linearGradient x1="94.8622048%" y1="23.4487592%" x2="20.7612293%" y2="80.3474851%" id="linearGradient-2">
            <stop stop-color="#D49BA7" offset="0%"></stop>
            <stop stop-color="#A66F7A" offset="44.7913784%"></stop>
            <stop stop-color="#8E5863" offset="100%"></stop>
        </linearGradient>
    </defs>
    <g id="Page-1" stroke="none" stroke-width="1" fill="none" fill-rule="evenodd">
        <g id="Artboard-Copy-8">
            <g id="Group-8">
                <rect id="Rectangle-2" fill="#E2E2E2" fill-rule="nonzero" x="29" y="37" width="664" height="571"></rect>
                <rect id="Rectangle-4" fill="#FFFDEA" fill-rule="nonzero" x="34" y="64" width="654" height="523"></rect>
                <rect id="Rectangle" stroke="#979797" fill="#735400" fill-rule="nonzero" x="19.5" y="595.5" width="692" height="20" rx="7"></rect>
                <path d="M359.5,677 C350.939586,677 344,670.060414 344,661.5 C344,652.939586 350.939586,646 359.5,646 C368.060414,646 375,652.939586 375,661.5 C375,670.060414 368.060414,677 359.5,677 Z M359.5,672.571429 C365.614581,672.571429 370.571429,667.614581 370.571429,661.5 C370.571429,655.385419 365.614581,650.428571 359.5,650.428571 C353.385419,650.428571 348.428571,655.385419 348.428571,661.5 C348.428571,667.614581 353.385419,672.571429 359.5,672.571429 Z" id="Combined-Shape" fill="#735400" fill-rule="nonzero"></path>
                <path d="M359.5,615.447368 L359.5,648.552632" id="Line-32" stroke="#535353" stroke-width="5" stroke-linecap="square"></path>
                <rect id="Rectangle-3" fill="#112D0A" fill-rule="nonzero" x="15" y="19" width="692" height="37"></rect>
                <rect id="Rectangle-3" fill="#735400" fill-rule="nonzero" x="0" y="0" width="719" height="37" rx="7"></rect>
            </g>
            <path d="M668.997579,530 C661.540959,524.721336 656.707094,520.023132 654.495984,515.905388 C652.284874,511.787644 650.451339,504.069167 648.995379,492.749955 C642.002802,488.599586 638.002362,487.592828 636.994059,489.729681 C635.481604,492.934961 610.478114,480.114696 623.992628,473.118175 C637.507142,466.121653 637.855137,463.959025 654.495984,468.084385 C660.882912,469.66774 667.89929,477.132523 674.99824,481.675617 C678.486045,483.907698 683.819965,486.592386 691,489.729681 L668.997579,530 Z" id="Line-62" stroke="#025B7F" fill="#00709D" fill-rule="nonzero" stroke-linecap="square"></path>
            <path d="M362.731746,200.014286 C355.715309,200.014286 352.207143,199.225934 352.207143,197.649206 L349.72381,150.229365 L335.296825,198.240476 C334.98148,199.186513 332.301083,199.659524 327.255556,199.659524 C322.210028,199.659524 319.608466,199.22593 319.450794,198.35873 L304.550794,149.756349 L302.895238,196.939683 C302.816402,198.122228 301.318533,198.930289 298.401587,199.363889 C295.484642,199.797489 293.060459,200.014286 291.128968,200.014286 C289.197477,200.014286 287.325141,199.896033 285.511905,199.659524 C281.727759,199.107669 279.875132,198.122229 279.953968,196.703175 L282.67381,119.838095 C282.67381,117.946022 287.482756,117 297.100794,117 C299.938903,117 303.407651,117.216797 307.507143,117.650397 C311.606634,118.083997 313.892855,118.931475 314.365873,120.192857 L327.610317,157.442857 L339.199206,120.074603 C339.908734,118.024857 345.348362,117 355.518254,117 C358.4352,117 361.923657,117.216797 365.98373,117.650397 C370.043803,118.083997 372.07381,118.85264 372.07381,119.956349 L375.503175,197.530952 C375.503175,198.398152 373.965888,199.028834 370.89127,199.423016 C367.816651,199.817198 365.096837,200.014286 362.731746,200.014286 Z M382.480159,141.360317 C382.480159,140.493117 386.086869,140.059524 393.300397,140.059524 C400.513925,140.059524 404.238888,140.4537 404.475397,141.242063 L412.989683,169.15 L421.149206,141.005556 C421.464552,140.374865 423.908443,140.059524 428.480952,140.059524 C438.96619,140.059524 443.972225,140.571953 443.499206,141.596825 L415.709524,220.70873 C415.630687,221.181748 413.482428,221.418254 409.264683,221.418254 C405.046937,221.418254 401.124886,221.280292 397.498413,221.004365 C393.87194,220.728438 392.137565,220.393388 392.295238,219.999206 L402.583333,195.165873 L382.480159,141.360317 Z M176.718254,314.942063 C169.85949,314.942063 166.154236,313.838371 165.602381,311.630952 L161.7,296.37619 L142.897619,296.37619 L139.468254,311.039683 C138.995236,313.48361 135.211147,314.705556 128.115873,314.705556 C124.331727,314.705556 121.533078,314.488759 119.719841,314.055159 C117.906605,313.621559 117,313.286509 117,313.05 L137.930952,232.992063 C137.930952,232.361373 143.331163,232.046032 154.131746,232.046032 C164.932329,232.046032 170.33254,232.361373 170.33254,232.992063 L190.790476,313.168254 C190.790476,313.720109 188.977267,314.153702 185.350794,314.469048 C181.72432,314.784393 178.846836,314.942063 176.718254,314.942063 Z M145.853968,281.357937 L158.270635,281.357937 L152.949206,256.879365 L152.239683,256.879365 L145.853968,281.357937 Z M259.377778,256.169841 C259.377778,255.460314 261.545746,255.105556 265.881746,255.105556 C275.657456,255.105556 280.466403,255.420896 280.30873,256.051587 L268.719841,313.523016 C268.483332,314.784398 264.107979,315.415079 255.593651,315.415079 C247.079323,315.415079 242.703969,314.784398 242.46746,313.523016 L237.619048,287.034127 L231.588095,313.523016 C231.351586,314.705561 226.838271,315.296825 218.048016,315.296825 C209.25776,315.296825 204.744446,314.587309 204.507937,313.168254 L193.983333,255.578571 C193.746824,255.105553 197.136737,254.869048 204.153175,254.869048 C211.090775,254.947884 214.559524,255.105554 214.559524,255.342063 L219.999206,295.311905 L229.814286,255.815079 C229.971958,255.342061 232.57352,255.105556 237.619048,255.105556 C242.664575,255.105556 245.266137,255.342061 245.42381,255.815079 L255.120635,294.838889 L259.377778,256.169841 Z M331.630952,311.512698 C326.664261,314.429644 320.27861,315.888095 312.47381,315.888095 C304.669009,315.888095 298.08627,313.227408 292.725397,307.905952 C287.364523,302.584497 284.684127,295.213407 284.684127,285.79246 C284.684127,276.371514 287.265979,268.783627 292.429762,263.028571 C297.593544,257.273516 304.117156,254.396032 312.000794,254.396032 C319.884431,254.396032 325.974449,256.406329 330.271032,260.426984 C334.567614,264.447639 336.715873,269.335421 336.715873,275.090476 C336.715873,287.861969 329.3842,294.247619 314.720635,294.247619 L306.561111,294.247619 C306.561111,296.61271 307.211501,298.24854 308.512302,299.155159 C309.813102,300.061777 311.724855,300.515079 314.247619,300.515079 C319.766165,300.515079 325.008705,299.253716 329.975397,296.730952 C330.054233,296.652116 330.408992,297.203962 331.039683,298.386508 C332.931755,301.776472 333.877778,304.634248 333.877778,306.959921 C333.877778,309.285594 333.128843,310.803171 331.630952,311.512698 Z M316.849206,277.337302 C316.849206,274.026174 315.233085,272.370635 312.000794,272.370635 C310.502903,272.370635 309.221831,272.823937 308.15754,273.730556 C307.093249,274.637174 306.561111,275.957663 306.561111,277.692063 L306.561111,281.357937 L312.946825,281.357937 C315.548426,281.357937 316.849206,280.017738 316.849206,277.337302 Z M346.885714,293.419841 C353.27146,297.282824 358.316913,299.214286 362.022222,299.214286 C364.387313,299.214286 365.569841,298.386516 365.569841,296.730952 C365.569841,295.548407 363.520126,294.011121 359.420635,292.119048 C349.566088,288.098393 344.638889,281.515654 344.638889,272.370635 C344.638889,266.536743 346.767439,262.082555 351.024603,259.007937 C355.281767,255.933318 360.386346,254.396032 366.338492,254.396032 C372.290638,254.396032 377.33609,255.026713 381.475,256.288095 C385.61391,257.549477 387.683333,259.205016 387.683333,261.254762 C387.683333,262.989162 386.835855,265.275383 385.140873,268.113492 C383.445891,270.951601 382.283072,272.488888 381.652381,272.725397 C378.262417,270.833324 374.596581,269.887302 370.654762,269.887302 C368.52618,269.887302 367.461905,270.636236 367.461905,272.134127 C367.461905,273.080163 367.87579,273.888224 368.703571,274.558333 C369.531353,275.228443 371.048931,276.056212 373.256349,277.041667 C375.463768,278.027121 377.296686,278.914017 378.755159,279.702381 C380.213632,280.490745 381.849462,281.594437 383.662698,283.013492 C387.446844,286.009274 389.338889,289.911616 389.338889,294.720635 C389.338889,301.027545 387.249756,306.132123 383.071429,310.034524 C378.893101,313.936924 372.586286,315.888095 364.150794,315.888095 C358.553411,315.888095 353.468541,314.942073 348.896032,313.05 C344.323522,311.157927 342.037302,308.556366 342.037302,305.245238 C342.037302,303.03782 342.569439,300.712182 343.63373,298.268254 C344.698021,295.824326 345.782005,294.208205 346.885714,293.419841 Z M402.701587,307.728571 C397.813732,302.288862 395.369841,294.760101 395.369841,285.142063 C395.369841,275.524026 397.833441,267.995265 402.760714,262.555556 C407.687988,257.115846 414.329852,254.396032 422.686508,254.396032 C431.043163,254.396032 437.665319,257.115846 442.553175,262.555556 C447.44103,267.995265 449.884921,275.524026 449.884921,285.142063 C449.884921,294.760101 447.44103,302.288862 442.553175,307.728571 C437.665319,313.168281 431.043163,315.888095 422.686508,315.888095 C414.329852,315.888095 407.668279,313.168281 402.701587,307.728571 Z M422.686508,274.144444 C418.271671,274.144444 416.064286,277.770863 416.064286,285.02381 C416.064286,292.276756 418.29138,295.903175 422.745635,295.903175 C427.19989,295.903175 429.426984,292.276756 429.426984,285.02381 C429.426984,277.770863 427.180181,274.144444 422.686508,274.144444 Z M511.85,314.114286 C511.85,314.66614 508.479796,314.942063 501.739286,314.942063 C494.998776,314.942063 491.628571,314.587305 491.628571,313.877778 L491.628571,279.465873 C491.628571,275.524054 490.327791,273.553175 487.72619,273.553175 C486.385972,273.553175 484.61218,274.420362 482.404762,276.154762 L482.404762,313.996032 C482.404762,314.784395 479.034558,315.178571 472.294048,315.178571 C465.553538,315.178571 462.183333,314.744978 462.183333,313.877778 L462.183333,275.20873 L459.226984,275.20873 C456.625384,275.20873 455.324603,272.488916 455.324603,267.049206 C455.324603,264.605279 455.797614,262.12197 456.743651,259.599206 C458.005033,256.130406 460.054748,254.396032 462.892857,254.396032 C465.730967,254.396032 468.470489,255.144966 471.111508,256.642857 C473.752526,258.140748 475.348939,259.559782 475.900794,260.9 C480.788649,256.563999 486.208568,254.396032 492.160714,254.396032 C498.11286,254.396032 502.902098,256.248659 506.528571,259.953968 C510.785736,256.248659 515.910023,254.396032 521.901587,254.396032 C534.909589,254.396032 541.413492,262.318968 541.413492,278.165079 L541.413492,314.114286 C541.413492,314.66614 538.043288,314.942063 531.302778,314.942063 C524.562268,314.942063 521.192063,314.587305 521.192063,313.877778 L521.192063,279.465873 C521.192063,275.524054 519.891283,273.553175 517.289683,273.553175 C515.870628,273.553175 514.057418,274.420362 511.85,276.154762 L511.85,314.114286 Z M596.165079,311.512698 C591.198388,314.429644 584.812737,315.888095 577.007937,315.888095 C569.203136,315.888095 562.620397,313.227408 557.259524,307.905952 C551.89865,302.584497 549.218254,295.213407 549.218254,285.79246 C549.218254,276.371514 551.800106,268.783627 556.963889,263.028571 C562.127671,257.273516 568.651283,254.396032 576.534921,254.396032 C584.418558,254.396032 590.508576,256.406329 594.805159,260.426984 C599.101741,264.447639 601.25,269.335421 601.25,275.090476 C601.25,287.861969 593.918327,294.247619 579.254762,294.247619 L571.095238,294.247619 C571.095238,296.61271 571.745628,298.24854 573.046429,299.155159 C574.347229,300.061777 576.258982,300.515079 578.781746,300.515079 C584.300292,300.515079 589.542832,299.253716 594.509524,296.730952 C594.58836,296.652116 594.943119,297.203962 595.57381,298.386508 C597.465882,301.776472 598.411905,304.634248 598.411905,306.959921 C598.411905,309.285594 597.66297,310.803171 596.165079,311.512698 Z M581.383333,275.337302 C581.383333,272.026174 579.767212,270.370635 576.534921,270.370635 C575.03703,270.370635 573.755958,270.823937 572.691667,271.730556 C571.627376,272.637174 571.095238,273.957663 571.095238,275.692063 L571.095238,279.357937 L577.480952,279.357937 C580.082553,279.357937 581.383333,278.017738 581.383333,275.337302 Z M196.584921,432.759524 C189.410811,432.759524 185.82381,431.971172 185.82381,430.394444 L185.82381,353.765873 C185.82381,351.085436 187.045755,349.745238 189.489683,349.745238 L210.302381,349.745238 C221.970164,349.745238 230.385821,352.149711 235.549603,356.95873 C240.713386,361.767749 243.295238,368.744663 243.295238,377.889683 C243.295238,385.457974 240.851347,392.395471 235.963492,398.702381 C233.519565,401.855836 229.932563,404.378562 225.202381,406.270635 C220.472199,408.162708 214.953735,409.10873 208.646825,409.10873 L208.646825,430.27619 C208.646825,431.222227 207.168666,431.872617 204.212302,432.227381 C201.255938,432.582145 198.713503,432.759524 196.584921,432.759524 Z M208.646825,370.321429 L208.646825,389.005556 L210.184127,389.005556 C212.9434,389.005556 215.269038,388.138368 217.161111,386.403968 C219.053184,384.669568 219.999206,382.225677 219.999206,379.072222 C219.999206,375.918767 219.348816,373.671964 218.048016,372.331746 C216.747216,370.991528 214.441286,370.321429 211.130159,370.321429 L208.646825,370.321429 Z M279.007937,432.404762 C279.007937,432.956617 275.420935,433.23254 268.246825,433.23254 C261.072715,433.074867 257.485714,432.759526 257.485714,432.286508 L257.485714,393.02619 L254.292857,393.02619 C253.031475,393.02619 252.026326,392.257547 251.277381,390.720238 C250.528435,389.182929 250.153968,387.271175 250.153968,384.984921 C250.153968,376.470592 252.676694,372.213492 257.722222,372.213492 C261.269859,372.213492 264.226179,373.297476 266.59127,375.465476 C268.956361,377.633476 270.138889,380.097076 270.138889,382.856349 C271.794453,379.624058 274.021547,377.042205 276.820238,375.110714 C279.618929,373.179223 282.476705,372.213492 285.393651,372.213492 C289.96616,372.213492 292.725392,373.39602 293.671429,375.761111 C293.907938,376.391802 294.02619,377.318116 294.02619,378.540079 C294.02619,379.762043 293.651723,381.94972 292.902778,385.103175 C292.153832,388.25663 291.385189,390.54285 290.596825,391.961905 C289.808462,393.380959 289.335451,394.090476 289.177778,394.090476 C289.020105,394.090476 288.29088,393.794844 286.990079,393.203571 C285.689279,392.612299 284.52646,392.316667 283.501587,392.316667 C280.505805,392.316667 279.007937,394.681722 279.007937,399.411905 L279.007937,432.404762 Z M305.02381,425.546032 C300.135954,420.106322 297.692063,412.577561 297.692063,402.959524 C297.692063,393.341486 300.155663,385.812726 305.082937,380.373016 C310.01021,374.933306 316.652075,372.213492 325.00873,372.213492 C333.365386,372.213492 339.987542,374.933306 344.875397,380.373016 C349.763252,385.812726 352.207143,393.341486 352.207143,402.959524 C352.207143,412.577561 349.763252,420.106322 344.875397,425.546032 C339.987542,430.985741 333.365386,433.705556 325.00873,433.705556 C316.652075,433.705556 309.990501,430.985741 305.02381,425.546032 Z M325.00873,391.961905 C320.593893,391.961905 318.386508,395.588324 318.386508,402.84127 C318.386508,410.094216 320.613602,413.720635 325.067857,413.720635 C329.522112,413.720635 331.749206,410.094216 331.749206,402.84127 C331.749206,395.588324 329.502403,391.961905 325.00873,391.961905 Z M360.603175,428.384127 L360.603175,373.869048 C360.603175,373.396029 364.170467,373.159524 371.305159,373.159524 C378.43985,373.159524 382.007143,373.356612 382.007143,373.750794 L382.007143,436.780159 C382.007143,442.61405 379.582961,447.245618 374.734524,450.675 C369.886087,454.104382 363.835486,455.819048 356.58254,455.819048 C346.412648,455.819048 341.327778,452.271464 341.327778,445.17619 C341.327778,442.811099 341.721954,440.84022 342.510317,439.263492 C343.219845,439.342328 344.205285,439.381746 345.466667,439.381746 C351.221722,439.381746 355.18319,438.475141 357.35119,436.661905 C359.519191,434.848668 360.603175,432.089437 360.603175,428.384127 Z M360.603175,366.892063 L360.603175,349.863492 C360.603175,349.075128 364.170467,348.680952 371.305159,348.680952 C378.43985,348.680952 382.007143,348.917458 382.007143,349.390476 L382.007143,366.77381 C382.007143,367.325664 378.43985,367.601587 371.305159,367.601587 C364.170467,367.601587 360.603175,367.365082 360.603175,366.892063 Z M437.35,429.330159 C432.383308,432.247105 425.997658,433.705556 418.192857,433.705556 C410.388056,433.705556 403.805318,431.044868 398.444444,425.723413 C393.083571,420.401958 390.403175,413.030867 390.403175,403.609921 C390.403175,394.188974 392.985027,386.601087 398.14881,380.846032 C403.312592,375.090977 409.836204,372.213492 417.719841,372.213492 C425.603479,372.213492 431.693497,374.223789 435.990079,378.244444 C440.286662,382.265099 442.434921,387.152881 442.434921,392.907937 C442.434921,405.679429 435.103248,412.065079 420.439683,412.065079 L412.280159,412.065079 C412.280159,414.430171 412.930549,416.066001 414.231349,416.972619 C415.532149,417.879237 417.443903,418.33254 419.966667,418.33254 C425.485213,418.33254 430.727753,417.071177 435.694444,414.548413 C435.773281,414.469576 436.128039,415.021423 436.75873,416.203968 C438.650803,419.593932 439.596825,422.451708 439.596825,424.777381 C439.596825,427.103054 438.847891,428.620631 437.35,429.330159 Z M422.568254,395.154762 C422.568254,391.843634 420.952133,390.188095 417.719841,390.188095 C416.22195,390.188095 414.940878,390.641398 413.876587,391.548016 C412.812296,392.454634 412.280159,393.775124 412.280159,395.509524 L412.280159,399.175397 L418.665873,399.175397 C421.267473,399.175397 422.568254,397.835199 422.568254,395.154762 Z M469.515079,403.196032 C469.515079,410.921996 472.431981,414.784921 478.265873,414.784921 C482.050019,414.784921 485.203427,414.035986 487.72619,412.538095 C488.908736,412.538095 489.874467,414.568101 490.623413,418.628175 C491.372358,422.688248 491.746825,425.447479 491.746825,426.905952 C491.746825,428.364425 491.549737,429.330156 491.155556,429.803175 C486.977228,432.404775 481.261676,433.705556 474.00873,433.705556 C466.755784,433.705556 460.58693,431.00545 455.501984,425.605159 C450.417038,420.204867 447.874603,412.833777 447.874603,403.491667 C447.874603,394.149556 450.37762,386.601087 455.38373,380.846032 C460.38984,375.090977 467.051413,372.213492 475.368651,372.213492 C483.685888,372.213492 489.460566,374.223789 492.692857,378.244444 C493.402385,379.111645 493.757143,380.392716 493.757143,382.087698 C493.757143,383.78268 493.441802,385.852104 492.811111,388.296032 C491.392056,393.34156 489.539429,396.258462 487.253175,397.046825 C486.937829,397.125662 486.484527,397.165079 485.893254,397.165079 C485.301981,397.165079 484.572756,396.692068 483.705556,395.746032 C480.630937,392.671413 478.167337,391.134127 476.314683,391.134127 C474.462028,391.134127 472.865615,392.080149 471.525397,393.972222 C470.185178,395.864295 469.515079,398.938868 469.515079,403.196032 Z M527.459524,431.813492 C527.459524,432.759529 524.148446,433.23254 517.52619,433.23254 C509.642553,432.917194 505.700794,432.404765 505.700794,431.695238 L505.700794,389.833333 L499.669841,389.833333 C498.093114,389.833333 497.304762,387.113519 497.304762,381.67381 C497.304762,380.254755 497.442723,378.520381 497.718651,376.470635 C497.994578,374.420889 498.566133,373.396032 499.433333,373.396032 L505.700794,373.396032 L505.700794,362.989683 C505.700794,361.412955 509.03158,360.624603 515.693254,360.624603 C522.354927,360.624603 525.685714,361.255285 525.685714,362.516667 L525.685714,370.084921 L525.803968,373.396032 L535.855556,373.396032 C537.195774,373.396032 537.865873,376.155263 537.865873,381.67381 C537.865873,387.192356 537.195774,389.951587 535.855556,389.951587 L527.459524,389.951587 L527.459524,431.813492 Z" id="My-Awesome-Project" fill="#97946F" fill-rule="nonzero"></path>
            <g id="Group-6" transform="translate(548.000000, 64.000000)" fill-rule="nonzero">
                <g id="Group" transform="translate(273.000000, 377.000000) scale(-1, 1) rotate(-13.000000) translate(-273.000000, -377.000000) translate(86.000000, 274.000000)">
                    <g id="Group-5" transform="translate(314.493053, 119.903653) rotate(-11.000000) translate(-314.493053, -119.903653) translate(265.493053, 63.903653)">
                        <path d="M94.5759908,0 C85.8226243,7.62724014 81.9846098,17.0609319 83.0619472,28.3010753 C84.1392846,39.5412186 88.7853022,47.1015532 97,50.9820789 C87.4386304,55.6654719 81.1766067,62.2891278 78.2139288,70.8530466 C75.2512509,79.4169654 76.3285883,86.1075269 81.4459411,90.9247312 C75.6552525,89.5866189 70.2685654,91.660693 65.2858798,97.1469534 C60.3031943,102.633214 57.5425172,107.584229 57.0038485,112 L12.9676816,66.0358423 C3.79346966,55.6403899 -0.512900414,49.8819987 0.0485714131,48.7606687 C0.61004324,47.6393387 11.7171057,39.1468338 33.3697589,23.2831541 L94.5759908,0 Z" id="Line-23" stroke="#279BCA" stroke-width="5" fill="#025B7F" stroke-linecap="square"></path>
                        <path d="M12,54 C37.8993747,47.3333333 54.7898285,44 62.6713615,44 C70.5528945,44 82.3291073,46.4666667 98,51.4 C78.6067247,48.980491 64.2733913,48.180491 55,49 C45.7266087,49.819509 31.3932753,53.1528423 12,59 L12,54 Z" id="Line-24" fill="#279BCA"></path>
                        <path d="M81,91 C72.7176955,85.3182643 65.2323623,80.2994296 58.5440003,75.9434959 C51.8556383,71.5875623 38.6743048,65.2730636 19,57 L19.3010613,62.7651333 C33.6370311,69.145718 44.7057029,73.9014688 52.5070767,77.0323856 C60.3084504,80.1633025 69.8060915,84.819174 81,91 Z" id="Line-25" fill="#279BCA"></path>
                        <path d="M32.1749334,23.5835635 C42.6520921,17.2828981 53.389779,12.0641263 64.387994,7.92724823 C75.386209,3.79037015 85.2568777,1.14795407 94,0 C74.6701112,7.74618404 63.7323432,12.172231 61.186696,13.2781408 C59.0663092,14.1993041 50.4986558,16.4702351 36.074512,24.4753032 C34.1459284,25.5456228 29.4544244,28.0538551 22,32" id="Line-22" fill="#279BCA"></path>
                    </g>
                    <g id="Group-3" transform="translate(128.156825, 102.983936) rotate(16.000000) translate(-128.156825, -102.983936) translate(16.656825, 27.983936)">
                        <path d="M1.02351296,21.4937722 C26.0427187,21.4937722 41.7365842,28.317192 48.1051093,41.9640315 C54.4736344,55.610871 49.6972405,74.7164463 33.7759278,99.2807574 C53.450719,93.3746547 68.5759662,95.4216807 79.1516691,105.421835 C89.7273721,115.42199 91.3195034,129.182553 83.928063,146.703525 C98.0297971,130.554765 112.927597,123.845069 128.621462,126.574436 C144.315328,129.303804 153.640668,136.92329 156.597483,149.432893 C160.918983,134.193922 168.652192,122.252937 179.79711,113.609939 C190.942029,104.966941 204.361422,100.986612 220.055287,101.668954 C221.668183,95.9553783 218.370197,89.3594058 210.161328,81.881037 C177.95756,52.543054 122.3308,15.5928777 103.033638,8.52927469 C76.3580907,-1.23513913 42.3547156,3.08636004 1.02351296,21.4937722 Z" id="Line-21" stroke="#279BCA" stroke-width="5" fill="#025B7F" stroke-linecap="square"></path>
                        <path d="M216.643577,91.0926537 C174.565822,50.8344772 137.605632,25.2466531 105.763006,14.3291815 C73.9203807,3.41170988 38.7797689,5.79990679 0.341170988,21.4937722 C30.3642179,2.38819691 60.8421595,-3.98032819 91.7749957,2.38819691 C118.867538,7.96607332 157.758475,29.8388714 202.996738,68.9165395 C207.271671,72.6093078 213.640196,78.5229382 222.102313,86.6574309 L216.643577,91.0926537 Z" id="Line-17" fill="#279BCA"></path>
                        <path d="M35.4817827,98.2572444 C41.8515941,91.0175165 46.6279879,86.0136754 49.8109642,83.245721 C59.0690811,75.1947513 68.7888542,69.3991489 92.7985086,61.7519488 C122.422808,52.316455 152.076084,49.2405975 176.726572,56.9755549 C180.48062,58.1535196 185.14329,61.1103349 190.714582,65.8460006 C172.291349,56.8437568 147.272143,55.4790728 115.656965,61.7519488 C84.0417866,68.0248247 57.3167259,80.1932566 35.4817827,98.2572444 Z" id="Line-18" fill="#279BCA"></path>
                        <path d="M192.079266,68.9165395 L192.079266,62.4342907 C175.326448,65.943446 163.385463,68.7865375 156.256312,70.9635654 C143.07437,74.9889334 131.059391,82.756969 123.162727,88.7044568 C108.859967,99.476788 95.8954699,118.923534 84.2692339,147.044696 C85.6448588,145.653937 87.2369901,143.379464 89.0456278,140.221276 C99.244114,122.412991 115.93494,99.84313 134.080198,88.7044568 C157.052378,74.6027226 176.385401,68.0067502 192.079266,68.9165395 Z" id="Line-19" fill="#279BCA"></path>
                        <path d="M195.149805,68.9165395 C192.441409,69.4198149 190.508107,70.1021569 189.349898,70.9635654 C177.777505,79.5704422 170.159791,90.3272705 165.8091,99.6219284 C160.805259,110.311953 157.73472,126.574436 156.597483,148.40938 C153.413221,128.166568 154.777905,111.221742 160.691535,97.5749025 C166.018867,85.2810594 175.218567,73.7824507 188.667556,67.2106846 C189.654307,66.728515 191.815056,67.2971333 195.149805,68.9165395 Z" id="Line-20" fill="#279BCA"></path>
                    </g>
                </g>
                <path d="M118.261301,495.779018 C118.261301,454.799846 137.573319,412.6546 176.197354,369.34328 C179.580481,357.554065 181.578276,349.224965 182.190739,344.355981 C183.215681,336.207852 180.614781,329.037146 182.190739,323.866395 C185.179287,314.060902 190.340258,305.731802 197.673649,298.879095 C189.603003,288.336399 184.774998,280.173881 183.189636,274.391541 C181.604274,268.609201 181.271308,257.947953 182.190739,242.407797 L56.5,191 L55.3307607,142.458598 C50.6692393,129.132038 53,118.137626 62.323043,109.475362 C71.646086,100.813098 84.631753,94.6495638 101.280044,90.9847598 L129.249173,82.9888239 L145.730981,74.9928879 L182.190739,61 L225.642778,64.997968 L255.110254,82.9888239 L280.08269,112.473838 L285.077178,154.952248 C275.917253,171.796383 269.424419,184.456615 265.598677,192.932943 C259.860063,205.647436 251.114664,229.414401 251.114664,249.404241 C251.114664,269.394081 269.349589,277.889763 268.095921,310.872999 C266.842252,343.856235 242.124587,396.82931 251.114664,428.313308 C260.104741,459.797306 293.727477,487.585069 311.54796,511.271144 C329.368444,534.957218 334.861501,548.157123 343.512679,571.240663 C349.280131,586.62969 353.109238,605.286874 355,627.212215 C352.666667,683.737405 348.83756,718.886207 343.512679,732.658621 C335.525358,753.317241 324.034179,795.12687 212.657111,818.614932 C138.405733,834.27364 92.4564498,815.783038 74.8092613,763.143126 C98.0923766,782.70508 116.239014,792.866582 129.249173,793.627632 C161.462138,795.511983 179.437595,781.814036 189.183021,774.137538 C204.832415,761.81047 209.771408,747.984165 204,732.658621 C202.289132,735.575447 200.955799,737.855907 200,739.5 C199.044201,741.144093 195.438541,747.359315 189.183021,758.145666 C190.364238,746.108327 191.803231,737.612645 193.5,732.658621 C197.120144,722.088951 204.063953,713.590465 207.662624,707.671321 C211.06,702.083269 180.192944,707.671321 168.206174,676.687069 C167.904909,675.908336 164.979186,670.948436 164.710033,670.190371 C155.719956,644.869907 156.885336,620.215771 168.206174,596.227963 C134.909592,570.241171 118.261301,536.75819 118.261301,495.779018 Z" id="Line-3" stroke="#00709D" stroke-width="2" fill="#279BCA" stroke-linecap="square"></path>
                <path d="M186.5,258.5 L223.5,253.5 C221.833333,257.5 221.833333,263.5 223.5,271.5 C226,283.5 239.144069,283.04912 238.5,302.5 C237.855931,321.95088 221,341.5 221,347 C221,352.5 228.082299,355.762143 223.5,370 C221.531116,376.117604 219.000252,375.591084 215,379.5 C213.529048,380.937367 210.862381,384.604033 207,390.5 L173.5,372.5 C176.816121,363.380666 179.482788,356.047333 181.5,350.5 C183.5,345 180.649016,332.079428 183,321.5 C187,303.5 197,302.224202 197,298 C197,293.775798 186.723232,293.775798 183,276.5 C180.517845,264.982801 181.684512,258.982801 186.5,258.5 Z" id="Line-8" fill="#00709D"></path>
                <path d="M124,190.519982 C129.799446,200.841416 134.966113,207.669596 139.5,211.004524 C144.033887,214.339452 150.86722,216.337944 160,217 L189,172.033932 C176.174004,137.060324 161.256813,123.403962 144.248428,131.064848 C133.305699,135.993652 126.556223,155.81203 124,190.519982 Z" id="Line-57" fill="#FFFFFF"></path>
                <path d="M91.5533609,192 C96.3441883,167.948812 98.4647839,152.267565 97.9151479,144.956258 C96.9827311,132.55317 90.0349868,124.720762 84.0991463,121.756605 C72.9147641,116.171503 62.8817153,123.904721 54,144.956258 L55.5021344,192 L91.5533609,192 Z" id="Line-2" fill="#FFFFFF"></path>
                <g id="Group-3" transform="translate(55.000000, 140.000000)">
                    <g id="Group-4">
                        <ellipse id="Oval-10" fill="#EB5B79" transform="translate(21.000000, 31.500000) rotate(2.000000) translate(-21.000000, -31.500000) " cx="21" cy="31.5" rx="19" ry="30.5"></ellipse>
                        <ellipse id="Oval-10" fill="#000000" transform="translate(22.500000, 33.000000) rotate(2.000000) translate(-22.500000, -33.000000) " cx="22.5" cy="33" rx="17.5" ry="28"></ellipse>
                        <ellipse id="Oval" fill="#FFFFFF" cx="16" cy="10" rx="4" ry="4"></ellipse>
                    </g>
                </g>
                <path d="M225.668578,215 C227.694315,233.615511 226.370187,245.068142 221.696196,249.357895 C217.022205,253.647647 204.277481,254.826594 183.462025,252.894737 L178,263 C210.110084,260.642105 227.158221,258.452632 229.144411,256.431579 C230.421732,255.131839 232.951073,245.251478 231.62715,234.2 C231.137327,230.111196 229.151137,223.711196 225.668578,215 Z" id="Line-58" fill="#025B7F"></path>
                <g id="Group-2" transform="translate(117.000000, 147.000000)">
                    <ellipse id="Oval-10" fill="#EB5B79" transform="translate(25.000000, 34.500000) rotate(10.000000) translate(-25.000000, -34.500000) " cx="25" cy="34.5" rx="19" ry="31.5"></ellipse>
                    <ellipse id="Oval-10" fill="#000000" transform="translate(23.500000, 36.500000) rotate(10.000000) translate(-23.500000, -36.500000) " cx="23.5" cy="36.5" rx="17.5" ry="29.5"></ellipse>
                    <ellipse id="Oval" fill="#FFFFFF" cx="18" cy="15" rx="4" ry="4"></ellipse>
                </g>
                <g id="Group">
                    <path d="M119.434278,174.695444 C115.801584,171.958047 112.931093,170.423283 110.822805,170.09115 C108.714516,169.759017 105.496087,170.334554 101.167517,171.81776 C99.9911825,173.966766 99.2953059,175.50153 99.079887,176.422054 L99.079887,176.422054 L99.079887,176.422054 C98.7222231,177.950416 99.6712618,179.479343 101.199624,179.837007 C101.660755,179.944919 102.141543,179.93589 102.598296,179.810737 C105.013566,179.148957 107.23316,179.170466 109.257082,179.875274 C111.467801,180.645132 113.717429,182.058608 116.005967,184.115702 L116.006,184.115665 C117.235393,185.220726 119.127842,185.119937 120.232904,183.890544 C120.726776,183.341106 121,182.62843 121,181.889653 L121,181.889653 C121,180.418837 120.478093,178.020767 119.434278,174.695444 Z" id="Line-13" fill="#36A8D7"></path>
                    <path d="M116.449438,188.223124 C112.790198,185.807607 109.914481,184.435658 107.822288,184.107277 C105.730094,183.778896 102.575848,184.20441 98.3595506,185.383818 C97.1946064,187.504164 96.5054678,189.01846 96.2921348,189.926708 C96.0788019,190.834955 95.6480903,192.633182 95,195.321388 C99.3071161,192.860657 103.097378,192.198152 106.370787,193.333874 C109.644195,194.469597 113.003745,197.024972 116.449438,201 C117.483146,198.66546 118,196.772589 118,195.321388 C118,193.870188 117.483146,191.5041 116.449438,188.223124 Z" id="Line-13" fill="#36A8D7" transform="translate(106.500000, 192.500000) rotate(7.000000) translate(-106.500000, -192.500000) "></path>
                    <path d="M107.42494,163.830128 C109.535643,163.276257 111.16709,163.032436 112.31928,163.098667 C113.57965,163.171115 115.484127,163.684559 118.032711,164.638997 L118.03271,164.638998 C120.618739,165.60746 123.500223,164.296162 124.468685,161.710133 C124.509079,161.602272 124.545734,161.493047 124.578584,161.382654 L124.913219,160.258111 C125.700819,157.611387 124.193701,154.827318 121.546977,154.039719 C121.473971,154.017994 121.400477,153.99794 121.326554,153.979573 C116.511183,152.783137 112.90099,152.129621 110.495976,152.019025 C108.650337,151.934152 106.736767,152.133254 104.755267,152.616332 L104.755266,152.616331 C102.223418,153.23358 100.590217,155.691949 101.002525,158.265129 L101.249218,159.804719 C101.683976,162.518007 104.235971,164.36512 106.949259,163.930362 C107.109355,163.904709 107.268102,163.871246 107.424931,163.830093 L107.42494,163.830128 Z" id="Line-14" fill="#36A8D7"></path>
                    <path d="M124.018105,149.939933 C121.534913,148.70642 118.628602,147.904445 115.299171,147.534008 C112.513734,147.224097 110.061465,147.435892 107.942362,148.169393 L107.942363,148.169396 C105.332842,149.07265 102.485175,147.689447 101.581921,145.079926 C101.53335,144.939603 101.491054,144.797186 101.455159,144.653098 L100.964073,142.681842 C100.296549,140.00231 101.927604,137.288984 104.607137,136.62146 C104.627017,136.616508 104.646927,136.611677 104.666867,136.60697 C109.204342,135.535657 113.272415,135 116.871083,135 C120.861141,135 125.028755,136.843822 129.373926,140.531467 L129.373931,140.531462 C131.088084,141.986223 131.620477,144.40619 130.675138,146.446039 L130.035848,147.825497 C129.002365,150.055543 126.356752,151.025549 124.126706,149.992066 C124.090272,149.975181 124.054067,149.957803 124.018103,149.939938 L124.018105,149.939933 Z" id="Line-15" fill="#36A8D7"></path>
                    <path d="M52.4212728,191.476401 C59.3025372,185.914159 66.1838016,187.026608 73.065066,194.813746 C84.7253655,190.698358 94.1418326,189.58591 101.314467,191.476401 C108.487102,193.366892 117.360311,199.299951 127.934095,209.275576 C151.294177,210.75884 165.147249,212.798329 169.493311,215.394042 C176.012403,219.287611 185.87681,227.614391 186.877557,239.589795 C187.878305,251.565198 182.803125,261.560651 169.493311,264.619884 C163.222493,266.061218 146.879515,268.097634 134.5,274 C120.603988,280.625409 98.0727175,288.795388 80.5,282.5 C73.1196582,279.856009 73.3669815,264.824612 66,258.5 C58.3617594,251.94251 52.2715433,253.097923 49.5,251 C42.909784,246.011528 44.838679,241.646666 43.5,237.687067 C41.0553403,230.456152 42.0993763,199.819764 52.4212728,191.476401 Z" id="Line-53" stroke="#8E5863" stroke-width="2" fill="#D49BA7" stroke-linecap="square"></path>
                    <path d="M52,214 C58.9597694,220.677516 64.4824032,224.695873 68.5679012,226.055072 C69.7023351,226.432485 77.5820927,227.456431 83.2345679,230.105736 C92.7604219,234.570486 103.409797,241.879366 119.08642,245.572808 C124.767608,246.911307 137.238801,245.311416 156.5,240.773134 C140.786562,247.045274 130.619895,250.954229 126,252.5 C120.022536,254.5 120.349999,253.594118 108,256.5 C99.5,258.5 92.0195342,272.766321 85.5,265.5 C83.0867447,262.810316 83.2764233,255.46653 80.5,250.5 C76.0326407,242.508685 69.0313308,235.432813 65.5,233 C60.7211531,229.707745 56.2211531,223.374412 52,214 Z" id="Line" fill="#000000"></path>
                    <path d="M114,210.989508 C112.330159,209.179448 111.231172,207.908023 110.703038,207.175234 C108.852867,204.608113 108.066997,203.111759 106.856582,203.007095 C104.26355,202.782877 100.726356,207.932616 102.460632,209.991706 C103.19185,210.859874 105.116667,210.953401 108,210.989508 C109.11715,211.003497 111.11715,211.003497 114,210.989508 Z" id="Line-12" fill="#000000"></path>
                    <path d="M82.4834423,208.613323 C84.0580123,206.980406 81.6052946,204.495433 80.8042455,203.370028 C78.9334111,200.741669 76.8548791,199.124179 75.6309454,199.017018 C74.0334115,198.877147 71.5993324,199.604045 71.0689371,201.028786 C70.728808,201.942437 71.7224228,203.413194 72.4076028,204.236908 C73.1469872,205.125787 74.9386897,206.122019 77.8542257,206.158987 C79.548666,206.180472 80.9088723,210.246239 82.4834423,208.613323 Z" id="Line-12" fill="#000000" transform="translate(77.000000, 204.000000) scale(-1, 1) rotate(-21.000000) translate(-77.000000, -204.000000) "></path>
                    <path d="M112.905109,218.966149 C120.363251,221.534555 123.690563,225.459134 128.839416,226.857628 C133.988269,228.256122 150.860071,222.189437 153.956204,228.266821 C165.29927,250.532066 153.199834,251.531082 153.956204,281.252468 C154.107441,287.195293 158.788707,296.777803 168,310 C158.559637,307.572195 152.798079,304.753809 150.715328,301.544844 C150.232066,300.800265 146.094717,297.71392 145.043796,285.198208 C144.611882,280.054432 146.481428,271.488524 146.664234,257.014353 C146.738313,251.148856 152.065693,239.822201 149.094891,237.003816 C146.124088,234.18543 129.279444,235.305569 123.978102,233.058076 C120.443874,231.559747 110.451174,227.426115 94,220.65718 C101.631312,217.817555 107.933015,217.253878 112.905109,218.966149 Z" id="Line-10" fill="url(#linearGradient-1)"></path>
                    <path d="M67,219.608087 C62.266251,216.521574 59.0630637,214.272075 57.3904382,212.859589 C52.7259677,208.920573 50.35289,205.698317 48.8486056,206.673467 C45.3784861,208.922966 47.3598315,235.378164 38.1713147,249.976325 C33.5134664,257.376434 25.3449678,268.661437 13.8804781,277.813877 C11.4719387,279.736685 6.84511267,281.798726 0,284 C15.236242,268.235604 24.7568263,256.332004 28.561753,248.289201 C37.1358224,230.165447 36.0382996,215.405592 38.1713147,206.673467 C39.0509862,203.072272 43.9970261,199.039867 44.8446215,198.519032 C48.5916555,196.216535 54.5567204,201.794826 64.3306773,210.891278 C65.697199,212.163076 66.0670769,214.649505 66.4661355,215.952651" id="Line-11" fill="url(#linearGradient-2)"></path>
                    <path d="M131,123.690552 C152.776933,106.793082 169.424588,101.686704 180.942966,108.371417 C192.461343,115.05613 199.480355,130.932325 202,156 C201.75328,139.350138 200.313483,128.023262 197.680608,122.019373 C195.115587,116.170213 189.041825,106.978768 182.562738,103.636412 C172.74867,98.5736436 155.56109,105.258357 131,123.690552 Z" id="Line-6" fill="#00709D"></path>
                    <path d="M255.5,216.5 C286.130189,154.437125 285.796855,110.437125 254.5,84.5 C236.138637,69.283105 202.550416,60.5084227 175.313231,66.022621 C164.040925,68.3047119 159.043653,74.6925898 145.279913,79.5550341 C135.171612,83.1260875 121.661479,86.5091907 104.749514,89.7043438 L89,93 C111.997305,85.6102771 125.703126,81.1286218 130.117462,79.5550341 C134.531797,77.9814463 144.737294,72.9067914 160.73395,64.3310694 C169.170992,61.7257208 175.48868,60.1281443 179.687015,59.5383398 C183.88535,58.9485353 188.939501,58.9485353 194.849467,59.5383398 C210.008236,57.5386974 226.239835,61.1097509 243.544263,70.2515001 C260.848691,79.3932493 272.900896,90.7642353 279.700879,104.364458 C284.57275,113.789099 287.294215,122.622757 287.865276,130.865433 C288.721866,143.229448 285.271529,159.16567 283.783077,163.28684 C282.790776,166.034286 273.363084,183.772006 255.5,216.5 Z" id="Line-54" fill="#00709D"></path>
                    <path d="M66.6022409,103.706152 C70.7332056,101.120519 81.7392237,101.764738 85.5810539,103.706152 C88.142274,105.000428 95.2819227,111.098377 107,122 C92.8940466,113.25054 82.3201365,108.410897 75.2782697,107.481073 C68.2364028,106.551248 61.9769796,110.057557 56.5,118 C60.4808508,110.194523 63.8482644,105.429907 66.6022409,103.706152 Z" id="Line-7" fill="#00709D"></path>
                    <path d="M128.672991,124.794174 C126.901137,112.372612 128.627992,104.116889 133.853555,100.027004 C141.6919,93.8921772 136.961623,100.657936 171.480812,84.8289681 C194.493604,74.2763227 198.5,46 183.5,0 C196.730631,14.4383317 204.230631,25.6049984 206,33.5 C209.162144,47.6096206 209.793486,64.476045 200.5,78.5 C197.060947,83.6895622 188.751191,90.5274961 175.570731,99.0138018 C164.408045,102.962357 156.046432,106.302173 150.485893,109.033248 C144.925354,111.764323 137.654387,117.017965 128.672991,124.794174 Z" id="Line-9" fill="#025B7F"></path>
                    <path d="M52.4713632,124.794174 C51.2303565,112.372612 52.4398459,104.116889 56.0998313,100.027004 C61.5898095,93.8921772 58.2767226,100.657936 82.4539679,84.8289681 C98.5721315,74.2763227 101.378212,46 90.8722095,0 C100.138945,14.4383317 105.391947,25.6049984 106.631213,33.5 C108.845979,47.6096206 109.288171,64.476045 102.779012,78.5 C100.370299,83.6895622 94.5501444,90.5274961 85.318548,99.0138018 C77.5002009,102.962357 71.6437261,106.302173 67.7491236,109.033248 C63.8545211,111.764323 58.7619343,117.017965 52.4713632,124.794174 Z" id="Line-9" fill="#025B7F" transform="translate(80.053427, 62.397087) scale(-1, 1) translate(-80.053427, -62.397087) "></path>
                </g>
                <polyline id="Line-5" fill="#FFFFFF" points="84.5 231 83 244 88 247 90.75 237 90.75 248 96 250 99.5 238.5"></polyline>
            </g>
            <g id="Group-7" transform="translate(640.500000, 484.000000) rotate(-19.000000) translate(-640.500000, -484.000000) translate(627.000000, 456.000000)">
                <rect id="Rectangle-5" fill="#000000" fill-rule="nonzero" x="0" y="0" width="26.43615" height="55.6550527" rx="7"></rect>
                <circle id="Oval-3" fill="#747474" fill-rule="nonzero" cx="13.218075" cy="18.7835803" r="9.04394607"></circle>
                <path d="M13.218075,7.65256975 L13.218075,29.9145908" id="Line-33" stroke="#000000" stroke-linecap="square"></path>
            </g>
            <path d="M723.783154,669.436198 C767.357244,735.080005 775.891056,786.817481 749.384588,824.648625 C738.894244,839.620885 718.944357,854.74459 679.448961,856.589446 C665.11838,857.258837 646.635393,848.109123 624,829.140303 C690.938386,888.363909 748.885048,883.206797 797.839987,813.668968 C846.794926,744.131139 843.131631,684.574816 786.850103,635 C775.651204,644.710135 766.492967,651.530831 759.375392,655.462088 C752.257818,659.393346 740.393738,664.051383 723.783154,669.436198 Z" id="Line-60" fill="#00709D" fill-rule="nonzero"></path>
            <path d="M724.994898,433 C679.991194,484.666667 659.489507,529.833333 663.489836,568.5 C667.490165,607.166667 687.991853,640.666667 724.994898,669 C737.005226,668.538115 747.33941,666.038115 755.997449,661.5 C764.655488,656.961885 774.989672,648.628552 787,636.5 C766.998354,624.5 754.330645,599.333333 748.996873,561 C743.6631,522.666667 745.996626,486 755.997449,451 L724.994898,433 Z" id="Line-59" stroke="#8E5863" stroke-width="2" fill="#D49BA7" fill-rule="nonzero" stroke-linecap="square"></path>
            <path d="M708,457 C716.408077,461.6025 723.408077,464.769167 729,466.5 C734.591923,468.230833 741.591923,469.3975 750,470" id="Line-16" stroke="#9D6671" stroke-width="3" stroke-linecap="square"></path>
            <path d="M690,484 C706.835016,488.926803 720.001683,492.192382 729.5,493.796735 C738.998317,495.401088 745.164984,495.401088 748,493.796735" id="Line-26" stroke="#9D6671" stroke-width="3" stroke-linecap="square"></path>
            <path d="M626.5,487 C640.59476,484.878446 648.064746,485.272556 648.909957,488.182331 C649.755168,491.092106 644.118515,496.364662 632,504 C629.333333,501.666667 627.5,498.609685 626.5,494.829055 C625.5,491.048425 625.5,488.43874 626.5,487 Z" id="Line-34" stroke="#025B7F" fill="#00709D" fill-rule="nonzero" stroke-linecap="square"></path>
            <path d="M676,507 C688.465753,513.877193 702.050228,518.134503 716.753425,519.77193 C731.456621,521.409357 741.205479,521.409357 746,519.77193" id="Line-27" stroke="#9D6671" stroke-width="3" stroke-linecap="square"></path>
            <path d="M667,533 C679.913242,539.787879 694.771689,544.030303 711.575342,545.727273 C728.378995,547.424242 739.520548,547.424242 745,545.727273" id="Line-27" stroke="#9D6671" stroke-width="3" stroke-linecap="square"></path>
            <path d="M664,558 C673.303922,562.814815 682.970588,566.506173 693,569.074074 C703.029412,571.641975 721.362745,571.641975 748,569.074074" id="Line-28" stroke="#9D6671" stroke-width="3" stroke-linecap="square"></path>
            <path d="M669,588 C687.120155,594 703.757752,597 718.912791,597 C734.067829,597 745.763566,594 754,588" id="Line-29" stroke="#9D6671" stroke-width="3" stroke-linecap="square"></path>
            <path d="M681.5,620 C700.291932,622.666667 714.887473,624 725.286624,624 C735.685775,624 746.923567,618.333333 759,607" id="Line-30" stroke="#9D6671" stroke-width="3" stroke-linecap="square"></path>
            <path d="M704,649 C718.596947,648.848136 729.93028,647.348136 738,644.5 C746.06972,641.651864 757.403053,635.151864 772,625" id="Line-31" stroke="#9D6671" stroke-width="3" stroke-linecap="square"></path>
            <path d="M776.549081,492 L805,541.5 C804.364834,542.828087 803.865695,543.66142 803.502583,544 C789.921122,556.663911 777.679579,561.535017 767.065441,560.5 C756.025637,559.423475 749.70321,551.923475 748.098161,538 C743.416592,539.637219 740.088999,541.637219 738.115383,544 C736.141766,546.362781 732.980553,552.696114 728.631743,563 C726.696331,555.811535 725.864433,550.811535 726.136048,548 C726.407664,545.188465 727.738701,540.188465 730.12916,533 C727.667835,536.036117 726.004038,538.536117 725.13777,540.5 C724.271502,542.463883 722.774085,547.13055 720.64552,554.5 C718.721886,548.306044 717.889988,543.972711 718.149825,541.5 C718.409662,539.027289 719.24156,535.860623 720.64552,532 C717.882367,533.927302 716.052191,535.427302 715.154992,536.5 C714.257792,537.572698 710.9302,542.239365 705.172213,550.5 C704.089711,544.184009 703.756951,539.684009 704.173935,537 C705.779948,526.662538 711.712989,519.372411 718.648964,515 C728.286214,508.924716 742.095725,508.25805 760.077496,513 C761.492866,505.888418 762.990283,501.388418 764.569746,499.5 C766.149209,497.611582 770.142321,495.111582 776.549081,492 Z" id="Line-4" fill="#279BCA" fill-rule="nonzero"></path>
            <path d="M776.549081,492 C770.086622,496.864257 766.093511,501.030924 764.569746,504.5 C763.045981,507.969076 762.879602,511.802409 764.070607,516 L766.067163,518.5 C750.427476,511.5 736.285207,510.333333 723.640353,515 C710.9955,519.666667 705.172213,530.166667 706.170491,546.5 C709.031149,540.746744 711.526844,536.746744 713.657575,534.5 C715.788305,532.253256 720.280556,529.253256 727.134326,525.5 C723.870115,529.515878 722.039939,532.515878 721.643798,534.5 C721.418374,535.629061 720.330756,538.525702 720.146381,541.5 C720.053293,543.001666 720.219673,545.501666 720.64552,549 C723.254824,540.60787 725.41776,535.60787 727.134326,534 C727.992658,533.196019 730.253722,530.250097 732.624854,529 C734.205428,528.166697 735.370086,528.166697 736.118827,529 C734.472402,530.091569 732.974985,532.258236 731.626576,535.5 C730.633434,537.887655 728.883983,543.034843 728.631743,549.5 C728.571589,551.041806 728.904348,553.37514 729.630021,556.5 C733.550077,547.492258 736.378531,542.158925 738.115383,540.5 C739.852234,538.841075 744.011725,536.841075 750.593856,534.5 C750.261097,547.5 754.919727,555.333333 764.569746,558 C772.874683,560.294969 784.753042,556.783716 796.015499,545.5 C796.865234,544.648662 796.400139,540.940153 798.012055,539 C798.475324,538.442394 799.473602,537.775727 801.006889,537 C799.901757,538.597872 799.236239,539.764539 799.010333,540.5 C798.784427,541.235461 798.784427,542.235461 799.010333,543.5 C800.367112,543.713627 801.36539,543.713627 802.005166,543.5 C802.644942,543.286373 803.64322,542.619707 805,541.5 C804.364834,542.828087 803.865695,543.66142 803.502583,544 C789.921122,556.663911 777.679579,561.535017 767.065441,560.5 C756.025637,559.423475 749.70321,551.923475 748.098161,538 C743.416592,539.637219 740.088999,541.637219 738.115383,544 C736.141766,546.362781 732.980553,552.696114 728.631743,563 C726.696331,555.811535 725.864433,550.811535 726.136048,548 C726.407664,545.188465 727.738701,540.188465 730.12916,533 C727.667835,536.036117 726.004038,538.536117 725.13777,540.5 C724.271502,542.463883 722.774085,547.13055 720.64552,554.5 C718.721886,548.306044 717.889988,543.972711 718.149825,541.5 C718.409662,539.027289 719.24156,535.860623 720.64552,532 C717.882367,533.927302 716.052191,535.427302 715.154992,536.5 C714.257792,537.572698 710.9302,542.239365 705.172213,550.5 C704.089711,544.184009 703.756951,539.684009 704.173935,537 C705.779948,526.662538 711.712989,519.372411 718.648964,515 C728.286214,508.924716 742.095725,508.25805 760.077496,513 C761.492866,505.888418 762.990283,501.388418 764.569746,499.5 C766.149209,497.611582 770.142321,495.111582 776.549081,492 Z" id="Line-4" fill="#00709D" fill-rule="nonzero"></path>
            <path d="M816.619155,615 L889.32615,687.673861 C897.014705,689.344524 901.694696,694.189448 903.366121,702.208633 C905.873259,714.23741 906.883284,724.093047 895.844708,750.323741 C892.743243,757.693675 880.233113,763.496849 874.283323,773.378897 C870.302029,779.991457 872.675204,794.480854 865.759055,809.465228 C864.063796,813.138138 858.213808,817.983062 848.20909,824 C844.94203,816.397276 843.103462,810.048754 842.693387,804.954436 C842.283313,799.860119 844.121881,791.172668 848.20909,778.892086 C843.919601,787.411292 840.743893,794.093945 838.681967,798.940048 C836.620041,803.78615 834.280046,812.139468 831.661981,824 C827.638932,817.117552 825.298937,812.272628 824.641996,809.465228 C822.670683,801.040937 823.074833,793.440041 823.639141,788.414868 C824.485531,780.877732 828.329809,775.364542 835.171974,771.8753 C828.823161,773.472196 824.477456,775.811125 822.134858,778.892086 C819.79226,781.973047 813.775129,792.665294 804.083466,810.968825 C799.972178,796.570614 799.972178,784.708903 804.083466,775.383693 C808.194754,766.058483 817.721878,757.705166 832.664836,750.323741 C834.336262,744.643485 836.007687,739.965627 837.679112,736.290168 C839.350537,732.614708 843.863385,725.932054 851.217656,716.242206 C837.177684,713.235012 825.644851,704.547562 816.619155,690.179856 C809.829588,679.371769 804.669569,655.451067 808.094887,632.541966 C808.846967,627.511926 811.68839,621.664604 816.619155,615 Z" id="Line-61" fill="#279BCA" fill-rule="nonzero"></path>
            <path d="M816.619155,615 C812.808557,626.272255 810.802847,635.460904 810.602024,642.565947 C810.218914,656.120258 813.417008,676.671174 816.619155,684.165468 C821.2008,694.888333 831.516578,705.752607 845.701953,711.731415 C848.051516,712.721701 851.561509,713.2229 856.231931,713.235012 C857.569071,709.559552 859.240497,707.220624 861.246207,706.218225 C863.251917,705.215827 867.597622,705.215827 874.283323,706.218225 C865.884859,707.442158 861.037726,708.945755 859.741924,710.729017 C859.280164,711.364484 860.697064,713.999094 858.739069,717.745803 C857.766386,719.607075 854.018464,718.282823 851.217656,720.752998 C845.53481,725.764988 840.18625,736.457234 835.171974,752.829736 C822.134858,757.507594 813.109162,764.357314 808.094887,773.378897 C803.080611,782.40048 802.077756,793.259792 805.086321,805.956835 C811.584026,791.470547 816.598301,782.114831 820.129148,777.889688 C823.06009,774.382413 829.709378,772.037601 837.679112,768.366906 C838.766607,767.866029 840.438033,765.360033 842.693387,760.848921 C843.785927,762.469479 843.785927,764.140142 842.693387,765.860911 C841.728047,767.38134 840.105988,770.560245 838.681967,771.8753 C834.34121,775.883902 829.036955,777.73602 827.149133,784.906475 C823.874811,797.343229 825.044809,808.536675 830.659126,818.486811 C834.953869,802.21684 838.965289,791.023395 842.693387,784.906475 C846.421486,778.789555 849.857023,773.777564 853,769.870504 C848.731644,783.310575 846.298961,792.165091 845.701953,796.434053 C845.299017,799.315277 844.342793,804.670981 845.701953,810.968825 C846.138378,812.991057 847.475518,816.165317 849.713373,820.491607 C857.121254,815.9823 861.634102,811.805641 863.251917,807.961631 C868.103489,796.434053 868.081161,778.805537 871.274758,773.378897 C876.289033,764.858513 881.390229,763.172435 884.311874,759.846523 C886.259637,757.629248 888.43249,755.791518 890.830432,754.333333 C891.649486,752.523583 892.652341,750.351721 893.838997,747.817746 C895.618982,744.016784 900.147493,736.706057 901.861838,726.767386 C903.576183,716.828715 902.238486,709.817048 901.360411,704.213429 C901.030458,702.107769 899.855871,697.424509 897.34899,694.189448 C896.055199,692.519846 893.380918,690.347983 889.32615,687.673861 C897.014705,689.344524 901.694696,694.189448 903.366121,702.208633 C905.873259,714.23741 906.883284,724.093047 895.844708,750.323741 C892.743243,757.693675 880.233113,763.496849 874.283323,773.378897 C870.302029,779.991457 872.675204,794.480854 865.759055,809.465228 C864.063796,813.138138 858.213808,817.983062 848.20909,824 C844.94203,816.397276 843.103462,810.048754 842.693387,804.954436 C842.283313,799.860119 844.121881,791.172668 848.20909,778.892086 C843.919601,787.411292 840.743893,794.093945 838.681967,798.940048 C836.620041,803.78615 834.280046,812.139468 831.661981,824 C827.638932,817.117552 825.298937,812.272628 824.641996,809.465228 C822.670683,801.040937 823.074833,793.440041 823.639141,788.414868 C824.485531,780.877732 828.329809,775.364542 835.171974,771.8753 C828.823161,773.472196 824.477456,775.811125 822.134858,778.892086 C819.79226,781.973047 813.775129,792.665294 804.083466,810.968825 C799.972178,796.570614 799.972178,784.708903 804.083466,775.383693 C808.194754,766.058483 817.721878,757.705166 832.664836,750.323741 C834.336262,744.643485 836.007687,739.965627 837.679112,736.290168 C839.350537,732.614708 843.863385,725.932054 851.217656,716.242206 C837.177684,713.235012 825.644851,704.547562 816.619155,690.179856 C809.829588,679.371769 804.669569,655.451067 808.094887,632.541966 C808.846967,627.511926 811.68839,621.664604 816.619155,615 Z" id="Line-61" fill="#00709D" fill-rule="nonzero"></path>
            <path d="M281.962188,521.15625 C284.423137,521.15625 286.337181,520.814457 287.704375,520.130859 C289.852823,519.056635 290.927031,517.123061 290.927031,514.330078 C290.927031,511.517564 289.784465,509.623052 287.499297,508.646484 C286.210228,508.099607 284.296185,507.826172 281.757109,507.826172 L271.356719,507.826172 L271.356719,521.15625 L281.962188,521.15625 Z M283.925078,541.019531 C287.499315,541.019531 290.048117,539.984385 291.571563,537.914062 C292.528599,536.605462 293.007109,535.023447 293.007109,533.167969 C293.007109,530.042953 291.610639,527.914068 288.817656,526.78125 C287.333274,526.175778 285.370403,525.873047 282.928984,525.873047 L271.356719,525.873047 L271.356719,541.019531 L283.925078,541.019531 Z M265.643828,502.962891 L284.130156,502.962891 C289.169244,502.962891 292.753192,504.466782 294.882109,507.474609 C296.132116,509.251962 296.757109,511.302723 296.757109,513.626953 C296.757109,516.34181 295.985633,518.568351 294.442656,520.306641 C293.641871,521.224614 292.489539,522.064449 290.985625,522.826172 C293.192667,523.66602 294.843041,524.613276 295.936797,525.667969 C297.8704,527.542978 298.837188,530.130843 298.837188,533.431641 C298.837188,536.205092 297.968056,538.714833 296.229766,540.960938 C293.632096,544.320329 289.501278,546 283.837188,546 L265.643828,546 L265.643828,502.962891 Z M324.706328,514.623047 L330.536406,514.623047 C329.794215,516.634776 328.143841,521.224574 325.585234,528.392578 C323.671162,533.78323 322.069616,538.177717 320.780547,541.576172 C317.733657,549.584024 315.585241,554.466788 314.335234,556.224609 C313.085228,557.982431 310.936812,558.861328 307.889922,558.861328 C307.147731,558.861328 306.576447,558.832032 306.176055,558.773438 C305.775662,558.714843 305.282503,558.607423 304.696563,558.451172 L304.696563,553.646484 C305.614536,553.900392 306.278592,554.05664 306.68875,554.115234 C307.098908,554.173828 307.460233,554.203125 307.772734,554.203125 C308.749302,554.203125 309.467068,554.041994 309.926055,553.719727 C310.385041,553.397459 310.77078,553.001955 311.083281,552.533203 C311.180938,552.376952 311.532497,551.576179 312.137969,550.130859 C312.743441,548.68554 313.182889,547.611332 313.456328,546.908203 L301.854766,514.623047 L307.831328,514.623047 L316.239531,540.169922 L324.706328,514.623047 Z M337.889922,515.033203 L344.012969,515.033203 L344.012969,521.419922 L337.889922,521.419922 L337.889922,515.033203 Z M337.889922,539.613281 L344.012969,539.613281 L344.012969,546 L337.889922,546 L337.889922,539.613281 Z M369.003203,502.962891 L377.352813,502.962891 L389.716094,539.349609 L401.991484,502.962891 L410.253203,502.962891 L410.253203,546 L404.716094,546 L404.716094,520.599609 C404.716094,519.720699 404.735625,518.265635 404.774688,516.234375 C404.81375,514.203115 404.833281,512.025402 404.833281,509.701172 L392.557891,546 L386.786406,546 L374.423125,509.701172 L374.423125,511.019531 C374.423125,512.074224 374.447539,513.680653 374.496367,515.838867 C374.545196,517.997081 374.569609,519.583979 374.569609,520.599609 L374.569609,546 L369.003203,546 L369.003203,502.962891 Z M437.968047,515.487305 C440.057901,516.532232 441.649682,517.884757 442.743438,519.544922 C443.79813,521.126961 444.501248,522.972646 444.852813,525.082031 C445.165314,526.527351 445.321563,528.832015 445.321563,531.996094 L422.323516,531.996094 C422.421172,535.179703 423.173118,537.733389 424.579375,539.657227 C425.985632,541.581064 428.163345,542.542969 431.112578,542.542969 C433.866498,542.542969 436.063742,541.634775 437.704375,539.818359 C438.64188,538.763667 439.305936,537.542976 439.696563,536.15625 L444.882109,536.15625 C444.74539,537.3086 444.291293,538.592766 443.519805,540.008789 C442.748316,541.424812 441.884067,542.582027 440.927031,543.480469 C439.325461,545.042977 437.343059,546.097654 434.979766,546.644531 C433.710228,546.957033 432.274696,547.113281 430.673125,547.113281 C426.766855,547.113281 423.456342,545.692397 420.741484,542.850586 C418.026627,540.008775 416.669219,536.029322 416.669219,530.912109 C416.669219,525.873022 418.036393,521.781266 420.770781,518.636719 C423.50517,515.492172 427.079353,513.919922 431.493438,513.919922 C433.720011,513.919922 435.878193,514.442378 437.968047,515.487305 Z M439.901641,527.806641 C439.686796,525.521473 439.188754,523.695319 438.4075,522.328125 C436.96218,519.78905 434.550095,518.519531 431.171172,518.519531 C428.749285,518.519531 426.718055,519.393546 425.077422,521.141602 C423.436789,522.889657 422.567657,525.111315 422.47,527.806641 L439.901641,527.806641 Z M454.872344,502.962891 L460.819609,502.962891 L460.819609,517.113281 L459.384063,535.746094 L456.395781,535.746094 L454.872344,517.113281 L454.872344,502.962891 Z M454.872344,539.90625 L460.702422,539.90625 L460.702422,546 L454.872344,546 L454.872344,539.90625 Z" id="By:-Me!" fill="#97946F"></path>
            <path d="M719,519.5 C723.635452,517.118986 728.635452,515.618986 734,515 C737.082395,514.644339 744.136723,514.076099 750.5,516 C753.640841,516.949616 758.307508,519.782949 764.5,524.5 C754.652579,521.084532 747.069245,519.084532 741.75,518.5 C736.430755,517.915468 728.847421,518.248801 719,519.5 Z" id="Line-63" fill="#36A8D7" fill-rule="nonzero"></path>
            <path d="M824.5,621.5 C837.806125,609.774801 837.806125,650 851.917967,667 C866.02981,684 890.924878,677.610751 878,689 C865.075122,700.389249 845,707.5 830,689 C815,670.5 811.193875,633.225199 824.5,621.5 Z" id="Line-64" fill="#36A8D7" fill-rule="nonzero"></path>
        </g>
    </g>
</svg>