<?xml version="1.0" encoding="UTF-8" standalone="no"?>
<!DOCTYPE svg PUBLIC "-//W3C//DTD SVG 1.1//EN" "http://www.w3.org/Graphics/SVG/1.1/DTD/svg11.dtd">
<svg width="100%" height="100%" viewBox="0 0 552 218" version="1.1" xmlns="http://www.w3.org/2000/svg" xmlns:xlink="http://www.w3.org/1999/xlink" xml:space="preserve" xmlns:serif="http://www.serif.com/" style="fill-rule:evenodd;clip-rule:evenodd;stroke-linejoin:round;stroke-miterlimit:1.41421;">
    <g id="Artboard1" transform="matrix(1.00967,0,0,1.01976,0,0)">
        <rect x="0" y="0" width="546.522" height="213.505" style="fill:none;"/>
        <g id="logo" transform="matrix(0.990426,0,0,0.980626,255.936,25.8835)">
            <g transform="matrix(1,0,0,1,-84,-24)">
                <clipPath id="_clip1">
                    <rect x="0" y="0" width="168" height="48"/>
                </clipPath>
                <g clip-path="url(#_clip1)">
                    <g id="logo1" serif:id="logo" transform="matrix(1.01104,0,0,1.00307,-225.406,-99.3043)">
                        <rect x="222.946" y="99" width="166.096" height="47.838" style="fill:none;"/>
                        <g transform="matrix(0.558123,0,0,0.476104,229.475,103.02)">
                            <g transform="matrix(2.61478,0,0,3.08957,-793.427,-201.717)">
                                <path d="M412.177,62.655C411.656,72.876 408.824,80.819 403.681,86.483C398.538,92.147 391.572,94.979 382.782,94.979C375.1,94.979 365.79,91.073 354.853,83.26C348.017,78.573 342.385,76.229 337.958,76.229C328.062,76.229 322.919,82.446 322.529,94.881L308.759,94.881C309.085,84.855 311.851,76.961 317.06,71.2C322.268,65.438 329.267,62.557 338.056,62.557C345.543,62.557 353.811,65.682 362.861,71.932C372.17,78.312 379.137,81.502 383.759,81.502C387.926,81.502 391.36,79.826 394.062,76.473C396.764,73.12 398.212,68.514 398.407,62.655L412.177,62.655Z" style="fill:rgb(150,150,150);fill-rule:nonzero;"/>
                            </g>
                            <g transform="matrix(2.61478,0,0,3.08957,-804.976,-201.717)">
                                <path d="M412.177,62.655C411.656,72.876 408.824,80.819 403.681,86.483C398.538,92.147 391.572,94.979 382.782,94.979C375.1,94.979 365.79,91.073 354.853,83.26C348.017,78.573 342.385,76.229 337.958,76.229C328.062,76.229 322.919,82.446 322.529,94.881L308.759,94.881C309.085,84.855 311.851,76.961 317.06,71.2C322.268,65.438 329.267,62.557 338.056,62.557C345.543,62.557 353.811,65.682 362.861,71.932C372.17,78.312 379.137,81.502 383.759,81.502C387.926,81.502 391.36,79.826 394.062,76.473C396.764,73.12 398.212,68.514 398.407,62.655L412.177,62.655Z" style="fill:rgb(217,217,217);fill-rule:nonzero;"/>
                            </g>
                            <g transform="matrix(2.61478,0,0,3.08957,-817.36,-201.717)">
                                <path d="M412.177,62.655C411.656,72.876 408.824,80.819 403.681,86.483C398.538,92.147 391.572,94.979 382.782,94.979C375.1,94.979 365.79,91.073 354.853,83.26C348.017,78.573 342.385,76.229 337.958,76.229C328.062,76.229 322.919,82.446 322.529,94.881L308.759,94.881C309.085,84.855 311.851,76.961 317.06,71.2C322.268,65.438 329.267,62.557 338.056,62.557C345.543,62.557 353.811,65.682 362.861,71.932C372.17,78.312 379.137,81.502 383.759,81.502C387.926,81.502 391.36,79.826 394.062,76.473C396.764,73.12 398.212,68.514 398.407,62.655L412.177,62.655Z" style="fill:white;fill-rule:nonzero;"/>
                            </g>
                        </g>
                    </g>
                </g>
            </g>
        </g>
        <g transform="matrix(6.04173,0,0,5.98196,-423.044,-509.505)">
            <path d="M70.992,101.279L75.06,101.279C75.756,101.279 76.298,101.475 76.686,101.867C77.074,102.259 77.268,102.779 77.268,103.427C77.268,103.747 77.226,104.019 77.142,104.243C77.058,104.467 76.946,104.651 76.806,104.795C76.666,104.939 76.502,105.045 76.314,105.113C76.126,105.181 75.924,105.219 75.708,105.227L75.708,105.299C75.908,105.299 76.118,105.335 76.338,105.407C76.558,105.479 76.76,105.593 76.944,105.749C77.128,105.905 77.282,106.107 77.406,106.355C77.53,106.603 77.592,106.907 77.592,107.267C77.592,107.595 77.538,107.905 77.43,108.197C77.322,108.489 77.172,108.743 76.98,108.959C76.788,109.175 76.56,109.345 76.296,109.469C76.032,109.593 75.744,109.655 75.432,109.655L70.992,109.655L70.992,101.279ZM72.816,108.119L74.916,108.119C75.156,108.119 75.346,108.053 75.486,107.921C75.626,107.789 75.696,107.603 75.696,107.363L75.696,106.955C75.696,106.715 75.626,106.529 75.486,106.397C75.346,106.265 75.156,106.199 74.916,106.199L72.816,106.199L72.816,108.119ZM72.816,104.711L74.628,104.711C74.868,104.711 75.056,104.643 75.192,104.507C75.328,104.371 75.396,104.183 75.396,103.943L75.396,103.583C75.396,103.343 75.328,103.155 75.192,103.019C75.056,102.883 74.868,102.815 74.628,102.815L72.816,102.815L72.816,104.711Z" style="fill:rgb(217,217,217);fill-rule:nonzero;"/>
            <path d="M83.976,109.655L83.376,107.663L80.58,107.663L79.98,109.655L78.132,109.655L80.892,101.279L83.148,101.279L85.872,109.655L83.976,109.655ZM81.996,102.935L81.936,102.935L81.012,106.115L82.932,106.115L81.996,102.935Z" style="fill:rgb(217,217,217);fill-rule:nonzero;"/>
            <path d="M89.748,109.799C89.012,109.799 88.388,109.673 87.876,109.421C87.364,109.169 86.928,108.842 86.568,108.442L87.768,107.228C88.336,107.862 89.036,108.179 89.868,108.179C90.316,108.179 90.648,108.088 90.864,107.906C91.08,107.724 91.188,107.482 91.188,107.18C91.188,106.951 91.124,106.758 90.996,106.604C90.868,106.449 90.608,106.344 90.216,106.289L89.388,106.182C88.5,106.07 87.85,105.801 87.438,105.377C87.026,104.952 86.82,104.388 86.82,103.683C86.82,103.306 86.892,102.962 87.036,102.649C87.18,102.337 87.386,102.069 87.654,101.844C87.922,101.62 88.25,101.446 88.638,101.322C89.026,101.198 89.468,101.135 89.964,101.135C90.596,101.135 91.152,101.236 91.632,101.436C92.112,101.636 92.524,101.929 92.868,102.313L91.656,103.539C91.456,103.31 91.214,103.122 90.93,102.975C90.646,102.829 90.288,102.755 89.856,102.755C89.448,102.755 89.144,102.827 88.944,102.969C88.744,103.112 88.644,103.31 88.644,103.563C88.644,103.848 88.722,104.054 88.878,104.181C89.034,104.307 89.288,104.398 89.64,104.454L90.468,104.586C91.332,104.722 91.972,104.988 92.388,105.385C92.804,105.781 93.012,106.344 93.012,107.073C93.012,107.473 92.94,107.841 92.796,108.178C92.652,108.514 92.442,108.802 92.166,109.043C91.89,109.283 91.548,109.469 91.14,109.601C90.732,109.733 90.268,109.799 89.748,109.799Z" style="fill:rgb(217,217,217);fill-rule:nonzero;"/>
            <path d="M99.54,106.223L96.348,106.223L96.348,109.655L94.524,109.655L94.524,101.279L96.348,101.279L96.348,104.603L99.54,104.603L99.54,101.279L101.364,101.279L101.364,109.655L99.54,109.655L99.54,106.223Z" style="fill:rgb(217,217,217);fill-rule:nonzero;"/>
            <path d="M106.044,109.655L106.044,101.279L111.6,101.279L111.6,102.899L107.868,102.899L107.868,104.603L111.048,104.603L111.048,106.223L107.868,106.223L107.868,109.655L106.044,109.655Z" style="fill:rgb(217,217,217);fill-rule:nonzero;"/>
            <path d="M113.064,109.655L113.064,101.279L118.764,101.279L118.764,102.899L114.888,102.899L114.888,104.603L118.212,104.603L118.212,106.223L114.888,106.223L114.888,108.035L118.764,108.035L118.764,109.655L113.064,109.655Z" style="fill:rgb(217,217,217);fill-rule:nonzero;"/>
            <path d="M123.06,109.799C122.324,109.799 121.7,109.673 121.188,109.421C120.676,109.169 120.24,108.842 119.88,108.442L121.08,107.228C121.648,107.862 122.348,108.179 123.18,108.179C123.628,108.179 123.96,108.088 124.176,107.906C124.392,107.724 124.5,107.482 124.5,107.18C124.5,106.951 124.436,106.758 124.308,106.604C124.18,106.449 123.92,106.344 123.528,106.289L122.7,106.182C121.812,106.07 121.162,105.801 120.75,105.377C120.338,104.952 120.132,104.388 120.132,103.683C120.132,103.306 120.204,102.962 120.348,102.649C120.492,102.337 120.698,102.069 120.966,101.844C121.234,101.62 121.562,101.446 121.95,101.322C122.338,101.198 122.78,101.135 123.276,101.135C123.908,101.135 124.464,101.236 124.944,101.436C125.424,101.636 125.836,101.929 126.18,102.313L124.968,103.539C124.768,103.31 124.526,103.122 124.242,102.975C123.958,102.829 123.6,102.755 123.168,102.755C122.76,102.755 122.456,102.827 122.256,102.969C122.056,103.112 121.956,103.31 121.956,103.563C121.956,103.848 122.034,104.054 122.19,104.181C122.346,104.307 122.6,104.398 122.952,104.454L123.78,104.586C124.644,104.722 125.284,104.988 125.7,105.385C126.116,105.781 126.324,106.344 126.324,107.073C126.324,107.473 126.252,107.841 126.108,108.178C125.964,108.514 125.754,108.802 125.478,109.043C125.202,109.283 124.86,109.469 124.452,109.601C124.044,109.733 123.58,109.799 123.06,109.799Z" style="fill:rgb(217,217,217);fill-rule:nonzero;"/>
            <path d="M131.052,102.899L131.052,109.655L129.228,109.655L129.228,102.899L126.96,102.899L126.96,101.279L133.32,101.279L133.32,102.899L131.052,102.899Z" style="fill:rgb(217,217,217);fill-rule:nonzero;"/>
            <path d="M134.196,109.655L134.196,108.203L135.276,108.203L135.276,102.731L134.196,102.731L134.196,101.279L138.18,101.279L138.18,102.731L137.1,102.731L137.1,108.203L138.18,108.203L138.18,109.655L134.196,109.655Z" style="fill:rgb(217,217,217);fill-rule:nonzero;"/>
            <path d="M141.648,109.655L138.948,101.279L140.796,101.279L142.044,105.299L142.704,107.927L142.74,107.927L143.376,105.299L144.624,101.279L146.412,101.279L143.688,109.655L141.648,109.655Z" style="fill:rgb(217,217,217);fill-rule:nonzero;"/>
            <path d="M152.016,109.655L151.416,107.663L148.62,107.663L148.02,109.655L146.172,109.655L148.932,101.279L151.188,101.279L153.912,109.655L152.016,109.655ZM150.036,102.935L149.976,102.935L149.052,106.115L150.972,106.115L150.036,102.935Z" style="fill:rgb(217,217,217);fill-rule:nonzero;"/>
            <path d="M155.076,109.655L155.076,101.279L156.9,101.279L156.9,108.035L160.092,108.035L160.092,109.655L155.076,109.655Z" style="fill:rgb(217,217,217);fill-rule:nonzero;"/>
        </g>
        <g transform="matrix(6.04173,0,0,5.98196,-426.015,-509.505)">
            <path d="M70.992,101.279L75.06,101.279C75.756,101.279 76.298,101.475 76.686,101.867C77.074,102.259 77.268,102.779 77.268,103.427C77.268,103.747 77.226,104.019 77.142,104.243C77.058,104.467 76.946,104.651 76.806,104.795C76.666,104.939 76.502,105.045 76.314,105.113C76.126,105.181 75.924,105.219 75.708,105.227L75.708,105.299C75.908,105.299 76.118,105.335 76.338,105.407C76.558,105.479 76.76,105.593 76.944,105.749C77.128,105.905 77.282,106.107 77.406,106.355C77.53,106.603 77.592,106.907 77.592,107.267C77.592,107.595 77.538,107.905 77.43,108.197C77.322,108.489 77.172,108.743 76.98,108.959C76.788,109.175 76.56,109.345 76.296,109.469C76.032,109.593 75.744,109.655 75.432,109.655L70.992,109.655L70.992,101.279ZM72.816,108.119L74.916,108.119C75.156,108.119 75.346,108.053 75.486,107.921C75.626,107.789 75.696,107.603 75.696,107.363L75.696,106.955C75.696,106.715 75.626,106.529 75.486,106.397C75.346,106.265 75.156,106.199 74.916,106.199L72.816,106.199L72.816,108.119ZM72.816,104.711L74.628,104.711C74.868,104.711 75.056,104.643 75.192,104.507C75.328,104.371 75.396,104.183 75.396,103.943L75.396,103.583C75.396,103.343 75.328,103.155 75.192,103.019C75.056,102.883 74.868,102.815 74.628,102.815L72.816,102.815L72.816,104.711Z" style="fill:white;fill-rule:nonzero;"/>
            <path d="M83.976,109.655L83.376,107.663L80.58,107.663L79.98,109.655L78.132,109.655L80.892,101.279L83.148,101.279L85.872,109.655L83.976,109.655ZM81.996,102.935L81.936,102.935L81.012,106.115L82.932,106.115L81.996,102.935Z" style="fill:white;fill-rule:nonzero;"/>
            <path d="M89.748,109.799C89.012,109.799 88.388,109.673 87.876,109.421C87.364,109.169 86.928,108.842 86.568,108.442L87.768,107.228C88.336,107.862 89.036,108.179 89.868,108.179C90.316,108.179 90.648,108.088 90.864,107.906C91.08,107.724 91.188,107.482 91.188,107.18C91.188,106.951 91.124,106.758 90.996,106.604C90.868,106.449 90.608,106.344 90.216,106.289L89.388,106.182C88.5,106.07 87.85,105.801 87.438,105.377C87.026,104.952 86.82,104.388 86.82,103.683C86.82,103.306 86.892,102.962 87.036,102.649C87.18,102.337 87.386,102.069 87.654,101.844C87.922,101.62 88.25,101.446 88.638,101.322C89.026,101.198 89.468,101.135 89.964,101.135C90.596,101.135 91.152,101.236 91.632,101.436C92.112,101.636 92.524,101.929 92.868,102.313L91.656,103.539C91.456,103.31 91.214,103.122 90.93,102.975C90.646,102.829 90.288,102.755 89.856,102.755C89.448,102.755 89.144,102.827 88.944,102.969C88.744,103.112 88.644,103.31 88.644,103.563C88.644,103.848 88.722,104.054 88.878,104.181C89.034,104.307 89.288,104.398 89.64,104.454L90.468,104.586C91.332,104.722 91.972,104.988 92.388,105.385C92.804,105.781 93.012,106.344 93.012,107.073C93.012,107.473 92.94,107.841 92.796,108.178C92.652,108.514 92.442,108.802 92.166,109.043C91.89,109.283 91.548,109.469 91.14,109.601C90.732,109.733 90.268,109.799 89.748,109.799Z" style="fill:white;fill-rule:nonzero;"/>
            <path d="M99.54,106.223L96.348,106.223L96.348,109.655L94.524,109.655L94.524,101.279L96.348,101.279L96.348,104.603L99.54,104.603L99.54,101.279L101.364,101.279L101.364,109.655L99.54,109.655L99.54,106.223Z" style="fill:white;fill-rule:nonzero;"/>
            <path d="M106.044,109.655L106.044,101.279L111.6,101.279L111.6,102.899L107.868,102.899L107.868,104.603L111.048,104.603L111.048,106.223L107.868,106.223L107.868,109.655L106.044,109.655Z" style="fill:white;fill-rule:nonzero;"/>
            <path d="M113.064,109.655L113.064,101.279L118.764,101.279L118.764,102.899L114.888,102.899L114.888,104.603L118.212,104.603L118.212,106.223L114.888,106.223L114.888,108.035L118.764,108.035L118.764,109.655L113.064,109.655Z" style="fill:white;fill-rule:nonzero;"/>
            <path d="M123.06,109.799C122.324,109.799 121.7,109.673 121.188,109.421C120.676,109.169 120.24,108.842 119.88,108.442L121.08,107.228C121.648,107.862 122.348,108.179 123.18,108.179C123.628,108.179 123.96,108.088 124.176,107.906C124.392,107.724 124.5,107.482 124.5,107.18C124.5,106.951 124.436,106.758 124.308,106.604C124.18,106.449 123.92,106.344 123.528,106.289L122.7,106.182C121.812,106.07 121.162,105.801 120.75,105.377C120.338,104.952 120.132,104.388 120.132,103.683C120.132,103.306 120.204,102.962 120.348,102.649C120.492,102.337 120.698,102.069 120.966,101.844C121.234,101.62 121.562,101.446 121.95,101.322C122.338,101.198 122.78,101.135 123.276,101.135C123.908,101.135 124.464,101.236 124.944,101.436C125.424,101.636 125.836,101.929 126.18,102.313L124.968,103.539C124.768,103.31 124.526,103.122 124.242,102.975C123.958,102.829 123.6,102.755 123.168,102.755C122.76,102.755 122.456,102.827 122.256,102.969C122.056,103.112 121.956,103.31 121.956,103.563C121.956,103.848 122.034,104.054 122.19,104.181C122.346,104.307 122.6,104.398 122.952,104.454L123.78,104.586C124.644,104.722 125.284,104.988 125.7,105.385C126.116,105.781 126.324,106.344 126.324,107.073C126.324,107.473 126.252,107.841 126.108,108.178C125.964,108.514 125.754,108.802 125.478,109.043C125.202,109.283 124.86,109.469 124.452,109.601C124.044,109.733 123.58,109.799 123.06,109.799Z" style="fill:white;fill-rule:nonzero;"/>
            <path d="M131.052,102.899L131.052,109.655L129.228,109.655L129.228,102.899L126.96,102.899L126.96,101.279L133.32,101.279L133.32,102.899L131.052,102.899Z" style="fill:white;fill-rule:nonzero;"/>
            <path d="M134.196,109.655L134.196,108.203L135.276,108.203L135.276,102.731L134.196,102.731L134.196,101.279L138.18,101.279L138.18,102.731L137.1,102.731L137.1,108.203L138.18,108.203L138.18,109.655L134.196,109.655Z" style="fill:white;fill-rule:nonzero;"/>
            <path d="M141.648,109.655L138.948,101.279L140.796,101.279L142.044,105.299L142.704,107.927L142.74,107.927L143.376,105.299L144.624,101.279L146.412,101.279L143.688,109.655L141.648,109.655Z" style="fill:white;fill-rule:nonzero;"/>
            <path d="M152.016,109.655L151.416,107.663L148.62,107.663L148.02,109.655L146.172,109.655L148.932,101.279L151.188,101.279L153.912,109.655L152.016,109.655ZM150.036,102.935L149.976,102.935L149.052,106.115L150.972,106.115L150.036,102.935Z" style="fill:white;fill-rule:nonzero;"/>
            <path d="M155.076,109.655L155.076,101.279L156.9,101.279L156.9,108.035L160.092,108.035L160.092,109.655L155.076,109.655Z" style="fill:white;fill-rule:nonzero;"/>
        </g>
        <g transform="matrix(1.54388,0,0,1.5286,-180.433,-139.749)">
            <path d="M124.748,211.585L123.992,209.317L120.86,209.317L120.128,211.585L118.748,211.585L121.604,203.209L123.308,203.209L126.164,211.585L124.748,211.585ZM122.456,204.457L122.396,204.457L121.184,208.153L123.656,208.153L122.456,204.457Z" style="fill:white;fill-rule:nonzero;"/>
            <path d="M130.532,211.585L130.532,203.209L135.764,203.209L135.764,204.409L131.888,204.409L131.888,206.737L135.332,206.737L135.332,207.937L131.888,207.937L131.888,211.585L130.532,211.585Z" style="fill:white;fill-rule:nonzero;"/>
            <path d="M138.848,211.585L137.492,211.585L137.492,203.209L141.104,203.209C141.856,203.209 142.448,203.435 142.88,203.887C143.312,204.339 143.528,204.953 143.528,205.729C143.528,206.329 143.39,206.827 143.114,207.223C142.838,207.619 142.432,207.897 141.896,208.057L143.708,211.585L142.196,211.585L140.516,208.201L138.848,208.201L138.848,211.585ZM141.008,207.061C141.352,207.061 141.62,206.972 141.812,206.793C142.004,206.613 142.1,206.357 142.1,206.022L142.1,205.449C142.1,205.114 142.004,204.857 141.812,204.678C141.62,204.499 141.352,204.409 141.008,204.409L138.848,204.409L138.848,207.061L141.008,207.061Z" style="fill:white;fill-rule:nonzero;"/>
            <path d="M145.472,211.585L145.472,203.209L150.836,203.209L150.836,204.409L146.828,204.409L146.828,206.737L150.464,206.737L150.464,207.937L146.828,207.937L146.828,210.385L150.836,210.385L150.836,211.585L145.472,211.585Z" style="fill:white;fill-rule:nonzero;"/>
            <path d="M152.708,211.585L152.708,203.209L158.072,203.209L158.072,204.409L154.064,204.409L154.064,206.737L157.7,206.737L157.7,207.937L154.064,207.937L154.064,210.385L158.072,210.385L158.072,211.585L152.708,211.585Z" style="fill:white;fill-rule:nonzero;"/>
            <path d="M164.132,211.585L162.152,203.209L163.532,203.209L164.384,207.241L164.972,210.025L165.008,210.025L165.68,207.241L166.676,203.209L168.188,203.209L169.172,207.241L169.832,210.013L169.868,210.013L170.48,207.241L171.356,203.209L172.688,203.209L170.624,211.585L169.1,211.585L168.032,207.253L167.408,204.709L167.384,204.709L166.748,207.253L165.656,211.585L164.132,211.585Z" style="fill:white;fill-rule:nonzero;"/>
            <path d="M174.128,211.585L174.128,203.209L179.492,203.209L179.492,204.409L175.484,204.409L175.484,206.737L179.12,206.737L179.12,207.937L175.484,207.937L175.484,210.385L179.492,210.385L179.492,211.585L174.128,211.585Z" style="fill:white;fill-rule:nonzero;"/>
            <path d="M181.364,211.585L181.364,203.209L186.728,203.209L186.728,204.409L182.72,204.409L182.72,206.737L186.356,206.737L186.356,207.937L182.72,207.937L182.72,210.385L186.728,210.385L186.728,211.585L181.364,211.585Z" style="fill:white;fill-rule:nonzero;"/>
            <path d="M191.108,207.673L189.956,208.993L189.956,211.585L188.6,211.585L188.6,203.209L189.956,203.209L189.956,207.457L190.004,207.457L191.204,205.933L193.46,203.209L195.044,203.209L192.056,206.737L195.284,211.585L193.652,211.585L191.108,207.673Z" style="fill:white;fill-rule:nonzero;"/>
            <rect x="195.74" y="207.265" width="3.324" height="1.332" style="fill:white;fill-rule:nonzero;"/>
            <path d="M200.96,211.585L200.96,203.209L202.316,203.209L202.316,210.385L205.724,210.385L205.724,211.585L200.96,211.585Z" style="fill:white;fill-rule:nonzero;"/>
            <path d="M210.068,211.729C209.524,211.729 209.03,211.635 208.586,211.447C208.142,211.259 207.762,210.983 207.446,210.619C207.13,210.255 206.886,209.803 206.714,209.263C206.542,208.723 206.456,208.101 206.456,207.397C206.456,206.693 206.542,206.071 206.714,205.531C206.886,204.991 207.13,204.539 207.446,204.175C207.762,203.811 208.142,203.535 208.586,203.347C209.03,203.159 209.524,203.065 210.068,203.065C210.612,203.065 211.106,203.159 211.55,203.347C211.994,203.535 212.374,203.811 212.69,204.175C213.006,204.539 213.25,204.991 213.422,205.531C213.594,206.071 213.68,206.693 213.68,207.397C213.68,208.101 213.594,208.723 213.422,209.263C213.25,209.803 213.006,210.255 212.69,210.619C212.374,210.983 211.994,211.259 211.55,211.447C211.106,211.635 210.612,211.729 210.068,211.729ZM210.068,210.529C210.388,210.529 210.682,210.473 210.95,210.361C211.218,210.248 211.446,210.086 211.634,209.873C211.822,209.66 211.968,209.401 212.072,209.096C212.176,208.791 212.228,208.445 212.228,208.06L212.228,206.735C212.228,206.349 212.176,206.004 212.072,205.699C211.968,205.394 211.822,205.135 211.634,204.922C211.446,204.709 211.218,204.546 210.95,204.434C210.682,204.322 210.388,204.265 210.068,204.265C209.74,204.265 209.444,204.322 209.18,204.434C208.916,204.546 208.69,204.709 208.502,204.922C208.314,205.135 208.168,205.394 208.064,205.699C207.96,206.004 207.908,206.349 207.908,206.735L207.908,208.06C207.908,208.445 207.96,208.791 208.064,209.096C208.168,209.401 208.314,209.66 208.502,209.873C208.69,210.086 208.916,210.248 209.18,210.361C209.444,210.473 209.74,210.529 210.068,210.529Z" style="fill:white;fill-rule:nonzero;"/>
            <path d="M217.748,206.953L216.824,205.177L216.788,205.177L216.788,211.585L215.492,211.585L215.492,203.209L217.004,203.209L219.74,207.841L220.664,209.617L220.7,209.617L220.7,203.209L221.996,203.209L221.996,211.585L220.484,211.585L217.748,206.953Z" style="fill:white;fill-rule:nonzero;"/>
            <path d="M229.568,210.325L229.52,210.325C229.432,210.729 229.194,211.065 228.806,211.331C228.418,211.596 227.904,211.729 227.264,211.729C226.768,211.729 226.308,211.635 225.884,211.447C225.46,211.259 225.094,210.983 224.786,210.619C224.478,210.255 224.238,209.803 224.066,209.263C223.894,208.723 223.808,208.101 223.808,207.397C223.808,206.701 223.896,206.083 224.072,205.543C224.248,205.003 224.496,204.549 224.816,204.181C225.136,203.813 225.52,203.535 225.968,203.347C226.416,203.159 226.916,203.065 227.468,203.065C228.22,203.065 228.856,203.231 229.376,203.562C229.896,203.893 230.3,204.354 230.588,204.945L229.484,205.591C229.324,205.197 229.076,204.878 228.74,204.633C228.404,204.388 227.98,204.265 227.468,204.265C226.804,204.265 226.27,204.478 225.866,204.904C225.462,205.329 225.26,205.932 225.26,206.711L225.26,208.084C225.26,208.863 225.462,209.465 225.866,209.891C226.27,210.317 226.804,210.529 227.468,210.529C227.732,210.529 227.984,210.495 228.224,210.427C228.464,210.358 228.674,210.258 228.854,210.125C229.034,209.992 229.178,209.828 229.286,209.631C229.394,209.433 229.448,209.202 229.448,208.937L229.448,208.285L227.72,208.285L227.72,207.121L230.756,207.121L230.756,211.585L229.568,211.585L229.568,210.325Z" style="fill:white;fill-rule:nonzero;"/>
            <path d="M238.856,211.729C237.76,211.729 236.9,211.359 236.276,210.619C235.652,209.879 235.34,208.805 235.34,207.397C235.34,206.693 235.42,206.073 235.58,205.537C235.74,205.001 235.972,204.549 236.276,204.181C236.58,203.813 236.95,203.535 237.386,203.347C237.822,203.159 238.312,203.065 238.856,203.065C239.584,203.065 240.194,203.224 240.686,203.541C241.178,203.857 241.564,204.327 241.844,204.949L240.704,205.573C240.56,205.173 240.338,204.855 240.038,204.619C239.738,204.383 239.344,204.265 238.856,204.265C238.208,204.265 237.7,204.486 237.332,204.928C236.964,205.37 236.78,205.98 236.78,206.759L236.78,208.036C236.78,208.815 236.964,209.425 237.332,209.867C237.7,210.308 238.208,210.529 238.856,210.529C239.36,210.529 239.77,210.399 240.086,210.139C240.402,209.879 240.636,209.545 240.788,209.137L241.88,209.797C241.6,210.404 241.208,210.878 240.704,211.218C240.2,211.559 239.584,211.729 238.856,211.729Z" style="fill:white;fill-rule:nonzero;"/>
            <path d="M246.524,211.729C245.98,211.729 245.486,211.635 245.042,211.447C244.598,211.259 244.218,210.983 243.902,210.619C243.586,210.255 243.342,209.803 243.17,209.263C242.998,208.723 242.912,208.101 242.912,207.397C242.912,206.693 242.998,206.071 243.17,205.531C243.342,204.991 243.586,204.539 243.902,204.175C244.218,203.811 244.598,203.535 245.042,203.347C245.486,203.159 245.98,203.065 246.524,203.065C247.068,203.065 247.562,203.159 248.006,203.347C248.45,203.535 248.83,203.811 249.146,204.175C249.462,204.539 249.706,204.991 249.878,205.531C250.05,206.071 250.136,206.693 250.136,207.397C250.136,208.101 250.05,208.723 249.878,209.263C249.706,209.803 249.462,210.255 249.146,210.619C248.83,210.983 248.45,211.259 248.006,211.447C247.562,211.635 247.068,211.729 246.524,211.729ZM246.524,210.529C246.844,210.529 247.138,210.473 247.406,210.361C247.674,210.248 247.902,210.086 248.09,209.873C248.278,209.66 248.424,209.401 248.528,209.096C248.632,208.791 248.684,208.445 248.684,208.06L248.684,206.735C248.684,206.349 248.632,206.004 248.528,205.699C248.424,205.394 248.278,205.135 248.09,204.922C247.902,204.709 247.674,204.546 247.406,204.434C247.138,204.322 246.844,204.265 246.524,204.265C246.196,204.265 245.9,204.322 245.636,204.434C245.372,204.546 245.146,204.709 244.958,204.922C244.77,205.135 244.624,205.394 244.52,205.699C244.416,206.004 244.364,206.349 244.364,206.735L244.364,208.06C244.364,208.445 244.416,208.791 244.52,209.096C244.624,209.401 244.77,209.66 244.958,209.873C245.146,210.086 245.372,210.248 245.636,210.361C245.9,210.473 246.196,210.529 246.524,210.529Z" style="fill:white;fill-rule:nonzero;"/>
            <path d="M251.948,203.209L254.912,203.209C255.448,203.209 255.934,203.297 256.37,203.473C256.806,203.649 257.178,203.911 257.486,204.259C257.794,204.607 258.032,205.043 258.2,205.567C258.368,206.091 258.452,206.701 258.452,207.397C258.452,208.093 258.368,208.703 258.2,209.227C258.032,209.751 257.794,210.187 257.486,210.535C257.178,210.883 256.806,211.145 256.37,211.321C255.934,211.497 255.448,211.585 254.912,211.585L251.948,211.585L251.948,203.209ZM254.912,210.385C255.536,210.385 256.04,210.189 256.424,209.797C256.808,209.405 257,208.829 257,208.069L257,206.725C257,205.965 256.808,205.389 256.424,204.997C256.04,204.605 255.536,204.409 254.912,204.409L253.304,204.409L253.304,210.385L254.912,210.385Z" style="fill:white;fill-rule:nonzero;"/>
            <path d="M259.904,211.585L259.904,210.481L261.044,210.481L261.044,204.313L259.904,204.313L259.904,203.209L263.552,203.209L263.552,204.313L262.4,204.313L262.4,210.481L263.552,210.481L263.552,211.585L259.904,211.585Z" style="fill:white;fill-rule:nonzero;"/>
            <path d="M267.632,206.953L266.708,205.177L266.672,205.177L266.672,211.585L265.376,211.585L265.376,203.209L266.888,203.209L269.624,207.841L270.548,209.617L270.584,209.617L270.584,203.209L271.88,203.209L271.88,211.585L270.368,211.585L267.632,206.953Z" style="fill:white;fill-rule:nonzero;"/>
            <path d="M279.452,210.325L279.404,210.325C279.316,210.729 279.078,211.065 278.69,211.331C278.302,211.596 277.788,211.729 277.148,211.729C276.652,211.729 276.192,211.635 275.768,211.447C275.344,211.259 274.978,210.983 274.67,210.619C274.362,210.255 274.122,209.803 273.95,209.263C273.778,208.723 273.692,208.101 273.692,207.397C273.692,206.701 273.78,206.083 273.956,205.543C274.132,205.003 274.38,204.549 274.7,204.181C275.02,203.813 275.404,203.535 275.852,203.347C276.3,203.159 276.8,203.065 277.352,203.065C278.104,203.065 278.74,203.231 279.26,203.562C279.78,203.893 280.184,204.354 280.472,204.945L279.368,205.591C279.208,205.197 278.96,204.878 278.624,204.633C278.288,204.388 277.864,204.265 277.352,204.265C276.688,204.265 276.154,204.478 275.75,204.904C275.346,205.329 275.144,205.932 275.144,206.711L275.144,208.084C275.144,208.863 275.346,209.465 275.75,209.891C276.154,210.317 276.688,210.529 277.352,210.529C277.616,210.529 277.868,210.495 278.108,210.427C278.348,210.358 278.558,210.258 278.738,210.125C278.918,209.992 279.062,209.828 279.17,209.631C279.278,209.433 279.332,209.202 279.332,208.937L279.332,208.285L277.604,208.285L277.604,207.121L280.64,207.121L280.64,211.585L279.452,211.585L279.452,210.325Z" style="fill:white;fill-rule:nonzero;"/>
            <path d="M285.596,211.585L285.596,203.209L290.828,203.209L290.828,204.409L286.952,204.409L286.952,206.737L290.396,206.737L290.396,207.937L286.952,207.937L286.952,211.585L285.596,211.585Z" style="fill:white;fill-rule:nonzero;"/>
            <path d="M292.556,211.585L292.556,203.209L297.92,203.209L297.92,204.409L293.912,204.409L293.912,206.737L297.548,206.737L297.548,207.937L293.912,207.937L293.912,210.385L297.92,210.385L297.92,211.585L292.556,211.585Z" style="fill:white;fill-rule:nonzero;"/>
            <path d="M302.3,211.729C301.596,211.729 300.998,211.601 300.506,211.345C300.014,211.089 299.592,210.745 299.24,210.313L300.176,209.437C300.472,209.797 300.798,210.069 301.154,210.253C301.51,210.437 301.916,210.529 302.372,210.529C302.908,210.529 303.312,210.409 303.584,210.169C303.856,209.929 303.992,209.605 303.992,209.197C303.992,208.869 303.896,208.609 303.704,208.417C303.512,208.225 303.172,208.081 302.684,207.985L301.94,207.853C301.124,207.701 300.512,207.433 300.104,207.049C299.696,206.665 299.492,206.137 299.492,205.465C299.492,205.097 299.562,204.763 299.702,204.463C299.842,204.163 300.038,203.911 300.29,203.707C300.542,203.503 300.848,203.345 301.208,203.233C301.568,203.121 301.972,203.065 302.42,203.065C303.052,203.065 303.6,203.175 304.064,203.395C304.528,203.615 304.924,203.933 305.252,204.349L304.304,205.189C304.088,204.909 303.824,204.685 303.512,204.517C303.2,204.349 302.812,204.265 302.348,204.265C301.868,204.265 301.496,204.361 301.232,204.553C300.968,204.745 300.836,205.025 300.836,205.393C300.836,205.745 300.944,206.007 301.16,206.179C301.376,206.351 301.712,206.481 302.168,206.569L302.912,206.725C303.752,206.885 304.366,207.157 304.754,207.541C305.142,207.925 305.336,208.453 305.336,209.125C305.336,209.517 305.268,209.873 305.132,210.193C304.996,210.513 304.798,210.787 304.538,211.015C304.278,211.243 303.96,211.419 303.584,211.543C303.208,211.667 302.78,211.729 302.3,211.729Z" style="fill:white;fill-rule:nonzero;"/>
            <path d="M309.992,204.409L309.992,211.585L308.636,211.585L308.636,204.409L306.14,204.409L306.14,203.209L312.488,203.209L312.488,204.409L309.992,204.409Z" style="fill:white;fill-rule:nonzero;"/>
            <path d="M313.496,211.585L313.496,210.481L314.636,210.481L314.636,204.313L313.496,204.313L313.496,203.209L317.144,203.209L317.144,204.313L315.992,204.313L315.992,210.481L317.144,210.481L317.144,211.585L313.496,211.585Z" style="fill:white;fill-rule:nonzero;"/>
            <path d="M320.9,211.585L318.152,203.209L319.556,203.209L320.888,207.349L321.692,210.265L321.74,210.265L322.556,207.349L323.888,203.209L325.256,203.209L322.472,211.585L320.9,211.585Z" style="fill:white;fill-rule:nonzero;"/>
            <path d="M331.292,211.585L330.536,209.317L327.404,209.317L326.672,211.585L325.292,211.585L328.148,203.209L329.852,203.209L332.708,211.585L331.292,211.585ZM329,204.457L328.94,204.457L327.728,208.153L330.2,208.153L329,204.457Z" style="fill:white;fill-rule:nonzero;"/>
            <path d="M334.124,211.585L334.124,203.209L335.48,203.209L335.48,210.385L338.888,210.385L338.888,211.585L334.124,211.585Z" style="fill:white;fill-rule:nonzero;"/>
            <path d="M343.352,211.585L343.352,203.209L348.584,203.209L348.584,204.409L344.708,204.409L344.708,206.737L348.152,206.737L348.152,207.937L344.708,207.937L344.708,211.585L343.352,211.585Z" style="fill:white;fill-rule:nonzero;"/>
            <path d="M353.276,211.729C352.732,211.729 352.238,211.635 351.794,211.447C351.35,211.259 350.97,210.983 350.654,210.619C350.338,210.255 350.094,209.803 349.922,209.263C349.75,208.723 349.664,208.101 349.664,207.397C349.664,206.693 349.75,206.071 349.922,205.531C350.094,204.991 350.338,204.539 350.654,204.175C350.97,203.811 351.35,203.535 351.794,203.347C352.238,203.159 352.732,203.065 353.276,203.065C353.82,203.065 354.314,203.159 354.758,203.347C355.202,203.535 355.582,203.811 355.898,204.175C356.214,204.539 356.458,204.991 356.63,205.531C356.802,206.071 356.888,206.693 356.888,207.397C356.888,208.101 356.802,208.723 356.63,209.263C356.458,209.803 356.214,210.255 355.898,210.619C355.582,210.983 355.202,211.259 354.758,211.447C354.314,211.635 353.82,211.729 353.276,211.729ZM353.276,210.529C353.596,210.529 353.89,210.473 354.158,210.361C354.426,210.248 354.654,210.086 354.842,209.873C355.03,209.66 355.176,209.401 355.28,209.096C355.384,208.791 355.436,208.445 355.436,208.06L355.436,206.735C355.436,206.349 355.384,206.004 355.28,205.699C355.176,205.394 355.03,205.135 354.842,204.922C354.654,204.709 354.426,204.546 354.158,204.434C353.89,204.322 353.596,204.265 353.276,204.265C352.948,204.265 352.652,204.322 352.388,204.434C352.124,204.546 351.898,204.709 351.71,204.922C351.522,205.135 351.376,205.394 351.272,205.699C351.168,206.004 351.116,206.349 351.116,206.735L351.116,208.06C351.116,208.445 351.168,208.791 351.272,209.096C351.376,209.401 351.522,209.66 351.71,209.873C351.898,210.086 352.124,210.248 352.388,210.361C352.652,210.473 352.948,210.529 353.276,210.529Z" style="fill:white;fill-rule:nonzero;"/>
            <path d="M360.056,211.585L358.7,211.585L358.7,203.209L362.312,203.209C363.064,203.209 363.656,203.435 364.088,203.887C364.52,204.339 364.736,204.953 364.736,205.729C364.736,206.329 364.598,206.827 364.322,207.223C364.046,207.619 363.64,207.897 363.104,208.057L364.916,211.585L363.404,211.585L361.724,208.201L360.056,208.201L360.056,211.585ZM362.216,207.061C362.56,207.061 362.828,206.972 363.02,206.793C363.212,206.613 363.308,206.357 363.308,206.022L363.308,205.449C363.308,205.114 363.212,204.857 363.02,204.678C362.828,204.499 362.56,204.409 362.216,204.409L360.056,204.409L360.056,207.061L362.216,207.061Z" style="fill:white;fill-rule:nonzero;"/>
            <path d="M369.656,211.585L369.656,210.457L372.008,210.457L372.008,204.193L371.912,204.193L369.968,206.269L369.14,205.525L371.276,203.209L373.34,203.209L373.34,210.457L375.38,210.457L375.38,211.585L369.656,211.585Z" style="fill:white;fill-rule:nonzero;"/>
            <path d="M379.064,206.653C379.584,206.653 379.968,206.543 380.216,206.323C380.464,206.103 380.588,205.821 380.588,205.477L380.588,205.393C380.588,205.009 380.468,204.715 380.228,204.511C379.988,204.307 379.664,204.205 379.256,204.205C378.856,204.205 378.516,204.295 378.236,204.475C377.956,204.655 377.72,204.905 377.528,205.225L376.628,204.445C376.756,204.261 376.9,204.085 377.06,203.917C377.22,203.749 377.408,203.603 377.624,203.479C377.84,203.355 378.084,203.255 378.356,203.179C378.628,203.103 378.94,203.065 379.292,203.065C379.684,203.065 380.048,203.113 380.384,203.209C380.72,203.305 381.008,203.447 381.248,203.635C381.488,203.823 381.676,204.051 381.812,204.319C381.948,204.587 382.016,204.889 382.016,205.225C382.016,205.489 381.974,205.729 381.89,205.945C381.806,206.161 381.69,206.351 381.542,206.515C381.394,206.679 381.222,206.813 381.026,206.917C380.83,207.021 380.624,207.097 380.408,207.145L380.408,207.205C380.648,207.253 380.874,207.331 381.086,207.439C381.298,207.547 381.484,207.687 381.644,207.859C381.804,208.031 381.93,208.235 382.022,208.471C382.114,208.707 382.16,208.977 382.16,209.281C382.16,209.649 382.088,209.983 381.944,210.283C381.8,210.583 381.598,210.841 381.338,211.057C381.078,211.273 380.764,211.439 380.396,211.555C380.028,211.671 379.62,211.729 379.172,211.729C378.78,211.729 378.436,211.687 378.14,211.603C377.844,211.519 377.582,211.407 377.354,211.267C377.126,211.127 376.926,210.967 376.754,210.787C376.582,210.607 376.432,210.421 376.304,210.229L377.3,209.449C377.404,209.617 377.514,209.771 377.63,209.911C377.746,210.051 377.878,210.171 378.026,210.271C378.174,210.371 378.342,210.449 378.53,210.505C378.718,210.561 378.932,210.589 379.172,210.589C379.684,210.589 380.076,210.467 380.348,210.223C380.62,209.979 380.756,209.641 380.756,209.209L380.756,209.125C380.756,208.693 380.612,208.365 380.324,208.141C380.036,207.917 379.628,207.805 379.1,207.805L378.212,207.805L378.212,206.653L379.064,206.653Z" style="fill:white;fill-rule:nonzero;"/>
            <rect x="383.984" y="207.265" width="3.324" height="1.332" style="fill:white;fill-rule:nonzero;"/>
            <path d="M389.228,211.585L389.228,210.457L391.58,210.457L391.58,204.193L391.484,204.193L389.54,206.269L388.712,205.525L390.848,203.209L392.912,203.209L392.912,210.457L394.952,210.457L394.952,211.585L389.228,211.585Z" style="fill:white;fill-rule:nonzero;"/>
            <path d="M397.544,211.585L400.58,204.325L397.412,204.325L397.412,205.873L396.248,205.873L396.248,203.209L401.924,203.209L401.924,204.385L398.972,211.585L397.544,211.585Z" style="fill:white;fill-rule:nonzero;"/>
            <path d="M408.776,211.585L408.776,208.285L405.896,203.209L407.444,203.209L409.484,206.941L409.52,206.941L411.548,203.209L413.036,203.209L410.132,208.261L410.132,211.585L408.776,211.585Z" style="fill:white;fill-rule:nonzero;"/>
            <path d="M414.32,211.585L414.32,203.209L419.684,203.209L419.684,204.409L415.676,204.409L415.676,206.737L419.312,206.737L419.312,207.937L415.676,207.937L415.676,210.385L419.684,210.385L419.684,211.585L414.32,211.585Z" style="fill:white;fill-rule:nonzero;"/>
            <path d="M426.788,211.585L426.032,209.317L422.9,209.317L422.168,211.585L420.788,211.585L423.644,203.209L425.348,203.209L428.204,211.585L426.788,211.585ZM424.496,204.457L424.436,204.457L423.224,208.153L425.696,208.153L424.496,204.457Z" style="fill:white;fill-rule:nonzero;"/>
            <path d="M430.976,211.585L429.62,211.585L429.62,203.209L433.232,203.209C433.984,203.209 434.576,203.435 435.008,203.887C435.44,204.339 435.656,204.953 435.656,205.729C435.656,206.329 435.518,206.827 435.242,207.223C434.966,207.619 434.56,207.897 434.024,208.057L435.836,211.585L434.324,211.585L432.644,208.201L430.976,208.201L430.976,211.585ZM433.136,207.061C433.48,207.061 433.748,206.972 433.94,206.793C434.132,206.613 434.228,206.357 434.228,206.022L434.228,205.449C434.228,205.114 434.132,204.857 433.94,204.678C433.748,204.499 433.48,204.409 433.136,204.409L430.976,204.409L430.976,207.061L433.136,207.061Z" style="fill:white;fill-rule:nonzero;"/>
            <path d="M443.792,211.729C443.248,211.729 442.754,211.635 442.31,211.447C441.866,211.259 441.486,210.983 441.17,210.619C440.854,210.255 440.61,209.803 440.438,209.263C440.266,208.723 440.18,208.101 440.18,207.397C440.18,206.693 440.266,206.071 440.438,205.531C440.61,204.991 440.854,204.539 441.17,204.175C441.486,203.811 441.866,203.535 442.31,203.347C442.754,203.159 443.248,203.065 443.792,203.065C444.336,203.065 444.83,203.159 445.274,203.347C445.718,203.535 446.098,203.811 446.414,204.175C446.73,204.539 446.974,204.991 447.146,205.531C447.318,206.071 447.404,206.693 447.404,207.397C447.404,208.101 447.318,208.723 447.146,209.263C446.974,209.803 446.73,210.255 446.414,210.619C446.098,210.983 445.718,211.259 445.274,211.447C444.83,211.635 444.336,211.729 443.792,211.729ZM443.792,210.529C444.112,210.529 444.406,210.473 444.674,210.361C444.942,210.248 445.17,210.086 445.358,209.873C445.546,209.66 445.692,209.401 445.796,209.096C445.9,208.791 445.952,208.445 445.952,208.06L445.952,206.735C445.952,206.349 445.9,206.004 445.796,205.699C445.692,205.394 445.546,205.135 445.358,204.922C445.17,204.709 444.942,204.546 444.674,204.434C444.406,204.322 444.112,204.265 443.792,204.265C443.464,204.265 443.168,204.322 442.904,204.434C442.64,204.546 442.414,204.709 442.226,204.922C442.038,205.135 441.892,205.394 441.788,205.699C441.684,206.004 441.632,206.349 441.632,206.735L441.632,208.06C441.632,208.445 441.684,208.791 441.788,209.096C441.892,209.401 442.038,209.66 442.226,209.873C442.414,210.086 442.64,210.248 442.904,210.361C443.168,210.473 443.464,210.529 443.792,210.529Z" style="fill:white;fill-rule:nonzero;"/>
            <path d="M449.216,211.585L449.216,203.209L450.572,203.209L450.572,210.385L453.98,210.385L453.98,211.585L449.216,211.585Z" style="fill:white;fill-rule:nonzero;"/>
            <path d="M455.492,203.209L458.456,203.209C458.992,203.209 459.478,203.297 459.914,203.473C460.35,203.649 460.722,203.911 461.03,204.259C461.338,204.607 461.576,205.043 461.744,205.567C461.912,206.091 461.996,206.701 461.996,207.397C461.996,208.093 461.912,208.703 461.744,209.227C461.576,209.751 461.338,210.187 461.03,210.535C460.722,210.883 460.35,211.145 459.914,211.321C459.478,211.497 458.992,211.585 458.456,211.585L455.492,211.585L455.492,203.209ZM458.456,210.385C459.08,210.385 459.584,210.189 459.968,209.797C460.352,209.405 460.544,208.829 460.544,208.069L460.544,206.725C460.544,205.965 460.352,205.389 459.968,204.997C459.584,204.605 459.08,204.409 458.456,204.409L456.848,204.409L456.848,210.385L458.456,210.385Z" style="fill:white;fill-rule:nonzero;"/>
            <path d="M466.316,211.729C465.612,211.729 465.014,211.601 464.522,211.345C464.03,211.089 463.608,210.745 463.256,210.313L464.192,209.437C464.488,209.797 464.814,210.069 465.17,210.253C465.526,210.437 465.932,210.529 466.388,210.529C466.924,210.529 467.328,210.409 467.6,210.169C467.872,209.929 468.008,209.605 468.008,209.197C468.008,208.869 467.912,208.609 467.72,208.417C467.528,208.225 467.188,208.081 466.7,207.985L465.956,207.853C465.14,207.701 464.528,207.433 464.12,207.049C463.712,206.665 463.508,206.137 463.508,205.465C463.508,205.097 463.578,204.763 463.718,204.463C463.858,204.163 464.054,203.911 464.306,203.707C464.558,203.503 464.864,203.345 465.224,203.233C465.584,203.121 465.988,203.065 466.436,203.065C467.068,203.065 467.616,203.175 468.08,203.395C468.544,203.615 468.94,203.933 469.268,204.349L468.32,205.189C468.104,204.909 467.84,204.685 467.528,204.517C467.216,204.349 466.828,204.265 466.364,204.265C465.884,204.265 465.512,204.361 465.248,204.553C464.984,204.745 464.852,205.025 464.852,205.393C464.852,205.745 464.96,206.007 465.176,206.179C465.392,206.351 465.728,206.481 466.184,206.569L466.928,206.725C467.768,206.885 468.382,207.157 468.77,207.541C469.158,207.925 469.352,208.453 469.352,209.125C469.352,209.517 469.284,209.873 469.148,210.193C469.012,210.513 468.814,210.787 468.554,211.015C468.294,211.243 467.976,211.419 467.6,211.543C467.224,211.667 466.796,211.729 466.316,211.729Z" style="fill:white;fill-rule:nonzero;"/>
        </g>
        <g transform="matrix(1.54388,0,0,1.5286,-28.3264,-111.932)">
            <path d="M124.748,211.585L123.992,209.317L120.86,209.317L120.128,211.585L118.748,211.585L121.604,203.209L123.308,203.209L126.164,211.585L124.748,211.585ZM122.456,204.457L122.396,204.457L121.184,208.153L123.656,208.153L122.456,204.457Z" style="fill:rgb(217,217,217);fill-rule:nonzero;"/>
            <path d="M128.648,203.209L128.648,208.378C128.648,209.091 128.784,209.628 129.056,209.988C129.328,210.349 129.792,210.529 130.448,210.529C131.104,210.529 131.568,210.349 131.84,209.988C132.112,209.628 132.248,209.091 132.248,208.378L132.248,203.209L133.58,203.209L133.58,208.153C133.58,208.769 133.524,209.301 133.412,209.749C133.3,210.197 133.12,210.567 132.872,210.859C132.624,211.151 132.302,211.369 131.906,211.513C131.51,211.657 131.024,211.729 130.448,211.729C129.872,211.729 129.386,211.657 128.99,211.513C128.594,211.369 128.272,211.151 128.024,210.859C127.776,210.567 127.596,210.197 127.484,209.749C127.372,209.301 127.316,208.769 127.316,208.153L127.316,203.209L128.648,203.209Z" style="fill:rgb(217,217,217);fill-rule:nonzero;"/>
            <path d="M141.104,210.325L141.056,210.325C140.968,210.729 140.73,211.065 140.342,211.331C139.954,211.596 139.44,211.729 138.8,211.729C138.304,211.729 137.844,211.635 137.42,211.447C136.996,211.259 136.63,210.983 136.322,210.619C136.014,210.255 135.774,209.803 135.602,209.263C135.43,208.723 135.344,208.101 135.344,207.397C135.344,206.701 135.432,206.083 135.608,205.543C135.784,205.003 136.032,204.549 136.352,204.181C136.672,203.813 137.056,203.535 137.504,203.347C137.952,203.159 138.452,203.065 139.004,203.065C139.756,203.065 140.392,203.231 140.912,203.562C141.432,203.893 141.836,204.354 142.124,204.945L141.02,205.591C140.86,205.197 140.612,204.878 140.276,204.633C139.94,204.388 139.516,204.265 139.004,204.265C138.34,204.265 137.806,204.478 137.402,204.904C136.998,205.329 136.796,205.932 136.796,206.711L136.796,208.084C136.796,208.863 136.998,209.465 137.402,209.891C137.806,210.317 138.34,210.529 139.004,210.529C139.268,210.529 139.52,210.495 139.76,210.427C140,210.358 140.21,210.258 140.39,210.125C140.57,209.992 140.714,209.828 140.822,209.631C140.93,209.433 140.984,209.202 140.984,208.937L140.984,208.285L139.256,208.285L139.256,207.121L142.292,207.121L142.292,211.585L141.104,211.585L141.104,210.325Z" style="fill:rgb(217,217,217);fill-rule:nonzero;"/>
            <path d="M145.58,203.209L145.58,208.378C145.58,209.091 145.716,209.628 145.988,209.988C146.26,210.349 146.724,210.529 147.38,210.529C148.036,210.529 148.5,210.349 148.772,209.988C149.044,209.628 149.18,209.091 149.18,208.378L149.18,203.209L150.512,203.209L150.512,208.153C150.512,208.769 150.456,209.301 150.344,209.749C150.232,210.197 150.052,210.567 149.804,210.859C149.556,211.151 149.234,211.369 148.838,211.513C148.442,211.657 147.956,211.729 147.38,211.729C146.804,211.729 146.318,211.657 145.922,211.513C145.526,211.369 145.204,211.151 144.956,210.859C144.708,210.567 144.528,210.197 144.416,209.749C144.304,209.301 144.248,208.769 144.248,208.153L144.248,203.209L145.58,203.209Z" style="fill:rgb(217,217,217);fill-rule:nonzero;"/>
            <path d="M155.156,211.729C154.452,211.729 153.854,211.601 153.362,211.345C152.87,211.089 152.448,210.745 152.096,210.313L153.032,209.437C153.328,209.797 153.654,210.069 154.01,210.253C154.366,210.437 154.772,210.529 155.228,210.529C155.764,210.529 156.168,210.409 156.44,210.169C156.712,209.929 156.848,209.605 156.848,209.197C156.848,208.869 156.752,208.609 156.56,208.417C156.368,208.225 156.028,208.081 155.54,207.985L154.796,207.853C153.98,207.701 153.368,207.433 152.96,207.049C152.552,206.665 152.348,206.137 152.348,205.465C152.348,205.097 152.418,204.763 152.558,204.463C152.698,204.163 152.894,203.911 153.146,203.707C153.398,203.503 153.704,203.345 154.064,203.233C154.424,203.121 154.828,203.065 155.276,203.065C155.908,203.065 156.456,203.175 156.92,203.395C157.384,203.615 157.78,203.933 158.108,204.349L157.16,205.189C156.944,204.909 156.68,204.685 156.368,204.517C156.056,204.349 155.668,204.265 155.204,204.265C154.724,204.265 154.352,204.361 154.088,204.553C153.824,204.745 153.692,205.025 153.692,205.393C153.692,205.745 153.8,206.007 154.016,206.179C154.232,206.351 154.568,206.481 155.024,206.569L155.768,206.725C156.608,206.885 157.222,207.157 157.61,207.541C157.998,207.925 158.192,208.453 158.192,209.125C158.192,209.517 158.124,209.873 157.988,210.193C157.852,210.513 157.654,210.787 157.394,211.015C157.134,211.243 156.816,211.419 156.44,211.543C156.064,211.667 155.636,211.729 155.156,211.729Z" style="fill:rgb(217,217,217);fill-rule:nonzero;"/>
            <path d="M162.848,204.409L162.848,211.585L161.492,211.585L161.492,204.409L158.996,204.409L158.996,203.209L165.344,203.209L165.344,204.409L162.848,204.409Z" style="fill:rgb(217,217,217);fill-rule:nonzero;"/>
            <path d="M174.8,204.385L171.08,204.385L170.864,207.349L170.948,207.349C171.044,207.181 171.144,207.031 171.248,206.899C171.352,206.767 171.472,206.653 171.608,206.557C171.744,206.461 171.9,206.387 172.076,206.335C172.252,206.283 172.46,206.257 172.7,206.257C173.06,206.257 173.394,206.317 173.702,206.437C174.01,206.557 174.278,206.729 174.506,206.953C174.734,207.177 174.912,207.451 175.04,207.775C175.168,208.099 175.232,208.465 175.232,208.873C175.232,209.289 175.166,209.673 175.034,210.025C174.902,210.377 174.708,210.679 174.452,210.931C174.196,211.183 173.882,211.379 173.51,211.519C173.138,211.659 172.716,211.729 172.244,211.729C171.868,211.729 171.536,211.687 171.248,211.603C170.96,211.519 170.706,211.407 170.486,211.267C170.266,211.127 170.074,210.967 169.91,210.787C169.746,210.607 169.6,210.421 169.472,210.229L170.456,209.449C170.56,209.617 170.668,209.769 170.78,209.905C170.892,210.041 171.02,210.161 171.164,210.265C171.308,210.369 171.47,210.449 171.65,210.505C171.83,210.561 172.036,210.589 172.268,210.589C172.764,210.589 173.146,210.453 173.414,210.181C173.682,209.909 173.816,209.533 173.816,209.053L173.816,208.909C173.816,208.429 173.682,208.053 173.414,207.781C173.146,207.509 172.764,207.373 172.268,207.373C171.908,207.373 171.62,207.441 171.404,207.577C171.188,207.713 171.004,207.865 170.852,208.033L169.736,207.877L170.048,203.209L174.8,203.209L174.8,204.385Z" style="fill:rgb(217,217,217);fill-rule:nonzero;"/>
            <path d="M180.164,204.409L180.164,211.585L178.808,211.585L178.808,204.409L176.312,204.409L176.312,203.209L182.66,203.209L182.66,204.409L180.164,204.409Z" style="fill:rgb(217,217,217);fill-rule:nonzero;"/>
            <path d="M189.248,207.937L185.456,207.937L185.456,211.585L184.1,211.585L184.1,203.209L185.456,203.209L185.456,206.737L189.248,206.737L189.248,203.209L190.604,203.209L190.604,211.585L189.248,211.585L189.248,207.937Z" style="fill:rgb(217,217,217);fill-rule:nonzero;"/>
            <path d="M213.476,211.585L213.476,210.457L215.828,210.457L215.828,204.193L215.732,204.193L213.788,206.269L212.96,205.525L215.096,203.209L217.16,203.209L217.16,210.457L219.2,210.457L219.2,211.585L213.476,211.585Z" style="fill:rgb(217,217,217);fill-rule:nonzero;"/>
            <path d="M220.796,211.585L220.796,210.457L223.148,210.457L223.148,204.193L223.052,204.193L221.108,206.269L220.28,205.525L222.416,203.209L224.48,203.209L224.48,210.457L226.52,210.457L226.52,211.585L220.796,211.585Z" style="fill:rgb(217,217,217);fill-rule:nonzero;"/>
            <path d="M231.2,204.409L231.2,211.585L229.844,211.585L229.844,204.409L227.348,204.409L227.348,203.209L233.696,203.209L233.696,204.409L231.2,204.409Z" style="fill:rgb(217,217,217);fill-rule:nonzero;"/>
            <path d="M240.284,207.937L236.492,207.937L236.492,211.585L235.136,211.585L235.136,203.209L236.492,203.209L236.492,206.737L240.284,206.737L240.284,203.209L241.64,203.209L241.64,211.585L240.284,211.585L240.284,207.937Z" style="fill:rgb(217,217,217);fill-rule:nonzero;"/>
            <path d="M252.236,211.585L246.548,211.585L246.548,210.289L249.224,207.901C249.648,207.517 249.974,207.151 250.202,206.803C250.43,206.455 250.544,206.089 250.544,205.705L250.544,205.549C250.544,205.141 250.422,204.821 250.178,204.589C249.934,204.357 249.604,204.241 249.188,204.241C248.956,204.241 248.754,204.275 248.582,204.343C248.41,204.411 248.26,204.505 248.132,204.625C248.004,204.745 247.898,204.885 247.814,205.045C247.73,205.205 247.664,205.377 247.616,205.561L246.428,205.105C246.516,204.841 246.636,204.587 246.788,204.343C246.94,204.099 247.132,203.881 247.364,203.689C247.596,203.497 247.87,203.345 248.186,203.233C248.502,203.121 248.872,203.065 249.296,203.065C249.72,203.065 250.1,203.127 250.436,203.251C250.772,203.375 251.054,203.547 251.282,203.767C251.51,203.987 251.684,204.249 251.804,204.553C251.924,204.857 251.984,205.189 251.984,205.549C251.984,205.885 251.932,206.197 251.828,206.485C251.724,206.773 251.58,207.045 251.396,207.301C251.212,207.557 250.998,207.801 250.754,208.033C250.51,208.265 250.252,208.501 249.98,208.741L248.012,210.433L252.236,210.433L252.236,211.585Z" style="fill:rgb(217,217,217);fill-rule:nonzero;"/>
            <path d="M256.664,211.729C256.144,211.729 255.692,211.631 255.308,211.435C254.924,211.239 254.608,210.957 254.36,210.589C254.112,210.221 253.928,209.769 253.808,209.233C253.688,208.697 253.628,208.085 253.628,207.397C253.628,206.717 253.688,206.107 253.808,205.567C253.928,205.027 254.112,204.573 254.36,204.205C254.608,203.837 254.924,203.555 255.308,203.359C255.692,203.163 256.144,203.065 256.664,203.065C257.704,203.065 258.47,203.445 258.962,204.205C259.454,204.965 259.7,206.029 259.7,207.397C259.7,208.765 259.454,209.829 258.962,210.589C258.47,211.349 257.704,211.729 256.664,211.729ZM256.664,210.577C256.952,210.577 257.198,210.519 257.402,210.403C257.606,210.287 257.772,210.121 257.9,209.905C258.028,209.689 258.12,209.431 258.176,209.131C258.232,208.831 258.26,208.497 258.26,208.129L258.26,206.665C258.26,206.297 258.232,205.963 258.176,205.663C258.12,205.363 258.028,205.105 257.9,204.889C257.772,204.673 257.606,204.507 257.402,204.391C257.198,204.275 256.952,204.217 256.664,204.217C256.376,204.217 256.13,204.275 255.926,204.391C255.722,204.507 255.556,204.673 255.428,204.889C255.3,205.105 255.208,205.363 255.152,205.663C255.096,205.963 255.068,206.297 255.068,206.665L255.068,208.129C255.068,208.497 255.096,208.831 255.152,209.131C255.208,209.431 255.3,209.689 255.428,209.905C255.556,210.121 255.722,210.287 255.926,210.403C256.13,210.519 256.376,210.577 256.664,210.577Z" style="fill:rgb(217,217,217);fill-rule:nonzero;"/>
            <path d="M261.44,211.585L261.44,210.457L263.792,210.457L263.792,204.193L263.696,204.193L261.752,206.269L260.924,205.525L263.06,203.209L265.124,203.209L265.124,210.457L267.164,210.457L267.164,211.585L261.44,211.585Z" style="fill:rgb(217,217,217);fill-rule:nonzero;"/>
            <path d="M274.232,206.329C274.232,206.937 274.14,207.509 273.956,208.045C273.772,208.581 273.536,209.073 273.248,209.521C272.96,209.969 272.638,210.369 272.282,210.721C271.926,211.073 271.576,211.361 271.232,211.585L269.432,211.585C269.904,211.241 270.328,210.909 270.704,210.589C271.08,210.269 271.408,209.941 271.688,209.605C271.968,209.269 272.202,208.913 272.39,208.537C272.578,208.161 272.724,207.749 272.828,207.301L272.744,207.277C272.656,207.445 272.554,207.603 272.438,207.751C272.322,207.899 272.186,208.029 272.03,208.141C271.874,208.253 271.696,208.341 271.496,208.405C271.296,208.469 271.064,208.501 270.8,208.501C270.448,208.501 270.122,208.441 269.822,208.321C269.522,208.201 269.262,208.027 269.042,207.799C268.822,207.571 268.65,207.299 268.526,206.983C268.402,206.667 268.34,206.309 268.34,205.909C268.34,205.493 268.41,205.109 268.55,204.757C268.69,204.405 268.888,204.105 269.144,203.857C269.4,203.609 269.708,203.415 270.068,203.275C270.428,203.135 270.832,203.065 271.28,203.065C271.744,203.065 272.158,203.141 272.522,203.293C272.886,203.445 273.194,203.663 273.446,203.947C273.698,204.231 273.892,204.573 274.028,204.973C274.164,205.373 274.232,205.825 274.232,206.329ZM271.28,207.409C271.768,207.409 272.148,207.279 272.42,207.019C272.692,206.759 272.828,206.377 272.828,205.873L272.828,205.705C272.828,205.201 272.692,204.819 272.42,204.559C272.148,204.299 271.768,204.169 271.28,204.169C270.792,204.169 270.412,204.299 270.14,204.559C269.868,204.819 269.732,205.201 269.732,205.705L269.732,205.873C269.732,206.377 269.868,206.759 270.14,207.019C270.412,207.279 270.792,207.409 271.28,207.409Z" style="fill:rgb(217,217,217);fill-rule:nonzero;"/>
        </g>
        <g transform="matrix(1.99673,0,0,1.97697,-102.774,-263.46)">
            <path d="M198.377,237.007L195.372,235.272L195.372,236.573L189.707,236.573L189.707,237.44L195.372,237.44L195.372,238.741L198.377,237.007Z" style="fill:rgb(217,217,217);fill-rule:nonzero;"/>
        </g>
    </g>
</svg>
