<?xml version="1.0" encoding="UTF-8" standalone="no"?>
<!DOCTYPE svg PUBLIC "-//W3C//DTD SVG 1.1//EN" "http://www.w3.org/Graphics/SVG/1.1/DTD/svg11.dtd">
<svg width="100%" height="100%" viewBox="0 0 168 48" version="1.1" xmlns="http://www.w3.org/2000/svg" xmlns:xlink="http://www.w3.org/1999/xlink" xml:space="preserve" xmlns:serif="http://www.serif.com/" style="fill-rule:evenodd;clip-rule:evenodd;stroke-linejoin:round;stroke-miterlimit:1.41421;">
    <g transform="matrix(1,0,0,1,-222,-99)">
        <g id="logo" transform="matrix(1.01104,0,0,1.00307,-3.40596,-0.304343)">
            <rect x="222.946" y="99" width="166.096" height="47.838" style="fill:none;"/>
            <g transform="matrix(0.558123,0,0,0.476104,229.475,103.02)">
                <g transform="matrix(2.61478,0,0,3.08957,-793.427,-201.717)">
                    <path d="M412.177,62.655C411.656,72.876 408.824,80.819 403.681,86.483C398.538,92.147 391.572,94.979 382.782,94.979C375.1,94.979 365.79,91.073 354.853,83.26C348.017,78.573 342.385,76.229 337.958,76.229C328.062,76.229 322.919,82.446 322.529,94.881L308.759,94.881C309.085,84.855 311.851,76.961 317.06,71.2C322.268,65.438 329.267,62.557 338.056,62.557C345.543,62.557 353.811,65.682 362.861,71.932C372.17,78.312 379.137,81.502 383.759,81.502C387.926,81.502 391.36,79.826 394.062,76.473C396.764,73.12 398.212,68.514 398.407,62.655L412.177,62.655Z" style="fill:rgb(255,117,227);fill-rule:nonzero;"/>
                </g>
                <g transform="matrix(2.61478,0,0,3.08957,-804.976,-201.717)">
                    <path d="M412.177,62.655C411.656,72.876 408.824,80.819 403.681,86.483C398.538,92.147 391.572,94.979 382.782,94.979C375.1,94.979 365.79,91.073 354.853,83.26C348.017,78.573 342.385,76.229 337.958,76.229C328.062,76.229 322.919,82.446 322.529,94.881L308.759,94.881C309.085,84.855 311.851,76.961 317.06,71.2C322.268,65.438 329.267,62.557 338.056,62.557C345.543,62.557 353.811,65.682 362.861,71.932C372.17,78.312 379.137,81.502 383.759,81.502C387.926,81.502 391.36,79.826 394.062,76.473C396.764,73.12 398.212,68.514 398.407,62.655L412.177,62.655Z" style="fill:rgb(252,79,131);fill-rule:nonzero;"/>
                </g>
                <g transform="matrix(2.61478,0,0,3.08957,-817.36,-201.717)">
                    <path d="M412.177,62.655C411.656,72.876 408.824,80.819 403.681,86.483C398.538,92.147 391.572,94.979 382.782,94.979C375.1,94.979 365.79,91.073 354.853,83.26C348.017,78.573 342.385,76.229 337.958,76.229C328.062,76.229 322.919,82.446 322.529,94.881L308.759,94.881C309.085,84.855 311.851,76.961 317.06,71.2C322.268,65.438 329.267,62.557 338.056,62.557C345.543,62.557 353.811,65.682 362.861,71.932C372.17,78.312 379.137,81.502 383.759,81.502C387.926,81.502 391.36,79.826 394.062,76.473C396.764,73.12 398.212,68.514 398.407,62.655L412.177,62.655Z" style="fill:rgb(170,67,185);fill-rule:nonzero;"/>
                </g>
            </g>
        </g>
    </g>
</svg>
