<?xml version="1.0" encoding="UTF-8"?>
<svg width="1396px" height="1613px" viewBox="0 0 1396 1613" version="1.1" xmlns="http://www.w3.org/2000/svg" xmlns:xlink="http://www.w3.org/1999/xlink">
    <!-- Generator: Sketch 53.1 (72631) - https://sketchapp.com -->
    <title>Sticker - Underland Events</title>
    <desc>Created with Sketch.</desc>
    <g id="Sticker---Underland-Events" stroke="none" stroke-width="1" fill="none" fill-rule="evenodd">
        <g id="licensezero" fill="#FF6A89">
            <polygon id="template" points="0 400.888383 695.66305 0 1396 400.888383 1396 1212.11162 700.33695 1613 0 1212.11162"></polygon>
        </g>
        <g id="underland-events-white" transform="translate(195.000000, 640.000000)" fill="#FFFFFF" fill-rule="nonzero">
            <path d="M752.206081,69.0240481 C752.378378,71.6092314 751.861492,74.1943758 750.655405,76.7795591 C749.449319,79.3647424 747.726362,81.7344581 745.486486,83.8887776 C743.246611,86.043097 740.489881,87.7665267 737.216216,89.0591182 C733.942552,90.3517098 730.410493,90.997996 726.619932,90.997996 C724.035461,90.997996 721.70947,90.65331 719.641892,89.9639279 C720.158786,92.3767656 720.977191,94.315624 722.097128,95.7805611 C723.217066,97.2454983 724.380062,98.3657276 725.586149,99.1412826 C726.792235,99.9168376 727.998305,100.433866 729.204392,100.692385 C730.410478,100.950903 731.444253,101.166332 732.305743,101.338677 C734.717918,101.683369 736.871613,101.381768 738.766892,100.433868 C740.662171,99.4859671 742.342054,98.4088237 743.806588,97.2024048 C745.271122,95.9959859 746.477191,94.832671 747.424831,93.7124248 C748.372472,92.5921787 749.104728,92.0320641 749.621622,92.0320641 C750.310814,92.0320641 750.655405,92.6352645 750.655405,93.8416834 C750.655405,96.7715577 749.880075,99.3567022 748.329392,101.597194 C746.778709,103.837687 744.754235,105.733459 742.255912,107.284569 C739.757589,108.835679 736.914712,109.998994 733.727196,110.774549 C730.53968,111.550104 727.309138,111.851704 724.035473,111.679359 C716.626652,111.334668 710.854751,108.921866 706.719595,104.440882 C702.584438,99.9598974 700.344596,93.9278936 700,86.3446894 C700,76.0039563 702.713656,67.5160653 708.141047,60.8807615 C713.568439,54.2454577 720.934075,50.9278557 730.238176,50.9278557 C736.613208,50.9278557 741.868222,52.3065994 746.003378,55.0641283 C750.138535,57.8216572 752.206081,62.4749172 752.206081,69.0240481 Z M718.866554,85.0521042 C720.589536,84.5350675 722.39864,83.9318671 724.293919,83.242485 C726.189198,82.5531028 727.955228,81.6052165 729.592061,80.3987976 C731.228894,79.1923787 732.564184,77.8136351 733.597973,76.2625251 C734.631762,74.711415 735.148649,72.729471 735.148649,70.3166333 C735.148649,67.9037955 734.588688,65.7925942 733.46875,63.9829659 C732.348812,62.1733376 730.755078,61.2685371 728.6875,61.2685371 C725.758432,61.2685371 723.346293,62.8627095 721.451014,66.0511022 C719.555734,69.239495 718.608108,74.4528696 718.608108,81.6913828 C718.608108,82.3807649 718.651182,82.9839653 718.737331,83.501002 C718.82348,84.0180387 718.866554,84.5350675 718.866554,85.0521042 Z M793.040541,44.2064128 C793.902031,44.0340672 794.849657,43.7755529 795.883446,43.4308617 C796.744936,43.0861706 797.778711,42.8276562 798.984797,42.6553106 C800.190884,42.482965 801.483101,42.3967936 802.861486,42.3967936 C805.618257,42.3967936 808.374986,43.1292512 811.131757,44.5941884 C813.888528,46.0591255 815.266892,49.2043846 815.266892,54.0300601 C815.266892,54.3747513 815.008448,56.0981809 814.491554,59.2004008 C813.97466,62.3026207 813.156255,66.0510802 812.036318,70.4458918 C810.91638,74.8407034 809.451867,79.6232207 807.642736,84.7935872 C805.833606,89.9639536 803.593764,94.7895568 800.923142,99.2705411 C798.25252,103.751525 795.194275,107.499985 791.748311,110.516032 C788.302347,113.532079 784.33955,115.126252 779.859797,115.298597 C774.690852,115.298597 770.771129,113.618253 768.100507,110.257515 C765.429884,106.896777 763.362338,102.631288 761.897804,97.4609218 C760.43327,92.2905554 759.313348,86.6463232 758.538007,80.5280561 C757.762665,74.4097891 756.858113,68.6793854 755.824324,63.3366733 C755.479728,61.6132179 755.048988,59.9759597 754.532095,58.4248497 C754.187498,57.0460853 753.713686,55.7535131 753.110642,54.5470942 L751.689189,51.7034068 L753.239865,51.3156313 C754.273654,51.057113 755.522797,50.7985984 756.987331,50.5400802 C758.451865,50.2815619 760.002525,50.0230473 761.639358,49.7645291 C763.276191,49.5060108 764.783777,49.3767535 766.162162,49.3767535 C767.195951,49.3767535 768.574315,49.8506966 770.297297,50.7985972 C772.020279,51.7464978 772.795608,53.9438705 772.623311,57.3907816 L772.623311,60.8807615 C772.623311,63.2074264 772.709459,66.0941711 772.881757,69.5410822 C773.054054,72.9879932 773.269424,76.6933669 773.527872,80.6573146 C773.786319,84.6212624 774.13091,88.3266361 774.561655,91.7735471 C774.9924,95.2204581 775.509287,98.1072029 776.112331,100.433868 C776.715375,102.760533 777.447632,104.010019 778.309122,104.182365 C780.548997,104.182365 782.573471,103.234478 784.382601,101.338677 C786.191732,99.4428764 787.82854,97.0300747 789.293074,94.1002004 C790.757608,91.1703261 791.963677,87.9388954 792.911318,84.4058116 C793.858958,80.8727279 794.677361,77.4689542 795.366554,74.1943888 C796.055747,70.9198233 796.572633,68.0330786 796.91723,65.5340681 C797.261826,63.0350577 797.434122,61.2685422 797.434122,60.2344689 C797.434122,57.8216312 797.175677,55.1503152 796.658784,52.2204409 C796.14189,49.2905666 794.93582,46.6192506 793.040541,44.2064128 Z M865.663851,69.0240481 C865.836149,71.6092314 865.319262,74.1943758 864.113176,76.7795591 C862.907089,79.3647424 861.184132,81.7344581 858.944257,83.8887776 C856.704381,86.043097 853.947651,87.7665267 850.673986,89.0591182 C847.400322,90.3517098 843.868263,90.997996 840.077703,90.997996 C837.493231,90.997996 835.16724,90.65331 833.099662,89.9639279 C833.616556,92.3767656 834.434961,94.315624 835.554899,95.7805611 C836.674836,97.2454983 837.837833,98.3657276 839.043919,99.1412826 C840.250005,99.9168376 841.456076,100.433866 842.662162,100.692385 C843.868249,100.950903 844.902023,101.166332 845.763514,101.338677 C848.175688,101.683369 850.329383,101.381768 852.224662,100.433868 C854.119941,99.4859671 855.799824,98.4088237 857.264358,97.2024048 C858.728892,95.9959859 859.934961,94.832671 860.882601,93.7124248 C861.830242,92.5921787 862.562498,92.0320641 863.079392,92.0320641 C863.768585,92.0320641 864.113176,92.6352645 864.113176,93.8416834 C864.113176,96.7715577 863.337845,99.3567022 861.787162,101.597194 C860.236479,103.837687 858.212006,105.733459 855.713682,107.284569 C853.215359,108.835679 850.372482,109.998994 847.184966,110.774549 C843.99745,111.550104 840.766908,111.851704 837.493243,111.679359 C830.084422,111.334668 824.312521,108.921866 820.177365,104.440882 C816.042208,99.9598974 813.802367,93.9278936 813.45777,86.3446894 C813.45777,76.0039563 816.171426,67.5160653 821.598818,60.8807615 C827.026209,54.2454577 834.391846,50.9278557 843.695946,50.9278557 C850.070978,50.9278557 855.325992,52.3065994 859.461149,55.0641283 C863.596305,57.8216572 865.663851,62.4749172 865.663851,69.0240481 Z M832.324324,85.0521042 C834.047306,84.5350675 835.85641,83.9318671 837.751689,83.242485 C839.646968,82.5531028 841.412998,81.6052165 843.049831,80.3987976 C844.686664,79.1923787 846.021954,77.8136351 847.055743,76.2625251 C848.089532,74.711415 848.606419,72.729471 848.606419,70.3166333 C848.606419,67.9037955 848.046458,65.7925942 846.92652,63.9829659 C845.806583,62.1733376 844.212848,61.2685371 842.14527,61.2685371 C839.216202,61.2685371 836.804063,62.8627095 834.908784,66.0511022 C833.013505,69.239495 832.065878,74.4528696 832.065878,81.6913828 C832.065878,82.3807649 832.108953,82.9839653 832.195101,83.501002 C832.28125,84.0180387 832.324324,84.5350675 832.324324,85.0521042 Z M866.180743,50.4108216 C868.076022,50.4108216 870.229717,50.3677358 872.641892,50.2815631 C875.054066,50.1953904 877.380057,50.410819 879.619932,50.9278557 C881.859808,51.4448924 883.798133,52.4789501 885.434966,54.0300601 C887.071799,55.5811701 887.976351,57.9939716 888.148649,61.2685371 C891.077717,58.3386628 894.609776,55.6242609 898.744932,53.1252505 C902.880089,50.6262401 907.10133,49.3767535 911.408784,49.3767535 C911.925677,49.3767535 912.701008,49.4198393 913.734797,49.506012 C914.768586,49.5921847 915.845434,50.0230422 916.965372,50.7985972 C918.085309,51.5741522 918.989861,52.9528959 919.679054,54.9348697 C920.368247,56.9168436 920.540542,59.8035882 920.195946,63.5951904 C919.679052,68.0761747 919.248313,72.5570918 918.903716,77.0380762 C918.55912,81.0020239 918.300676,85.310598 918.128378,89.9639279 C917.956081,94.6172578 917.869932,99.0120034 917.869932,103.148297 C917.869932,107.801626 918.128377,111.550086 918.64527,114.393788 C919.162164,117.237489 919.679052,119.521034 920.195946,121.244489 C920.71284,122.967944 921.229728,124.217431 921.746622,124.992986 C922.263515,125.768541 922.521959,126.500999 922.521959,127.190381 C922.521959,128.3968 921.746629,129 920.195946,129 C918.472964,129 916.620788,128.569143 914.639358,127.707415 C912.657929,126.845687 910.762678,125.510029 908.953547,123.700401 C907.144417,121.890772 905.63683,119.607228 904.430743,116.849699 C903.224657,114.092171 902.621622,110.903826 902.621622,107.284569 L902.621622,85.0521042 C902.621622,79.5370466 902.535473,75.4008155 902.363176,72.6432866 C902.190878,69.8857577 901.975509,68.1192424 901.717061,67.3436874 C901.458613,66.5681324 901.070948,66.1803607 900.554054,66.1803607 C899.692564,66.1803607 898.529568,66.7835611 897.065034,67.98998 C895.6005,69.1963988 894.092913,70.5751425 892.54223,72.1262525 C890.991547,73.6773625 889.48396,75.2715349 888.019426,76.9088176 C886.554892,78.5461004 885.478044,79.7955869 884.788851,80.6573146 C883.755062,86.0000267 882.893585,91.2134014 882.204392,96.2975952 C881.515199,101.381789 881.170608,104.699391 881.170608,106.250501 C881.170608,107.112229 881.299829,108.189372 881.558277,109.481964 C881.816725,110.774555 882.376686,111.937871 883.238176,112.971944 C881.342897,114.006017 879.404571,114.47996 877.423142,114.393788 C875.441712,114.307615 873.589536,113.833672 871.866554,112.971944 C870.143572,112.110216 868.765208,110.731472 867.731419,108.835671 C866.69763,106.93987 866.266892,104.699412 866.439189,102.114228 C866.611486,99.3566996 866.956079,95.478983 867.472973,90.4809619 C867.989867,85.4829409 868.377532,80.3126519 868.63598,74.9699399 C868.894427,69.6272278 868.894427,64.6723674 868.63598,60.1052104 C868.377532,55.5380534 867.559129,52.3066226 866.180743,50.4108216 Z M1004.19088,6.20440882 C1004.36318,7.58317323 1004.62162,9.13425992 1004.96622,10.8577154 C1005.31081,12.2364798 1005.56926,13.7875665 1005.74155,15.511022 C1005.91385,17.2344776 1006,18.9579073 1006,20.6813627 C1006,24.4729649 1005.48311,27.2304524 1004.44932,28.9539078 L1003.67399,30.1172345 C1003.15709,30.8927895 1002.38176,31.7114186 1001.34797,32.5731463 C1000.31418,33.434874 998.892745,34.2535031 997.083615,35.0290581 C995.274484,35.8046131 992.991568,36.1923848 990.234797,36.1923848 C989.201008,36.1923848 987.607274,36.149299 985.453547,36.0631263 C983.29982,35.9769536 980.456943,35.7615248 976.924831,35.4168337 C973.392719,35.0721425 968.999182,34.6412852 963.744088,34.1242485 C958.488994,33.6072118 952.243279,32.9178399 945.006757,32.0561122 C944.489863,37.0541333 943.800679,42.7414511 942.939189,49.1182365 C942.077699,55.4950218 941.21622,61.8286259 940.35473,68.1192385 C939.49324,74.4098511 938.760983,80.1402548 938.157939,85.3106212 C937.554895,90.4809877 937.253378,94.1863615 937.253378,96.4268537 L937.253378,98.49499 C937.253378,99.7014088 937.339527,101.037067 937.511824,102.502004 C937.684122,103.966941 937.942566,105.388771 938.287162,106.767535 C938.631759,108.1463 939.148645,109.094186 939.837838,109.611222 C940.010135,109.783568 939.234806,109.955911 937.511824,110.128257 C935.788842,110.300602 933.979739,110.386774 932.084459,110.386774 C927.949303,110.559119 925.407945,108.189403 924.460304,103.277555 C923.512664,98.3657069 923.038851,91.9890172 923.038851,84.1472946 C923.038851,76.3055719 923.125,67.5591664 923.297297,57.9078156 C923.469595,48.2564649 922.694266,38.6914302 920.971284,29.2124248 C919.937495,28.8677337 918.860647,28.6953908 917.740709,28.6953908 C916.620772,28.6953908 915.371629,28.5230479 913.993243,28.1783567 C912.614858,28.1783567 911.32264,28.3506996 910.116554,28.6953908 C909.082765,29.0400819 908.005917,29.514025 906.88598,30.1172345 C905.766042,30.7204439 904.86149,31.6252445 904.172297,32.8316633 C903.655404,32.3146266 903.138515,31.7114262 902.621622,31.0220441 C901.760132,29.6432796 901.329392,27.7475071 901.329392,25.3346693 C901.329392,22.5771404 903.18157,20.4228535 906.88598,18.8717435 C910.590389,17.3206335 915.199296,16.3727472 920.712838,16.0280561 C920.540541,13.2705273 919.98058,10.3406969 919.032939,7.23847695 C918.085299,4.13625703 916.319269,1.80962699 913.734797,0.258517034 L915.285473,0.258517034 C915.802367,0.258517034 916.405402,0.215431292 917.094595,0.129258517 C917.783787,0.0430857415 918.559118,0 919.420608,0 C922.694273,0 926.355555,0.25851445 930.404561,0.775551102 C934.453567,1.29258775 937.684109,2.49898852 940.096284,4.39478958 C941.130073,5.08417178 941.991551,6.0320581 942.680743,7.23847695 C943.369936,8.27255026 944.016044,9.65129398 944.619088,11.3747495 C945.222132,13.098205 945.609797,15.1663206 945.782095,17.5791583 C951.640231,17.5791583 958.101316,17.4929868 965.165541,17.3206413 C972.229765,17.1482957 979.380032,16.3727524 986.616554,14.993988 C989.373325,14.6492969 991.871611,14.132268 994.111486,13.4428858 C996.006766,12.7535036 997.945091,11.848703 999.92652,10.7284569 C1001.90795,9.60821083 1003.32939,8.10020987 1004.19088,6.20440882 Z M967.491554,71.3507014 C969.903729,72.3847747 972.531236,73.5911754 975.374155,74.9699399 C978.217075,76.3487043 980.887656,77.9859625 983.38598,79.8817635 C985.884303,81.7775645 987.951849,83.9749375 989.588682,86.4739479 C991.225516,88.9729583 992.043919,91.8597031 992.043919,95.1342685 C992.043919,98.408834 991.139367,101.252493 989.330236,103.665331 C987.521106,106.078168 985.23819,108.103198 982.481419,109.740481 C979.724648,111.377764 976.709475,112.584164 973.435811,113.359719 C970.162146,114.135274 967.060825,114.523046 964.131757,114.523046 C959.13511,114.523046 955.172312,113.919846 952.243243,112.713427 C949.314175,111.507008 947.074331,110.085179 945.523649,108.447896 C943.972966,106.810613 942.982265,105.087183 942.55152,103.277555 C942.120775,101.467927 941.905405,99.8737544 941.905405,98.49499 C941.905405,92.9799324 943.111474,89.2314729 945.523649,87.249499 C947.935823,85.2675251 950.434109,84.2765531 953.018581,84.2765531 C954.741563,84.2765531 956.076853,84.6643247 957.024493,85.4398798 C957.972134,86.2154348 958.70439,87.0340639 959.221284,87.8957916 C959.910477,88.9298649 960.255068,90.1362656 960.255068,91.5150301 C957.325999,92.3767578 955.387674,93.3677298 954.440034,94.487976 C953.492393,95.6082221 953.018581,96.5991941 953.018581,97.4609218 C953.018581,99.8737596 953.707763,102.157304 955.086149,104.311623 C956.464534,106.465943 958.790525,107.543086 962.064189,107.543086 C964.476364,107.543086 966.457763,107.155315 968.008446,106.37976 C969.559129,105.604205 970.765199,104.699404 971.626689,103.665331 C972.660478,102.458912 973.521956,101.080168 974.211149,99.5290581 C975.244938,97.6332571 975.331085,95.7805702 974.469595,93.9709419 C973.608105,92.1613136 972.315887,90.4809697 970.592905,88.9298597 C968.869924,87.3787497 967.017747,86.0861775 965.036318,85.0521042 C963.054888,84.0180309 961.375007,83.2424876 959.996622,82.7254509 C956.033764,81.519032 952.975517,80.0110311 950.821791,78.2014028 C948.668064,76.3917745 947.07433,74.625259 946.040541,72.9018036 C944.834454,71.0060026 944.14527,68.9378869 943.972973,66.6973948 C943.972973,61.6993737 945.351337,57.8216572 948.108108,55.0641283 C950.864879,52.3065994 954.009273,50.2815695 957.541385,48.988978 C961.073497,47.6963864 964.390187,46.9208429 967.491554,46.6623246 C970.592921,46.4038064 972.574321,46.2745491 973.435811,46.2745491 C978.432457,46.2745491 981.921442,47.4809498 983.902872,49.8937876 C985.884301,52.3066253 986.875,54.7194268 986.875,57.1322645 C986.875,60.5791756 986.185818,62.7334627 984.807432,63.5951904 C983.429047,64.4569181 982.567569,64.8877756 982.222973,64.8877756 L981.706081,64.8877756 C979.983099,62.9919745 978.346291,61.6994022 976.795608,61.01002 C975.244925,60.3206379 973.780413,59.9759519 972.402027,59.9759519 C968.266871,59.9759519 965.768585,60.7084095 964.907095,62.1733467 C964.045605,63.6382838 963.614865,64.8015989 963.614865,65.6633267 C963.614865,67.5591277 964.2179,68.9809571 965.423986,69.9288577 C966.630073,70.8767583 967.319257,71.3507014 967.491554,71.3507014 Z" id="events"></path>
            <g id="logo-black" transform="translate(0.000000, 45.000000)">
                <path d="M394.661085,168.803379 C394.405784,176.470283 393.060867,184.061619 390.666899,191.348427 C388.093513,199.104128 384.339063,206.414991 379.536434,213.022255 C374.012913,220.538873 367.525002,227.2941 360.240078,233.113662 C351.574797,240.039508 342.073902,245.84583 331.96124,250.395828 C306.445789,262.249166 282.030955,264.874679 258.716744,258.272371 C235.402533,251.670062 215.922738,234.796836 200.277364,207.652693 C198.585014,213.401561 197.082016,219.369717 195.768372,225.557159 C194.488006,231.617972 192.827874,237.59202 190.797829,243.443845 C188.850192,249.078968 186.048075,254.380222 182.489922,259.161371 C178.79698,263.979824 173.957071,267.7943 168.412636,270.256095 C161.773411,273.32611 155.856098,274.21511 150.660698,272.923096 C145.623804,271.733718 140.943485,269.356332 137.009457,265.988893 C133.168827,262.686074 129.878877,258.790713 127.263643,254.449669 C124.972234,250.726367 122.886214,246.880121 121.014961,242.928225 C115.310672,230.719287 109.884496,218.427377 104.736434,206.052492 C99.5883721,193.677608 94.4166409,181.741298 89.2212403,170.24356 C82.3808269,155.426888 76.2564083,142.832717 70.8479845,132.461046 C66.4739196,123.570913 60.8153191,115.375137 54.0546512,108.137998 C48.9153545,102.621721 42.157483,98.8856269 34.7582946,97.4699942 C27.6575194,96.2846604 19.1010853,97.5351876 9.08899225,101.221576 L6.03565891,102.643976 C4.85551366,103.136617 3.75477232,103.801701 2.76930233,104.617557 C2.57289389,104.744933 2.32817542,104.772572 2.1083782,104.692201 C1.88858098,104.611831 1.71920304,104.432775 1.65093023,104.208617 C0.799044955,102.050011 0.29569162,99.7693356 0.159767442,97.4522142 C-0.111718744,94.2684315 0.0495205421,91.062472 0.639069767,87.9221309 C1.30950879,84.4479824 2.68728711,81.1494015 4.68651163,78.2320275 C6.90374533,74.9947318 9.97718318,72.4397449 13.5624806,70.8533249 C32.6990698,61.9870284 49.0663566,61.3943615 62.6643411,69.0753242 C76.2623256,76.7562869 88.8484496,93.0842593 100.422713,118.059241 C104.671344,127.257431 108.647778,137.048288 112.352016,147.431812 C116.056253,157.815335 119.671731,168.157372 123.19845,178.457923 C126.748837,188.770326 130.299225,198.92271 133.849612,208.915073 C137.4,218.907437 141.169328,228.247866 145.157597,236.936363 C146.938588,241.140188 149.364346,245.039535 152.347132,248.493367 C154.311626,251.000547 157.781902,251.748022 160.601783,250.271368 C164.424367,248.505221 167.974754,244.990706 171.252946,239.727824 C174.687858,234.232897 177.702468,228.485382 180.27093,222.534558 C182.98106,216.32341 185.347984,210.349328 187.371705,204.612312 C188.825161,200.213056 190.562597,195.913083 192.573023,191.739587 L186.271085,169.532359 C183.537287,159.94301 180.57863,150.063253 177.395116,139.893089 C174.211602,129.722926 171.19969,120.180989 168.35938,111.267279 C166.282704,104.511152 163.835128,97.8750338 161.027829,91.3892321 C160.436098,90.1090716 158.856176,87.1931506 156.288062,82.641469 C153.609325,77.9614737 150.05292,73.8440103 145.814419,70.5155047 C145.127477,69.8222845 144.260368,69.335689 143.311395,69.1108843 C142.520341,69.0117941 141.809523,68.5781563 141.358682,67.9196238 C140.648605,66.3905433 141.832067,64.9148028 144.90907,63.4924023 C149.297793,61.2695363 154.204215,60.274415 159.11062,60.6120413 C163.541845,61.0824929 167.76275,62.7477166 171.323953,65.430423 C175.309905,68.4453713 178.740118,72.1337179 181.46031,76.3295668 C184.680322,81.161247 187.517475,86.2381529 189.945736,91.5136921 C193.218748,98.77715 196.092931,106.214359 198.555426,113.79204 C201.372068,122.255323 204.070362,130.777873 206.65031,139.359689 C209.230258,147.941505 211.810207,156.209208 214.390155,164.162798 C216.505439,170.958329 219.012676,177.625185 221.899225,184.129745 C225.855106,192.802661 230.863423,200.954042 236.810853,208.399453 C242.252842,215.325223 249.079281,221.036038 256.852791,225.165999 C264.719242,229.189966 273.422814,231.297722 282.255814,231.317881 C291.617002,231.471975 301.782946,229.012406 312.753643,223.939179 C325.002481,218.273283 334.517519,212.394028 341.29876,206.301412 C347.473562,200.887971 352.852467,194.626605 357.275504,187.703526 C361.025418,181.710531 364.069458,175.302566 366.346744,168.607799 C368.631605,162.003871 371.378119,155.569362 374.565891,149.352052 C375.412139,148.014322 376.90963,147.233852 378.48907,147.307352 C380.738645,147.270043 382.938895,147.969243 384.755504,149.298712 C387.300921,151.115206 389.416073,153.470442 390.95093,156.197355 C393.07477,160.084735 394.340034,164.38373 394.661085,168.803379 Z" id="Path"></path>
                <path d="M212.543953,126.238044 C215.50261,125.360897 218.851808,124.294097 222.59155,123.037643 C226.221825,121.837253 229.993862,121.119911 233.810775,120.904042 C237.451046,120.660029 241.089222,121.409707 244.337674,123.073203 C247.615866,124.744524 250.148475,128.104945 251.935504,133.154467 C255.475633,126.768549 259.773157,120.834437 264.734651,115.481141 C269.558087,109.96982 275.814081,105.907458 282.806124,103.746336 C283.610878,103.50927 284.84168,103.218863 286.498527,102.875116 C288.39448,102.55689 290.34056,102.740773 292.143643,103.408516 C294.691382,104.464255 296.845358,106.292124 298.303566,108.635838 C300.78242,112.706951 302.418453,117.235825 303.114341,121.953063 C304.380645,129.219159 305.783049,136.437841 307.32155,143.60911 C308.611525,149.986206 310.203281,156.855215 312.096822,164.216138 C313.990362,171.57706 315.877984,178.475703 317.75969,184.912065 C319.395872,190.835081 321.539997,196.605411 324.16814,202.158671 C325.85263,205.592822 327.719248,208.934308 329.76,212.168814 C330.902809,214.069655 332.300482,215.804552 333.913953,217.325016 C334.947324,218.105742 335.725835,219.176342 336.150698,220.400957 C336.706924,222.285638 335.77199,223.589505 333.345891,224.312559 C330.321522,225.131422 327.161402,225.31903 324.061628,224.863739 C320.290829,224.362837 316.647614,223.156563 313.321705,221.307738 C309.397386,219.095075 305.922872,216.163907 303.078837,212.666655 C299.695726,208.483704 297.222688,203.638819 295.818295,198.44265 L285.575426,163.576057 C283.019147,154.934974 280.971758,148.498612 279.433256,144.266971 C278.515571,141.489442 277.32634,138.809443 275.882868,136.265968 C275.125452,135.175461 274.33845,134.748741 273.52186,134.985807 C271.555024,135.944592 269.939993,137.499961 268.906357,139.430809 C267.178502,142.002983 265.456564,144.859637 263.740543,148.000772 C262.024521,151.141906 260.403178,154.336381 258.876512,157.584195 C257.33801,160.83201 256.231473,163.285651 255.556899,164.945118 C256.408992,173.799561 257.474109,182.363598 258.752248,190.637227 C259.470099,196.019183 260.465539,201.360327 261.734574,206.639233 C262.27487,208.332494 262.976336,209.969849 263.829302,211.528734 C264.821799,213.429417 266.2821,215.04502 268.072016,216.222656 C265.768994,218.612344 262.850533,220.316959 259.639845,221.147718 C256.581767,221.928573 253.392945,222.049781 250.284574,221.503318 C247.084197,220.892535 244.154563,219.294851 241.905659,216.933856 C239.277112,214.190767 237.495607,210.745607 236.775349,207.012613 C235.769405,202.615025 234.514936,196.380169 233.011938,188.308046 C231.50894,180.235923 229.733746,171.938587 227.686357,163.416037 C225.796407,155.543256 223.497361,147.774673 220.798605,140.142009 C218.337002,133.243367 215.585452,128.608712 212.543953,126.238044 Z" id="Path"></path>
                <path d="M344.014806,92.0293123 C345.896512,91.4247921 347.671705,90.9269519 349.340388,90.5002318 C351.00907,90.0735116 352.766512,89.7179115 354.665969,89.3800914 C358.858293,88.6761967 363.109964,88.3903186 367.358605,88.5266511 C366.932558,84.3187162 366.234316,78.0127408 365.263876,69.6087244 C364.293436,61.2047081 362.991628,52.5754785 361.35845,43.7210353 C359.725271,34.8665922 357.831731,26.5692559 355.677829,18.8290266 C353.523928,11.0887972 350.92031,5.75479536 347.866977,2.82702099 C354.048718,1.62835969 360.334466,1.05060978 366.630775,1.10236039 C372.426146,1.6257062 378.042887,3.38371301 383.104574,6.2585622 C384.898061,7.59602577 386.467971,9.21042808 387.755581,11.0413839 C388.939045,12.8430912 390.152093,14.9944719 391.394729,17.4955261 C392.787963,20.3938482 393.73368,23.4872736 394.199535,26.6700094 C394.294211,27.2271162 394.448062,30.2674972 394.661085,35.7911526 C394.874109,41.3148079 395.122636,48.3497636 395.406667,56.89602 C395.690698,65.4067163 395.962893,74.7115862 396.223256,84.8106298 C396.483618,94.9096733 396.874161,104.907963 397.394884,114.8055 C397.915607,124.71489 398.507339,133.889374 399.170078,142.32895 C399.832816,150.768526 400.602068,157.489369 401.477829,162.491477 C401.667184,163.605691 402.48969,167.250592 403.945349,173.426181 C405.405407,179.602646 407.908991,185.483642 411.347907,190.815027 C411.857755,191.707919 412.569018,192.469019 413.424884,193.037528 C414.40124,193.730948 414.933798,194.353248 415.022558,194.904428 C415.342093,196.842449 413.708915,198.12261 410.105271,198.72713 C404.685578,199.688728 399.105769,198.475196 394.572326,195.348929 C389.980347,192.365296 386.002941,188.526465 382.856047,184.040845 C379.782659,185.447691 376.636032,186.688151 373.429767,187.756866 C369.878743,188.937547 366.240099,189.835269 362.547829,190.441647 C349.257545,192.681928 338.316434,190.577961 329.724496,184.129745 C321.132558,177.681529 315.706382,167.819552 313.445969,154.543814 C312.33108,147.897383 312.277151,141.115782 313.286202,134.452407 C314.21493,127.999576 316.043468,121.70927 318.718295,115.765621 C321.202437,110.223145 324.714388,105.203312 329.067674,100.972655 C333.286407,96.8659839 338.404851,93.8034561 344.014806,92.0293123 L344.014806,92.0293123 Z M375.755271,166.705339 C375.786074,167.033543 375.683708,167.360355 375.47124,167.612119 C375.106933,164.805544 374.917213,161.978996 374.903178,159.148836 C374.619147,155.770635 374.199017,151.130053 373.642791,145.227091 C373.086564,139.324129 372.269975,131.471293 371.193023,121.668583 C369.761033,118.207408 367.820155,116.393847 365.370388,116.227901 C363.599857,116.045624 361.815337,116.045624 360.044806,116.227901 C354.799543,116.845731 349.85619,119.011868 345.843256,122.450903 C342.646982,125.427953 340.274169,129.182681 338.955504,133.350047 C337.662561,137.312608 337.06202,141.468916 337.18031,145.636031 C337.23745,149.101027 337.52806,152.558207 338.050155,155.983995 C339.671498,165.703732 342.630155,171.77264 346.926124,174.190721 C350.833091,176.55325 355.451237,177.448092 359.956047,176.715482 C363.134487,176.247591 366.249338,175.418434 369.24031,174.244061 C370.92302,173.574967 372.496605,172.658087 373.90907,171.52372 C374.789175,170.88085 375.417145,169.949986 375.684264,168.892279 C375.814976,168.188708 375.838915,167.469406 375.755271,166.758679 L375.755271,166.705339 Z" id="Shape"></path>
                <path d="M487.397209,110.236039 C487.85337,114.585464 487.193469,118.979525 485.48,123.002083 C483.589823,127.448542 480.893345,131.505684 477.527132,134.968027 C473.826479,138.80473 469.412082,141.879157 464.532713,144.018051 C459.11078,146.433628 453.278638,147.791383 447.348837,148.018552 C443.495891,148.259333 439.629412,147.875076 435.898837,146.880632 C436.67838,150.272464 438.200261,153.448571 440.354574,156.179575 C442.020043,158.248555 444.032378,160.01138 446.301473,161.389117 C448.174831,162.483407 450.232529,163.224627 452.372636,163.576057 L457.485194,164.393938 C461.090598,164.841101 464.745495,164.151228 467.941085,162.420357 C470.803498,160.837633 473.477459,158.934866 475.911705,156.748535 C477.961275,154.928889 479.844539,152.929591 481.53907,150.774453 C482.994729,148.871992 484.148605,147.894092 484.982946,147.858532 C486.101318,147.858532 486.75814,148.765312 486.75814,150.738893 C487.069585,155.241138 485.971216,159.728573 483.616047,163.576057 C481.168475,167.444031 477.946733,170.761679 474.154264,173.319501 C469.976127,176.15299 465.373949,178.301668 460.520775,179.684743 C455.414269,181.189682 450.115447,181.938441 444.792558,181.907244 C432.697572,181.907244 423.105607,178.422363 416.016667,171.4526 C408.927727,164.482838 404.785607,154.816441 403.59031,142.45341 C402.785556,125.586111 406.548967,111.528053 414.880543,100.279235 C423.212118,89.0304179 434.957984,83.0444825 450.11814,82.3214289 C460.497107,81.8235887 469.165969,83.6667828 476.124729,87.8510108 C483.083488,92.0352389 486.840983,99.4969149 487.397209,110.236039 Z M434.318915,138.986309 C437.076382,138.014335 439.975866,136.888268 443.017364,135.608108 C446.050475,134.339874 448.884593,132.63911 451.431783,130.558586 C453.904065,128.572073 456.007317,126.164558 457.644961,123.446583 C459.319035,120.455589 460.06095,117.031186 459.775194,113.61424 C459.683143,109.974831 458.562884,106.43612 456.544341,103.408516 C454.833617,100.673753 451.75127,99.1130296 448.538217,99.3546749 C443.804366,99.5798883 439.999535,102.371349 437.123721,107.729058 C434.247907,113.086766 433.111783,121.668583 433.715349,133.474507 C433.752211,134.460581 433.870968,135.44187 434.070388,136.408208 C434.221639,137.241626 434.304758,138.086013 434.318915,138.932969 L434.318915,138.986309 Z" id="Shape"></path>
                <path d="M533.57,152.730254 C542.079095,160.612723 548.659147,166.746825 553.310155,171.13256 C557.961163,175.518295 561.943514,179.299509 565.257209,182.476204 C568.570905,185.652899 571.967442,188.69328 575.446822,191.597347 L589.488605,203.278811 C591.358475,204.807892 591.293386,206.917787 589.293333,209.608494 C586.863095,212.668217 583.741796,215.105826 580.186589,216.720496 C576.037509,218.732638 571.499678,219.812759 566.890388,219.885337 C562.400223,220.124361 558.031924,218.375578 554.943333,215.102515 C551.443514,212.35091 548.374017,209.090781 545.836589,205.430192 C542.984444,201.435617 539.954781,197.008395 536.747597,192.148527 C533.540413,187.28866 530.072868,181.990218 526.344961,176.253202 C522.242393,169.985481 517.766722,163.970881 512.942248,158.242056 C511.522093,158.431709 510.391886,159.617043 509.551628,161.798057 C508.649948,164.283287 508.129238,166.890953 508.007209,169.532359 C507.810484,172.362156 507.911635,175.204832 508.308992,178.013422 C508.390115,180.115476 509.33439,182.090653 510.918527,183.471884 C510.084328,183.779871 509.222287,184.006143 508.344496,184.147525 C505.817259,184.381197 503.273904,184.381197 500.746667,184.147525 C497.101603,183.910458 493.426951,181.91317 489.722713,178.155663 C485.979689,174.442084 484.10797,169.236097 484.627907,163.984998 C485.1723,159.788916 486.290672,153.299214 487.983023,144.515891 C489.675374,135.732568 491.172455,126.587718 492.474264,117.081341 C493.776072,107.598671 494.634083,98.5545746 495.048295,89.9490516 C495.462506,81.3435285 494.533488,75.1560864 492.26124,71.3867251 C493.379612,71.3867251 494.924031,71.4934051 496.894496,71.3867251 C498.864961,71.280045 500.977442,71.3867251 503.214186,71.5823051 C506.575219,71.7956652 509.794238,72.1394119 512.87124,72.6135455 C515.656676,72.9903141 518.330828,73.9538036 520.717597,75.4405665 C522.83328,76.7924692 524.419353,78.8331369 525.208837,81.2190685 C525.991105,84.381459 525.703912,87.7144216 524.392248,90.6958118 C529.257772,88.7683407 534.299573,87.3212952 539.445891,86.3752703 C544.334789,85.4473106 549.319047,85.1248521 554.286512,85.41515 C561.860672,85.9011368 567.641886,88.0347375 571.630155,91.8159522 C575.618424,95.5971669 577.3877,101.589029 576.937984,109.791539 C576.664935,113.836972 575.914117,117.835733 574.70124,121.704143 C573.347857,125.908735 571.162274,129.796998 568.275039,133.136687 C564.571961,137.284537 560.21164,140.792728 555.36938,143.52021 C548.473558,147.405036 541.16045,150.494759 533.57,152.730254 Z M514.042868,141.74221 C513.877184,144.266971 514.776614,145.594544 516.741163,145.724931 C519.571814,145.649005 522.352114,144.957382 524.889302,143.69801 C528.621383,142.07865 532.153841,140.032192 535.416202,137.599468 C538.927627,135.048949 542.101077,132.061667 544.860233,128.709465 C547.367997,125.904463 548.921958,122.374506 549.298217,118.628202 C549.582248,114.135787 548.706486,111.326546 546.67093,110.200479 C544.282043,108.991843 541.659155,108.3184 538.984341,108.226898 C533.067029,107.847591 528.191163,110.354572 524.356744,115.747841 C520.522326,121.141109 517.066614,129.805899 513.989612,141.74221 L514.042868,141.74221 Z" id="Shape"></path>
                <path d="M598.932636,1.55431223e-15 C603.894567,0.767657768 608.782187,1.95729268 613.542481,3.55600125 C618.121426,5.04973033 622.391854,7.36302206 626.146357,10.3835236 C629.752608,13.2725116 632.553104,17.0450735 634.276744,21.3360075 C636.081507,26.3892453 636.51041,31.8326488 635.51938,37.106873 C635.436537,37.6639798 634.655452,40.4613676 633.176124,45.499036 C631.696796,50.5367043 629.832843,56.7300733 627.584264,64.0791425 L620.021938,88.9000312 C617.217132,98.0152478 614.566176,107.077124 612.06907,116.085661 C609.571963,125.094197 607.370723,133.515993 605.465349,141.35105 C603.571808,149.174252 602.246331,155.592835 601.488915,160.606796 C601.275891,162.00549 600.83801,165.851898 600.175271,172.14602 C599.486569,178.312157 599.986769,184.553394 601.648682,190.530547 C602.143748,191.530416 602.738506,192.477577 603.423876,193.357568 C604.066654,194.103613 604.380444,195.078543 604.293721,196.060129 C603.477132,197.648475 601.542171,198.21151 598.488837,197.749229 C593.739317,197.194011 589.279274,195.174809 585.725194,191.970727 C582.466146,188.87598 579.979073,185.057251 578.464651,180.822663 C576.829121,176.364008 575.883274,171.68126 575.659845,166.936479 C575.398613,162.118882 575.630597,157.287154 576.352171,152.516894 C578.271162,139.76025 580.830686,127.108552 584.021008,114.60992 C587.145349,102.424689 590.074419,90.1268516 592.808217,77.7164073 C595.546159,65.2685822 597.596662,52.6790043 598.950388,40.005014 C600.285214,26.7032192 600.279267,13.3006013 598.932636,1.55431223e-15 Z" id="Path"></path>
                <path d="M659.857287,181.356064 C654.832865,186.20125 648.75702,189.816009 642.105349,191.917387 C635.563374,194.229764 628.510368,194.685119 621.726124,193.233108 C615.305504,191.972477 609.510084,188.546204 605.305581,183.525224 C601.2108,178.582383 599.956331,172.537181 601.542171,165.389618 C602.547884,160.92263 604.653256,156.77857 607.666589,153.334774 C610.858854,149.625 614.688634,146.517793 618.974574,144.160291 C628.857585,138.831283 640.321002,137.228914 651.283101,139.644169 C652.467663,139.885492 653.614184,140.286213 654.691473,140.835429 C655.634749,141.342396 656.644731,141.713508 657.69155,141.93779 C659.064366,142.245977 659.963798,141.434023 660.389845,139.501929 C661.371195,136.154194 660.429142,132.537284 657.940078,130.096306 C655.215633,127.531306 651.943333,125.62198 648.371783,124.513384 C644.415062,123.208985 640.301159,122.44351 636.140698,122.237543 C632.683952,121.977144 629.21256,121.977144 625.755814,122.237543 C624.5191,122.548579 623.227006,121.996026 622.595969,120.886262 C621.702292,119.649625 621.41516,118.074432 621.814884,116.601281 C622.387224,114.037283 623.226143,111.540385 624.317907,109.151458 C625.447694,106.654275 627.114737,104.438155 629.19969,102.661756 C631.562917,100.721499 634.37837,99.4124752 637.383333,98.8568347 C641.520703,98.1774898 645.75448,98.3773977 649.80969,99.4435749 C654.063564,100.452949 658.264215,101.675378 662.395814,103.106256 C667.613536,104.883125 672.506475,107.501622 676.881395,110.858339 C681.380251,114.254038 685.062255,118.616245 687.656822,123.624383 C690.272273,128.673905 690.763411,134.908761 689.130233,142.32895 C688.301808,144.699617 687.041421,149.103132 685.34907,155.539495 C683.601063,162.147752 682.261212,168.857598 681.337132,175.630902 C680.393875,182.134686 680.025574,188.709161 680.236512,195.277809 C680.46137,201.382277 681.934781,205.459826 684.656744,207.510453 C684.428825,208.557768 684.058499,209.568805 683.556124,210.515274 C683.070905,211.416128 680.905169,211.416128 677.058915,210.515274 C675.393481,210.094211 673.79297,209.448209 672.301395,208.595033 C670.218236,207.378047 668.371926,205.793854 666.85155,203.918892 C664.826736,201.423813 663.236363,198.604706 662.147287,195.580069 C660.610498,190.996552 659.83684,186.191082 659.857287,181.356064 L659.857287,181.356064 Z M633.016357,168.038839 C632.528904,170.238784 632.863644,172.541384 633.957209,174.510761 C635.152856,176.695295 637.288604,178.204494 639.744341,178.600163 C642.874613,179.117586 646.080073,178.941583 649.135116,178.084542 C652.761592,177.29014 656.086855,175.476857 658.721163,172.857221 C658.435662,171.077273 658.544755,169.256206 659.040698,167.523219 C659.534109,165.319881 659.883968,163.086744 660.088062,160.837936 C660.259292,158.910895 660.324482,156.975874 660.283333,155.041654 C660.283333,153.263654 659.662016,152.303533 658.50814,152.072393 C655.895218,151.52987 653.186812,151.670709 650.644031,152.481334 C647.842789,153.321219 645.172067,154.547983 642.708915,156.126235 C640.317929,157.629318 638.164025,159.48101 636.318217,161.620257 C634.697259,163.475742 633.562573,165.705932 633.016357,168.109959 L633.016357,168.038839 Z" id="Shape"></path>
                <path d="M706.083333,111.196159 C709.006486,112.203693 712.349767,113.288273 716.113178,114.4499 C719.769864,115.546559 723.267215,117.11867 726.515814,119.126042 C729.622719,121.045324 732.150677,123.773934 733.829612,127.020365 C735.521963,130.291886 735.628475,134.499821 734.149147,139.644169 C740.740259,136.518784 747.684246,134.202452 754.830155,132.745527 C761.954173,131.071793 769.402121,131.410312 776.345504,133.723427 C777.138424,133.996054 778.321886,134.476114 779.895891,135.163607 C781.627188,136.005461 783.108277,137.286606 784.19186,138.879629 C785.650752,141.22278 786.339861,143.964919 786.162326,146.720611 C785.815932,151.476701 784.517971,156.114425 782.345659,160.357876 C779.162145,167.007599 776.108812,173.692881 773.185659,180.413723 C770.534703,186.340391 767.836409,192.859728 765.090775,199.97173 C762.345142,207.083733 759.865789,213.822355 757.652713,220.187597 C755.541115,225.964517 753.931543,231.913286 752.841938,237.967604 C752.220565,241.741557 751.799842,245.545915 751.58155,249.364588 C751.409903,251.576829 751.541303,253.802193 751.972093,255.97875 C752.349487,257.218895 752.349487,258.543526 751.972093,259.783671 C751.262016,261.668352 749.723514,262.195826 747.356589,261.366092 C744.417472,260.271382 741.734593,258.582852 739.474729,256.40547 C736.707837,253.773944 734.461402,250.643267 732.853256,247.177647 C730.943098,243.091961 729.816996,238.682966 729.533643,234.180462 C729.20506,228.831824 729.990958,223.473207 731.841395,218.445157 L743.69969,184.129745 C746.646512,175.619048 748.717572,169.188613 749.912868,164.838438 C750.781233,162.064535 751.375811,159.212 751.688062,156.321815 C751.688062,154.982388 751.297519,154.176361 750.516434,153.903734 C748.359442,153.536751 746.141836,153.860274 744.178992,154.828294 C741.27951,155.906948 738.220258,157.228595 735.00124,158.793236 C731.782223,160.357876 728.604626,162.011417 725.46845,163.753857 C722.332273,165.496298 720.006769,166.847579 718.491938,167.807699 C714.042118,175.500515 709.929587,183.08665 706.154341,190.566107 C703.597377,195.379615 701.292423,200.323225 699.248837,205.376852 C698.711305,207.067681 698.336801,208.806215 698.130465,210.568614 C697.837949,212.688698 698.088404,214.848464 698.858295,216.844956 C695.594278,217.449544 692.226803,217.135652 689.130233,215.938176 C686.189533,214.788215 683.526915,213.024472 681.31938,210.764194 C679.068239,208.407701 677.609544,205.404877 677.147674,202.176451 C676.605392,198.412882 677.160191,194.57254 678.745349,191.117287 C680.473204,186.956766 683.070905,181.154558 686.53845,173.710661 C690.005994,166.266765 693.361111,158.490976 696.603798,150.383293 C699.717297,142.891467 702.437066,135.241522 704.751938,127.464865 C706.740155,120.281742 707.183953,114.85884 706.083333,111.196159 Z" id="Path"></path>
                <path d="M832.938682,160.020056 C834.820388,160.63643 836.554161,161.229097 838.14,161.798057 C839.725839,162.367017 841.418192,163.119704 843.217054,164.056118 C846.974621,165.914044 850.541957,168.135244 853.868217,170.68806 C855.974781,167.013525 859.075452,161.478017 863.170233,154.081534 C867.265014,146.685051 871.265116,138.944822 875.170543,130.860846 C878.993126,122.70575 882.294986,114.84106 885.076124,107.266778 C887.857262,99.692495 888.845452,93.8310195 888.040698,89.6823515 C893.742428,92.3359559 899.165834,95.5522603 904.230465,99.2835548 C908.633732,103.08933 912.174383,107.793413 914.615349,113.08084 C915.293487,115.213011 915.62904,117.439568 915.609457,119.677222 C915.502946,121.822676 915.242583,124.282244 914.828372,127.055925 C914.281907,130.220991 913.258361,133.284495 911.792791,136.141508 C911.544264,136.651201 909.89925,139.211522 906.857752,143.82247 C903.816254,148.433419 899.934496,154.288968 895.212481,161.389117 C890.47863,168.501119 885.295064,176.205788 879.661783,184.503125 C874.028502,192.800462 868.531318,201.151137 863.170233,209.555154 C857.832816,217.85249 852.992455,225.663839 848.649147,232.989202 C844.305839,240.314564 841.021731,246.241232 838.796822,250.769208 C838.299767,251.776742 836.850025,255.220136 834.447597,261.099392 C832.042994,266.966813 830.656172,273.202347 830.346899,279.537258 C830.246024,280.562892 830.38584,281.597945 830.755194,282.559859 C831.125247,283.323615 831.201094,284.197231 830.968217,285.0135 C830.104289,286.779647 828.033231,286.856695 824.755039,285.24464 C819.794641,282.862763 815.968797,278.622134 814.103876,273.438716 C812.104518,268.343263 811.098194,262.911382 811.139302,257.43671 C807.825055,256.790233 804.548024,255.965228 801.322481,254.965289 C797.750961,253.854973 794.272597,252.463804 790.919845,250.804768 C778.801188,244.8781 771.108682,236.788197 767.842326,226.535059 C764.575969,216.281922 765.901448,205.098298 771.81876,192.984188 C774.77805,186.929576 778.678827,181.384234 783.375271,176.555462 C787.87766,171.85338 793.016674,167.807489 798.641938,164.536178 C803.881293,161.479477 809.652139,159.446231 815.648295,158.544316 C821.447965,157.684428 827.3679,158.189697 832.938682,160.020056 Z M815.275504,239.283324 C815.112122,239.564485 814.843937,239.769141 814.529922,239.852284 C815.868933,237.354746 817.363029,234.943786 819.003411,232.633602 C820.731266,229.717681 823.098192,225.699399 826.104186,220.578757 C829.11018,215.458116 833.015607,208.595033 837.820465,199.98951 C838.672558,196.338683 838.151835,193.730948 836.258295,192.166307 C834.911224,190.994454 833.447941,189.96377 831.891318,189.090366 C827.279929,186.558685 822.023347,185.451263 816.784419,185.907745 C812.468271,186.431286 808.359695,188.060168 804.855116,190.637227 C801.496877,193.083459 798.584406,196.090755 796.245426,199.52723 C794.272584,202.367198 792.493348,205.337281 790.919845,208.417233 C786.588372,217.271676 785.446331,223.921399 787.493721,228.3664 C789.294458,232.567451 792.528843,235.989724 796.618217,238.020944 C799.494896,239.552762 802.538886,240.746032 805.689457,241.576945 C807.429497,242.01123 809.224165,242.184991 811.015039,242.092565 C812.089684,242.055979 813.118477,241.647581 813.926357,240.936865 C814.46431,240.452727 814.92526,239.889119 815.293256,239.265544 L815.275504,239.283324 Z" id="Shape"></path>
            </g>
        </g>
    </g>
</svg>