<?xml version="1.0" encoding="UTF-8"?>
<svg width="1396px" height="1613px" viewBox="0 0 1396 1613" version="1.1" xmlns="http://www.w3.org/2000/svg" xmlns:xlink="http://www.w3.org/1999/xlink">
    <!-- Generator: Sketch 53.1 (72631) - https://sketchapp.com -->
    <title>Sticker - BASH Hex</title>
    <desc>Created with Sketch.</desc>
    <g id="Sticker---BASH-Hex" stroke="none" stroke-width="1" fill="none" fill-rule="evenodd">
        <g id="licensezero" fill="#3F46AD">
            <polygon id="template" points="0 400.888383 695.66305 0 1396 400.888383 1396 1212.11162 700.33695 1613 0 1212.11162"></polygon>
        </g>
        <g id="logo-white" transform="translate(251.000000, 472.000000)">
            <rect id="Rectangle" x="0" y="1.13686838e-13" width="894" height="255"></rect>
            <g id="Group" transform="translate(3.000000, 0.000000)" fill-rule="nonzero">
                <g transform="translate(72.850499, 0.123832)" fill="#969696" id="Path">
                    <path d="M813.017047,1.13897694 C808.926059,81.3305545 786.688671,143.649476 746.304885,188.087897 C705.921099,232.526317 651.222781,254.745527 582.202077,254.745527 C521.881594,254.745527 448.777755,224.099964 362.89841,162.800992 C309.220876,126.027885 264.997371,107.637409 230.23575,107.637409 C152.53053,107.637409 112.146744,156.414538 109.084392,253.976642 L0.959808197,253.976642 C3.51962041,175.314989 25.2387633,113.38051 66.1407935,68.1810501 C107.034971,22.9737446 161.992412,0.37009184 231.005264,0.37009184 C289.794571,0.37009184 354.716434,24.8881116 425.778706,73.9241511 C498.874693,123.98014 553.580864,149.008135 589.873662,149.008135 C622.593715,149.008135 649.558118,135.85863 670.774721,109.551776 C691.991324,83.2449215 703.361287,47.1073218 704.892463,1.13897694 L813.017047,1.13897694 Z"></path>
                </g>
                <g transform="translate(38.168851, 0.123832)" fill="#D9D9D9" id="Path">
                    <path d="M813.017047,1.13897694 C808.926059,81.3305545 786.688671,143.649476 746.304885,188.087897 C705.921099,232.526317 651.222781,254.745527 582.202077,254.745527 C521.881594,254.745527 448.777755,224.099964 362.89841,162.800992 C309.220876,126.027885 264.997371,107.637409 230.23575,107.637409 C152.53053,107.637409 112.146744,156.414538 109.084392,253.976642 L0.959808197,253.976642 C3.51962041,175.314989 25.2387633,113.38051 66.1407935,68.1810501 C107.034971,22.9737446 161.992412,0.37009184 231.005264,0.37009184 C289.794571,0.37009184 354.716434,24.8881116 425.778706,73.9241511 C498.874693,123.98014 553.580864,149.008135 589.873662,149.008135 C622.593715,149.008135 649.558118,135.85863 670.774721,109.551776 C691.991324,83.2449215 703.361287,47.1073218 704.892463,1.13897694 L813.017047,1.13897694 Z"></path>
                </g>
                <g transform="translate(0.979697, 0.123832)" fill="#FFFFFF" id="Path">
                    <path d="M813.017047,1.13897694 C808.926059,81.3305545 786.688671,143.649476 746.304885,188.087897 C705.921099,232.526317 651.222781,254.745527 582.202077,254.745527 C521.881594,254.745527 448.777755,224.099964 362.89841,162.800992 C309.220876,126.027885 264.997371,107.637409 230.23575,107.637409 C152.53053,107.637409 112.146744,156.414538 109.084392,253.976642 L0.959808197,253.976642 C3.51962041,175.314989 25.2387633,113.38051 66.1407935,68.1810501 C107.034971,22.9737446 161.992412,0.37009184 231.005264,0.37009184 C289.794571,0.37009184 354.716434,24.8881116 425.778706,73.9241511 C498.874693,123.98014 553.580864,149.008135 589.873662,149.008135 C622.593715,149.008135 649.558118,135.85863 670.774721,109.551776 C691.991324,83.2449215 703.361287,47.1073218 704.892463,1.13897694 L813.017047,1.13897694 Z"></path>
                </g>
            </g>
        </g>
        <path d="M236.606179,973 L236.606179,887.909091 L272.088423,887.909091 C281.644579,887.909091 288.866985,889.88954 293.755859,893.850497 C298.644733,897.811454 301.089134,903.004939 301.089134,909.431108 C301.089134,914.278433 299.607259,918.322427 296.643466,921.56321 C293.679673,924.803993 289.857268,926.909086 285.176136,927.878551 L285.176136,928.709517 C288.610813,928.848012 291.789225,929.76899 294.71147,931.472479 C297.633715,933.175967 299.98117,935.530347 301.753906,938.535689 C303.526642,941.541031 304.412997,945.093374 304.412997,949.192827 C304.412997,953.763162 303.249657,957.841779 300.92294,961.4288 C298.596224,965.01582 295.230846,967.841076 290.826705,969.904652 C286.422563,971.968228 281.076736,973 274.789062,973 L236.606179,973 Z M257.172585,956.42223 L269.886364,956.42223 C274.345903,956.42223 277.63511,955.577423 279.754084,953.887784 C281.873057,952.198145 282.932528,949.843765 282.932528,946.824574 C282.932528,943.556092 281.803811,940.959349 279.546342,939.034268 C277.288874,937.109188 274.193557,936.146662 270.260298,936.146662 L257.172585,936.146662 L257.172585,956.42223 Z M257.172585,922.892756 L268.556818,922.892756 C271.936096,922.892756 274.705955,922.061798 276.866477,920.399858 C279.026999,918.737918 280.107244,916.411237 280.107244,913.419744 C280.107244,910.594446 279.096246,908.357785 277.074219,906.709695 C275.052192,905.061604 272.323881,904.237571 268.889205,904.237571 L257.172585,904.237571 L257.172585,922.892756 Z M332.707386,973 L310.603693,973 L339.313565,887.909091 L366.693892,887.909091 L395.403764,973 L373.300071,973 L367.691051,955.134233 L338.316406,955.134233 L332.707386,973 Z M343.219105,939.512074 L362.788352,939.512074 L353.315341,909.348011 L352.650568,909.348011 L343.219105,939.512074 Z M450.579901,913.419744 C450.302911,910.372854 449.077248,907.9977 446.902876,906.294212 C444.728505,904.590723 441.633188,903.738991 437.616832,903.738991 C433.628176,903.738991 430.636729,904.493778 428.642401,906.003374 C426.648072,907.512969 425.637074,909.431096 425.609375,911.757812 C425.526278,914.278422 426.620372,916.251946 428.89169,917.678445 C431.163009,919.104943 434.223702,920.233661 438.073864,921.064631 L445.386364,922.726562 C453.779161,924.582396 460.212158,927.615391 464.685547,931.825639 C469.158936,936.035888 471.409446,941.534057 471.437145,948.320312 C471.409446,956.408421 468.417999,962.723699 462.462713,967.266335 C456.507428,971.808972 448.22555,974.080256 437.616832,974.080256 C426.925018,974.080256 418.373079,971.663554 411.96076,966.830078 C405.548441,961.996602 402.273083,954.608004 402.134588,944.664062 L421.82848,944.664062 C422.050072,948.763515 423.559645,951.858832 426.357244,953.950107 C429.154844,956.041381 432.824906,957.087003 437.367543,957.087003 C441.494694,957.087003 444.721579,956.269895 447.048295,954.635653 C449.375012,953.001412 450.552202,950.88247 450.579901,948.278764 C450.552202,945.89665 449.444258,943.992372 447.256037,942.565874 C445.067816,941.139375 441.633191,939.886014 436.95206,938.805753 L428.060724,936.728338 C420.720489,935.038699 414.92456,932.303464 410.672763,928.52255 C406.420966,924.741636 404.308949,919.624322 404.336648,913.170455 C404.308949,907.879945 405.721577,903.254281 408.574574,899.293324 C411.427571,895.332367 415.367695,892.250899 420.395064,890.048828 C425.422433,887.846757 431.176814,886.745739 437.658381,886.745739 C444.250743,886.745739 449.977426,887.860607 454.838601,890.090376 C459.699776,892.320146 463.473708,895.436237 466.160511,899.438743 C468.847315,903.441249 470.218395,908.101536 470.273793,913.419744 L450.579901,913.419744 Z M481.865767,973 L481.865767,887.909091 L502.432173,887.909091 L502.432173,922.06179 L535.961648,922.06179 L535.961648,887.909091 L556.486506,887.909091 L556.486506,973 L535.961648,973 L535.961648,938.805753 L502.432173,938.805753 L502.432173,973 L481.865767,973 Z M594.544744,973 L594.544744,887.909091 L652.629261,887.909091 L652.629261,904.611506 L615.111151,904.611506 L615.111151,922.06179 L648.931463,922.06179 L648.931463,938.805753 L615.111151,938.805753 L615.111151,973 L594.544744,973 Z M662.933239,973 L662.933239,887.909091 L722.264205,887.909091 L722.264205,904.611506 L683.499645,904.611506 L683.499645,922.06179 L719.231179,922.06179 L719.231179,938.805753 L683.499645,938.805753 L683.499645,956.297585 L722.264205,956.297585 L722.264205,973 L662.933239,973 Z M781.138139,913.419744 C780.861149,910.372854 779.635487,907.9977 777.461115,906.294212 C775.286743,904.590723 772.191426,903.738991 768.175071,903.738991 C764.186415,903.738991 761.194967,904.493778 759.200639,906.003374 C757.206311,907.512969 756.195313,909.431096 756.167614,911.757812 C756.084517,914.278422 757.178611,916.251946 759.449929,917.678445 C761.721247,919.104943 764.781941,920.233661 768.632102,921.064631 L775.944602,922.726562 C784.3374,924.582396 790.770397,927.615391 795.243786,931.825639 C799.717174,936.035888 801.967685,941.534057 801.995384,948.320312 C801.967685,956.408421 798.976237,962.723699 793.020952,967.266335 C787.065666,971.808972 778.783789,974.080256 768.175071,974.080256 C757.483256,974.080256 748.931318,971.663554 742.518999,966.830078 C736.10668,961.996602 732.831322,954.608004 732.692827,944.664062 L752.386719,944.664062 C752.608311,948.763515 754.117884,951.858832 756.915483,953.950107 C759.713082,956.041381 763.383145,957.087003 767.925781,957.087003 C772.052933,957.087003 775.279818,956.269895 777.606534,954.635653 C779.93325,953.001412 781.11044,950.88247 781.138139,948.278764 C781.11044,945.89665 780.002497,943.992372 777.814276,942.565874 C775.626054,941.139375 772.19143,939.886014 767.510298,938.805753 L758.618963,936.728338 C751.278728,935.038699 745.482798,932.303464 741.231001,928.52255 C736.979205,924.741636 734.867187,919.624322 734.894886,913.170455 C734.867187,907.879945 736.279815,903.254281 739.132812,899.293324 C741.98581,895.332367 745.925934,892.250899 750.953303,890.048828 C755.980671,887.846757 761.735053,886.745739 768.216619,886.745739 C774.808982,886.745739 780.535665,887.860607 785.396839,890.090376 C790.258014,892.320146 794.031947,895.436237 796.71875,899.438743 C799.405553,903.441249 800.776633,908.101536 800.832031,913.419744 L781.138139,913.419744 Z M809.64027,904.611506 L809.64027,887.909091 L881.560369,887.909091 L881.560369,904.611506 L855.758878,904.611506 L855.758878,973 L835.48331,973 L835.48331,904.611506 L809.64027,904.611506 Z M912.223011,887.909091 L912.223011,973 L891.656605,973 L891.656605,887.909091 L912.223011,887.909091 Z M944.42294,887.909091 L963.45206,950.231534 L964.158381,950.231534 L983.1875,887.909091 L1006.20526,887.909091 L977.495384,973 L950.115057,973 L921.405185,887.909091 L944.42294,887.909091 Z M1033.79332,973 L1011.68963,973 L1040.3995,887.909091 L1067.77983,887.909091 L1096.4897,973 L1074.38601,973 L1068.77699,955.134233 L1039.40234,955.134233 L1033.79332,973 Z M1044.30504,939.512074 L1063.87429,939.512074 L1054.40128,909.348011 L1053.73651,909.348011 L1044.30504,939.512074 Z M1105.67188,973 L1105.67188,887.909091 L1126.23828,887.909091 L1126.23828,956.297585 L1161.63743,956.297585 L1161.63743,973 L1105.67188,973 Z M363.266158,1070.45455 C363.266158,1079.81681 361.46575,1087.75245 357.864879,1094.26172 C354.264009,1100.77098 349.395982,1105.71518 343.260653,1109.09446 C337.125324,1112.47374 330.24915,1114.16335 322.631925,1114.16335 C314.987,1114.16335 308.096977,1112.46681 301.961648,1109.07369 C295.826319,1105.68056 290.972141,1100.72944 287.39897,1094.22017 C283.825799,1087.7109 282.03924,1079.78911 282.03924,1070.45455 C282.03924,1061.06458 283.825799,1053.12201 287.39897,1046.6266 C290.972141,1040.13118 295.826319,1035.19391 301.961648,1031.81463 C308.096977,1028.43535 314.987,1026.74574 322.631925,1026.74574 C330.24915,1026.74574 337.125324,1028.43535 343.260653,1031.81463 C349.395982,1035.19391 354.264009,1040.13118 357.864879,1046.6266 C361.46575,1053.12201 363.266158,1061.06458 363.266158,1070.45455 Z M342.24272,1070.45455 C342.24272,1062.11715 340.511559,1055.7534 337.049183,1051.3631 C333.586808,1046.97281 328.781103,1044.7777 322.631925,1044.7777 C316.510445,1044.7777 311.711665,1046.97281 308.23544,1051.3631 C304.759216,1055.7534 303.021129,1062.11715 303.021129,1070.45455 C303.021129,1078.79195 304.759216,1085.1557 308.23544,1089.54599 C311.711665,1093.93628 316.510445,1096.13139 322.631925,1096.13139 C328.781103,1096.13139 333.586808,1093.93628 337.049183,1089.54599 C340.511559,1085.1557 342.24272,1078.79195 342.24272,1070.45455 Z M375.232067,1113 L375.232067,1027.90909 L433.316584,1027.90909 L433.316584,1044.61151 L395.798473,1044.61151 L395.798473,1062.06179 L429.618786,1062.06179 L429.618786,1078.80575 L395.798473,1078.80575 L395.798473,1113 L375.232067,1113 Z M546.037109,1058.73793 L525.262962,1058.73793 C524.736681,1054.47228 523.026293,1051.0792 520.131747,1048.55859 C517.237201,1046.03798 513.44942,1044.7777 508.768288,1044.7777 C502.563712,1044.7777 497.695685,1047.02821 494.164062,1051.5293 C490.63244,1056.03038 488.866655,1062.33874 488.866655,1070.45455 C488.866655,1078.90274 490.646289,1085.29419 494.205611,1089.62908 C497.764933,1093.96398 502.577562,1096.13139 508.643643,1096.13139 C513.158581,1096.13139 516.877116,1094.9819 519.799361,1092.68288 C522.721606,1090.38387 524.542788,1087.18468 525.262962,1083.08523 L546.037109,1083.20987 C545.649323,1086.97694 544.555229,1090.69547 542.754794,1094.36559 C540.954359,1098.03571 538.468411,1101.35954 535.296875,1104.33718 C532.125339,1107.31482 528.28216,1109.6969 523.767223,1111.48349 C519.252286,1113.27007 514.07265,1114.16335 508.228161,1114.16335 C500.527838,1114.16335 493.637814,1112.46681 487.557884,1109.07369 C481.477953,1105.68056 476.679172,1100.72944 473.161399,1094.22017 C469.643626,1087.7109 467.884766,1079.78911 467.884766,1070.45455 C467.884766,1061.06458 469.671324,1053.12201 473.244496,1046.6266 C476.817667,1040.13118 481.65107,1035.19391 487.744851,1031.81463 C493.838631,1028.43535 500.666333,1026.74574 508.228161,1026.74574 C515.097513,1026.74574 521.246599,1027.9991 526.675604,1030.50586 C532.104608,1033.01262 536.515608,1036.64806 539.908736,1041.41229 C543.301864,1046.17652 545.344634,1051.95167 546.037109,1058.73793 Z M638.066584,1070.45455 C638.066584,1079.81681 636.266176,1087.75245 632.665305,1094.26172 C629.064435,1100.77098 624.196409,1105.71518 618.06108,1109.09446 C611.925751,1112.47374 605.049576,1114.16335 597.432351,1114.16335 C589.787426,1114.16335 582.897403,1112.46681 576.762074,1109.07369 C570.626745,1105.68056 565.772568,1100.72944 562.199396,1094.22017 C558.626225,1087.7109 556.839666,1079.78911 556.839666,1070.45455 C556.839666,1061.06458 558.626225,1053.12201 562.199396,1046.6266 C565.772568,1040.13118 570.626745,1035.19391 576.762074,1031.81463 C582.897403,1028.43535 589.787426,1026.74574 597.432351,1026.74574 C605.049576,1026.74574 611.925751,1028.43535 618.06108,1031.81463 C624.196409,1035.19391 629.064435,1040.13118 632.665305,1046.6266 C636.266176,1053.12201 638.066584,1061.06458 638.066584,1070.45455 Z M617.043146,1070.45455 C617.043146,1062.11715 615.311985,1055.7534 611.849609,1051.3631 C608.387234,1046.97281 603.581529,1044.7777 597.432351,1044.7777 C591.310871,1044.7777 586.512091,1046.97281 583.035866,1051.3631 C579.559642,1055.7534 577.821555,1062.11715 577.821555,1070.45455 C577.821555,1078.79195 579.559642,1085.1557 583.035866,1089.54599 C586.512091,1093.93628 591.310871,1096.13139 597.432351,1096.13139 C603.581529,1096.13139 608.387234,1093.93628 611.849609,1089.54599 C615.311985,1085.1557 617.043146,1078.79195 617.043146,1070.45455 Z M681.484553,1113 L650.032493,1113 L650.032493,1027.90909 L681.443004,1027.90909 C690.112792,1027.90909 697.584486,1029.60563 703.85831,1032.99876 C710.132134,1036.39188 714.972462,1041.25991 718.379439,1047.60298 C721.786416,1053.94605 723.489879,1061.54932 723.489879,1070.413 C723.489879,1079.27668 721.793341,1086.88686 718.400213,1093.24379 C715.007085,1099.60071 710.166757,1104.48258 703.879084,1107.88956 C697.59141,1111.29654 690.126641,1113 681.484553,1113 Z M670.598899,1095.46662 L680.695135,1095.46662 C687.869176,1095.46662 693.360421,1093.59004 697.169034,1089.83683 C700.977647,1086.08361 702.881925,1079.60907 702.881925,1070.413 C702.881925,1061.24463 700.963798,1054.79086 697.127486,1051.05149 C693.291174,1047.31213 687.716833,1045.44247 680.404297,1045.44247 L670.598899,1045.44247 L670.598899,1095.46662 Z M735.455788,1113 L735.455788,1027.90909 L794.786754,1027.90909 L794.786754,1044.61151 L756.022195,1044.61151 L756.022195,1062.06179 L791.753729,1062.06179 L791.753729,1078.80575 L756.022195,1078.80575 L756.022195,1096.29759 L794.786754,1096.29759 L794.786754,1113 L735.455788,1113 Z M832.6788,1113 L832.6788,1098.20881 L863.715376,1071.03622 C867.205451,1067.90623 869.906063,1065.09483 871.817294,1062.60192 C873.728525,1060.10901 874.684126,1057.2699 874.684126,1054.08452 C874.684126,1050.56674 873.555409,1047.80381 871.29794,1045.79563 C869.040472,1043.78745 866.180593,1042.78338 862.718217,1042.78338 C859.200444,1042.78338 856.354414,1043.84285 854.180043,1045.96183 C852.005671,1048.0808 850.918501,1051.06532 850.918501,1054.91548 L831.432351,1054.91548 C831.432351,1049.12639 832.734184,1044.1268 835.337891,1039.91655 C837.941597,1035.7063 841.604735,1032.45864 846.327415,1030.17347 C851.050095,1027.88831 856.541339,1026.74574 862.801314,1026.74574 C869.255181,1026.74574 874.864145,1027.82598 879.628374,1029.98651 C884.392602,1032.14703 888.083439,1035.15232 890.700994,1039.00249 C893.31855,1042.85265 894.627308,1047.33982 894.627308,1052.46413 C894.627308,1055.70492 893.969467,1058.91103 892.653764,1062.08256 C891.338062,1065.2541 888.997531,1068.77182 885.632102,1072.63583 C882.266674,1076.49984 877.509441,1081.11858 871.360263,1086.49219 L861.18093,1095.8821 L861.18093,1096.42223 L895.666016,1096.42223 L895.666016,1113 L832.6788,1113 Z M942.532493,1115.07741 C935.10916,1115.07741 928.703862,1113.31163 923.316406,1109.78001 C917.92895,1106.24838 913.788012,1101.16569 910.893466,1094.53178 C907.99892,1087.89787 906.565518,1079.91375 906.593217,1070.57919 C906.620916,1056.59119 909.833952,1045.78875 916.232422,1038.17152 C922.630891,1030.55429 931.397494,1026.74574 942.532493,1026.74574 C949.955825,1026.74574 956.361124,1028.45613 961.74858,1031.87695 C967.136035,1035.29778 971.283899,1040.2766 974.192294,1046.81357 C977.100689,1053.35053 978.541016,1061.27233 978.513317,1070.57919 C978.513317,1079.94145 977.059141,1087.94634 974.150746,1094.59411 C971.242351,1101.24187 967.101412,1106.31763 961.727805,1109.82156 C956.354199,1113.32548 949.955825,1115.07741 942.532493,1115.07741 Z M942.532493,1098.25036 C946.992032,1098.25036 950.585924,1095.986 953.314276,1091.45721 C956.042627,1086.92842 957.392933,1079.96915 957.365234,1070.57919 C957.337535,1061.38312 955.966455,1054.56234 953.251953,1050.11665 C950.537451,1045.67096 946.964333,1043.44815 942.532493,1043.44815 C938.128352,1043.44815 934.569083,1045.67096 931.854581,1050.11665 C929.140079,1054.56234 927.768999,1061.38312 927.7413,1070.57919 C927.713601,1079.96915 929.063907,1086.92842 931.792259,1091.45721 C934.52061,1095.986 938.100653,1098.25036 942.532493,1098.25036 Z M1028.20508,1027.90909 L1028.20508,1113 L1007.68022,1113 L1007.68022,1052.29794 L1006.8908,1052.29794 C1005.86594,1053.76599 1003.91319,1055.18554 1001.03249,1056.55664 C998.151797,1057.92774 994.384789,1058.61328 989.731357,1058.61328 L989.731357,1042.40945 C993.138334,1042.40945 996.199028,1041.66158 998.91353,1040.16584 C1001.62803,1038.67009 1003.77467,1036.80044 1005.35352,1034.55682 C1006.93236,1032.3132 1007.73562,1030.09731 1007.76332,1027.90909 L1028.20508,1027.90909 Z M1079.10174,1026.4549 C1083.75517,1026.4549 1088.20772,1027.20969 1092.45952,1028.71928 C1096.71131,1030.22888 1100.48525,1032.63866 1103.78143,1035.94869 C1107.07761,1039.25872 1109.6882,1043.60739 1111.61328,1048.99485 C1113.53836,1054.38231 1114.50089,1060.9538 1114.50089,1068.70952 C1114.50089,1078.15488 1113.01901,1086.27749 1110.05522,1093.07759 C1107.09143,1099.8777 1102.92971,1105.09196 1097.56996,1108.72053 C1092.2102,1112.34909 1085.9157,1114.16335 1078.68626,1114.16335 C1072.70327,1114.16335 1067.43362,1113.01386 1062.87713,1110.71484 C1058.32064,1108.41583 1054.67828,1105.29281 1051.94993,1101.3457 C1049.22158,1097.3986 1047.59429,1092.9876 1047.068,1088.11257 L1067.30202,1088.11257 C1067.9391,1090.96557 1069.28248,1093.09836 1071.33221,1094.51101 C1073.38193,1095.92366 1075.83326,1096.62997 1078.68626,1096.62997 C1083.89367,1096.62997 1087.7784,1094.37254 1090.34055,1089.8576 C1092.90271,1085.34266 1094.19762,1079.20743 1094.22532,1071.4517 L1093.72674,1071.4517 C1091.954,1075.27417 1089.10105,1078.26561 1085.16779,1080.42614 C1081.23453,1082.58666 1076.88585,1083.6669 1072.12163,1083.6669 C1067.05271,1083.6669 1062.55861,1082.49664 1058.6392,1080.15607 C1054.7198,1077.81551 1051.65218,1074.60247 1049.43626,1070.51687 C1047.22034,1066.43127 1046.12624,1061.75713 1046.15394,1056.49432 C1046.12624,1050.56673 1047.49732,1045.34555 1050.26722,1040.83061 C1053.03712,1036.31567 1056.90108,1032.7841 1061.8592,1030.2358 C1066.81732,1027.68749 1072.56478,1026.4272 1079.10174,1026.4549 Z M1079.22638,1042.24325 C1075.43162,1042.24325 1072.28783,1043.53816 1069.79492,1046.12802 C1067.30201,1048.71788 1066.06942,1051.95169 1066.09712,1055.82955 C1066.06942,1059.67971 1067.28816,1062.89967 1069.75337,1065.48952 C1072.21858,1068.07938 1075.34853,1069.37429 1079.14329,1069.37429 C1082.88265,1069.37429 1086.01259,1068.05861 1088.5332,1065.4272 C1091.05381,1062.7958 1092.32795,1059.58276 1092.35565,1055.788 C1092.32795,1051.99323 1091.07459,1048.78712 1088.59553,1046.16957 C1086.11646,1043.55201 1082.99345,1042.24325 1079.22638,1042.24325 Z" id="BASHFESTIVALOFCODE2019" fill="#FFFFFF" fill-rule="nonzero"></path>
    </g>
</svg>